<?xml version="1.0" encoding="UTF-8"?>
<svg width="50px" height="50px" viewBox="0 0 50 50" version="1.1" xmlns="http://www.w3.org/2000/svg" xmlns:xlink="http://www.w3.org/1999/xlink">
    <!-- Generator: Sketch 51.1 (57501) - http://www.bohemiancoding.com/sketch -->
    <title>cuadrito</title>
    <desc>Created with Sketch.</desc>
    <defs>
        <polygon id="path-1" points="22.808055 30.6949819 0.0792558894 30.6949819 0.0792558894 0.0139095278 22.808055 0.0139095278"></polygon>
    </defs>
    <g id="Error,-confirmacion-mail" stroke="none" stroke-width="1" fill="none" fill-rule="evenodd">
        <g id="cargador" transform="translate(-695.000000, -270.000000)">
            <g id="cuadrito" transform="translate(695.000000, 270.000000)">
                <g id="Group-5">
                    <rect id="Rectangle-6" fill="#242121" x="0" y="0" width="50" height="50"></rect>
                    <g id="Page-1-Copy-6" transform="translate(12.500000, 10.000000)">
                        <g id="Group-3" transform="translate(2.173913, 0.000000)">
                            <mask id="mask-2" fill="white">
                                <use xlink:href="#path-1"></use>
                            </mask>
                            <g id="Clip-2"></g>
                        </g>
                        <path d="M19.1001683,14.7532778 C19.7969812,12.3836202 19.2257553,9.70819952 17.3859878,7.84029506 C16.093027,6.5275599 14.3740853,5.80451591 12.5456448,5.80451591 C10.7172043,5.80451591 8.99853571,6.5275599 7.70557485,7.84029506 C5.03664148,10.5500466 5.03664148,14.9587297 7.70557485,17.6684812 L10.5063984,20.5124173 L6.47296126,24.607541 L3.6721377,21.7638822 C-0.520496115,17.5071271 -1.12560726,10.9883643 1.87045749,6.0518147 C1.93872364,5.93814597 2.00972043,5.82669517 2.08235562,5.7160761 C2.1063853,5.67975755 2.13096111,5.64343901 2.15526386,5.60712047 C2.60072393,4.94797715 3.12292564,4.31705093 3.70883586,3.74281627 C3.09161276,4.29101804 2.5432062,4.91758822 2.07852958,5.60724801 C2.51726892,4.9494517 3.0217646,4.32361424 3.59419939,3.74057383 C6.04246315,1.24667268 9.25169956,0 12.4606631,0 C15.6698995,0 18.8788631,1.24667268 21.3273997,3.74057383 C26.2242001,8.72837615 26.2242001,16.8147965 21.3273997,21.8025988 L12.4606631,30.8333333 L8.43042753,26.7284287 L12.4606631,22.6235241 L16.1776694,18.8376521 C16.8065837,18.316584 17.3705602,17.7171474 17.8540466,17.0529593 C18.1102507,16.7189199 18.333986,16.3668169 18.5217053,16.0005408 C18.7417036,15.6010702 18.9353635,15.1845083 19.1001683,14.7532778 Z" id="Combined-Shape" fill="#FFFFFF"></path>
                        <path d="M12.5001214,16.5178571 C10.3998815,16.5178571 8.69565217,14.793738 8.69565217,12.6652901 C8.69565217,12.0424317 8.84133355,11.4550106 9.10113201,10.9347726 C9.72513392,9.67305992 11.0144141,8.80952381 12.5001214,8.80952381 C13.9855859,8.80952381 15.2717096,9.66986073 15.8957116,10.9283742 C16.1586664,11.4515653 16.3043478,12.0392325 16.3043478,12.6652901 C16.3043478,14.793738 14.6001185,16.5178571 12.5001214,16.5178571 Z" id="Fill-6" fill="#FFFFFF"></path>
                    </g>
                </g>
            </g>
        </g>
    </g>
</svg>