<?xml version="1.0" encoding="UTF-8"?>
<svg width="30px" height="19px" viewBox="0 0 30 19" version="1.1" xmlns="http://www.w3.org/2000/svg" xmlns:xlink="http://www.w3.org/1999/xlink">
    <!-- Generator: Sketch 51.3 (57544) - http://www.bohemiancoding.com/sketch -->
    <title>Group 2</title>
    <desc>Created with Sketch.</desc>
    <defs></defs>
    <g id="Administra-tu-plan" stroke="none" stroke-width="1" fill="none" fill-rule="evenodd">
        <g id="26_admin_plan" transform="translate(-956.000000, -479.000000)" fill="#4F5C69" fill-rule="nonzero">
            <g id="Group-2" transform="translate(956.000000, 479.000000)">
                <g id="noun_Credit-Card_2004207">
                    <g id="Group" transform="translate(0.288367, 0.156995)">
                        <path d="M2.39038643,0.038383412 C1.09575882,0.038383412 0.0377199506,1.08540182 0.0377199506,2.36654262 L0.0377199506,16.0354986 C0.0377199506,17.3166391 1.09575882,18.3636578 2.39038643,18.3636578 L27.032879,18.3636578 C28.3275068,18.3636578 29.3855455,17.3166391 29.3855455,16.0354986 L29.3855455,2.36654262 C29.3855455,1.08540214 28.3275068,0.038383412 27.032879,0.038383412 L2.39038643,0.038383412 Z M2.39038643,1.02347079 L27.032879,1.02347079 C27.7933121,1.02347079 28.3900887,1.61403131 28.3900887,2.36654262 L28.3900887,2.67851855 L1.0331768,2.67851855 L1.0331768,2.36654262 C1.0331768,1.61403163 1.62995287,1.02347079 2.39038643,1.02347079 Z M1.0331768,6.23756473 L28.3900887,6.23756473 L28.3900887,16.0354986 C28.3900887,16.7880102 27.7933121,17.3785704 27.032879,17.3785704 L2.39038643,17.3785704 C1.62995287,17.3785704 1.0331768,16.7880102 1.0331768,16.0354986 L1.0331768,6.23756473 Z" id="Shape"></path>
                    </g>
                </g>
                <path d="M15.1798898,14.1790277 L13.9615185,13.062392 L15.1789569,11.9451146 C15.3193588,11.8167903 15.3193588,11.610402 15.1794233,11.4816499 L15.0663089,11.3777071 C14.9998395,11.315256 14.9088815,11.28125 14.8132589,11.28125 C14.8127925,11.28125 14.8127925,11.28125 14.8127925,11.28125 C14.7171699,11.28125 14.627378,11.3156837 14.560209,11.3774933 L13.3423041,12.4951984 L12.1239327,11.3787765 C11.9842305,11.2504522 11.7594009,11.2498105 11.618999,11.3781349 L11.5056513,11.4810082 C11.4373161,11.5423901 11.4,11.6258009 11.4,11.7132753 C11.4,11.8011775 11.4375493,11.8839467 11.5049516,11.9455424 L12.7237894,13.062392 L11.5061177,14.1796693 C11.3657158,14.3079937 11.3657158,14.514382 11.5056513,14.6435619 L11.6187658,14.7472907 C11.6857015,14.8097419 11.7764264,14.8437479 11.8720489,14.8437479 C11.967205,14.8437479 12.0581631,14.8088864 12.1250989,14.7475046 L13.3427705,13.6300134 L14.5606754,14.7462214 C14.6297102,14.8101697 14.7216012,14.8424646 14.8137254,14.8424646 C14.9049166,14.8424646 14.9963411,14.8105974 15.0660756,14.746863 L15.1791901,14.643348 C15.2477585,14.5823939 15.2848414,14.4989831 15.2848414,14.4112948 C15.2853078,14.3236065 15.2477585,14.2408373 15.1803562,14.1790277 L15.1798898,14.1790277 Z" id="Shape"></path>
                <path d="M20.5798898,14.1790277 L19.3615185,13.062392 L20.5789569,11.9451146 C20.7193588,11.8167903 20.7193588,11.610402 20.5794233,11.4816499 L20.4663089,11.3777071 C20.3998395,11.315256 20.3088815,11.28125 20.2132589,11.28125 C20.2127925,11.28125 20.2127925,11.28125 20.2127925,11.28125 C20.1171699,11.28125 20.027378,11.3156837 19.960209,11.3774933 L18.7423041,12.4951984 L17.5239327,11.3787765 C17.3842305,11.2504522 17.1594009,11.2498105 17.018999,11.3781349 L16.9056513,11.4810082 C16.8373161,11.5423901 16.8,11.6258009 16.8,11.7132753 C16.8,11.8011775 16.8375493,11.8839467 16.9049516,11.9455424 L18.1237894,13.062392 L16.9061177,14.1796693 C16.7657158,14.3079937 16.7657158,14.514382 16.9056513,14.6435619 L17.0187658,14.7472907 C17.0857015,14.8097419 17.1764264,14.8437479 17.2720489,14.8437479 C17.367205,14.8437479 17.4581631,14.8088864 17.5250989,14.7475046 L18.7427705,13.6300134 L19.9606754,14.7462214 C20.0297102,14.8101697 20.1216012,14.8424646 20.2137254,14.8424646 C20.3049166,14.8424646 20.3963411,14.8105974 20.4660756,14.746863 L20.5791901,14.643348 C20.6477585,14.5823939 20.6848414,14.4989831 20.6848414,14.4112948 C20.6853078,14.3236065 20.6477585,14.2408373 20.5803562,14.1790277 L20.5798898,14.1790277 Z" id="Shape-Copy"></path>
                <path d="M25.9798898,14.1790277 L24.7615185,13.062392 L25.9789569,11.9451146 C26.1193588,11.8167903 26.1193588,11.610402 25.9794233,11.4816499 L25.8663089,11.3777071 C25.7998395,11.315256 25.7088815,11.28125 25.6132589,11.28125 C25.6127925,11.28125 25.6127925,11.28125 25.6127925,11.28125 C25.5171699,11.28125 25.427378,11.3156837 25.360209,11.3774933 L24.1423041,12.4951984 L22.9239327,11.3787765 C22.7842305,11.2504522 22.5594009,11.2498105 22.418999,11.3781349 L22.3056513,11.4810082 C22.2373161,11.5423901 22.2,11.6258009 22.2,11.7132753 C22.2,11.8011775 22.2375493,11.8839467 22.3049516,11.9455424 L23.5237894,13.062392 L22.3061177,14.1796693 C22.1657158,14.3079937 22.1657158,14.514382 22.3056513,14.6435619 L22.4187658,14.7472907 C22.4857015,14.8097419 22.5764264,14.8437479 22.6720489,14.8437479 C22.767205,14.8437479 22.8581631,14.8088864 22.9250989,14.7475046 L24.1427705,13.6300134 L25.3606754,14.7462214 C25.4297102,14.8101697 25.5216012,14.8424646 25.6137254,14.8424646 C25.7049166,14.8424646 25.7963411,14.8105974 25.8660756,14.746863 L25.9791901,14.643348 C26.0477585,14.5823939 26.0848414,14.4989831 26.0848414,14.4112948 C26.0853078,14.3236065 26.0477585,14.2408373 25.9803562,14.1790277 L25.9798898,14.1790277 Z" id="Shape-Copy-2"></path>
            </g>
        </g>
    </g>
</svg>