<?xml version="1.0" encoding="UTF-8"?>
<svg width="113px" height="33px" viewBox="0 0 113 33" version="1.1" xmlns="http://www.w3.org/2000/svg" xmlns:xlink="http://www.w3.org/1999/xlink">
    <!-- Generator: Sketch 50 (54983) - http://www.bohemiancoding.com/sketch -->
    <title>logo_Brainy_site</title>
    <desc>Created with Sketch.</desc>
    <defs>
        <polygon id="path-1" points="24.7746815 32.8624057 0.263844914 32.8624057 0.263844914 0.0148917028 24.7746815 0.0148917028"></polygon>
    </defs>
    <g id="Page-1" stroke="none" stroke-width="1" fill="none" fill-rule="evenodd">
        <g id="logo_Brainy_site" transform="translate(0.000000, -1.000000)">
            <path d="M47.77272,10.9080038 L52.4719388,10.9080038 C54.5891369,10.9080038 56.1438088,11.2673752 57.1360013,11.9861288 C58.1281938,12.7048824 58.6242825,13.790809 58.6242825,15.2439413 C58.6242825,16.2361338 58.3215512,17.0622974 57.7160794,17.7224569 C57.1106076,18.3826165 56.2258509,18.8064404 55.0617825,18.9939413 L55.0617825,19.0642538 C56.4289769,19.2673798 57.4348262,19.6990161 58.0793607,20.3591757 C58.7238951,21.0193352 59.0461575,21.9392479 59.0461575,23.1189413 C59.0461575,24.6970742 58.5227253,25.9119058 57.475845,26.7634725 C56.4289648,27.6150393 54.9446047,28.0408163 53.02272,28.0408163 L47.77272,28.0408163 L47.77272,10.9080038 Z M48.9680325,18.53691 L52.74147,18.53691 C54.3508531,18.53691 55.5207633,18.2693346 56.2512357,17.7341757 C56.9817081,17.1990167 57.3469388,16.3611345 57.3469388,15.2205038 C57.3469388,14.0798731 56.9348335,13.2517564 56.1106107,12.7361288 C55.2863878,12.2205012 54.0578845,11.9626913 52.4250638,11.9626913 L48.9680325,11.9626913 L48.9680325,18.53691 Z M48.9680325,19.5915975 L48.9680325,26.9861288 L52.9992825,26.9861288 C56.1711734,26.9861288 57.757095,25.6970792 57.757095,23.1189413 C57.757095,20.767367 56.0852368,19.5915975 52.74147,19.5915975 L48.9680325,19.5915975 Z M67.5422513,15.0564413 C68.0813165,15.0564413 68.6594357,15.1111283 69.2766263,15.2205038 L69.05397,16.333785 C68.5227174,16.2009719 67.9719417,16.1345663 67.4016263,16.1345663 C66.3156834,16.1345663 65.4250673,16.5954992 64.7297513,17.5173788 C64.0344353,18.4392584 63.6867825,19.6033093 63.6867825,21.0095663 L63.6867825,28.0408163 L62.5266263,28.0408163 L62.5266263,15.302535 L63.5110013,15.302535 L63.6281888,17.59941 L63.71022,17.59941 C64.2336602,16.6619054 64.7922483,16.0037088 65.3860013,15.6248007 C65.9797543,15.2458925 66.6984971,15.0564413 67.5422513,15.0564413 Z M79.1203763,28.0408163 L78.8274075,26.0251913 L78.7336575,26.0251913 C78.0930293,26.8455079 77.4348328,27.4255802 76.7590482,27.7654257 C76.0832635,28.1052711 75.2844434,28.2751913 74.3625638,28.2751913 C73.1125575,28.2751913 72.139911,27.954882 71.444595,27.3142538 C70.7492791,26.6736256 70.4016263,25.7869157 70.4016263,24.6540975 C70.4016263,23.4119038 70.9191992,22.4470697 71.9543607,21.7595663 C72.9895221,21.0720629 74.487554,20.7087852 76.4485013,20.6697225 L78.8742825,20.59941 L78.8742825,19.75566 C78.8742825,18.5447165 78.6281913,17.6306631 78.1360013,17.0134725 C77.6438113,16.396282 76.8508505,16.0876913 75.757095,16.0876913 C74.5774017,16.0876913 73.3547576,16.415813 72.0891263,17.0720663 L71.6555325,16.0642538 C73.053977,15.4080005 74.4367757,15.0798788 75.80397,15.0798788 C77.2024145,15.0798788 78.247326,15.4431564 78.9387357,16.1697225 C79.6301454,16.8962887 79.975845,18.0290899 79.975845,19.56816 L79.975845,28.0408163 L79.1203763,28.0408163 Z M74.4328763,27.2205038 C75.7922581,27.2205038 76.864513,26.8318358 77.6496732,26.0544882 C78.4348334,25.2771405 78.8274075,24.1970732 78.8274075,22.8142538 L78.8274075,21.5603475 L76.600845,21.6540975 C74.8117736,21.7400355 73.5363957,22.0193296 72.7746732,22.4919882 C72.0129506,22.9646468 71.632095,23.7009675 71.632095,24.7009725 C71.632095,25.4978515 71.8762332,26.116986 72.3645169,26.5583944 C72.8528006,26.9998029 73.5422468,27.2205038 74.4328763,27.2205038 Z M85.2610013,28.0408163 L84.100845,28.0408163 L84.100845,15.302535 L85.2610013,15.302535 L85.2610013,28.0408163 Z M83.9367825,11.7634725 C83.9367825,11.0134688 84.1828738,10.6384725 84.6750638,10.6384725 C84.9172525,10.6384725 85.1067037,10.7361278 85.2434232,10.9314413 C85.3801426,11.1267548 85.4485013,11.4040958 85.4485013,11.7634725 C85.4485013,12.1150368 85.3801426,12.3923778 85.2434232,12.5955038 C85.1067037,12.7986298 84.9172525,12.9001913 84.6750638,12.9001913 C84.1828738,12.9001913 83.9367825,12.5212888 83.9367825,11.7634725 Z M98.4094388,28.0408163 L98.4094388,19.7790975 C98.4094388,18.4978411 98.1399102,17.5662098 97.600845,16.9841757 C97.0617799,16.4021415 96.2258507,16.1111288 95.0930325,16.1111288 C93.5695874,16.1111288 92.4543642,16.4958906 91.7473294,17.2654257 C91.0402946,18.0349608 90.6867825,19.2829952 90.6867825,21.0095663 L90.6867825,28.0408163 L89.5266263,28.0408163 L89.5266263,15.302535 L90.5110013,15.302535 L90.7336575,17.0486288 L90.80397,17.0486288 C91.6320992,15.7204972 93.1047407,15.0564413 95.2219388,15.0564413 C98.1125783,15.0564413 99.5578763,16.607207 99.5578763,19.708785 L99.5578763,28.0408163 L98.4094388,28.0408163 Z M101.550064,15.302535 L102.745376,15.302535 L105.440689,22.4509725 C106.261005,24.646296 106.780531,26.12675 106.999283,26.8923788 L107.069595,26.8923788 C107.397722,25.8845613 107.932873,24.38067 108.675064,22.38066 L111.370376,15.302535 L112.565689,15.302535 L106.858658,30.1033163 C106.397718,31.3064473 106.011003,32.1189392 105.698501,32.5408163 C105.386,32.9626934 105.020769,33.2790965 104.602798,33.4900351 C104.184827,33.7009736 103.678973,33.8064413 103.08522,33.8064413 C102.639905,33.8064413 102.143817,33.7244109 101.596939,33.5603476 L101.596939,32.5525351 C102.050066,32.6775357 102.538342,32.7400351 103.061783,32.7400351 C103.460222,32.7400351 103.811781,32.646286 104.11647,32.4587851 C104.421159,32.2712841 104.696547,31.9802714 104.942642,31.5857382 C105.188737,31.191205 105.47389,30.5662112 105.798111,29.7107382 C106.122331,28.8552651 106.331313,28.2986301 106.425064,28.0408163 L101.550064,15.302535 Z" id="Brainy" fill="#FFFFFF"></path>
            <g id="Page-1-Copy-6" transform="translate(0.000000, 0.836735)">
                <g id="Group-3" transform="translate(2.042369, 0.281255)">
                    <g id="Fill-1-Clipped">
                        <mask id="mask-2" fill="white">
                            <use xlink:href="#path-1"></use>
                        </mask>
                        <g id="path-1"></g>
                        <path d="M20.8474245,3.99982846 C18.2291072,1.34300658 14.7976353,0.0148917028 11.3658717,0.0148917028 C7.9343998,0.0148917028 4.50263614,1.34300658 1.8846107,3.99982846 C1.27248349,4.62095754 0.733006278,5.2876795 0.263844914,5.98844809 C2.13057029,3.22830207 5.26093862,1.41672495 8.80940909,1.41672495 C14.530085,1.41672495 19.16743,6.12226618 19.16743,11.9270697 C19.16743,13.7919372 18.6865979,15.5422304 17.8471842,17.0607103 C17.6464485,17.4509144 17.4071996,17.8260195 17.1332303,18.1818809 C16.6162192,18.8894588 16.0131367,19.5280553 15.3406138,20.0831635 L11.3658717,24.1163577 L7.05618108,28.4894261 L11.3658717,32.8624945 L20.8474245,23.2418032 C26.0837671,17.9281594 26.0837671,9.31347222 20.8474245,3.99982846" id="Fill-1" fill="#F7F7F7" fill-rule="nonzero" mask="url(#mask-2)"></path>
                    </g>
                </g>
                <path d="M21.2098574,12.2082653 C21.2098574,6.40346179 16.5722207,1.69792057 10.8518366,1.69792057 C7.3033661,1.69792057 4.172706,3.50949769 2.30627239,6.2696437 C2.28030512,6.30842726 2.25404609,6.34721082 2.2283706,6.38599438 C2.15076057,6.50412141 2.07490114,6.62313661 2.00195939,6.74452027 C1.99612405,6.75369806 1.99087224,6.76287585 1.98532867,6.77234969 C-1.19930832,12.0161238 -0.552752614,18.9773287 3.92703817,23.5229988 L6.91969247,26.5596627 L11.2293831,22.1865943 L8.23672878,19.1496343 C5.38499796,16.2559663 5.38499796,11.5480566 8.23672878,8.65438855 C9.61824561,7.2525553 11.4546272,6.48043679 13.4082992,6.48043679 C15.3619711,6.48043679 17.1986445,7.2525553 18.5801613,8.65438855 C20.893582,11.0018301 21.3297737,14.5435685 19.8896117,17.341906 C20.7290254,15.823426 21.2098574,14.0731328 21.2098574,12.2082653" id="Fill-4" fill="#F7F7F7" fill-rule="nonzero"></path>
                <path d="M18.1635472,14.0891495 C18.1635472,16.6497526 16.1156345,18.7239329 13.5921416,18.7239329 C11.0683569,18.7239329 9.02044417,16.6497526 9.02044417,14.0891495 C9.02044417,13.3398275 9.19550438,12.6331377 9.50769509,12.0072717 C10.2575363,10.4893838 11.8068192,9.45051733 13.5921416,9.45051733 C15.3771722,9.45051733 16.9226621,10.4855351 17.6725033,11.9995742 C17.988487,12.6289929 18.1635472,13.3359787 18.1635472,14.0891495" id="Fill-6" fill="#F7F7F7" fill-rule="nonzero"></path>
            </g>
        </g>
    </g>
</svg>