<?xml version="1.0" encoding="UTF-8"?>
<svg width="22px" height="27px" viewBox="0 0 22 27" version="1.1" xmlns="http://www.w3.org/2000/svg" xmlns:xlink="http://www.w3.org/1999/xlink">
    <!-- Generator: Sketch 43.1 (39012) - http://www.bohemiancoding.com/sketch -->
    <title>Page 1 Copy 6</title>
    <desc>Created with Sketch.</desc>
    <defs>
        <polygon id="path-1" points="19.5799902 25.9719013 0.208522593 25.9719013 0.208522593 0.0117692489 19.5799902 0.0117692489"></polygon>
    </defs>
    <g id="Page-1" stroke="none" stroke-width="1" fill="none" fill-rule="evenodd">
        <g id="Proyectos-Copy-18" transform="translate(-80.000000, -15.000000)">
            <g id="Group-4-Copy-2">
                <g id="logo-brainy" transform="translate(80.000000, 15.000000)">
                    <g id="Group-3" transform="translate(1.614130, 0.222282)">
                        <mask id="mask-2" fill="white">
                            <use xlink:href="#path-1"></use>
                        </mask>
                        <g id="Clip-2"></g>
                        <path  class="logo" d="M16.4761903,3.16115475 C14.4068751,1.06140843 11.6949054,0.0117692489 8.98270505,0.0117692489 C6.27073533,0.0117692489 3.55853502,1.06140843 1.48945039,3.16115475 C1.00567244,3.65204709 0.579311413,4.17897251 0.208522593,4.73280575 C1.68383781,2.55140003 4.15783859,1.11966972 6.96227492,1.11966972 C11.4834543,1.11966972 15.1484527,4.8385652 15.1484527,9.42623248 C15.1484527,10.9000794 14.7684403,12.2833756 14.1050327,13.4834646 C13.9463867,13.7918517 13.7573029,14.0883058 13.5407788,14.369551 C13.1321732,14.9287658 12.6555436,15.4334631 12.1240335,15.8721776 L8.98270505,19.059702 L5.57665924,22.5158367 L8.98270505,25.9719715 L16.4761903,18.3685219 C20.6145901,14.1690292 20.6145901,7.3606474 16.4761903,3.16115475" id="Fill-1" fill="#F8F8F8" mask="url(#mask-2)"></path>
                    </g>
                    <path class="logo" d="M16.7626293,9.64846773 C16.7626293,5.06080045 13.0974002,1.34190496 8.57645148,1.34190496 C5.77201514,1.34190496 3.29778377,2.77363527 1.82269915,4.95504099 C1.80217663,4.98569252 1.78142352,5.01634404 1.7611316,5.04699556 C1.69979464,5.14035402 1.63984123,5.23441442 1.58219371,5.33034666 C1.57758191,5.33760008 1.57343129,5.34485349 1.56905008,5.35234089 C-0.94784045,9.496614 -0.436852873,14.9982114 3.10362694,18.5907571 L5.46878921,20.9907012 L8.87483502,17.5345665 L6.50967275,15.1343884 C4.25588548,12.8474572 4.25588548,9.12668989 6.50967275,6.83975869 C7.60151669,5.73185822 9.05285054,5.12163553 10.5968816,5.12163553 C12.1409127,5.12163553 13.5924771,5.73185822 14.684321,6.83975869 C16.5126696,8.69499477 16.8574018,11.4941106 15.7192092,13.7056999 C16.3826168,12.5056108 16.7626293,11.1223146 16.7626293,9.64846773" id="Fill-4" fill="#F8F8F8"></path>
                    <path class="logo" d="M14.3550615,11.134973 C14.3550615,13.1586755 12.7365498,14.797947 10.7421764,14.797947 C8.74757236,14.797947 7.12906071,13.1586755 7.12906071,11.134973 C7.12906071,10.5427669 7.26741475,9.98425399 7.51414612,9.48961796 C8.10676258,8.2899969 9.33119581,7.46895725 10.7421764,7.46895725 C12.1529264,7.46895725 13.374362,8.28695515 13.9669784,9.48353445 C14.2167075,9.98097826 14.3550615,10.5397251 14.3550615,11.134973" id="Fill-6" fill="#F8F8F8"></path>
                </g>
            </g>
        </g>
    </g>
</svg>