<?xml version="1.0" encoding="UTF-8"?>
<svg width="103px" height="35px" viewBox="0 0 103 35" version="1.1" xmlns="http://www.w3.org/2000/svg" xmlns:xlink="http://www.w3.org/1999/xlink">
    <!-- Generator: Sketch 51.3 (57544) - http://www.bohemiancoding.com/sketch -->
    <title>@logo_Brainy_site</title>
    <desc>Created with Sketch.</desc>
    <defs>
        <polygon id="path-1" points="17.696201 23.5331805 0.188460653 23.5331805 0.188460653 0.010664135 17.696201 0.010664135"></polygon>
    </defs>
    <g id="logo_Brainy_site" stroke="none" stroke-width="1" fill="none" fill-rule="evenodd">
        <path d="M35.4257812,8.8671875 L40.125,8.8671875 C42.2421981,8.8671875 43.79687,9.22655891 44.7890625,9.9453125 C45.781255,10.6640661 46.2773438,11.7499927 46.2773438,13.203125 C46.2773438,14.1953175 45.9746124,15.0214811 45.3691406,15.6816406 C44.7636688,16.3418002 43.8789121,16.7656241 42.7148438,16.953125 L42.7148438,17.0234375 C44.0820381,17.2265635 45.0878874,17.6581998 45.7324219,18.3183594 C46.3769563,18.9785189 46.6992188,19.8984316 46.6992188,21.078125 C46.6992188,22.6562579 46.1757865,23.8710895 45.1289062,24.7226562 C44.082026,25.574223 42.5976659,26 40.6757812,26 L35.4257812,26 L35.4257812,8.8671875 Z M36.6210938,16.4960938 L40.3945312,16.4960938 C42.0039143,16.4960938 43.1738245,16.2285183 43.9042969,15.6933594 C44.6347693,15.1582004 45,14.3203182 45,13.1796875 C45,12.0390568 44.5878947,11.2109401 43.7636719,10.6953125 C42.939449,10.1796849 41.7109457,9.921875 40.078125,9.921875 L36.6210938,9.921875 L36.6210938,16.4960938 Z M36.6210938,17.5507812 L36.6210938,24.9453125 L40.6523438,24.9453125 C43.8242346,24.9453125 45.4101562,23.6562629 45.4101562,21.078125 C45.4101562,18.7265507 43.738298,17.5507812 40.3945312,17.5507812 L36.6210938,17.5507812 Z M54.6498579,13.015625 C55.1889231,13.015625 55.7670423,13.070312 56.3842329,13.1796875 L56.1615767,14.2929688 C55.630324,14.1601556 55.0795483,14.09375 54.5092329,14.09375 C53.42329,14.09375 52.5326739,14.5546829 51.8373579,15.4765625 C51.1420419,16.3984421 50.7943892,17.562493 50.7943892,18.96875 L50.7943892,26 L49.6342329,26 L49.6342329,13.2617188 L50.6186079,13.2617188 L50.7357954,15.5585938 L50.8178267,15.5585938 C51.3412668,14.6210891 51.8998549,13.9628925 52.4936079,13.5839844 C53.0873609,13.2050762 53.8061037,13.015625 54.6498579,13.015625 Z M65.6825283,26 L65.3895596,23.984375 L65.2958096,23.984375 C64.6551813,24.8046916 63.9969848,25.3847639 63.3212002,25.7246094 C62.6454155,26.0644548 61.8465954,26.234375 60.9247158,26.234375 C59.6747096,26.234375 58.702063,25.9140657 58.0067471,25.2734375 C57.3114311,24.6328093 56.9637783,23.7460994 56.9637783,22.6132812 C56.9637783,21.3710875 57.4813512,20.4062534 58.5165127,19.71875 C59.5516741,19.0312466 61.049706,18.6679689 63.0106533,18.6289062 L65.4364346,18.5585938 L65.4364346,17.7148438 C65.4364346,16.5039002 65.1903433,15.5898468 64.6981533,14.9726562 C64.2059633,14.3554657 63.4130025,14.046875 62.3192471,14.046875 C61.1395537,14.046875 59.9169096,14.3749967 58.6512783,15.03125 L58.2176846,14.0234375 C59.616129,13.3671842 60.9989277,13.0390625 62.3661221,13.0390625 C63.7645665,13.0390625 64.809478,13.4023401 65.5008877,14.1289062 C66.1922974,14.8554724 66.5379971,15.9882736 66.5379971,17.5273438 L66.5379971,26 L65.6825283,26 Z M60.9950283,25.1796875 C62.3544101,25.1796875 63.426665,24.7910195 64.2118252,24.0136719 C64.9969854,23.2363242 65.3895596,22.1562569 65.3895596,20.7734375 L65.3895596,19.5195312 L63.1629971,19.6132812 C61.3739256,19.6992192 60.0985477,19.9785133 59.3368252,20.4511719 C58.5751026,20.9238305 58.1942471,21.6601512 58.1942471,22.6601562 C58.1942471,23.4570352 58.4383852,24.0761697 58.9266689,24.5175781 C59.4149526,24.9589866 60.1043988,25.1796875 60.9950283,25.1796875 Z M71.2776987,26 L70.1175425,26 L70.1175425,13.2617188 L71.2776987,13.2617188 L71.2776987,26 Z M69.95348,9.72265625 C69.95348,8.9726525 70.1995712,8.59765625 70.6917612,8.59765625 C70.9339499,8.59765625 71.1234011,8.69531152 71.2601206,8.890625 C71.39684,9.08593848 71.4651987,9.36327945 71.4651987,9.72265625 C71.4651987,10.0742205 71.39684,10.3515615 71.2601206,10.5546875 C71.1234011,10.7578135 70.9339499,10.859375 70.6917612,10.859375 C70.1995712,10.859375 69.95348,10.4804725 69.95348,9.72265625 Z M83.8806816,26 L83.8806816,17.7382812 C83.8806816,16.4570248 83.611153,15.5253935 83.0720879,14.9433594 C82.5330227,14.3613252 81.6970935,14.0703125 80.5642754,14.0703125 C79.0408302,14.0703125 77.925607,14.4550743 77.2185722,15.2246094 C76.5115374,15.9941445 76.1580254,17.2421789 76.1580254,18.96875 L76.1580254,26 L74.9978691,26 L74.9978691,13.2617188 L75.9822441,13.2617188 L76.2049004,15.0078125 L76.2752129,15.0078125 C77.103342,13.6796809 78.5759835,13.015625 80.6931816,13.015625 C83.5838211,13.015625 85.0291191,14.5663907 85.0291191,17.6679688 L85.0291191,26 L83.8806816,26 Z M86.475852,13.2617188 L87.6711645,13.2617188 L90.366477,20.4101562 C91.1867936,22.6054797 91.7063197,24.0859337 91.9250708,24.8515625 L91.9953833,24.8515625 C92.3235099,23.843745 92.8586608,22.3398537 93.600852,20.3398438 L96.2961645,13.2617188 L97.491477,13.2617188 L91.7844458,28.0625 C91.3235059,29.265631 90.9367911,30.0781229 90.6242895,30.5 C90.3117879,30.9218771 89.9465572,31.2382802 89.5285864,31.4492188 C89.1106155,31.6601573 88.6047612,31.765625 88.0110083,31.765625 C87.5656935,31.765625 87.0696047,31.6835946 86.522727,31.5195312 L86.522727,30.5117188 C86.9758543,30.6367194 87.4641306,30.6992188 87.9875708,30.6992188 C88.3860102,30.6992188 88.7375692,30.6054697 89.0422583,30.4179688 C89.3469473,30.2304678 89.6223351,29.9394551 89.8684301,29.5449219 C90.1145251,29.1503887 90.3996785,28.5253949 90.7238989,27.6699219 C91.0481192,26.8144488 91.2571015,26.2578138 91.350852,26 L86.475852,13.2617188 Z" id="Brainy-Copy-7" fill="#FFFFFF"></path>
        <g id="Page-1-Copy-6" transform="translate(4.000000, 5.000000)">
            <g id="Group-3" transform="translate(1.458835, 0.201410)">
                <mask id="mask-2" fill="white">
                    <use xlink:href="#path-1"></use>
                </mask>
                <g id="Clip-2"></g>
                <path d="M14.8910175,2.86432729 C13.0207909,0.961743846 10.5697395,0.010664135 8.11847978,0.010664135 C5.66742843,0.010664135 3.21616867,0.961743846 1.3461505,2.86432729 C0.908916781,3.3091256 0.523575913,3.78657355 0.188460653,4.28840273 C1.52183592,2.31182757 3.7578133,1.01453449 6.29243506,1.01453449 C10.3786321,1.01453449 13.6910214,4.38423153 13.6910214,8.54112406 C13.6910214,9.87657906 13.3475699,11.1299859 12.7479887,12.2173885 C12.6046061,12.4968185 12.433714,12.765436 12.2380217,13.0202728 C11.868728,13.5269782 11.4379548,13.9842851 10.9575813,14.3818051 L8.11847978,17.2700259 L5.04012934,20.401635 L8.11847978,23.5332441 L14.8910175,16.6437465 C18.6312622,12.8385796 18.6312622,6.66949417 14.8910175,2.86432729" id="Fill-1" fill="#F7F7F7" mask="url(#mask-2)"></path>
            </g>
            <path d="M15.1498982,8.74249176 C15.1498982,4.58559924 11.8373005,1.2159022 7.75131183,1.2159022 C5.21669007,1.2159022 2.98050428,2.51319527 1.64733742,4.48977043 C1.62878937,4.51754382 1.61003292,4.54531721 1.59169328,4.57309061 C1.53625755,4.65768285 1.48207225,4.74291113 1.42997099,4.82983549 C1.42580289,4.83640782 1.4220516,4.84298015 1.41809191,4.84976449 C-0.856648803,8.60489686 -0.394823296,13.5899029 2.80502726,16.8451142 L4.94263748,19.0197073 L8.02098791,15.8880982 L5.8833777,13.7132931 C3.84642711,11.6411012 3.84642711,8.26970805 5.8833777,6.1975161 C6.87017544,5.19364574 8.18187658,4.640722 9.57735655,4.640722 C10.9728365,4.640722 12.2847461,5.19364574 13.2715438,6.1975161 C14.9239871,7.87854843 15.2355526,10.4148317 14.2068655,12.4187562 C14.8064467,11.3313536 15.1498982,10.0779468 15.1498982,8.74249176" id="Fill-4" fill="#F7F7F7"></path>
            <path d="M12.9739623,10.0894165 C12.9739623,11.9230965 11.5111675,13.408443 9.70867255,13.408443 C7.90596919,13.408443 6.44317441,11.9230965 6.44317441,10.0894165 C6.44317441,9.55281761 6.56821741,9.04674823 6.79121078,8.59855774 C7.32681166,7.51157922 8.43344227,6.7676339 9.70867255,6.7676339 C10.9836944,6.7676339 12.0876158,7.50882308 12.6232166,8.59304547 C12.8489193,9.04378008 12.9739623,9.55006148 12.9739623,10.0894165" id="Fill-6" fill="#F7F7F7"></path>
        </g>
    </g>
</svg>