<?xml version="1.0" encoding="UTF-8"?>
<svg width="46px" height="32px" viewBox="0 0 46 32" version="1.1" xmlns="http://www.w3.org/2000/svg" xmlns:xlink="http://www.w3.org/1999/xlink">
    <!-- Generator: Sketch 51.3 (57544) - http://www.bohemiancoding.com/sketch -->
    <title>Group 8</title>
    <desc>Created with Sketch.</desc>
    <defs>
        <rect id="path-1" x="0" y="0" width="42" height="28" rx="3"></rect>
        <filter x="-7.1%" y="-10.7%" width="114.3%" height="121.4%" filterUnits="objectBoundingBox" id="filter-2">
            <feOffset dx="0" dy="0" in="SourceAlpha" result="shadowOffsetOuter1"></feOffset>
            <feGaussianBlur stdDeviation="1" in="shadowOffsetOuter1" result="shadowBlurOuter1"></feGaussianBlur>
            <feColorMatrix values="0 0 0 0 0   0 0 0 0 0   0 0 0 0 0  0 0 0 0.199275362 0" type="matrix" in="shadowBlurOuter1"></feColorMatrix>
        </filter>
    </defs>
    <g id="Administra-tu-plan" stroke="none" stroke-width="1" fill="none" fill-rule="evenodd">
        <g id="26_admin_plan" transform="translate(-836.000000, -379.000000)">
            <g id="Group-8" transform="translate(838.000000, 381.000000)">
                <g id="Rectangle-2">
                    <use fill="black" fill-opacity="1" filter="url(#filter-2)" xlink:href="#path-1"></use>
                    <use fill="#FFFFFF" fill-rule="evenodd" xlink:href="#path-1"></use>
                </g>
                <g id="Group-2" transform="translate(5.000000, 9.000000)">
                    <g id="Group">
                        <polyline id="Fill-2" fill="#004F8B" points="11.28 9.84592593 12.8976364 0.178703704 15.4847273 0.178703704 13.866 9.84592593 11.28 9.84592593"></polyline>
                        <path d="M23.2490909,0.416666667 C22.7365455,0.220740741 21.9334545,0.0107407407 20.9303636,0.0107407407 C18.3741818,0.0107407407 16.5732727,1.32185185 16.558,3.20092593 C16.5436364,4.59 17.8436364,5.365 18.8249091,5.82740741 C19.8318182,6.30111111 20.1705455,6.60333333 20.1656364,7.02648148 C20.1592727,7.67444444 19.3614545,7.97055556 18.6178182,7.97055556 C17.5823636,7.97055556 17.0323636,7.82407407 16.1827273,7.46314815 L15.8492727,7.30944444 L15.4861818,9.47351852 C16.0905455,9.74333333 17.208,9.97722222 18.368,9.98925926 C21.0876364,9.98925926 22.8529091,8.69314815 22.8730909,6.68648148 C22.8829091,5.58685185 22.1934545,4.74981481 20.7010909,4.06 C19.7967273,3.61277778 19.2429091,3.31425926 19.2487273,2.86148148 C19.2487273,2.45962963 19.7174545,2.03 20.7303636,2.03 C21.5763636,2.01666667 22.1890909,2.20444444 22.6665455,2.40037037 L22.8983636,2.51185185 L23.2490909,0.416666667" id="Fill-3" fill="#004F8B"></path>
                        <path d="M29.8830909,0.187962963 L27.884,0.187962963 C27.2647273,0.187962963 26.8012727,0.36 26.5292727,0.98962963 L22.6870909,9.84907407 L25.4038182,9.84907407 C25.4038182,9.84907407 25.848,8.65777778 25.9485455,8.3962963 C26.2454545,8.3962963 28.8843636,8.40037037 29.2616364,8.40037037 C29.3390909,8.7387037 29.5765455,9.84907407 29.5765455,9.84907407 L31.9770909,9.84907407 L29.8830909,0.187962963 M26.6930909,6.41888889 C26.9069091,5.86185185 27.7238182,3.71648148 27.7238182,3.71648148 C27.7083636,3.74222222 27.9361818,3.15685185 28.0667273,2.79388889 L28.2416364,3.62740741 C28.2416364,3.62740741 28.7370909,5.935 28.8405455,6.41888889 L26.6930909,6.41888889" id="Fill-4" fill="#004F8B"></path>
                        <path d="M9.11018182,0.185740741 L6.57727273,6.77814815 L6.30745455,5.43833333 C5.836,3.89388889 4.36690909,2.22074074 2.72436364,1.38314815 L5.04036364,9.83759259 L7.77763636,9.83444444 L11.8505455,0.185740741 L9.11018182,0.185740741" id="Fill-5" fill="#004F8B"></path>
                        <path d="M4.22763636,0.179814815 L0.056,0.179814815 L0.0229090909,0.380925926 C3.26854545,1.18111111 5.416,3.11481481 6.30745455,5.43833333 L5.40036364,0.995925926 C5.24363636,0.383703704 4.78945455,0.201111111 4.22763636,0.179814815" id="Fill-6" fill="#ED9F2D"></path>
                    </g>
                </g>
            </g>
        </g>
    </g>
</svg>