<?xml version="1.0" encoding="UTF-8"?>
<svg width="46px" height="32px" viewBox="0 0 46 32" version="1.1" xmlns="http://www.w3.org/2000/svg" xmlns:xlink="http://www.w3.org/1999/xlink">
    <!-- Generator: Sketch 51.3 (57544) - http://www.bohemiancoding.com/sketch -->
    <title>Group 9</title>
    <desc>Created with Sketch.</desc>
    <defs>
        <rect id="path-1" x="0" y="0" width="42" height="28" rx="3"></rect>
        <filter x="-7.1%" y="-10.7%" width="114.3%" height="121.4%" filterUnits="objectBoundingBox" id="filter-2">
            <feOffset dx="0" dy="0" in="SourceAlpha" result="shadowOffsetOuter1"></feOffset>
            <feGaussianBlur stdDeviation="1" in="shadowOffsetOuter1" result="shadowBlurOuter1"></feGaussianBlur>
            <feColorMatrix values="0 0 0 0 0   0 0 0 0 0   0 0 0 0 0  0 0 0 0.199275362 0" type="matrix" in="shadowBlurOuter1"></feColorMatrix>
        </filter>
    </defs>
    <g id="Administra-tu-plan" stroke="none" stroke-width="1" fill="none" fill-rule="evenodd">
        <g id="26_admin_plan" transform="translate(-884.000000, -379.000000)">
            <g id="Group-9" transform="translate(886.000000, 381.000000)">
                <g id="Rectangle-2-Copy">
                    <use fill="black" fill-opacity="1" filter="url(#filter-2)" xlink:href="#path-1"></use>
                    <use fill="#FFFFFF" fill-rule="evenodd" xlink:href="#path-1"></use>
                </g>
                <g id="mc_vrt_pos" transform="translate(8.000000, 4.000000)" fill-rule="nonzero">
                    <path d="M4.56196581,18.8454945 L4.56196581,17.5927473 C4.57708122,17.3796122 4.49760937,17.1704272 4.34382503,17.0185593 C4.19004068,16.8666914 3.97681543,16.7868269 3.75854701,16.7993407 C3.47090473,16.7809144 3.1957969,16.9169243 3.04059829,17.1542857 C2.89910169,16.9240014 2.64001674,16.7878061 2.36538462,16.7993407 C2.1262644,16.7875287 1.89862426,16.900336 1.76709402,17.0958242 L1.76709402,16.8494505 L1.32264957,16.8494505 L1.32264957,18.8454945 L1.77136752,18.8454945 L1.77136752,17.7472527 C1.75204239,17.6090518 1.7968542,17.469635 1.8935742,17.367048 C1.9902942,17.2644611 2.12882675,17.2094119 2.27136752,17.2169231 C2.56623932,17.2169231 2.71581197,17.4048352 2.71581197,17.7430769 L2.71581197,18.8538462 L3.16452991,18.8538462 L3.16452991,17.7472527 C3.14599777,17.609209 3.19108359,17.4702439 3.28762427,17.3678471 C3.38416494,17.2654504 3.52221434,17.2101713 3.66452991,17.2169231 C3.96794872,17.2169231 4.11324786,17.4048352 4.11324786,17.7430769 L4.11324786,18.8538462 L4.56196581,18.8454945 Z M11.2008547,16.8494505 L10.4700855,16.8494505 L10.4700855,16.243956 L10.0213675,16.243956 L10.0213675,16.8494505 L9.61538462,16.8494505 L9.61538462,17.2461538 L10.0299145,17.2461538 L10.0299145,18.1648352 C10.0299145,18.6283516 10.2136752,18.903956 10.7393162,18.903956 C10.9356963,18.9046006 11.1282709,18.8510437 11.2948718,18.7494505 L11.1666667,18.3778022 C11.0474793,18.4472691 10.9122074,18.486061 10.7735043,18.4905495 C10.5598291,18.4905495 10.4786325,18.3569231 10.4786325,18.1564835 L10.4786325,17.2461538 L11.2051282,17.2461538 L11.2008547,16.8494505 Z M14.991453,16.7993407 C14.7707088,16.792997 14.5640989,16.9051567 14.4529915,17.0916484 L14.4529915,16.8494505 L14.0128205,16.8494505 L14.0128205,18.8454945 L14.457265,18.8454945 L14.457265,17.7263736 C14.457265,17.3964835 14.6025641,17.2127473 14.8846154,17.2127473 C14.9796761,17.2114767 15.074063,17.2285037 15.1623932,17.2628571 L15.2991453,16.8452747 C15.1976436,16.8097936 15.0907062,16.7914367 14.982906,16.790989 L14.991453,16.7993407 Z M9.26068376,17.0081319 C9.00910791,16.8619732 8.71986109,16.7895026 8.42735043,16.7993407 C7.91025641,16.7993407 7.57264957,17.0415385 7.57264957,17.4382418 C7.57264957,17.763956 7.82051282,17.9643956 8.27777778,18.027033 L8.49145299,18.0562637 C8.73504274,18.0896703 8.85042735,18.1523077 8.85042735,18.2650549 C8.85042735,18.4195604 8.68803419,18.5072527 8.38461538,18.5072527 C8.14055608,18.5141558 7.90121864,18.4406128 7.70512821,18.2984615 L7.49145299,18.6367033 C7.75034484,18.8133387 8.06043199,18.9040922 8.37606838,18.8956044 C8.96581197,18.8956044 9.30769231,18.6241758 9.30769231,18.2441758 C9.30769231,17.8641758 9.03846154,17.7096703 8.59401709,17.647033 L8.38034188,17.6178022 C8.18803419,17.5927473 8.03418803,17.5551648 8.03418803,17.4215385 C8.03418803,17.2879121 8.17948718,17.1876923 8.42307692,17.1876923 C8.64822128,17.1902479 8.86893074,17.2491963 9.06410256,17.3589011 L9.26068376,17.0081319 Z M21.1645299,16.7993407 C20.9437858,16.792997 20.7371759,16.9051567 20.6260684,17.0916484 L20.6260684,16.8494505 L20.1858974,16.8494505 L20.1858974,18.8454945 L20.6303419,18.8454945 L20.6303419,17.7263736 C20.6303419,17.3964835 20.775641,17.2127473 21.0576923,17.2127473 C21.152753,17.2114767 21.24714,17.2285037 21.3354701,17.2628571 L21.4722222,16.8452747 C21.3707205,16.8097936 21.2637831,16.7914367 21.1559829,16.790989 L21.1645299,16.7993407 Z M15.4380342,17.8432967 C15.4273457,18.126926 15.5394668,18.4018263 15.7468769,18.6005216 C15.9542869,18.7992169 16.2377824,18.9033108 16.5277778,18.8872527 C16.7946322,18.9005193 17.0568876,18.8155956 17.2628205,18.6492308 L17.0491453,18.2984615 C16.8955066,18.4129441 16.7081587,18.4759187 16.5149573,18.478022 C16.174295,18.4510886 15.9118779,18.1730844 15.9118779,17.8391209 C15.9118779,17.5051574 16.174295,17.2271532 16.5149573,17.2002198 C16.7081587,17.2023231 16.8955066,17.2652977 17.0491453,17.3797802 L17.2628205,17.029011 C17.0568876,16.8626462 16.7946322,16.7777224 16.5277778,16.790989 C16.2377824,16.774931 15.9542869,16.8790249 15.7468769,17.0777202 C15.5394668,17.2764155 15.4273457,17.5513158 15.4380342,17.8349451 L15.4380342,17.8432967 Z M19.6004274,17.8432967 L19.6004274,16.8494505 L19.1559829,16.8494505 L19.1559829,17.0916484 C19.002864,16.8991324 18.7643112,16.7903524 18.5149573,16.7993407 C17.9249095,16.7993407 17.4465812,17.2667357 17.4465812,17.8432967 C17.4465812,18.4198577 17.9249095,18.8872527 18.5149573,18.8872527 C18.7643112,18.8962411 19.002864,18.787461 19.1559829,18.5949451 L19.1559829,18.8371429 L19.6004274,18.8371429 L19.6004274,17.8432967 Z M17.9465812,17.8432967 C17.9663451,17.5156341 18.2505218,17.2635062 18.5861946,17.2758173 C18.9218673,17.2881285 19.1859022,17.5603628 19.1804735,17.8885511 C19.1750448,18.2167395 18.9021439,18.4804934 18.5662393,18.4821978 C18.3952007,18.4843125 18.2310308,18.4165284 18.113368,18.2952116 C17.9957052,18.1738948 17.9352435,18.0100717 17.9465812,17.8432967 Z M12.5833333,16.7993407 C11.9932855,16.8074125 11.5216539,17.2813511 11.5299145,17.8579121 C11.5381752,18.4344731 12.0232001,18.8953246 12.6132479,18.8872527 C12.9206708,18.9026717 13.2229926,18.8059375 13.4615385,18.6158242 L13.2478632,18.2942857 C13.0791372,18.4265087 12.8701072,18.4999807 12.6538462,18.5030769 C12.3483689,18.5287478 12.0774744,18.312173 12.042735,18.0145055 L13.5598291,18.0145055 C13.5598291,17.9602198 13.5598291,17.9059341 13.5598291,17.8474725 C13.5598291,17.2210989 13.1623932,16.8035165 12.5897436,16.8035165 L12.5833333,16.7993407 Z M12.5833333,17.1876923 C12.7176502,17.1848942 12.8476004,17.2343634 12.944581,17.3252114 C13.0415615,17.4160593 13.0976235,17.5408399 13.1004274,17.6720879 L12.0320513,17.6720879 C12.0481471,17.3933148 12.2892047,17.1781688 12.5747863,17.1876923 L12.5833333,17.1876923 Z M23.7179487,17.8474725 L23.7179487,16.0476923 L23.2905983,16.0476923 L23.2905983,17.0916484 C23.1374793,16.8991324 22.8989266,16.7903524 22.6495726,16.7993407 C22.0595248,16.7993407 21.5811966,17.2667357 21.5811966,17.8432967 C21.5811966,18.4198577 22.0595248,18.8872527 22.6495726,18.8872527 C22.8989266,18.8962411 23.1374793,18.787461 23.2905983,18.5949451 L23.2905983,18.8371429 L23.7179487,18.8371429 L23.7179487,17.8474725 Z M24.4594017,18.5552747 C24.4871822,18.5549421 24.5147625,18.5599066 24.5405983,18.5698901 C24.5651373,18.5796749 24.5875993,18.5938352 24.6068376,18.6116484 C24.6256131,18.6296506 24.6408254,18.6508857 24.6517094,18.6742857 C24.6735814,18.7235703 24.6735814,18.7795066 24.6517094,18.8287912 C24.6408254,18.8521912 24.6256131,18.8734263 24.6068376,18.8914286 C24.5875993,18.9092417 24.5651373,18.923402 24.5405983,18.9331868 C24.5150176,18.9442163 24.487362,18.9499054 24.4594017,18.9498901 C24.37672,18.9492811 24.301819,18.9021149 24.267094,18.8287912 C24.2454752,18.7794556 24.2454752,18.7236214 24.267094,18.6742857 C24.2779781,18.6508857 24.2931903,18.6296506 24.3119658,18.6116484 C24.3312041,18.5938352 24.3536661,18.5796749 24.3782051,18.5698901 C24.4060363,18.5590723 24.4358841,18.5540928 24.465812,18.5552747 L24.4594017,18.5552747 Z M24.4594017,18.9081319 C24.4807285,18.9082585 24.501843,18.9039898 24.5213675,18.8956044 C24.5397514,18.8875842 24.556424,18.876251 24.5705128,18.8621978 C24.6259182,18.8031293 24.6259182,18.7124751 24.5705128,18.6534066 C24.5564576,18.6393147 24.5397769,18.6279759 24.5213675,18.62 C24.5018237,18.6116737 24.4807222,18.6074077 24.4594017,18.6074725 C24.4380996,18.6075825 24.4170338,18.6118414 24.3974359,18.62 C24.3782382,18.6276919 24.3608039,18.6390491 24.3461538,18.6534066 C24.2907485,18.7124751 24.2907485,18.8031293 24.3461538,18.8621978 C24.3608399,18.8765124 24.3782648,18.8878636 24.3974359,18.8956044 C24.4189935,18.9046885 24.4423508,18.9089679 24.465812,18.9081319 L24.4594017,18.9081319 Z M24.4722222,18.6596703 C24.4921691,18.6587251 24.511825,18.6646348 24.5277778,18.6763736 C24.5410475,18.6871047 24.5482076,18.7034296 24.5470085,18.7202198 C24.5476288,18.7342412 24.5422031,18.7478742 24.5320513,18.7578022 C24.5196663,18.7687942 24.5038668,18.7754106 24.4871795,18.7765934 L24.5491453,18.8454945 L24.5,18.8454945 L24.4423077,18.7765934 L24.4230769,18.7765934 L24.4230769,18.8454945 L24.3824786,18.8454945 L24.3824786,18.6617582 L24.4722222,18.6596703 Z M24.4252137,18.6951648 L24.4252137,18.7452747 L24.4722222,18.7452747 C24.4805873,18.7477117 24.4894982,18.7477117 24.4978632,18.7452747 C24.5009109,18.7393649 24.5009109,18.7323933 24.4978632,18.7264835 C24.5009109,18.7205737 24.5009109,18.7136021 24.4978632,18.7076923 C24.4894982,18.7052553 24.4805873,18.7052553 24.4722222,18.7076923 L24.4252137,18.6951648 Z M22.0747863,17.8474725 C22.0945502,17.5198099 22.3787269,17.267682 22.7143997,17.2799932 C23.0500725,17.2923044 23.3141073,17.5645386 23.3086786,17.892727 C23.3032499,18.2209153 23.0303491,18.4846693 22.6944444,18.4863736 C22.5234058,18.4884883 22.359236,18.4207042 22.2415731,18.2993874 C22.1239103,18.1780707 22.0634486,18.0142475 22.0747863,17.8474725 Z M7.06837607,17.8474725 L7.06837607,16.8494505 L6.62393162,16.8494505 L6.62393162,17.0916484 C6.47081268,16.8991324 6.23225989,16.7903524 5.98290598,16.7993407 C5.39285817,16.7993407 4.91452991,17.2667357 4.91452991,17.8432967 C4.91452991,18.4198577 5.39285817,18.8872527 5.98290598,18.8872527 C6.23225989,18.8962411 6.47081268,18.787461 6.62393162,18.5949451 L6.62393162,18.8371429 L7.06837607,18.8371429 L7.06837607,17.8474725 Z M5.41452991,17.8474725 C5.4342938,17.5198099 5.71847049,17.267682 6.05414327,17.2799932 C6.38981606,17.2923044 6.65385091,17.5645386 6.64842221,17.892727 C6.64299351,18.2209153 6.37009265,18.4846693 6.03418803,18.4863736 C5.86241229,18.4896688 5.69709955,18.4224015 5.57848903,18.3009452 C5.45987852,18.179489 5.39884921,18.0149839 5.41025641,17.8474725 L5.41452991,17.8474725 Z" id="Shape" fill="#231F20"></path>
                    <g id="_Group_">
                        <rect id="Rectangle-path" fill="#FF5F00" x="9.11324786" y="1.63901099" width="6.73076923" height="11.8196703"></rect>
                        <path d="M9.54059829,7.54989011 C9.53808176,5.24305882 10.6215478,3.06328946 12.4786325,1.63901099 C9.32474153,-0.782956221 4.79562763,-0.430175753 2.07423032,2.44942776 C-0.647166993,5.32903128 -0.647166993,9.76866103 2.07423032,12.6482645 C4.79562763,15.5278681 9.32474153,15.8806485 12.4786325,13.4586813 C10.6221386,12.034855 9.53873875,9.85598871 9.54059829,7.54989011 Z" id="_Path_" fill="#EB001B"></path>
                        <path d="M24.9252137,7.54989011 C24.925145,10.4277388 23.243466,13.052927 20.5943922,14.3105273 C17.9453183,15.5681276 14.7939294,15.2373517 12.4786325,13.4586813 C14.3343163,12.0336462 15.4177977,9.8550696 15.4177977,7.54884615 C15.4177977,5.24262271 14.3343163,3.0640461 12.4786325,1.63901099 C14.7939294,-0.139659359 17.9453183,-0.470435286 20.5943922,0.787165013 C23.243466,2.04476531 24.925145,4.66995355 24.9252137,7.5478022 L24.9252137,7.54989011 Z" id="Shape" fill="#F79E1B"></path>
                        <path d="M24.1901709,12.4100803 L24.1901709,11.9987328 L24.2905983,11.9987328 L24.2905983,11.9136264 L24.0363248,11.9136264 L24.0363248,11.9987328 L24.1452991,11.9987328 L24.1452991,12.4100803 L24.1901709,12.4100803 Z M24.6837607,12.4100803 L24.6837607,11.9136264 L24.6068376,11.9136264 L24.517094,12.2682363 L24.4273504,11.9136264 L24.3589744,11.9136264 L24.3589744,12.4100803 L24.4145299,12.4100803 L24.4145299,12.0377398 L24.4978632,12.3604349 L24.5555556,12.3604349 L24.6388889,12.0377398 L24.6388889,12.4136264 L24.6837607,12.4100803 Z" id="Shape" fill="#F79E1B"></path>
                    </g>
                </g>
            </g>
        </g>
    </g>
</svg>