<?xml version="1.0" encoding="UTF-8"?>
<svg width="163px" height="28px" viewBox="0 0 163 28" version="1.1" xmlns="http://www.w3.org/2000/svg" xmlns:xlink="http://www.w3.org/1999/xlink">
    <!-- Generator: Sketch 51.3 (57544) - http://www.bohemiancoding.com/sketch -->
    <title>Page 1 Copy 4</title>
    <desc>Created with Sketch.</desc>
    <defs>
        <polygon id="path-1" points="23.9887979 0.220829441 0 0.220829441 0 27.7423921 23.9887979 27.7423921 23.9887979 0.220829441"></polygon>
        <polygon id="path-3" points="0.111073405 0.220829441 24.237818 0.220829441 24.237818 27.7423921 0.111073405 27.7423921"></polygon>
    </defs>
    <g id="facturacion" stroke="none" stroke-width="1" fill="none" fill-rule="evenodd">
        <g id="11_facturacion" transform="translate(-480.000000, -212.000000)">
            <g id="Page-1-Copy-4" transform="translate(480.000000, 212.000000)">
                <g id="Group-3">
                    <mask id="mask-2" fill="white">
                        <use xlink:href="#path-1"></use>
                    </mask>
                    <g id="Clip-2"></g>
                    <path d="M22.6538086,13.9815738 C24.3724365,9.83984375 26.6522543,6.63062919 24.718689,3.62731934 C22.1947169,1.76857907 18.2758338,0.220607502 14.8054718,0.220607502 C6.62863026,0.220607502 -7.95954594e-05,6.38163793 -7.95954594e-05,13.9815738 C-7.95954594e-05,21.5815096 6.62863026,27.74254 14.8054718,27.74254 C18.2758338,27.74254 21.5894313,26.487887 24.1134033,24.6295166 C22.778414,21.029026 20.5537109,18.3559941 20.5537109,13.9815738 L22.6538086,13.9815738 Z" id="Fill-1" fill="#8E969E" mask="url(#mask-2)"></path>
                </g>
                <path d="M19,14 C19,18.4597346 21.1507858,22.4303541 24.5,25 C27.8492142,22.4303541 30,18.4597346 30,14 C30,9.54026535 27.8492142,5.56964586 24.5,3 C21.1507858,5.56964586 19,9.54026535 19,14" id="Fill-4" fill="#BFC1C2"></path>
                <path d="M68.6333827,10.2845737 C68.1483733,10.0952532 67.6176005,10 67.0406558,10 C66.7354308,10 66.4179478,10.0252954 66.089024,10.0762816 C65.7601001,10.1272677 65.4377139,10.2173827 65.1222739,10.3458361 C64.8068339,10.4746848 64.5065121,10.6529386 64.2213085,10.8798071 C63.9365136,11.1074661 63.6884928,11.3936208 63.4784718,11.7394569 C63.1389244,11.1971859 62.6792482,10.771511 62.0990347,10.4628276 C61.5192298,10.1545393 60.8556617,10 60.1095562,10 C59.8582665,10 59.5988048,10.0221335 59.3307626,10.0660053 C59.0627203,10.1102723 58.7963124,10.1865539 58.5319475,10.29485 C58.267174,10.4035414 58.01425,10.5509664 57.7735839,10.7375203 C57.5325093,10.9240741 57.3139078,11.159638 57.1169621,11.4446069 L57.1169621,10.2541402 L55,10.2541402 L55,20 L57.1373921,20 L57.1373921,14.5982372 C57.1373921,14.1844196 57.2052199,13.8168452 57.3408754,13.4943283 C57.476531,13.1722066 57.6583584,12.9030473 57.8855406,12.6856646 C58.1127228,12.4686771 58.3791307,12.3042567 58.6843557,12.1924035 C58.9899893,12.0801549 59.3156443,12.0244259 59.6617294,12.0244259 C60.3808673,12.0244259 60.9390163,12.2449706 61.3357679,12.6856646 C61.7329281,13.1263586 61.9315082,13.7571637 61.9315082,14.5776847 L61.9315082,20 L64.0684918,20 L64.0684918,14.5982372 C64.0684918,14.1844196 64.1363195,13.8168452 64.2723837,13.4943283 C64.4080392,13.1722066 64.5894581,12.9030473 64.8170489,12.6856646 C65.0442311,12.4686771 65.3106389,12.3042567 65.6158639,12.1924035 C65.9210889,12.0801549 66.246744,12.0244259 66.5928291,12.0244259 C67.3119669,12.0244259 67.8701159,12.2449706 68.2672762,12.6856646 C68.6640278,13.1263586 68.8626079,13.7571637 68.8626079,14.5776847 L68.8626079,20 L71,20 L71,13.8757361 C71,13.3061934 70.9035702,12.7840797 70.7098933,12.3093949 C70.516625,11.8347101 70.2432709,11.4260306 69.8906481,11.0833564 C69.5376168,10.7410774 69.1188008,10.4746848 68.6333827,10.2845737 Z" id="Fill-6" fill="#1D1D1B"></path>
                <path d="M80.0253388,16.2102991 C79.8980554,16.5807123 79.7187979,16.901403 79.4882734,17.1727567 C79.257749,17.4437249 78.9816146,17.6572618 78.6602239,17.8125964 C78.3384797,17.9679309 77.9806718,18.0454055 77.5864467,18.0454055 C77.1738362,18.0454055 76.8054213,17.9644619 76.4808486,17.8025748 C76.1562758,17.6406876 75.8815557,17.4225254 75.6573954,17.1480882 C75.4328816,16.8732655 75.2596346,16.551033 75.1387154,16.1806198 C75.017089,15.8102066 74.9566293,15.4166667 74.9566293,15 C74.9566293,14.5833333 75.017089,14.1897934 75.1387154,13.8193802 C75.2596346,13.448967 75.4328816,13.1267345 75.6573954,12.8522973 C75.8815557,12.57786 76.1562758,12.3596978 76.4808486,12.1974252 C76.8054213,12.0351526 77.1738362,11.9542091 77.5864467,11.9542091 C77.9806718,11.9542091 78.3384797,12.0320691 78.6602239,12.1874036 C78.9816146,12.3431237 79.257749,12.5562751 79.4882734,12.8272433 C79.7187979,13.098597 79.8980554,13.4192877 80.0253388,13.7897009 C80.1526223,14.1601141 80.216264,14.5636756 80.216264,15 C80.216264,15.4363244 80.1526223,15.8398859 80.0253388,16.2102991 Z M80.0981732,11.398782 C79.7944608,10.9755628 79.4186211,10.6367561 78.9695934,10.3819766 C78.5205657,10.1275825 77.9838539,10 77.3587507,10 C76.7460224,10 76.1757219,10.123728 75.6482027,10.371955 C75.12033,10.6201819 74.6592811,10.9659266 74.265056,11.4088036 C73.8704773,11.8516805 73.5611078,12.3793555 73.336594,12.9910577 C73.1120801,13.6027598 73,14.2726642 73,15 C73,15.7277212 73.1120801,16.3972402 73.336594,17.0089423 C73.5611078,17.6206445 73.8704773,18.1483195 74.265056,18.5911964 C74.6592811,19.0344588 75.12033,19.3798181 75.6482027,19.628045 C76.1757219,19.8758865 76.7460224,20 77.3587507,20 C77.9838539,20 78.5205657,19.8743447 78.9695934,19.6230342 C79.4186211,19.3717237 79.7944608,19.0344588 80.0981732,18.6112396 L80.0981732,19.751773 L82,19.751773 L82,10.2478415 L80.0981732,10.2478415 L80.0981732,11.398782 Z" id="Fill-8" fill="#1D1D1B"></path>
                <path d="M92.0649511,14.9851311 C91.4411724,14.5313405 90.5734141,14.2281698 89.4612632,14.0756189 L88.4097977,13.9265439 C88.1757259,13.8933302 87.9561029,13.8554822 87.7509289,13.8122272 C87.545342,13.7693585 87.36824,13.7114278 87.219623,13.6384351 C87.0710059,13.5654424 86.9521123,13.4727533 86.8637677,13.3599815 C86.7754231,13.2472097 86.730838,13.108176 86.730838,12.9424941 C86.730838,12.6045649 86.8988579,12.331132 87.2357231,12.1221952 C87.5717628,11.9136446 88.0448603,11.8093693 88.6537773,11.8093693 C88.9728912,11.8093693 89.2862254,11.8360175 89.5946058,11.8885413 C89.9025733,11.9418376 90.1948534,12.0082648 90.4710334,12.087823 C90.7472134,12.1669949 90.9986239,12.2550496 91.2256777,12.3512146 C91.4519059,12.4469934 91.6434567,12.5385239 91.7990918,12.6242614 L92.7556075,11.0041324 C92.2243016,10.6858997 91.6042383,10.4391148 90.8958305,10.2633917 C90.1874226,10.0880547 89.4331911,10 88.6331361,10 C87.9808724,10 87.3963121,10.0714479 86.8794551,10.2139574 C86.362598,10.356467 85.921288,10.5584521 85.5567635,10.8202989 C85.1918261,11.0821458 84.9119306,11.4019233 84.7170772,11.7792454 C84.5222238,12.1573398 84.4252099,12.5813927 84.4252099,13.0517901 C84.4252099,13.8207237 84.7170772,14.441741 85.3016375,14.9156143 C85.8861979,15.3894875 86.7448741,15.6992237 87.878079,15.8452091 L88.9411036,15.9742015 C89.5500206,16.0537597 89.9962846,16.1815935 90.2798954,16.3569304 C90.5626806,16.5326536 90.7046924,16.7562662 90.7046924,17.0277681 C90.7046924,17.3857799 90.5094262,17.668868 90.1201321,17.8778048 C89.730838,18.0863554 89.1532957,18.1906307 88.3883308,18.1906307 C87.9705518,18.1906307 87.5969451,18.1643687 87.2675107,18.1114587 C86.9380762,18.0585486 86.6371267,17.9867146 86.3642493,17.8978875 C86.091372,17.808288 85.8469795,17.7055575 85.631072,17.5896961 C85.4151644,17.4734484 85.2149443,17.3494767 85.0308243,17.2166223 L84,18.7772757 C84.36824,19.0356467 84.7546443,19.2445835 85.1583872,19.4033136 C85.5621302,19.5628162 85.9588551,19.6867879 86.3481492,19.7763874 C86.7378561,19.8659869 87.1060961,19.9254625 87.453282,19.9552002 C87.8004679,19.984938 88.10472,20 88.3672767,20 C89.0967387,20 89.7502408,19.9239177 90.3273703,19.7713668 C90.9044998,19.6192021 91.3899821,19.4052447 91.7829916,19.1298807 C92.1768268,18.8552891 92.4773634,18.527015 92.6862529,18.1462171 C92.8955552,17.765033 93,17.3460008 93,16.8887344 C93,16.0734561 92.688317,15.4389217 92.0649511,14.9851311" id="Fill-10" fill="#1D1D1B"></path>
                <path d="M106.119063,14.1865485 C106.170949,13.8427443 106.261186,13.5266911 106.390525,13.2391598 C106.519113,12.951243 106.685675,12.7034111 106.888708,12.4952785 C107.092117,12.2867605 107.3335,12.1264213 107.614363,12.0138755 C107.895225,11.9017152 108.215942,11.8454423 108.577265,11.8454423 C109.222459,11.8454423 109.748089,12.0504914 110.154531,12.4602043 C110.560973,12.8703026 110.8189,13.4457506 110.928688,14.1865485 L106.119063,14.1865485 Z M111.775786,11.3840817 C111.391528,10.9443053 110.930568,10.6039699 110.391778,10.3623049 C109.853365,10.1210252 109.26081,10 108.616368,10 C107.932072,10 107.307933,10.1210252 106.743577,10.3623049 C106.178844,10.6039699 105.693445,10.9443053 105.287003,11.3840817 C104.880561,11.8238582 104.564356,12.3511274 104.338764,12.9662748 C104.112796,13.5814222 104,14.2593949 104,14.9998073 C104,15.7537098 104.11618,16.4382347 104.34854,17.0533822 C104.5809,17.6685296 104.906129,18.1942571 105.32573,18.6305647 C105.745331,19.0672577 106.245018,19.404895 106.825918,19.6423203 C107.406442,19.8805165 108.045244,20 108.741948,20 C109.445043,20 110.1143,19.9005589 110.749718,19.7020621 C111.385136,19.5035652 111.986715,19.1566776 112.554455,18.6606283 L111.548314,17.1825014 C111.161048,17.4997109 110.733551,17.7463866 110.265823,17.9213721 C109.798095,18.0967431 109.332247,18.1842359 108.867903,18.1842359 C108.538539,18.1842359 108.22271,18.1379842 107.919288,18.0454808 C107.615867,17.952592 107.341772,17.8092118 107.097005,17.6141839 C106.851485,17.4191559 106.64206,17.1690114 106.467602,16.8649065 C106.29352,16.5608017 106.173957,16.1938717 106.109663,15.763731 L112.960897,15.763731 C112.973681,15.6450183 112.983833,15.5193679 112.989848,15.3867797 C112.996616,15.254577 113,15.1223743 113,14.9901715 C113,14.2493737 112.891716,13.5733282 112.675147,12.9612642 C112.459331,12.3495857 112.159293,11.8238582 111.775786,11.3840817 Z" id="Fill-12" fill="#1D1D1B"></path>
                <path d="M138.025416,16.2102991 C137.897784,16.5807123 137.718887,16.901403 137.488019,17.1727567 C137.257503,17.4437249 136.981733,17.6572618 136.660355,17.8125964 C136.338624,17.9679309 135.98083,18.0454055 135.58662,18.0454055 C135.174026,18.0454055 134.805625,17.9644619 134.481065,17.8025748 C134.156505,17.6406876 133.881796,17.4225254 133.657645,17.1480882 C133.432786,16.8732655 133.259899,16.551033 133.138631,16.1806198 C133.017363,15.8102066 132.956552,15.4166667 132.956552,15 C132.956552,14.5833333 133.017363,14.1897934 133.138631,13.8193802 C133.259899,13.448967 133.432786,13.1267345 133.657645,12.8522973 C133.881796,12.57786 134.156505,12.3596978 134.481065,12.1974252 C134.805625,12.0351526 135.174026,11.9542091 135.58662,11.9542091 C135.98083,11.9542091 136.338624,12.0320691 136.660355,12.1874036 C136.981733,12.3431237 137.257503,12.5562751 137.488019,12.8272433 C137.718887,13.098597 137.897784,13.4192877 138.025416,13.7897009 C138.152341,14.1601141 138.216334,14.5636756 138.216334,15 C138.216334,15.4363244 138.152341,15.8398859 138.025416,16.2102991 Z M138.097894,11.398782 C137.794547,10.9755628 137.418369,10.6367561 136.969712,10.3819766 C136.520702,10.1275825 135.984012,10 135.358933,10 C134.746229,10 134.175951,10.123728 133.648099,10.371955 C133.1206,10.6201819 132.659216,10.9659266 132.265006,11.4088036 C131.870797,11.8516805 131.561086,12.3793555 131.336934,12.9910577 C131.112429,13.6027598 131,14.2726642 131,15 C131,15.7277212 131.112429,16.3972402 131.336934,17.0089423 C131.561086,17.6206445 131.870797,18.1483195 132.265006,18.5911964 C132.659216,19.0344588 133.1206,19.3798181 133.648099,19.628045 C134.175951,19.8758865 134.746229,20 135.358933,20 C135.984012,20 136.520702,19.8743447 136.969712,19.6230342 C137.418369,19.3717237 137.794547,19.0344588 138.097894,18.6112396 L138.097894,19.751773 L140,19.751773 L140,10.2478415 L138.097894,10.2478415 L138.097894,11.398782 Z" id="Fill-14" fill="#1D1D1B"></path>
                <path d="M101.454429,17.9636808 C101.070034,18.0830765 100.690521,18.1427743 100.317666,18.1427743 C100.073979,18.1427743 99.8471592,18.1112773 99.6376504,18.0482832 C99.4285855,17.9860217 99.2452653,17.8867694 99.0899093,17.7516252 C98.9332215,17.616481 98.8093805,17.4421486 98.7183863,17.2286281 C98.6269481,17.0147413 98.5807852,16.7572715 98.5807852,16.455486 L98.5807852,12.5245842 L102.415861,12.5245842 L102.415861,10.7336487 L98.5807852,10.7336487 L98.5807852,8 L96.1820872,8 L96.1820872,10.7336487 L94,10.7336487 L94,12.5245842 L96.1820872,12.5245842 L96.1820872,16.4932092 C96.1820872,17.6933923 96.52609,18.5778727 97.215871,19.1466504 C97.9052081,19.715428 98.8706352,20 100.112152,20 C100.80504,20 101.427353,19.9117351 101.979976,19.7359377 C102.344841,19.619472 102.683961,19.4865253 103,19.3400275 L102.184159,17.6904624 C101.9529,17.7922783 101.710544,17.8842057 101.454429,17.9636808" id="Fill-16" fill="#1D1D1B"></path>
                <path d="M119.634544,10 C119.053253,10 118.528166,10.1086914 118.058899,10.3256788 C117.590017,10.5430615 117.197357,11.0651753 116.880149,11.533141 L116.880149,10.2545354 L115,10.2545354 L115,20 L116.899782,20 L116.899782,14.6389471 C116.899782,14.2251294 116.955986,13.8555788 117.068395,13.5299 C117.180803,13.2046164 117.335943,12.9299237 117.534197,12.7062171 C117.732452,12.4821153 117.969973,12.3129521 118.247145,12.1975416 C118.524702,12.0821311 118.828436,12.0244259 119.159117,12.0244259 C119.410112,12.0244259 119.680739,12.0548595 119.971385,12.1161219 C120.119595,12.147346 120.25818,12.1856844 120.387527,12.2307419 L121,10.1968302 C120.833697,10.1426821 120.665469,10.0964389 120.491852,10.0660053 C120.237008,10.0221335 119.951367,10 119.634544,10" id="Fill-18" fill="#1D1D1B"></path>
                <path d="M147.634841,10 C147.053513,10 146.528393,10.1086914 146.059095,10.3256788 C145.589798,10.5430615 145.197113,11.0651753 144.880269,11.533141 L144.880269,10.2545354 L143,10.2545354 L143,20 L144.899904,20 L144.899904,14.6389471 C144.899904,14.2251294 144.956112,13.8555788 145.068527,13.5299 C145.180558,13.2046164 145.335707,12.9299237 145.533975,12.7062171 C145.732243,12.4821153 145.970164,12.3129521 146.247353,12.1975416 C146.524928,12.0821311 146.828296,12.0244259 147.158999,12.0244259 C147.41001,12.0244259 147.680654,12.0548595 147.971704,12.1161219 C148.119923,12.147346 148.258133,12.1856844 148.387488,12.2307419 L149,10.1968302 C148.833686,10.1426821 148.665448,10.0964389 148.492204,10.0660053 C148.237344,10.0221335 147.951684,10 147.634841,10" id="Fill-20" fill="#1D1D1B"></path>
                <path d="M156.025339,16.3815078 C155.898055,16.7351867 155.718798,17.0413895 155.488273,17.3004841 C155.257749,17.5592107 154.981968,17.7631005 154.660577,17.9114175 C154.33848,18.0597345 153.980672,18.1337089 153.5868,18.1337089 C153.17419,18.1337089 152.805421,18.0564222 152.480849,17.9018487 C152.156276,17.7472751 151.881556,17.5389689 151.657395,17.27693 C151.432882,17.0145231 151.259635,16.7068482 151.138715,16.3531693 C151.017089,15.9994904 150.956629,15.6237296 150.956629,15.2258868 C150.956629,14.8280441 151.017089,14.4522832 151.138715,14.0986043 C151.259635,13.7449254 151.432882,13.4372505 151.657395,13.1752116 C151.881556,12.9131727 152.156276,12.7048665 152.480849,12.549925 C152.805421,12.3949834 153.17419,12.3176967 153.5868,12.3176967 C153.980672,12.3176967 154.33848,12.3920392 154.660577,12.5403561 C154.981968,12.6890411 155.257749,12.8925629 155.488273,13.1512895 C155.718798,13.4103842 155.898055,13.7165869 156.025339,14.0702658 C156.152622,14.4239447 156.216264,14.8092744 156.216264,15.2258868 C156.216264,15.6424992 156.152622,16.0278289 156.025339,16.3815078 Z M156.098173,7 L156.098173,11.7873623 C155.794814,11.383263 155.418621,11.0597628 154.969947,10.8164935 C154.520566,10.5735923 153.983854,10.4517736 153.359104,10.4517736 C152.746376,10.4517736 152.175722,10.569912 151.648203,10.8069247 C151.12033,11.0439374 150.659281,11.3740622 150.265056,11.7969312 C149.870831,12.2198001 149.561108,12.7236362 149.336948,13.3077032 C149.11208,13.8917702 149,14.5314101 149,15.2258868 C149,15.9207315 149.11208,16.5600034 149.336948,17.1440704 C149.561108,17.7281375 149.870831,18.2319735 150.265056,18.6548425 C150.659281,19.0780794 151.12033,19.4078363 151.648203,19.644849 C152.175722,19.8814936 152.746376,20 153.359104,20 C153.983854,20 154.520566,19.8800215 154.969947,19.6400645 C155.418621,19.4001076 155.794814,19.0780794 156.098173,18.6739801 L156.098173,19.7629873 L158,19.7629873 L158,7 L156.098173,7 Z" id="Fill-22" fill="#1D1D1B"></path>
                <path d="M124.195052,12.8025748 C124.477938,12.5346901 124.814021,12.326164 125.203299,12.1773821 C125.592577,12.0286001 126.013608,11.9542091 126.466392,11.9542091 C126.964536,11.9542091 127.427629,12.0286001 127.85567,12.1773821 C128.269691,12.3211533 128.628041,12.5219704 128.931959,12.7771354 L130,11.1170213 C129.6,10.8179155 129.149278,10.5727721 128.647423,10.3819766 C127.978557,10.1275825 127.251546,10 126.466392,10 C125.680825,10 124.953814,10.1275825 124.285361,10.3819766 C123.616495,10.6363706 123.04,10.9871261 122.555052,11.4334721 C122.070928,11.8798181 121.690309,12.4074931 121.414433,13.0157262 C121.138144,13.6243447 121,14.2857693 121,15 C121,15.7142307 121.138144,16.3756553 121.414433,16.9842738 C121.690309,17.5925069 122.070928,18.1197965 122.555052,18.5661425 C123.04,19.0128739 123.616495,19.3632439 124.285361,19.6180234 C124.953814,19.8724175 125.680825,20 126.466392,20 C127.251546,20 127.978557,19.8724175 128.647423,19.6180234 C129.149278,19.4268424 129.6,19.1820845 130,18.8825933 L128.931959,17.2224792 C128.628041,17.4776442 128.269691,17.6784613 127.85567,17.8222325 C127.427629,17.9710145 126.964536,18.0454055 126.466392,18.0454055 C126.013608,18.0454055 125.592577,17.9710145 125.203299,17.8222325 C124.814021,17.6734505 124.477938,17.4653099 124.195052,17.1970398 C123.911753,16.9295405 123.68866,16.6088498 123.526186,16.2349676 C123.363299,15.8614709 123.282062,15.449815 123.282062,15 C123.282062,14.550185 123.363299,14.1385291 123.526186,13.7650324 C123.68866,13.3911502 123.911753,13.0704595 124.195052,12.8025748" id="Fill-24" fill="#1D1D1B"></path>
                <path d="M47.7900858,24 L47.7900858,22.6118665 L47.5884796,23.8096415 L47.3658266,23.8096415 L47.1642204,22.6155748 L47.1642204,24 L46.9537524,24 L46.9537524,22 L47.255054,22 L47.477707,23.2805933 L47.6986984,22 L48,22 L48,24 L47.7900858,24 Z M46.2846857,24 L46.2846857,22.4313968 L46,22.4313968 L46,22 L46.7787317,22 L46.7787317,22.4313968 L46.4945998,22.4313968 L46.4945998,24 L46.2846857,24 Z" id="Fill-26" fill="#E2E3E4"></path>
                <path d="M161.873781,18.7717076 L161.873781,18.9342835 L162.055413,18.9342835 C162.092868,18.9342835 162.121601,18.9284772 162.141611,18.9163368 C162.162134,18.9041964 162.171883,18.8836105 162.171883,18.8540512 C162.171883,18.8260755 162.162134,18.8049617 162.141611,18.7917656 C162.121601,18.7785695 162.092868,18.7717076 162.055413,18.7717076 L161.873781,18.7717076 Z M162.059518,18.5558195 C162.17804,18.5558195 162.26783,18.5832674 162.328887,18.6371074 C162.389944,18.6914753 162.420729,18.7637899 162.420729,18.8540512 C162.420729,18.9253101 162.398666,18.9844286 162.354541,19.0308789 C162.310929,19.077857 162.247306,19.1084719 162.163161,19.1232515 L162.431503,19.4415413 L162.141611,19.4415413 L161.902001,19.1322249 L161.873781,19.1322249 L161.873781,19.4415413 L161.631093,19.4415413 L161.631093,18.5558195 L162.059518,18.5558195 Z M162.003592,19.7218263 C162.099538,19.7218263 162.190867,19.702824 162.275526,19.6648192 C162.360698,19.6273423 162.435095,19.5756136 162.497691,19.510161 C162.560287,19.4452362 162.609543,19.3686989 162.645459,19.2810768 C162.681375,19.1934547 162.699333,19.0994985 162.699333,18.9986804 C162.699333,18.8994458 162.681375,18.8054896 162.645459,18.7173397 C162.609543,18.6291898 162.560287,18.5526524 162.497691,18.4882555 C162.435095,18.4238585 162.360698,18.3726577 162.275526,18.3346529 C162.190867,18.297176 162.099538,18.2776458 162.003592,18.2776458 C161.904053,18.2776458 161.811185,18.297176 161.7255,18.3346529 C161.639815,18.3726577 161.564905,18.4238585 161.501796,18.4882555 C161.438173,18.5526524 161.388917,18.6291898 161.352488,18.7173397 C161.316573,18.8054896 161.298615,18.8994458 161.298615,18.9986804 C161.298615,19.0994985 161.316573,19.1934547 161.352488,19.2810768 C161.388917,19.3686989 161.438173,19.4452362 161.501796,19.510161 C161.564905,19.5756136 161.639815,19.6273423 161.7255,19.6648192 C161.811185,19.702824 161.904053,19.7218263 162.003592,19.7218263 Z M162.003592,18 C162.141611,18 162.271421,18.0263922 162.392509,18.0791766 C162.513597,18.1314331 162.619292,18.2032198 162.709595,18.2934811 C162.799384,18.3842703 162.87019,18.489839 162.922524,18.6107152 C162.974346,18.7315914 163,18.8609132 163,18.9986804 C163,19.1348641 162.974346,19.2641858 162.922524,19.3861177 C162.87019,19.5075218 162.799384,19.6136184 162.709595,19.7049353 C162.619292,19.7962523 162.513597,19.8680391 162.392509,19.9208234 C162.271421,19.9736078 162.141611,20 162.003592,20 C161.862494,20 161.730631,19.9736078 161.607491,19.9208234 C161.484864,19.8680391 161.378656,19.7962523 161.288866,19.7049353 C161.199076,19.6136184 161.128271,19.5075218 161.076963,19.3861177 C161.025654,19.2641858 161,19.1348641 161,18.9986804 C161,18.8609132 161.025654,18.7315914 161.076963,18.6107152 C161.128271,18.489839 161.199076,18.3842703 161.288866,18.2934811 C161.378656,18.2032198 161.484864,18.1314331 161.607491,18.0791766 C161.730631,18.0263922 161.862494,18 162.003592,18 Z" id="Fill-28" fill="#1D1D1B"></path>
                <g id="Group-32" transform="translate(24.000000, 0.000000)">
                    <mask id="mask-4" fill="white">
                        <use xlink:href="#path-3"></use>
                    </mask>
                    <g id="Clip-31"></g>
                    <path d="M9.34717726,0.220570512 C5.85687063,0.220570512 2.64995127,1.33322538 0.111073405,3.19196565 C3.55374856,5.71245445 5.76521005,9.6071164 5.76521005,13.9815368 C5.76521005,18.3559572 3.55374856,22.2506191 0.111073405,24.7711079 C2.64995127,26.6298482 5.85687063,27.742503 9.34717726,27.742503 C17.5710121,27.742503 24.237818,21.5814726 24.237818,13.9815368 C24.237818,6.38160094 17.5710121,0.220570512 9.34717726,0.220570512" id="Fill-30" fill="#E2E3E4" mask="url(#mask-4)"></path>
                </g>
            </g>
        </g>
    </g>
</svg>