<?xml version="1.0" encoding="UTF-8"?>
<svg width="100px" height="18px" viewBox="0 0 100 18" version="1.1" xmlns="http://www.w3.org/2000/svg" xmlns:xlink="http://www.w3.org/1999/xlink">
    <!-- Generator: Sketch 51.3 (57544) - http://www.bohemiancoding.com/sketch -->
    <title>Page 1 Copy 2</title>
    <desc>Created with Sketch.</desc>
    <defs>
        <polygon id="path-1" points="14.4759987 0.13689172 0 0.13689172 0 17.1974522 14.4759987 17.1974522 14.4759987 0.13689172"></polygon>
        <polygon id="path-3" points="0.066644043 0.13689172 14.5426908 0.13689172 14.5426908 17.1974522 0.066644043 17.1974522"></polygon>
    </defs>
    <g id="facturacion" stroke="none" stroke-width="1" fill="none" fill-rule="evenodd">
        <g id="12_facturacion" transform="translate(-318.000000, -270.000000)">
            <g id="Page-1-Copy-2" transform="translate(318.000000, 270.000000)">
                <g id="Group-3">
                    <mask id="mask-2" fill="white">
                        <use xlink:href="#path-1"></use>
                    </mask>
                    <g id="Clip-2"></g>
                    <path d="M11.0835168,8.66714904 C11.0835168,5.95545478 12.4101535,3.54116178 14.4759987,1.97871592 C12.9529122,0.826486624 11.0285204,0.13675414 8.93433643,0.13675414 C4.0000355,0.13675414 -4.80317427e-05,3.95596433 -4.80317427e-05,8.66714904 C-4.80317427e-05,13.3783338 4.0000355,17.1975439 8.93433643,17.1975439 C11.0285204,17.1975439 12.9529122,16.5075822 14.4759987,15.3555822 C12.4101535,13.7931363 11.0835168,11.3788433 11.0835168,8.66714904" id="Fill-1" fill="#8E969E" mask="url(#mask-2)"></path>
                </g>
                <path d="M10.8280255,8.59872611 C10.8280255,11.3102035 12.1979527,13.7243033 14.3312102,15.2866242 C16.4644677,13.7243033 17.8343949,11.3102035 17.8343949,8.59872611 C17.8343949,5.88724877 16.4644677,3.4731489 14.3312102,1.91082803 C12.1979527,3.4731489 10.8280255,5.88724877 10.8280255,8.59872611" id="Fill-4" fill="#BFC1C2"></path>
                <path d="M43.2866131,6.3535164 C43.0758062,6.15730553 42.825717,6.00459638 42.5358575,5.89561552 C42.246242,5.78708779 41.9292997,5.73248408 41.5847865,5.73248408 C41.4025264,5.73248408 41.2129465,5.74698465 41.016535,5.77621236 C40.8201235,5.80544008 40.6276158,5.85709837 40.4392559,5.93073409 C40.250896,6.00459638 40.0715637,6.1067801 39.9012591,6.23683211 C39.7311984,6.36733726 39.5830968,6.53137498 39.4576862,6.729625 C39.2549309,6.41876898 38.9804428,6.17475153 38.6339777,5.99779924 C38.2877566,5.82107351 37.8915177,5.73248408 37.4459929,5.73248408 C37.2959394,5.73248408 37.1410061,5.74517208 36.980949,5.77032151 C36.8208919,5.79569751 36.6618107,5.8394258 36.5039495,5.90150637 C36.3458444,5.96381352 36.1948149,6.04832467 36.0511051,6.15526639 C35.9071513,6.26220811 35.7766169,6.39724469 35.659014,6.5606027 L35.659014,5.87816951 L34.3949045,5.87816951 L34.3949045,11.4649682 L35.6712134,11.4649682 L35.6712134,8.36841624 C35.6712134,8.13119594 35.7117157,7.9204845 35.7927202,7.7356022 C35.8737247,7.55094648 35.9823,7.39665132 36.1179582,7.27203703 C36.2536163,7.14764931 36.4126975,7.05339559 36.5949576,6.98927587 C36.7774617,6.92492958 36.9719214,6.89298301 37.1785805,6.89298301 C37.6080019,6.89298301 37.9412916,7.01940987 38.1782054,7.27203703 C38.4153631,7.52466419 38.533942,7.88627221 38.533942,8.35663453 L38.533942,11.4649682 L39.810007,11.4649682 L39.810007,8.36841624 C39.810007,8.13119594 39.8505093,7.9204845 39.9317578,7.7356022 C40.0127623,7.55094648 40.1210936,7.39665132 40.2569957,7.27203703 C40.3926539,7.14764931 40.551735,7.05339559 40.7339952,6.98927587 C40.9162553,6.92492958 41.1107149,6.89298301 41.317374,6.89298301 C41.7467955,6.89298301 42.0800852,7.01940987 42.3172429,7.27203703 C42.5541567,7.52466419 42.6727356,7.88627221 42.6727356,8.35663453 L42.6727356,11.4649682 L43.9490446,11.4649682 L43.9490446,7.95424365 C43.9490446,7.6277542 43.8914631,7.32845332 43.7758121,7.05634102 C43.660405,6.78422871 43.4971761,6.54995384 43.2866131,6.3535164" id="Fill-6" fill="#1D1D1B"></path>
                <path d="M49.0607254,9.6880886 C48.9796531,9.92402058 48.8654764,10.1282822 48.7186455,10.3011189 C48.5718146,10.4737102 48.3959329,10.6097209 48.1912254,10.7086601 C47.9862928,10.8075993 47.7583897,10.8569462 47.5072909,10.8569462 C47.2444816,10.8569462 47.0098225,10.8053898 46.8030883,10.7022769 C46.596354,10.5991641 46.421373,10.4602073 46.2785958,10.2854065 C46.1355933,10.1103602 46.025245,9.90511656 45.9482264,9.66918458 C45.8707573,9.43325261 45.832248,9.18259023 45.832248,8.91719745 C45.832248,8.65180467 45.8707573,8.40114229 45.9482264,8.16521032 C46.025245,7.92927835 46.1355933,7.72403472 46.2785958,7.54923392 C46.421373,7.37443312 46.596354,7.23547631 46.8030883,7.13211798 C47.0098225,7.02875964 47.2444816,6.97720323 47.5072909,6.97720323 C47.7583897,6.97720323 47.9862928,7.02679559 48.1912254,7.1257348 C48.3959329,7.22491952 48.5718146,7.36068475 48.7186455,7.53327598 C48.8654764,7.70611272 48.9796531,7.91037433 49.0607254,8.1463063 C49.1417976,8.38223828 49.1823338,8.63928383 49.1823338,8.91719745 C49.1823338,9.19511108 49.1417976,9.45215663 49.0607254,9.6880886 Z M49.1071167,6.62342802 C48.9136693,6.35386162 48.674281,6.1380612 48.3882761,5.97578125 C48.1022711,5.81374681 47.7604165,5.73248408 47.3622616,5.73248408 C46.9719888,5.73248408 46.60874,5.81129174 46.2727406,5.96939808 C45.9365159,6.12750441 45.6428542,6.34772396 45.3917554,6.6298112 C45.1404314,6.91189843 44.9433808,7.24799716 44.8003783,7.63761635 C44.6573759,8.02723554 44.5859873,8.45392624 44.5859873,8.91719745 C44.5859873,9.38071417 44.6573759,9.80715937 44.8003783,10.1967786 C44.9433808,10.5863977 45.1404314,10.9224965 45.3917554,11.2045837 C45.6428542,11.4869165 45.9365159,11.7068905 46.2727406,11.8649968 C46.60874,12.0228577 46.9719888,12.1019108 47.3622616,12.1019108 C47.7604165,12.1019108 48.1022711,12.0218756 48.3882761,11.8618052 C48.674281,11.7017348 48.9136693,11.4869165 49.1071167,11.2173501 L49.1071167,11.9438045 L50.3184713,11.9438045 L50.3184713,5.89034491 L49.1071167,5.89034491 L49.1071167,6.62342802 Z" id="Fill-8" fill="#1D1D1B"></path>
                <path d="M56.1585003,8.90772683 C55.8053347,8.61868823 55.3140349,8.42558584 54.684367,8.32841968 L54.0890574,8.23346742 C53.9565327,8.21231226 53.8321885,8.18820521 53.7160248,8.16065429 C53.5996274,8.13334937 53.4993574,8.09645083 53.4152147,8.04995866 C53.331072,8.0034665 53.2637578,7.94442882 53.2137397,7.87259966 C53.1637215,7.80077049 53.1384787,7.71221398 53.1384787,7.60668415 C53.1384787,7.39144264 53.2336067,7.21728151 53.4243302,7.08420076 C53.6145861,6.951366 53.8824404,6.88494862 54.2271917,6.88494862 C54.4078648,6.88494862 54.5852656,6.90192195 54.7598617,6.93537663 C54.9342241,6.96932329 55.0997047,7.01163362 55.2560699,7.06230762 C55.4124351,7.11273563 55.5547765,7.16882142 55.6833278,7.230073 C55.8114117,7.2910786 55.9198623,7.3493783 56.0079784,7.40398814 L56.5495301,6.37205885 C56.24872,6.16936284 55.8976579,6.01217504 55.4965778,5.90024946 C55.0954976,5.78856986 54.6684734,5.73248408 54.2155052,5.73248408 C53.8462123,5.73248408 53.515251,5.77799228 53.2226214,5.8687627 C52.9299918,5.95953312 52.6801348,6.08818605 52.4737514,6.25496747 C52.2671344,6.42174889 52.1086656,6.62542885 51.9983452,6.86576137 C51.8880248,7.10658587 51.8330983,7.37668322 51.8330983,7.6762994 C51.8330983,8.16606608 51.9983452,8.56161848 52.3293065,8.86344857 C52.6602677,9.16527867 53.1464255,9.36256288 53.7880136,9.45554722 L54.3898676,9.53770798 C54.7346189,9.58838198 54.9872807,9.66980476 55.147853,9.78148436 C55.3079579,9.89340994 55.3883609,10.0358383 55.3883609,10.2087695 C55.3883609,10.4368025 55.2778068,10.6171134 55.0573996,10.7501941 C54.8369925,10.8830289 54.5100047,10.9494463 54.0769035,10.9494463 C53.840369,10.9494463 53.6288436,10.9327189 53.4423273,10.8990183 C53.255811,10.8653176 53.0854221,10.8195634 52.9309267,10.7629856 C52.7764314,10.7059159 52.6380634,10.6404825 52.5158228,10.5666854 C52.3935821,10.4926423 52.2802232,10.4136794 52.1759798,10.3290588 L51.5923567,11.3231055 C51.8008436,11.4876731 52.0196146,11.6207538 52.2482023,11.7218558 C52.4767899,11.8234498 52.7014042,11.9024127 52.9218113,11.9594824 C53.1424521,12.0165522 53.350939,12.0544347 53.5475057,12.073376 C53.7440724,12.0923172 53.9163312,12.1019108 54.0649833,12.1019108 C54.4779837,12.1019108 54.8479778,12.0534507 55.1747319,11.9562846 C55.5014861,11.8593644 55.7763522,11.7230858 55.9988629,11.5476947 C56.221841,11.3727956 56.3919963,11.1637038 56.5102635,10.9211574 C56.6287645,10.678365 56.6878981,10.4114655 56.6878981,10.120213 C56.6878981,9.60092748 56.5114322,9.19676542 56.1585003,8.90772683" id="Fill-10" fill="#1D1D1B"></path>
                <path d="M64.4070462,8.39907546 C64.4400947,8.18009189 64.4975705,7.97878413 64.5799523,7.79564316 C64.6618552,7.6122567 64.7679458,7.45440195 64.8972662,7.32183342 C65.026826,7.1890194 65.1805735,7.08689253 65.3594667,7.01520733 C65.5383599,6.94376762 65.7426381,6.90792502 65.9727805,6.90792502 C66.3837318,6.90792502 66.7185279,7.03852957 66.9774081,7.29949317 C67.2362883,7.56070227 67.400573,7.9272297 67.4705018,8.39907546 L64.4070462,8.39907546 Z M68.0100551,6.61406478 C67.7653043,6.3339524 67.4716992,6.1171783 67.1285213,5.96325151 C66.7855829,5.80957022 66.408159,5.73248408 65.9976866,5.73248408 C65.5618291,5.73248408 65.1642887,5.80957022 64.804826,5.96325151 C64.4451239,6.1171783 64.1359524,6.3339524 63.8770722,6.61406478 C63.618192,6.89417717 63.4167875,7.23001744 63.2730983,7.62183109 C63.1291695,8.01364474 63.0573248,8.44547444 63.0573248,8.9170747 C63.0573248,9.39726737 63.1313248,9.83327053 63.2793248,10.2250842 C63.4273248,10.6168978 63.6344768,10.9517561 63.9017389,11.229659 C64.169001,11.5078074 64.4872727,11.722863 64.8572726,11.8740894 C65.2270331,12.0258067 65.6339132,12.1019108 66.0776736,12.1019108 C66.5255052,12.1019108 66.9517835,12.0385725 67.3565083,11.9121414 C67.7612331,11.7857103 68.1444045,11.5647628 68.5060226,11.2488078 L67.8651684,10.3073258 C67.6185018,10.50937 67.3462106,10.6664883 67.0482948,10.777944 C66.750379,10.8896453 66.4536606,10.9453732 66.1579002,10.9453732 C65.9481138,10.9453732 65.7469488,10.9159135 65.5536867,10.8569942 C65.3604246,10.7978293 65.1858421,10.7065043 65.0299393,10.5822827 C64.8735574,10.4580611 64.7401659,10.2987334 64.6290462,10.105036 C64.5181659,9.91133866 64.4420106,9.67762526 64.4010591,9.4036503 L68.7649028,9.4036503 C68.7730452,9.32803714 68.7795112,9.24800503 68.7833429,9.16355397 C68.7876536,9.0793484 68.7898089,8.99514284 68.7898089,8.91093727 C68.7898089,8.43909151 68.7208381,8.0084893 68.5828963,7.61863963 C68.4454336,7.22903545 68.2543268,6.89417717 68.0100551,6.61406478 Z" id="Fill-12" fill="#1D1D1B"></path>
                <path d="M84.7295646,9.6880886 C84.6482703,9.92402058 84.5343232,10.1282822 84.387273,10.3011189 C84.2404479,10.4737102 84.0647982,10.6097209 83.8600988,10.7086601 C83.6551742,10.8075993 83.42728,10.8569462 83.1761911,10.8569462 C82.9133922,10.8569462 82.6787423,10.8053898 82.4720162,10.7022769 C82.26529,10.5991641 82.0903159,10.4602073 81.9475443,10.2854065 C81.8043223,10.1103602 81.6942035,9.90511656 81.6169627,9.66918458 C81.5397218,9.43325261 81.5009888,9.18259023 81.5009888,8.91719745 C81.5009888,8.65180467 81.5397218,8.40114229 81.6169627,8.16521032 C81.6942035,7.92927835 81.8043223,7.72403472 81.9475443,7.54923392 C82.0903159,7.37443312 82.26529,7.23547631 82.4720162,7.13211798 C82.6787423,7.02875964 82.9133922,6.97720323 83.1761911,6.97720323 C83.42728,6.97720323 83.6551742,7.02679559 83.8600988,7.1257348 C84.0647982,7.22491952 84.2404479,7.36068475 84.387273,7.53327598 C84.5343232,7.70611272 84.6482703,7.91037433 84.7295646,8.1463063 C84.8104085,8.38223828 84.8511682,8.63928383 84.8511682,8.91719745 C84.8511682,9.19511108 84.8104085,9.45215663 84.7295646,9.6880886 Z M84.7757289,6.62342802 C84.5825143,6.35386162 84.3429102,6.1380612 84.0571417,5.97578125 C83.771148,5.81374681 83.4293068,5.73248408 83.0311676,5.73248408 C82.6409101,5.73248408 82.2776756,5.81129174 81.9414641,5.96939808 C81.6054779,6.12750441 81.3116025,6.34772396 81.0605136,6.6298112 C80.8094246,6.91189843 80.6121566,7.24799716 80.4693849,7.63761635 C80.3263881,8.02723554 80.2547771,8.45392624 80.2547771,8.91719745 C80.2547771,9.38071417 80.3263881,9.80715937 80.4693849,10.1967786 C80.6121566,10.5863977 80.8094246,10.9224965 81.0605136,11.2045837 C81.3116025,11.4869165 81.6054779,11.7068905 81.9414641,11.8649968 C82.2776756,12.0228577 82.6409101,12.1019108 83.0311676,12.1019108 C83.4293068,12.1019108 83.771148,12.0218756 84.0571417,11.8618052 C84.3429102,11.7017348 84.5825143,11.4869165 84.7757289,11.2173501 L84.7757289,11.9438045 L85.9872611,11.9438045 L85.9872611,5.89034491 L84.7757289,5.89034491 L84.7757289,6.62342802 Z" id="Fill-14" fill="#1D1D1B"></path>
                <path d="M62.1822669,10.8048922 C61.9646333,10.8809404 61.7497641,10.9189645 61.5386645,10.9189645 C61.4006959,10.9189645 61.272277,10.8989027 61.1536591,10.8587791 C61.0352926,10.8191221 60.931502,10.7559041 60.8435438,10.669825 C60.7548317,10.5837459 60.6847165,10.4727061 60.6331982,10.3367058 C60.5814285,10.2004722 60.5552924,10.0364786 60.5552924,9.84425862 L60.5552924,7.34049946 L62.7266022,7.34049946 L62.7266022,6.19977625 L60.5552924,6.19977625 L60.5552924,4.45859873 L59.1972185,4.45859873 L59.1972185,6.19977625 L57.9617834,6.19977625 L57.9617834,7.34049946 L59.1972185,7.34049946 L59.1972185,9.86828613 C59.1972185,10.632734 59.391983,11.1960973 59.7825172,11.558376 C60.1728001,11.9206548 60.7193972,12.1019108 61.4223084,12.1019108 C61.8146018,12.1019108 62.166937,12.0456911 62.4798167,11.9337183 C62.6863927,11.8595363 62.8783928,11.7748569 63.0573248,11.6815462 L62.5954189,10.6308678 C62.4644869,10.6957187 62.3272722,10.7542712 62.1822669,10.8048922" id="Fill-16" fill="#1D1D1B"></path>
                <path d="M73.6525757,5.73248408 C73.2823267,5.73248408 72.9478766,5.79479122 72.6489803,5.91917895 C72.3503291,6.04379324 72.1002271,6.34309412 71.898184,6.6113547 L71.898184,5.87839609 L70.7006369,5.87839609 L70.7006369,11.4649682 L71.9106891,11.4649682 L71.9106891,8.3917531 C71.9106891,8.1545328 71.946488,7.9426885 72.0180858,7.75599363 C72.0896836,7.56952534 72.1884984,7.41205818 72.3147754,7.28381875 C72.4410524,7.15535274 72.5923395,7.05838016 72.7688821,6.9922213 C72.9456698,6.92606244 73.1391311,6.89298301 73.3497562,6.89298301 C73.5096252,6.89298301 73.6819994,6.91042901 73.8671239,6.94554758 C73.9615252,6.96344673 74.0497964,6.98542416 74.132183,7.0112533 L74.522293,5.84531665 C74.4163675,5.81427637 74.3092159,5.78776751 74.1986316,5.77032151 C74.0363106,5.74517208 73.8543736,5.73248408 73.6525757,5.73248408" id="Fill-18" fill="#1D1D1B"></path>
                <path d="M90.8502173,5.73248408 C90.4799446,5.73248408 90.145473,5.79479122 89.8465575,5.91917895 C89.547642,6.04379324 89.297524,6.34309412 89.0957131,6.6113547 L89.0957131,5.87839609 L87.8980892,5.87839609 L87.8980892,11.4649682 L89.108219,11.4649682 L89.108219,8.3917531 C89.108219,8.1545328 89.1440202,7.9426885 89.2156226,7.75599363 C89.2869798,7.56952534 89.3858009,7.41205818 89.512086,7.28381875 C89.638371,7.15535274 89.7899131,7.05838016 89.966467,6.9922213 C90.1432661,6.92606244 90.3364945,6.89298301 90.5471331,6.89298301 C90.7070125,6.89298301 90.8793978,6.91042901 91.0647793,6.94554758 C91.1591866,6.96344673 91.2472184,6.98542416 91.3296102,7.0112533 L91.7197452,5.84531665 C91.6138129,5.81427637 91.5066545,5.78776751 91.3963083,5.77032151 C91.2339768,5.74517208 91.0520282,5.73248408 90.8502173,5.73248408" id="Fill-20" fill="#1D1D1B"></path>
                <path d="M96.1944833,9.79713873 C96.1134111,10.0224119 95.9992343,10.2174455 95.8524035,10.382474 C95.7055726,10.547268 95.529916,10.6771341 95.3252086,10.7716035 C95.1200507,10.8660729 94.8921476,10.9131904 94.641274,10.9131904 C94.3784648,10.9131904 94.1435805,10.8639632 93.9368462,10.7655087 C93.730112,10.6670542 93.555131,10.5343751 93.4123538,10.3674714 C93.2693513,10.2003332 93.159003,10.0043619 93.0819843,9.77908874 C93.0045153,9.55381555 92.966006,9.31447744 92.966006,9.06107441 C92.966006,8.80767137 93.0045153,8.56833326 93.0819843,8.34306007 C93.159003,8.11778688 93.2693513,7.92181562 93.4123538,7.75491186 C93.555131,7.5880081 93.730112,7.45532899 93.9368462,7.35664011 C94.1435805,7.25795123 94.3784648,7.208724 94.641274,7.208724 C94.8921476,7.208724 95.1200507,7.25607591 95.3252086,7.35054531 C95.529916,7.44524913 95.7055726,7.57488084 95.8524035,7.73967486 C95.9992343,7.90470329 96.1134111,8.0997369 96.1944833,8.32501008 C96.2755556,8.55028327 96.3160917,8.79571618 96.3160917,9.06107441 C96.3160917,9.32643263 96.2755556,9.57186554 96.1944833,9.79713873 Z M96.2408747,3.82165605 L96.2408747,6.87093143 C96.0476525,6.61354333 95.8080389,6.4074922 95.5222592,6.25254363 C95.2360291,6.09782948 94.8941744,6.02023798 94.4962448,6.02023798 C94.1059719,6.02023798 93.742498,6.09548532 93.4064985,6.24644883 C93.0702739,6.39741234 92.7766122,6.60768295 92.5255134,6.87702623 C92.2744146,7.14636951 92.0771387,7.46728418 91.9343615,7.8393014 C91.7911338,8.21131862 91.7197452,8.61873257 91.7197452,9.06107441 C91.7197452,9.50365066 91.7911338,9.91083019 91.9343615,10.2828474 C92.0771387,10.6548646 92.2744146,10.9757793 92.5255134,11.2451226 C92.7766122,11.5147003 93.0702739,11.7247365 93.4064985,11.8757 C93.742498,12.0264291 94.1059719,12.1019108 94.4962448,12.1019108 C94.8941744,12.1019108 95.2360291,12.0254914 95.5222592,11.8726526 C95.8080389,11.7198137 96.0476525,11.5147003 96.2408747,11.2573122 L96.2408747,11.9509473 L97.4522293,11.9509473 L97.4522293,3.82165605 L96.2408747,3.82165605 Z" id="Fill-22" fill="#1D1D1B"></path>
                <path d="M76.3312394,7.51756355 C76.4914016,7.34693637 76.6816819,7.21411723 76.9020801,7.11935163 C77.1224783,7.02458603 77.3608539,6.97720323 77.6172069,6.97720323 C77.8992419,6.97720323 78.1614318,7.02458603 78.4037764,7.11935163 C78.638183,7.21092564 78.8410708,7.33883465 79.0131401,7.50136011 L79.6178344,6.4439626 C79.3913659,6.25344937 79.1361802,6.09730709 78.852044,5.97578125 C78.4733513,5.81374681 78.0617389,5.73248408 77.6172069,5.73248408 C77.1724415,5.73248408 76.7608291,5.81374681 76.3823699,5.97578125 C76.0036772,6.1378157 75.6772824,6.36122683 75.4027185,6.64552363 C75.1286216,6.92982043 74.9131263,7.26591915 74.756933,7.65332878 C74.6005063,8.04098391 74.522293,8.46227347 74.522293,8.91719745 C74.522293,9.37212143 74.6005063,9.79341099 74.756933,10.1810661 C74.9131263,10.5684758 75.1286216,10.904329 75.4027185,11.1886258 C75.6772824,11.4731681 76.0036772,11.6963337 76.3823699,11.8586137 C76.7608291,12.0206481 77.1724415,12.1019108 77.6172069,12.1019108 C78.0617389,12.1019108 78.4733513,12.0206481 78.852044,11.8586137 C79.1361802,11.7368423 79.3913659,11.5809455 79.6178344,11.3901868 L79.0131401,10.3327893 C78.8410708,10.4953147 78.638183,10.6232238 78.4037764,10.7147978 C78.1614318,10.8095634 77.8992419,10.8569462 77.6172069,10.8569462 C77.3608539,10.8569462 77.1224783,10.8095634 76.9020801,10.7147978 C76.6816819,10.6200322 76.4914016,10.4874585 76.3312394,10.3165858 C76.1708436,10.1462042 76.0445349,9.94194257 75.9525467,9.70380103 C75.860325,9.46590501 75.8143308,9.20370381 75.8143308,8.91719745 C75.8143308,8.63069109 75.860325,8.3684899 75.9525467,8.13059387 C76.0445349,7.89245234 76.1708436,7.68819073 76.3312394,7.51756355" id="Fill-24" fill="#1D1D1B"></path>
                <path d="M27.9586261,14.0127389 L27.9586261,13.5706581 L27.8944203,13.9521151 L27.8235117,13.9521151 L27.7593059,13.5718391 L27.7593059,14.0127389 L27.6922778,14.0127389 L27.6922778,13.3757962 L27.7882338,13.3757962 L27.8591424,13.7836284 L27.9295218,13.3757962 L28.0254777,13.3757962 L28.0254777,14.0127389 L27.9586261,14.0127389 Z M27.4791993,14.0127389 L27.4791993,13.5131837 L27.388535,13.5131837 L27.388535,13.3757962 L27.6365387,13.3757962 L27.6365387,13.5131837 L27.5460509,13.5131837 L27.5460509,14.0127389 L27.4791993,14.0127389 Z" id="Fill-26" fill="#E2E3E4"></path>
                <path d="M99.6413317,11.0737922 L99.6413317,11.125568 L99.6991761,11.125568 C99.7111045,11.125568 99.720255,11.1237188 99.7266277,11.1198525 C99.7331638,11.1159861 99.7362685,11.1094301 99.7362685,11.1000163 C99.7362685,11.0911068 99.7331638,11.0843827 99.7266277,11.0801801 C99.720255,11.0759776 99.7111045,11.0737922 99.6991761,11.0737922 L99.6413317,11.0737922 Z M99.7004833,11.0050381 C99.7382293,11.0050381 99.7668247,11.0137794 99.7862696,11.0309259 C99.8057145,11.0482405 99.8155187,11.0712707 99.8155187,11.1000163 C99.8155187,11.1227102 99.8084924,11.1415378 99.7944397,11.1563308 C99.7805505,11.171292 99.7602886,11.181042 99.7334906,11.1857489 L99.8189501,11.2871151 L99.7266277,11.2871151 L99.6503188,11.1886066 L99.6413317,11.1886066 L99.6413317,11.2871151 L99.5640423,11.2871151 L99.5640423,11.0050381 L99.7004833,11.0050381 Z M99.6826725,11.3763778 C99.7132287,11.3763778 99.7423144,11.3703261 99.7692758,11.3582227 C99.7964006,11.3462874 99.8200939,11.3298133 99.840029,11.3089685 C99.8599641,11.2882918 99.8756508,11.2639168 99.8870889,11.2360117 C99.8985271,11.2081066 99.9042462,11.1781843 99.9042462,11.1460766 C99.9042462,11.1144732 99.8985271,11.0845508 99.8870889,11.0564776 C99.8756508,11.0284044 99.8599641,11.0040294 99.840029,10.9835209 C99.8200939,10.9630123 99.7964006,10.9467063 99.7692758,10.9346028 C99.7423144,10.9226675 99.7132287,10.9164477 99.6826725,10.9164477 C99.6509724,10.9164477 99.6213966,10.9226675 99.5941084,10.9346028 C99.5668202,10.9467063 99.5429634,10.9630123 99.5228649,10.9835209 C99.502603,11.0040294 99.4869164,11.0284044 99.4753148,11.0564776 C99.4638766,11.0845508 99.4581575,11.1144732 99.4581575,11.1460766 C99.4581575,11.1781843 99.4638766,11.2081066 99.4753148,11.2360117 C99.4869164,11.2639168 99.502603,11.2882918 99.5228649,11.3089685 C99.5429634,11.3298133 99.5668202,11.3462874 99.5941084,11.3582227 C99.6213966,11.3703261 99.6509724,11.3763778 99.6826725,11.3763778 Z M99.6826725,10.8280255 C99.7266277,10.8280255 99.7679685,10.8364306 99.8065315,10.8532409 C99.8450945,10.8698832 99.8787554,10.8927452 99.9075142,10.9214908 C99.9361096,10.9504045 99.9586592,10.9840252 99.9753262,11.0225208 C99.9918299,11.0610164 100,11.1022016 100,11.1460766 C100,11.1894472 99.9918299,11.2306324 99.9753262,11.2694642 C99.9586592,11.308128 99.9361096,11.3419167 99.9075142,11.3709985 C99.8787554,11.4000804 99.8450945,11.4229424 99.8065315,11.4397527 C99.7679685,11.456563 99.7266277,11.4649682 99.6826725,11.4649682 C99.6377368,11.4649682 99.5957424,11.456563 99.5565258,11.4397527 C99.5174726,11.4229424 99.4836483,11.4000804 99.4550529,11.3709985 C99.4264575,11.3419167 99.4039079,11.308128 99.3875677,11.2694642 C99.3712274,11.2306324 99.3630573,11.1894472 99.3630573,11.1460766 C99.3630573,11.1022016 99.3712274,11.0610164 99.3875677,11.0225208 C99.4039079,10.9840252 99.4264575,10.9504045 99.4550529,10.9214908 C99.4836483,10.8927452 99.5174726,10.8698832 99.5565258,10.8532409 C99.5957424,10.8364306 99.6377368,10.8280255 99.6826725,10.8280255 Z" id="Fill-28" fill="#1D1D1B"></path>
                <g id="Group-32" transform="translate(14.012739, 0.000000)">
                    <mask id="mask-4" fill="white">
                        <use xlink:href="#path-3"></use>
                    </mask>
                    <g id="Clip-31"></g>
                    <path d="M5.60830636,0.13673121 C3.51412238,0.13673121 1.58997076,0.826463694 0.066644043,1.97869299 C2.13224914,3.54113885 3.45912603,5.95543185 3.45912603,8.66712611 C3.45912603,11.3788204 2.13224914,13.7931134 0.066644043,15.3555592 C1.58997076,16.5077885 3.51412238,17.197521 5.60830636,17.197521 C10.5426073,17.197521 14.5426908,13.3783108 14.5426908,8.66712611 C14.5426908,3.9559414 10.5426073,0.13673121 5.60830636,0.13673121" id="Fill-30" fill="#E2E3E4" mask="url(#mask-4)"></path>
                </g>
            </g>
        </g>
    </g>
</svg>