<?xml version="1.0" encoding="UTF-8"?>
<svg width="15px" height="16px" viewBox="0 0 15 16" version="1.1" xmlns="http://www.w3.org/2000/svg" xmlns:xlink="http://www.w3.org/1999/xlink">
    <!-- Generator: Sketch 51.3 (57544) - http://www.bohemiancoding.com/sketch -->
    <title>noun_zoom area_1692878</title>
    <desc>Created with Sketch.</desc>
    <defs></defs>
    <g id="Template_pitch_creacion" stroke="none" stroke-width="1" fill="none" fill-rule="evenodd">
        <g id="hover_02-copy" transform="translate(-280.000000, -205.000000)" fill="#FFFFFF" fill-rule="nonzero">
            <g id="noun_zoom-area_1692878" transform="translate(280.000000, 205.000000)">
                <g id="Group">
                    <path d="M6.65425532,8.60106383 L1.91489362,8.60106383 L0.0319148936,8.60106383 L0.0319148936,10.5 L0.0319148936,13.3404255 L0.0319148936,15.2393617 L1.91489362,15.2393617 L6.65425532,15.2393617 L8.55319149,15.2393617 L8.55319149,13.3404255 L8.55319149,10.5 L8.55319149,8.60106383 L6.65425532,8.60106383 Z M7.61170213,14.2978723 L0.973404255,14.2978723 L0.973404255,9.55851064 L7.61170213,9.55851064 L7.61170213,14.2978723 Z" id="Shape"></path>
                    <path d="M11.1542553,9.86170213 C11.9042553,8.84042553 12.3510638,7.59574468 12.3510638,6.2393617 C12.3510638,2.84042553 9.59042553,0.079787234 6.19148936,0.079787234 C2.79255319,0.079787234 0.0319148936,2.84042553 0.0319148936,6.2393617 C0.0319148936,6.73404255 0.0957446809,7.19680851 0.207446809,7.65957447 L1.91489362,7.65957447 L1.99468085,7.65957447 C1.83510638,7.21276596 1.7393617,6.73404255 1.7393617,6.2393617 C1.7393617,3.78191489 3.73404255,1.80319149 6.17553191,1.80319149 C8.63297872,1.80319149 10.6117021,3.79787234 10.6117021,6.2393617 C10.6117021,7.37234043 10.1808511,8.39361702 9.4787234,9.17553191 L9.4787234,11.4095745 C9.59042553,11.3457447 9.68617021,11.2819149 9.79787234,11.2180851 L13.6276596,15.0478723 L14.9680851,13.7074468 L11.1542553,9.86170213 Z" id="Shape"></path>
                </g>
            </g>
        </g>
    </g>
</svg>