<?xml version="1.0" encoding="UTF-8"?>
<svg width="10px" height="13px" viewBox="0 0 10 13" version="1.1" xmlns="http://www.w3.org/2000/svg" xmlns:xlink="http://www.w3.org/1999/xlink">
    <!-- Generator: Sketch 51.3 (57544) - http://www.bohemiancoding.com/sketch -->
    <title>Group</title>
    <desc>Created with Sketch.</desc>
    <defs></defs>
    <g id="Crear_brief" stroke="none" stroke-width="1" fill="none" fill-rule="evenodd">
        <g id="07_crear_brief_admin" transform="translate(-1211.000000, -28.000000)" fill="#4F5C69" fill-rule="nonzero">
            <g id="Group" transform="translate(1211.000000, 28.000000)">
                <g id="Shape">
                    <path d="M1.67647059,5.02941176 L1.67647059,2.81716677 C1.67647059,1.26128852 3.05216335,0 4.75,0 C6.44746341,0 7.82352941,1.26249996 7.82352941,2.81716677 L7.82352941,5.02941176 L8.44703621,5.02941176 C9.02857206,5.02941176 9.5,5.53071008 9.5,6.14617558 L9.5,11.7361774 C9.5,12.352949 9.02889352,12.8529412 8.44703621,12.8529412 L1.05296379,12.8529412 C0.471427947,12.8529412 0,12.3516429 0,11.7361774 L0,6.14617558 C0,5.52940395 0.471106478,5.02941176 1.05296379,5.02941176 L1.67647059,5.02941176 Z M1.11764706,6.14705882 L1.11764706,11.7352941 L8.38235294,11.7352941 L8.38235294,6.14705882 L1.11764706,6.14705882 Z M6.70588235,5.02941176 L6.70588235,2.81716677 C6.70588235,1.90204039 5.85036321,1.11764706 4.75,1.11764706 C3.64888836,1.11764706 2.79411765,1.90118719 2.79411765,2.81716677 L2.79411765,5.02941176 L6.70588235,5.02941176 Z M4.19117647,8.2618802 C4.19117647,7.95330989 4.43921856,7.70316424 4.75,7.70316424 C5.05862971,7.70316424 5.30882353,7.95112355 5.30882353,8.2618802 L5.30882353,9.93856594 C5.30882353,10.2471362 5.06078144,10.4972819 4.75,10.4972819 C4.44137029,10.4972819 4.19117647,10.2493226 4.19117647,9.93856594 L4.19117647,8.2618802 Z"></path>
                </g>
            </g>
        </g>
    </g>
</svg>