<?xml version="1.0" encoding="UTF-8"?>
<svg width="12px" height="12px" viewBox="0 0 12 12" version="1.1" xmlns="http://www.w3.org/2000/svg" xmlns:xlink="http://www.w3.org/1999/xlink">
    <!-- Generator: Sketch 49.1 (51147) - http://www.bohemiancoding.com/sketch -->
    <title>icon_planes</title>
    <desc>Created with Sketch.</desc>
    <defs>
        <path d="M0,0 L2.26111111,0 L2.26111111,5.71428571 L0,5.71428571 L0,0 Z M0.55,0.952380952 L0.55,4.6984127 L1.71111111,4.6984127 L1.71111111,0.952380952 L0.55,0.952380952 Z" id="path-1"></path>
        <path d="M0,0 L2.26111111,0 L2.26111111,5.71428571 L0,5.71428571 L0,0 Z M0.55,0.952380952 L0.55,4.6984127 L1.71111111,4.6984127 L1.71111111,0.952380952 L0.55,0.952380952 Z" id="path-3"></path>
    </defs>
    <g id="icon_planes" stroke="none" stroke-width="1" fill="none" fill-rule="evenodd">
        <g transform="translate(0.000000, 2.000000)">
            <path d="M2.75,0 L8.25,0 L8.25,8 L2.75,8 L2.75,0 Z M3.42222222,0.825396825 L3.42222222,7.23809524 L7.57777778,7.23809524 L7.57777778,0.825396825 L3.42222222,0.825396825 Z" id="Combined-Shape" fill="#4F5C69"></path>
            <g id="Rectangle-6-Copy" transform="translate(0.000000, 1.142857)">
                <g>
                    <mask id="mask-2" fill="white">
                        <use xlink:href="#path-1"></use>
                    </mask>
                    <use id="Combined-Shape" fill="#4F5C69" xlink:href="#path-1"></use>
                </g>
            </g>
            <g id="Rectangle-6-Copy-3" transform="translate(8.738889, 1.142857)">
                <g id="Rectangle-6-Copy">
                    <mask id="mask-4" fill="white">
                        <use xlink:href="#path-3"></use>
                    </mask>
                    <use id="Combined-Shape" fill="#4F5C69" xlink:href="#path-3"></use>
                </g>
            </g>
        </g>
    </g>
</svg>