<?xml version="1.0" encoding="UTF-8"?>
<svg width="12px" height="12px" viewBox="0 0 12 12" version="1.1" xmlns="http://www.w3.org/2000/svg" xmlns:xlink="http://www.w3.org/1999/xlink">
    <!-- Generator: Sketch 49.1 (51147) - http://www.bohemiancoding.com/sketch -->
    <title>icon_recoemndar</title>
    <desc>Created with Sketch.</desc>
    <defs></defs>
    <g id="icon_recoemndar" stroke="none" stroke-width="1" fill="none" fill-rule="evenodd">
        <g transform="translate(1.000000, 1.000000)" fill="#4F5C69" fill-rule="nonzero" id="Shape">
            <path d="M3.69565107,0 C2.79905244,0 2.06521483,0.73383435 2.06521483,1.63043624 C2.06521483,1.99685069 2.1885519,2.33562708 2.39469339,2.60869798 L0.434778584,2.60869798 C0.264039302,2.60871537 0.108713076,2.76405138 0.108691337,2.93478522 L0.108691337,4.89130979 C0.108713076,5.06203821 0.264039302,5.2173753 0.434778584,5.21739704 L0.760865842,5.21739704 L0.760865842,9.67392275 C0.760887581,9.84465117 0.916213807,9.99998826 1.08695309,10.00001 L8.91304702,10.00001 C9.0837863,9.99998826 9.23911253,9.84465117 9.23913427,9.67392275 L9.23913427,5.21739704 L9.56522152,5.21739704 C9.7359608,5.2173753 9.89128702,5.06203821 9.89130876,4.89130979 L9.89130876,2.93478522 C9.89128702,2.76405138 9.7359608,2.60871537 9.56522152,2.60869798 L7.60530673,2.60869798 C7.81144821,2.33562708 7.93478528,1.99685069 7.93478528,1.63043624 C7.93478528,0.73383435 7.20094767,0 6.30434904,0 C5.772479,0 5.29810902,0.261704581 5.00000006,0.658967979 C4.70189109,0.261704581 4.22752111,0 3.69565107,0 Z M3.69565107,0.652174494 C4.23977112,0.652174494 4.67391281,1.08630097 4.67391281,1.63043624 L4.67391281,2.60869798 L3.69565107,2.60869798 C3.15152015,2.60869798 2.71738933,2.17456172 2.71738933,1.63043624 C2.71738933,1.08629771 3.15150928,0.652174494 3.69565107,0.652174494 Z M6.30434904,0.652174494 C6.84849083,0.652174494 7.28261079,1.08629771 7.28261079,1.63043624 C7.28261079,2.17456172 6.84847996,2.60869798 6.30434904,2.60869798 L5.3260873,2.60869798 L5.3260873,1.63043624 C5.3260873,1.08629771 5.76020725,0.652174494 6.30434904,0.652174494 Z M0.760865842,3.26087247 C2.06521483,3.26087247 3.36956382,3.26087247 4.67391281,3.26087247 L4.67391281,4.56522146 C3.36956382,4.56522146 2.06521483,4.56522146 0.760865842,4.56522146 L0.760865842,3.26087247 Z M5.3260873,3.26087247 C6.63043629,3.26087247 7.93478528,3.26087247 9.23913427,3.26087247 L9.23913427,4.56522146 C7.93478528,4.56522146 6.63043629,4.56522146 5.3260873,4.56522146 L5.3260873,3.26087247 Z M1.41304034,5.21739704 L4.67391281,5.21739704 L4.67391281,9.34783551 L1.41304034,9.34783551 L1.41304034,5.21739704 Z M5.3260873,5.21739704 L8.58695977,5.21739704 L8.58695977,9.34783551 L5.3260873,9.34783551 L5.3260873,5.21739704 Z"></path>
        </g>
    </g>
</svg>