<?xml version="1.0" encoding="UTF-8"?>
<svg width="12px" height="12px" viewBox="0 0 12 12" version="1.1" xmlns="http://www.w3.org/2000/svg" xmlns:xlink="http://www.w3.org/1999/xlink">
    <!-- Generator: Sketch 49.1 (51147) - http://www.bohemiancoding.com/sketch -->
    <title>icon_idioma</title>
    <desc>Created with Sketch.</desc>
    <defs></defs>
    <g id="icon_idioma" stroke="none" stroke-width="1" fill="none" fill-rule="evenodd">
        <g transform="translate(1.000000, 1.000000)" fill="#4F5C69" id="Group">
            <g>
                <path d="M4.99583333,0.833333333 C2.69583333,0.833333333 0.833333333,2.7 0.833333333,5 C0.833333333,7.3 2.69583333,9.16666667 4.99583333,9.16666667 C7.3,9.16666667 9.16666667,7.3 9.16666667,5 C9.16666667,2.7 7.3,0.833333333 4.99583333,0.833333333 L4.99583333,0.833333333 Z M7.88333333,3.33333333 L6.65416667,3.33333333 C6.52083333,2.8125 6.32916667,2.3125 6.07916667,1.85 C6.84583333,2.1125 7.48333333,2.64583333 7.88333333,3.33333333 L7.88333333,3.33333333 Z M5,1.68333333 C5.34583333,2.18333333 5.61666667,2.7375 5.79583333,3.33333333 L4.20416667,3.33333333 C4.38333333,2.7375 4.65416667,2.18333333 5,1.68333333 L5,1.68333333 Z M1.775,5.83333333 C1.70833333,5.56666667 1.66666667,5.2875 1.66666667,5 C1.66666667,4.7125 1.70833333,4.43333333 1.775,4.16666667 L3.18333333,4.16666667 C3.15,4.44166667 3.125,4.71666667 3.125,5 C3.125,5.28333333 3.15,5.55833333 3.18333333,5.83333333 L1.775,5.83333333 L1.775,5.83333333 Z M2.11666667,6.66666667 L3.34583333,6.66666667 C3.47916667,7.1875 3.67083333,7.6875 3.92083333,8.15 C3.15416667,7.8875 2.51666667,7.35833333 2.11666667,6.66666667 L2.11666667,6.66666667 Z M3.34583333,3.33333333 L2.11666667,3.33333333 C2.51666667,2.64166667 3.15416667,2.1125 3.92083333,1.85 C3.67083333,2.3125 3.47916667,2.8125 3.34583333,3.33333333 L3.34583333,3.33333333 Z M5,8.31666667 C4.65416667,7.81666667 4.38333333,7.2625 4.20416667,6.66666667 L5.79583333,6.66666667 C5.61666667,7.2625 5.34583333,7.81666667 5,8.31666667 L5,8.31666667 Z M5.975,5.83333333 L4.025,5.83333333 C3.9875,5.55833333 3.95833333,5.28333333 3.95833333,5 C3.95833333,4.71666667 3.9875,4.4375 4.025,4.16666667 L5.975,4.16666667 C6.0125,4.4375 6.04166667,4.71666667 6.04166667,5 C6.04166667,5.28333333 6.0125,5.55833333 5.975,5.83333333 L5.975,5.83333333 Z M6.07916667,8.15 C6.32916667,7.6875 6.52083333,7.1875 6.65416667,6.66666667 L7.88333333,6.66666667 C7.48333333,7.35416667 6.84583333,7.8875 6.07916667,8.15 L6.07916667,8.15 Z M6.81666667,5.83333333 C6.85,5.55833333 6.875,5.28333333 6.875,5 C6.875,4.71666667 6.85,4.44166667 6.81666667,4.16666667 L8.225,4.16666667 C8.29166667,4.43333333 8.33333333,4.7125 8.33333333,5 C8.33333333,5.2875 8.29166667,5.56666667 8.225,5.83333333 L6.81666667,5.83333333 L6.81666667,5.83333333 Z" id="Shape"></path>
            </g>
        </g>
    </g>
</svg>