<?xml version="1.0" encoding="UTF-8"?>
<svg width="12px" height="12px" viewBox="0 0 12 12" version="1.1" xmlns="http://www.w3.org/2000/svg" xmlns:xlink="http://www.w3.org/1999/xlink">
    <!-- Generator: Sketch 49.1 (51147) - http://www.bohemiancoding.com/sketch -->
    <title>icon_soporte</title>
    <desc>Created with Sketch.</desc>
    <defs></defs>
    <g id="icon_soporte" stroke="none" stroke-width="1" fill="none" fill-rule="evenodd">
        <g transform="translate(1.000000, 1.000000)" fill="#4F5C69" fill-rule="nonzero" id="Shape">
            <path d="M0.952596363,0 L0.738262181,0.202499074 L0.202426727,0.738526034 L0,0.952936818 L0.154796909,1.20308273 L0.952596363,2.53719428 L1.05976345,2.72778164 L1.27409764,2.72778164 L2.03617473,2.72778164 L2.17906418,2.72778164 L3.70321836,4.24056884 C2.34189696,5.60937605 0.60936934,7.34743523 0.547742909,7.40908376 C-0.0492688174,8.0063087 -0.0511320577,8.98509755 0.559650363,9.5531916 C1.15558695,10.1414574 2.12481172,10.1563682 2.69108473,9.5531916 C2.69505781,9.54896056 2.6990591,9.54557192 2.70299218,9.54127989 L5.04876072,7.18276127 L7.40643672,9.5531916 L7.44215909,9.57701502 C8.0398691,10.141661 8.99122557,10.1481451 9.54977854,9.5531916 L9.54977854,9.54127989 L9.56168599,9.54127989 C10.1450526,8.94473611 10.1511187,7.97403616 9.54977854,7.40908376 L9.53787108,7.39717205 L7.54932618,5.41982815 C8.88692655,5.29517868 9.93484581,4.16474899 9.95463199,2.7992519 L9.96653945,2.7992519 C9.96733963,2.79119006 9.96581548,2.7834827 9.96653945,2.77542848 C9.96689801,2.77140328 9.96620337,2.76754198 9.96653945,2.76351677 C10.0033783,2.3225735 9.9089028,1.90176854 9.68076054,1.53661062 L9.41879654,1.13161247 L9.08538781,1.46514036 L7.64458581,2.90645729 L7.10875036,2.34660691 L8.51382999,0.941025108 L8.91868345,0.53602696 L8.39475545,0.321616176 C8.08777213,0.19000489 7.73437678,0.0952936818 7.334992,0.0952936818 C5.86972542,0.0952936818 4.66772218,1.2977267 4.66772218,2.76351677 C4.66772218,2.92321907 4.70161937,3.06192512 4.72725945,3.20425005 C4.56020529,3.37163073 4.43491753,3.50787211 4.23905382,3.70454188 L2.72680709,2.19175468 L2.72680709,2.03690245 L2.72680709,1.27455299 L2.72680709,1.06014221 L2.53628782,0.952936818 L1.20265291,0.154852233 L0.952596363,0 Z M7.334992,0.857643136 C7.38919892,0.857643136 7.42611546,0.889082046 7.47788145,0.893378267 L6.29904345,2.07263758 L6.03707945,2.3346952 L6.29904345,2.60866454 L7.37071436,3.71645359 L7.63267836,3.99042293 L7.90654981,3.71645359 L9.14492509,2.47763573 C9.15298786,2.56497216 9.21430001,2.6293698 9.20446236,2.72778164 L9.20446236,2.73969335 L9.20446236,2.76351677 C9.20446236,3.81347971 8.34885745,4.66939041 7.29926963,4.66939041 C7.15955537,4.66939041 6.98967581,4.63603762 6.79915654,4.59792015 L6.59672981,4.56218502 L6.45384036,4.70512554 L2.15524927,9.01716464 L2.14334182,9.01716464 L2.14334182,9.02907635 C1.87188439,9.32531772 1.39862286,9.33232181 1.08357836,9.01716464 L1.08357836,9.00525293 L1.07167091,9.00525293 C0.775535562,8.73369834 0.768533865,8.26026789 1.08357836,7.94511072 C1.22782713,7.80081055 4.0248328,4.97898166 5.39407691,3.6092482 L5.54887381,3.45439597 L5.48933654,3.23998518 C5.4584808,3.11651888 5.42979927,2.90328097 5.42979927,2.76351677 C5.42979927,1.71355364 6.28540418,0.857643136 7.334992,0.857643136 Z M1.07167091,0.952936818 L1.96473,1.50087549 L1.96473,1.88205022 L1.88137782,1.96543219 L1.50033927,1.96543219 L0.952596363,1.07205392 L1.07167091,0.952936818 Z M6.64435963,5.5865921 L9.01394309,7.94511072 L9.01394309,7.95702243 L9.02585054,7.95702243 C9.32198608,8.22857702 9.32898766,8.70200747 9.01394309,9.01716464 L9.00203563,9.01716464 L9.00203563,9.02907635 C8.73057806,9.32531772 8.25731675,9.33232181 7.94227218,9.01716464 L5.58459618,6.64673431 L6.64435963,5.5865921 Z"></path>
        </g>
    </g>
</svg>