<?xml version="1.0" encoding="UTF-8"?>
<svg width="15px" height="15px" viewBox="0 0 15 15" version="1.1" xmlns="http://www.w3.org/2000/svg" xmlns:xlink="http://www.w3.org/1999/xlink">
    <!-- Generator: Sketch 51.3 (57544) - http://www.bohemiancoding.com/sketch -->
    <title>ico_adjuntar_brief</title>
    <desc>Created with Sketch.</desc>
    <defs></defs>
    <g id="ico_adjuntar_brief" stroke="none" stroke-width="1" fill="none" fill-rule="evenodd">
        <g id="icono_adjuntar" fill="#4F5C69">
            <g id="icono_link_barwriting" transform="translate(4.000000, 0.000000)">
                <path d="M0.652310924,3.40336134 L8.39495798,3.40336134 C10.0246008,3.40336134 11.3445378,4.69560733 11.3445378,6.29106188 C11.3445378,7.88651642 10.0246008,9.17876241 8.39495798,9.17876241 L2.12710084,9.17876241 C1.1094958,9.17876241 0.283613445,8.37020626 0.283613445,7.37394958 C0.283613445,6.3776929 1.1094958,5.56913675 2.12710084,5.56913675 L7.65756303,5.56913675 L7.65756303,7.01298701 L2.06073529,7.01298701 C1.65516807,7.01298701 1.65516807,7.73491215 2.06073529,7.73491215 L8.39495798,7.73491215 C9.20609244,7.73491215 9.8697479,7.08517953 9.8697479,6.29106188 C9.8697479,5.49694423 9.20609244,4.84721161 8.39495798,4.84721161 L0.652310924,4.84721161 C-0.770861345,4.84721161 -1.92857143,5.98063407 -1.92857143,7.37394958 C-1.92857143,8.76726509 -0.770861345,9.90068755 0.652310924,9.90068755 L7.65756303,9.90068755 L7.65756303,11.3445378 L0.652310924,11.3445378 C-1.58936975,11.3445378 -3.40336134,9.56860199 -3.40336134,7.37394958 C-3.40336134,5.17929717 -1.58936975,3.40336134 0.652310924,3.40336134 Z" id="Shape" transform="translate(3.970588, 7.373950) rotate(90.000000) translate(-3.970588, -7.373950) "></path>
            </g>
        </g>
    </g>
</svg>