<?xml version="1.0" encoding="UTF-8"?>
<svg width="15px" height="15px" viewBox="0 0 15 15" version="1.1" xmlns="http://www.w3.org/2000/svg" xmlns:xlink="http://www.w3.org/1999/xlink">
    <!-- Generator: Sketch 51.3 (57544) - http://www.bohemiancoding.com/sketch -->
    <title>ico_audio_brief</title>
    <desc>Created with Sketch.</desc>
    <defs></defs>
    <g id="ico_audio_brief" stroke="none" stroke-width="1" fill="none" fill-rule="evenodd">
        <g id="Group" transform="translate(3.000000, 1.000000)" fill="#4F5C69">
            <path d="M4.68145551,8.02535231 C5.79162925,8.02535231 6.6811058,7.12918797 6.6811058,6.01901423 L6.68779359,2.00633808 C6.68779359,0.896164341 5.79162925,0 4.68145551,0 C3.57128178,0 2.67511744,0.896164341 2.67511744,2.00633808 L2.67511744,6.01901423 C2.67511744,7.12918797 3.57128178,8.02535231 4.68145551,8.02535231 L4.68145551,8.02535231 Z M5.35023487,12.4201881 L6.97441332,12.4201881 L6.97441332,13.566667 L2.38849771,13.566667 L2.38849771,12.4201881 L4.01267615,12.4201881 L4.01267615,10.5132115 C1.81907986,10.1855096 0,8.29955185 0,6.01901423 L1.13692491,6.01901423 C1.13692491,8.02535231 2.83562448,9.42978896 4.68145551,9.42978896 C6.52728655,9.42978896 8.22598612,8.02535231 8.22598612,6.01901423 L9.36291103,6.01901423 C9.36291103,8.30623964 7.54383117,10.1921974 5.35023487,10.5132115 L5.35023487,12.4201881 Z" id="Shape"></path>
        </g>
    </g>
</svg>