<?xml version="1.0" encoding="UTF-8"?>
<svg width="15px" height="15px" viewBox="0 0 15 15" version="1.1" xmlns="http://www.w3.org/2000/svg" xmlns:xlink="http://www.w3.org/1999/xlink">
    <!-- Generator: Sketch 51.3 (57544) - http://www.bohemiancoding.com/sketch -->
    <title>ico_link_brief</title>
    <desc>Created with Sketch.</desc>
    <defs>
        <polygon id="path-1" points="0 0.0217938224 0 8.91763192 9.00500448 8.91763192 9.00500448 0.0217938224 2.99295095e-21 0.0217938224"></polygon>
    </defs>
    <g id="ico_link_brief" stroke="none" stroke-width="1" fill="none" fill-rule="evenodd">
        <g id="icono_link">
            <g id="Page-1-Copy-11" transform="translate(1.000000, 1.000000)">
                <g id="Group-3" transform="translate(0.000000, 4.401042)">
                    <mask id="mask-24" fill="white">
                        <use xlink:href="#path-1"></use>
                    </mask>
                    <g id="Clip-2"></g>
                    <path d="M1.36369194,7.59090579 C2.26913922,8.48266898 3.46167955,8.91767542 4.63213579,8.91767542 C5.82467611,8.91767542 7.01721644,8.48266898 7.90080048,7.59090579 L8.67374328,6.82964453 C9.11542488,6.3946381 9.11542488,5.72016062 8.67374328,5.28515418 C8.23206168,4.85036525 7.54723436,4.85036525 7.10555276,5.28515418 L6.33260995,6.04641544 C5.38299451,6.98189678 3.83710891,6.98189678 2.88749347,6.04641544 C1.93787802,5.11136911 1.93787802,3.58884659 2.88749347,2.65358275 L3.66043627,1.89232149 C4.10211787,1.45731506 4.10211787,0.783055084 3.66043627,0.348048649 C3.21875467,-0.0869577864 2.53414819,-0.0869577864 2.09246658,0.348048649 L1.31952378,1.10930991 C-0.447202621,2.91458662 -0.447202621,5.82891223 1.36369194,7.59090579" id="Fill-1" fill="#4F5C69" mask="url(#mask-24)"></path>
                </g>
                <g id="Group-6" transform="translate(4.401042, 0.000000)" fill="#4F5C69">
                    <path d="M5.51545482,7.09058314 C5.07377322,7.52558958 5.07377322,8.19984955 5.51545482,8.63485598 C5.73629562,8.8523592 6.02360951,8.96111081 6.28839763,8.96111081 C6.55340659,8.96111081 6.86280455,8.8523592 7.06134043,8.63485598 L7.83428323,7.87359472 C8.71764643,7.00358185 9.20349619,5.87256512 9.20349619,4.6545471 C9.20349619,3.43652909 8.71764643,2.28376203 7.83428323,1.43549949 C6.02360951,-0.348026898 3.08620602,-0.348026898 1.27531145,1.43549949 L0.502368653,2.19676075 C0.060687052,2.63176718 0.060687052,3.30602716 0.502368653,3.74103359 C0.944050254,4.17604003 1.62865674,4.17604003 2.07033834,3.74103359 L2.84328114,2.97977233 C3.79289658,2.04450849 5.33878218,2.04450849 6.28839763,2.97977233 C6.75238415,3.43652909 6.99508819,4.02378777 6.99508819,4.67629743 C6.99508819,5.30705676 6.75238415,5.91606577 6.28839763,6.37282252 L5.51545482,7.09058314 Z" id="Fill-4"></path>
                </g>
                <path d="M4.71097418,7.02722011 C4.29773083,7.439979 4.29773083,8.07975528 4.71097418,8.49251417 C4.91759585,8.69889361 5.18620403,8.80208333 5.43415004,8.80208333 C5.70275822,8.80208333 5.97136639,8.69889361 6.1573259,8.49251417 L8.49215082,6.16042644 C8.90539417,5.74766755 8.90539417,5.10789127 8.49215082,4.69513238 C8.09977626,4.30301143 7.45904245,4.30301143 7.0457991,4.69513238 L4.71097418,7.02722011 Z" id="Fill-7" fill="#4F5C69"></path>
            </g>
        </g>
    </g>
</svg>