<?xml version="1.0" encoding="UTF-8"?>
<svg width="12px" height="12px" viewBox="0 0 12 12" version="1.1" xmlns="http://www.w3.org/2000/svg" xmlns:xlink="http://www.w3.org/1999/xlink">
    <!-- Generator: Sketch 51.2 (57519) - http://www.bohemiancoding.com/sketch -->
    <title>Page 1 Copy 11</title>
    <desc>Created with Sketch.</desc>
    <defs>
        <polygon id="path-1" points="0 0.0186804192 0 7.6436845 7.71857527 7.6436845 7.71857527 0.0186804192 2.56538652e-21 0.0186804192"></polygon>
    </defs>
    <g  stroke="none" stroke-width="1" fill="none" fill-rule="evenodd">
        <g id="interface_minuta_llenado_ahora_llena" transform="translate(-526.000000, -141.000000)">
            <g id="Group-2-Copy" transform="translate(389.000000, 133.000000)">
                <g id="Page-1-Copy-11" transform="translate(137.000000, 8.000000)">
                    <g id="Group-3" transform="translate(0.000000, 3.772321)">
                        <mask id="mask-icono-adjuntar-minuta" fill="white">
                            <use xlink:href="#path-1"></use>
                        </mask>
                        <g ></g>
                        <path d="M1.16887881,6.50649068 C1.94497648,7.27085913 2.9671539,7.64372179 3.97040211,7.64372179 C4.99257953,7.64372179 6.01475694,7.27085913 6.7721147,6.50649068 L7.4346371,5.85398103 C7.81322133,5.48111837 7.81322133,4.90299482 7.4346371,4.53013216 C7.05605287,4.15745593 6.46905802,4.15745593 6.09047379,4.53013216 L5.42795139,5.18264181 C4.6139953,5.98448296 3.28895049,5.98448296 2.4749944,5.18264181 C1.66103831,4.38117352 1.66103831,3.07615422 2.4749944,2.2744995 L3.1375168,1.62198985 C3.51610103,1.24912719 3.51610103,0.671190072 3.1375168,0.298327413 C2.75893257,-0.0745352454 2.17212702,-0.0745352454 1.79354279,0.298327413 L1.13102039,0.950837066 C-0.383316532,2.4982171 -0.383316532,4.99621048 1.16887881,6.50649068" fill="#FFFFFF" mask="url(#mask-icono-adjuntar-minuta)"></path>
                    </g>
                    <g id="Group-6" transform="translate(3.772321, 0.000000)" fill="#FFFFFF">
                        <path d="M4.72753271,6.07764269 C4.34894848,6.45050535 4.34894848,7.02844247 4.72753271,7.40130513 C4.91682482,7.58773646 5.16309386,7.68095212 5.39005511,7.68095212 C5.61720565,7.68095212 5.8824039,7.58773646 6.05257751,7.40130513 L6.71509991,6.74879548 C7.47226837,6.00307016 7.88871102,5.03362725 7.88871102,3.9896118 C7.88871102,2.94559636 7.47226837,1.95751031 6.71509991,1.23042813 C5.16309386,-0.29830877 2.64531944,-0.29830877 1.0931241,1.23042813 L0.430601703,1.88293778 C0.0520174731,2.25580044 0.0520174731,2.83373756 0.430601703,3.20660022 C0.809185932,3.57946288 1.39599149,3.57946288 1.77457572,3.20660022 L2.43709812,2.55409057 C3.25105421,1.75243585 4.57609901,1.75243585 5.39005511,2.55409057 C5.78775784,2.94559636 5.99578987,3.44896095 5.99578987,4.00825494 C5.99578987,4.54890579 5.78775784,5.07091351 5.39005511,5.46241931 L4.72753271,6.07764269 Z" ></path>
                    </g>
                    <path d="M6.03925637,4.02439918 L4.03797787,6.02333152 C3.68376928,6.37712485 3.68376928,6.92550452 4.03797787,7.27929786 C4.21508216,7.45619452 4.44531774,7.54464286 4.65784289,7.54464286 C4.88807847,7.54464286 5.11831405,7.45619452 5.27770791,7.27929786 L7.27898642,5.28036552 C7.633195,4.92657218 7.633195,4.37819251 7.27898642,4.02439918 C6.94266537,3.68829551 6.39346496,3.68829551 6.03925637,4.02439918"  fill="#FFFFFF"></path>
                </g>
            </g>
        </g>
    </g>
</svg>