<?xml version="1.0" encoding="utf-8"?>
<!-- Generator: Adobe Illustrator 21.1.0, SVG Export Plug-In . SVG Version: 6.00 Build 0)  -->
<svg version="1.1" id="Capa_1" xmlns="http://www.w3.org/2000/svg" xmlns:xlink="http://www.w3.org/1999/xlink" x="0px" y="0px"
	 viewBox="0 0 860 551" style="enable-background:new 0 0 860 551;" xml:space="preserve">
<style type="text/css">
	.st0{fill:#ADAFD8;}
	.st1{fill:#8A8BC3;}
	.st2{fill:#EBEFFF;}
	.st3{opacity:0.2;fill:url(#SVGID_1_);}
	.st4{fill:#D0D2EF;}
	.st5{fill:#DCDEEF;}
	.st6{fill:#CACDE5;}
	.st7{fill:#C3C6DD;}
	.st8{fill:#AFB1E0;}
	.st9{fill:#A7AAD8;}
	.st10{fill:#9093D6;}
	.st11{fill:#8D92CC;}
	.st12{fill:#858DC1;}
	.st13{fill:#7F82B5;}
	.st14{fill:#7277AA;}
	.st15{fill:#6A70A0;}
	.st16{opacity:0.24;}
	.st17{opacity:0.71;clip-path:url(#SVGID_3_);fill:#424577;}
</style>
<rect x="317.5" y="291.5" class="st0" width="298" height="97"/>
<polygon class="st1" points="287,363.7 318,291 320,378 "/>
<path class="st1" d="M614,376c0-2,1-84,1-84l37,82L614,376z"/>
<path class="st2" d="M270.7,251l-147.3,0.6c0,0,22-4,22.5-13.9c0.6-9.8,64.7,4,69.9-3.5c5.2-7.5,20.2-15,27.1-6.9
	S256.8,242.3,270.7,251z"/>
<path class="st2" d="M827.5,203l-147.3,0.6c0,0,22-4,22.5-13.9c0.6-9.8,5.2-20.3,18.5-19.6c11.6,0.6,11.3,29.6,36.7,21.1
	c8.7-2.9,21.2-26.1,31.9-26C798.6,165.3,822.8,161.7,827.5,203z"/>
<linearGradient id="SVGID_1_" gradientUnits="userSpaceOnUse" x1="453.8365" y1="397.6619" x2="58.0671" y2="661.5085">
	<stop  offset="0" style="stop-color:#4A50C0;stop-opacity:2.000000e-02"/>
	<stop  offset="1" style="stop-color:#444BCA;stop-opacity:0.64"/>
</linearGradient>
<ellipse class="st3" cx="318.5" cy="487.9" rx="120.5" ry="24.1"/>
<path class="st4" d="M639.9,514H291.1c-7.8,0-14.1-6.3-14.1-14.1V374.1c0-7.8,6.3-14.1,14.1-14.1h348.9c7.8,0,14.1,6.3,14.1,14.1
	v125.9C654,507.7,647.7,514,639.9,514z"/>
<path class="st1" d="M522.5,449h-109c-7.5,0-13.5-6-13.5-13.5l0,0c0-7.5,6-13.5,13.5-13.5h109c7.5,0,13.5,6,13.5,13.5l0,0
	C536,443,530,449,522.5,449z"/>
<circle class="st5" cx="413.5" cy="342.5" r="4.5"/>
<circle class="st5" cx="428.5" cy="336.5" r="4.5"/>
<circle class="st4" cx="441.5" cy="327.5" r="4.5"/>
<ellipse transform="matrix(6.046965e-02 -0.9982 0.9982 6.046965e-02 109.0994 752.9087)" class="st4" cx="454.5" cy="318.5" rx="4.5" ry="4.5"/>
<circle class="st4" cx="467.5" cy="306.5" r="4.5"/>
<circle class="st6" cx="478.5" cy="294.5" r="4.5"/>
<circle class="st6" cx="487.5" cy="282.5" r="4.5"/>
<circle class="st7" cx="496.5" cy="268.5" r="4.5"/>
<circle class="st7" cx="504.5" cy="254.5" r="4.5"/>
<ellipse transform="matrix(0.4186 -0.9082 0.9082 0.4186 80.2138 602.2943)" class="st8" cx="510.5" cy="238.5" rx="4.5" ry="4.5"/>
<ellipse transform="matrix(0.4186 -0.9082 0.9082 0.4186 96.4175 598.1606)" class="st8" cx="515.4" cy="223.8" rx="4.5" ry="4.5"/>
<ellipse transform="matrix(0.4186 -0.9082 0.9082 0.4186 110.6264 590.3463)" class="st8" cx="516.4" cy="208.8" rx="4.5" ry="4.5"/>
<ellipse transform="matrix(0.4186 -0.9082 0.9082 0.4186 121.6001 579.48)" class="st9" cx="513.4" cy="194.8" rx="4.5" ry="4.5"/>
<ellipse transform="matrix(0.4186 -0.9082 0.9082 0.4186 129.9205 566.4698)" class="st9" cx="507.4" cy="181.8" rx="4.5" ry="4.5"/>
<ellipse transform="matrix(0.4186 -0.9082 0.9082 0.4186 135.0065 550.4078)" class="st9" cx="497.4" cy="169.8" rx="4.5" ry="4.5"/>
<ellipse transform="matrix(0.4186 -0.9082 0.9082 0.4186 136.2043 534.2731)" class="st9" cx="485.4" cy="160.8" rx="4.5" ry="4.5"/>
<ellipse transform="matrix(0.4186 -0.9082 0.9082 0.4186 135.9116 517.8115)" class="st9" cx="472.4" cy="152.8" rx="4.5" ry="4.5"/>
<ellipse transform="matrix(0.4186 -0.9082 0.9082 0.4186 129.4054 497.645)" class="st10" cx="453.4" cy="147.8" rx="4.5" ry="4.5"/>
<ellipse transform="matrix(0.4186 -0.9082 0.9082 0.4186 118.0301 481.8743)" class="st10" cx="435.4" cy="148.8" rx="4.5" ry="4.5"/>
<ellipse transform="matrix(0.4186 -0.9082 0.9082 0.4186 101.2046 469.5932)" class="st10" cx="417.4" cy="155.8" rx="4.5" ry="4.5"/>
<ellipse transform="matrix(0.4186 -0.9082 0.9082 0.4186 82.7439 464.7609)" class="st10" cx="404.4" cy="167.8" rx="4.5" ry="4.5"/>
<ellipse transform="matrix(0.4186 -0.9082 0.9082 0.4186 63.3025 464.3992)" class="st11" cx="394.3" cy="182.8" rx="4.5" ry="4.5"/>
<ellipse transform="matrix(0.4186 -0.9082 0.9082 0.4186 46.4413 470.0692)" class="st11" cx="390.3" cy="198.8" rx="4.5" ry="4.5"/>
<ellipse transform="matrix(0.4186 -0.9082 0.9082 0.4186 29.5086 479.6279)" class="st11" cx="389.3" cy="216.8" rx="4.5" ry="4.5"/>
<ellipse transform="matrix(0.4186 -0.9082 0.9082 0.4186 15.4829 493.7285)" class="st11" cx="393.3" cy="234.8" rx="4.5" ry="4.5"/>
<ellipse transform="matrix(0.4186 -0.9082 0.9082 0.4186 4.4372 508.4837)" class="st11" cx="399.3" cy="250.8" rx="4.5" ry="4.5"/>
<ellipse transform="matrix(0.4186 -0.9082 0.9082 0.4186 -0.3948 526.9438)" class="st12" cx="411.3" cy="263.8" rx="4.5" ry="4.5"/>
<ellipse transform="matrix(0.4186 -0.9082 0.9082 0.4186 -3.1542 546.6398)" class="st12" cx="425.3" cy="275.8" rx="4.5" ry="4.5"/>
<ellipse transform="matrix(0.4186 -0.9082 0.9082 0.4186 -3.5154 566.0815)" class="st12" cx="440.4" cy="285.8" rx="4.5" ry="4.5"/>
<ellipse transform="matrix(0.4186 -0.9082 0.9082 0.4186 2.0103 590.7175)" class="st12" cx="462.4" cy="293.8" rx="4.5" ry="4.5"/>
<ellipse transform="matrix(0.4186 -0.9082 0.9082 0.4186 15.8215 620.2945)" class="st1" cx="492.4" cy="297.8" rx="4.5" ry="4.5"/>
<ellipse transform="matrix(0.4186 -0.9082 0.9082 0.4186 28.6882 636.3942)" class="st1" cx="511.4" cy="295.8" rx="4.5" ry="4.5"/>
<ellipse transform="matrix(0.4186 -0.9082 0.9082 0.4186 44.2791 650.7465)" class="st1" cx="530.4" cy="290.8" rx="4.5" ry="4.5"/>
<ellipse transform="matrix(0.4186 -0.9082 0.9082 0.4186 60.5243 662.119)" class="st1" cx="547.4" cy="283.8" rx="4.5" ry="4.5"/>
<ellipse transform="matrix(0.4186 -0.9082 0.9082 0.4186 76.8417 669.6035)" class="st1" cx="561.4" cy="274.8" rx="4.5" ry="4.5"/>
<ellipse transform="matrix(0.4186 -0.9082 0.9082 0.4186 94.0673 676.5056)" class="st13" cx="575.4" cy="264.8" rx="4.5" ry="4.5"/>
<ellipse transform="matrix(0.4186 -0.9082 0.9082 0.4186 111.0385 681.0098)" class="st13" cx="587.4" cy="253.8" rx="4.5" ry="4.5"/>
<ellipse transform="matrix(0.4186 -0.9082 0.9082 0.4186 128.9178 684.9321)" class="st13" cx="599.4" cy="241.8" rx="4.5" ry="4.5"/>
<ellipse transform="matrix(0.4186 -0.9082 0.9082 0.4186 149.7765 689.5076)" class="st13" cx="613.4" cy="227.8" rx="4.5" ry="4.5"/>
<ellipse transform="matrix(0.4186 -0.9082 0.9082 0.4186 166.4939 691.6135)" class="st13" cx="623.4" cy="215.8" rx="4.5" ry="4.5"/>
<ellipse transform="matrix(0.4186 -0.9082 0.9082 0.4186 184.1185 693.1374)" class="st14" cx="633.4" cy="202.8" rx="4.5" ry="4.5"/>
<ellipse transform="matrix(0.4186 -0.9082 0.9082 0.4186 202.0748 693.1718)" class="st14" cx="642.4" cy="188.8" rx="4.5" ry="4.5"/>
<ellipse transform="matrix(0.4186 -0.9082 0.9082 0.4186 219.4454 692.2965)" class="st14" cx="650.4" cy="174.8" rx="4.5" ry="4.5"/>
<ellipse transform="matrix(0.4186 -0.9082 0.9082 0.4186 237.4638 688.4432)" class="st14" cx="656.4" cy="158.8" rx="4.5" ry="4.5"/>
<ellipse transform="matrix(0.4186 -0.9082 0.9082 0.4186 254.5794 685.17)" class="st14" cx="662.4" cy="143.8" rx="4.5" ry="4.5"/>
<ellipse transform="matrix(0.4186 -0.9082 0.9082 0.4186 270.5319 680.0807)" class="st15" cx="666.4" cy="128.8" rx="4.5" ry="4.5"/>
<ellipse transform="matrix(0.4186 -0.9082 0.9082 0.4186 283.2502 671.9396)" class="st15" cx="666.4" cy="114.8" rx="4.5" ry="4.5"/>
<path class="st15" d="M715.3,44c-2.1-4.9-16.3,3.2-23.4,8.6c-2.4-7.8-8.6-25.4-13.9-22.2c-6.8,4.1-8.1,16.3-8.1,16.3l2.7,8.1
	c0,0-10.8,2.7-10.8,6.8c0,4.1-5.4,25.8,2.7,21.7c8.1-4.1,15.1-11.6,15.1-11.6l7.3-7.3l1.5,10.4c0,0,1,12.2,5.1,20
	c4.1,7.8,12.2-13,14.5-16.3c2.3-3.3-4.7-11.5-4.7-11.5l9.2-5.2C712.4,61.8,718.3,51,715.3,44z"/>
<g class="st16">
	<defs>
		<rect id="SVGID_2_" x="390" y="434" class="st16" width="175" height="25"/>
	</defs>
	<clipPath id="SVGID_3_">
		<use xlink:href="#SVGID_2_"  style="overflow:visible;"/>
	</clipPath>
	<path class="st17" d="M522.5,449h-109c-7.5,0-13.5-6-13.5-13.5l0,0c0-7.5,6-13.5,13.5-13.5h109c7.5,0,13.5,6,13.5,13.5l0,0
		C536,443,530,449,522.5,449z"/>
</g>
</svg>
