<?xml version="1.0" encoding="utf-8"?>
<!-- Generator: Adobe Illustrator 21.1.0, SVG Export Plug-In . SVG Version: 6.00 Build 0)  -->
<svg version="1.1" id="Capa_1" xmlns="http://www.w3.org/2000/svg" xmlns:xlink="http://www.w3.org/1999/xlink" x="0px" y="0px"
	 viewBox="0 0 1125 739" style="enable-background:new 0 0 1125 739;" xml:space="preserve">
<style type="text/css">
	.st0{opacity:0.5;fill:url(#SVGID_1_);}
	.st1{opacity:0.61;fill:#EBEFFF;}
	.st2{fill:#EBEFFF;}
	.st3{fill:#FFFFFF;}
	.st4{fill:#E2E3F5;}
	.st5{opacity:0.2;fill:url(#SVGID_2_);}
	.st6{opacity:0.5;fill:url(#SVGID_3_);}
	.st7{fill:#A1A4F0;}
	.st8{fill:#F2F2F2;}
	.st9{fill:#524F63;}
	.st10{fill:#8A8BC3;}
	.st11{fill:#8E90EA;}
	.st12{fill:#C4C5EF;}
	.st13{fill:#2B1599;}
	.st14{fill:#555782;}
	.st15{fill:url(#SVGID_4_);}
	.st16{fill:url(#SVGID_5_);}
</style>
<linearGradient id="SVGID_1_" gradientUnits="userSpaceOnUse" x1="664.0415" y1="615.2451" x2="496.6788" y2="726.8203">
	<stop  offset="0" style="stop-color:#4A50C0;stop-opacity:2.000000e-02"/>
	<stop  offset="1" style="stop-color:#444BCA;stop-opacity:0.64"/>
</linearGradient>
<ellipse class="st0" cx="606.8" cy="653.4" rx="51.2" ry="7.2"/>
<path class="st1" d="M981,595l-868.7-2.9c-28.7,1.3-39.2-40.8-13.9-55.6c45.2-26.3,67.5-35.3,71.7-76
	c7.7-74.3-70.4-302.2,139.8-307.6C524,147.6,582.1,492.6,702.9,430S658.5,315,857,277c123-23.5,177.6,76.6,184,167
	C1049,557,981,595,981,595z"/>
<g>
	
		<image style="overflow:visible;" width="417" height="274" xlink:href="6D367EE98C1D3463.png"  transform="matrix(1 0 0 1 401 96)">
	</image>
</g>
<g>
	<g>
		<path class="st2" d="M296.2,302.9c-1.5,20.9,5.2,41.5,18.6,57.7c0.4,0.5,1.3,0.6,1.8,0.2c8.3-5,9.8-17,3-23.9
			c-0.5-0.5-1.6-0.6-2.1,0c-10.3,11.8-9,28.2-2.5,41.6c7.8,16.3,23.4,26.4,37.3,36.9c15.9,12,28.3,26.1,36.5,44.4
			c7.6,17.1,11.6,35.7,14.5,54.1c3.9,24.5,6.9,49.3,8.2,74c0.1,1.9,3.1,1.9,3,0c-1.1-20.9-3.7-41.6-6.5-62.3
			c-2.4-17.7-5.4-35.5-10.9-52.5c-5.2-15.8-12.7-31-24-43.4c-12.7-14.1-29.9-23-43.5-36.3c-13.6-13.3-24.5-37.7-10-54.4
			c-0.7,0-1.4,0-2.1,0c5.5,5.5,4.3,15.2-2.4,19.2c0.6,0.1,1.2,0.2,1.8,0.2c-12.8-15.6-19.1-35.4-17.7-55.6
			C299.3,301,296.3,301,296.2,302.9L296.2,302.9z"/>
	</g>
</g>
<g>
	<g>
		<path class="st3" d="M306.2,264.7c36.5,23.1,65.4,56.7,85.1,95c10.7,20.7,19,43,23.7,65.9c5.2,25.1,4.1,50.6,1.9,76
			c-2.4,28.6-5.9,57.3-2.1,86c0.3,1.9,3.3,1.9,3,0c-6.9-51.8,10-103.7,1.4-155.4c-7.3-44.3-28.4-87.5-57-121.9
			c-15.6-18.7-33.9-35-54.5-48.1C306,261,304.5,263.6,306.2,264.7L306.2,264.7z"/>
	</g>
</g>
<g>
	<g>
		<path class="st3" d="M939.9,337.9c-22,20.8-36.3,48.8-45.8,77.3c-5.5,16.6-9.6,33.8-11.7,51.1c-2.4,18.8-1.7,37.8-0.6,56.7
			c1.3,21.8,2.9,43.7,1,65.5c-0.2,1.9,2.8,1.9,3,0c3.2-36.6-3.9-73.2-1.6-109.8c2.1-34,12.1-68.8,28.2-98.8
			c7.8-14.7,17.5-28.4,29.6-39.8C943.5,338.7,941.3,336.6,939.9,337.9L939.9,337.9z"/>
	</g>
</g>
<g>
	<g>
		<path class="st3" d="M213.5,333.3c1.9,16.9,0.1,36.9,12.9,50.1c8.3,8.6,24.7,11.1,32.5,0.3c6.4-8.8-1-25-12.8-22.8
			c-5.2,1-7.4,8-7.4,12.6c-0.1,6.1,2.6,12.1,6.4,16.8c11.1,13.6,30.3,12.3,46.1,14.2c17.9,2.2,33.9,10.4,47.2,22.5
			c27.4,24.9,43,61.2,54.2,95.8c14.4,44.4,20.4,91.3,17.9,137.9c-0.1,1.9,2.9,1.9,3,0c1.9-35-1-70.2-8.6-104.5
			c-7.2-32.2-18.2-64.7-34.8-93.4c-13.6-23.6-32.6-46.2-58.6-56.4c-15.5-6-31.8-4.2-47.6-8.3c-7.8-2-14.3-5.9-18.6-12.8
			c-3.3-5.4-5.5-13.5-1.4-19.1c3.1-4.3,8.3-2.3,11.3,1.1c3.2,3.5,4.5,9,2.2,13.3c-4.1,7.6-15,8.9-22.3,5.5
			c-19-9-16.6-35.6-18.6-52.8C216.3,331.4,213.3,331.4,213.5,333.3L213.5,333.3z"/>
	</g>
</g>
<g>
	<g>
		<path class="st3" d="M799.5,324.3c0.7,13.3-0.7,28.3,4.9,40.9c3,6.8,10.3,10.5,14.3,2.2c2.1-4.4,3.1-19.6-4.3-20.5
			c-7.5-0.9-4.7,17-3.7,20.7c0.9,3.4,2.2,7.1,4.6,9.8c3.9,4.5,9.3,4.8,14.7,6.1c10.6,2.5,16.5,13.3,20.8,22.4
			c12.2,26,16.8,56.1,20.7,84.3c4.9,35,6.7,70.5,5.8,105.9c0,1.9,3,1.9,3,0c1.3-49.5-2.6-99.5-13.2-148
			c-4.2-19.1-9.2-40.7-21.2-56.6c-4.3-5.7-9.4-9.7-16.4-11.1c-5.4-1.1-10.5-2-13.4-7.2c-2.3-4.1-3.3-9.1-3.5-13.7
			c-0.1-1.8-0.5-6.9,0.9-8.1c2.4-2.1,3.3,3.2,3.6,4.8c0.6,3.5,0.6,8-1.4,11c-2.5,3.6-5.3,2.3-7.4-0.9c-3.4-5.4-4.1-13.1-4.6-19.2
			c-0.6-7.5-0.6-15-1-22.5C802.4,322.4,799.4,322.3,799.5,324.3L799.5,324.3z"/>
	</g>
</g>
<path class="st2" d="M736.4,240.8h-81.3c-9.3,0-17-7.6-17-17v-1.1c0-9.3,7.7-17,17-17h81.3c9.3,0,17,7.6,17,17v1.1
	C753.4,233.1,745.7,240.8,736.4,240.8z"/>
<g>
	<g>
		<path class="st4" d="M848.5,592.4c1.9,0,1.9-3,0-3C846.6,589.4,846.6,592.4,848.5,592.4L848.5,592.4z"/>
	</g>
</g>
<g>
	<g>
		<path class="st4" d="M841.9,587.7c-98.1,0-196.3,0-294.4,0s-196.3,0-294.4,0c-55.2,0-110.4,0-165.7,0c-1.9,0-1.9,3,0,3
			c98.1,0,196.3,0,294.4,0s196.3,0,294.4,0c55.2,0,110.4,0,165.7,0C843.9,590.7,843.9,587.7,841.9,587.7L841.9,587.7z"/>
	</g>
</g>
<linearGradient id="SVGID_2_" gradientUnits="userSpaceOnUse" x1="1034.0204" y1="270.623" x2="-375.2013" y2="1210.1053">
	<stop  offset="0" style="stop-color:#4A50C0;stop-opacity:2.000000e-02"/>
	<stop  offset="1" style="stop-color:#444BCA;stop-opacity:0.64"/>
</linearGradient>
<ellipse class="st5" cx="552.1" cy="591.9" rx="432.9" ry="9.1"/>
<path class="st3" d="M482.1,384.4c0.5,5.8,1.6,11.6,3.3,17.2c0.4,1.2,0.8,2.5,1.8,3.3c2.1,1.6,5.1,0.3,7.3-1.3
	c3.8-2.6,7.3-5.7,10.2-9.2c1.9-2.3,3.6-4.9,4.2-7.8c0.6-2.9-0.1-6.2-2.4-8.1c-3.5-3-10.9-2.9-15.3-3
	C485.1,375.4,481.6,378,482.1,384.4z"/>
<path class="st3" d="M976.9,520.3c5.8-0.7,11.6-2,17.1-3.9c1.2-0.4,2.5-0.9,3.3-2c1.5-2.1,0.1-5.1-1.5-7.2c-2.8-3.7-6-7.1-9.6-9.9
	c-2.4-1.8-5-3.4-7.9-3.9c-2.9-0.5-6.2,0.4-8.1,2.7c-2.9,3.6-2.5,11-2.4,15.4C967.8,517.7,970.5,521.1,976.9,520.3z"/>
<path class="st3" d="M870.8,288.1c3.9-0.5,7.8-1.4,11.6-2.6c0.8-0.3,1.7-0.6,2.2-1.3c1.1-1.5,0-3.5-1-4.9c-1.9-2.5-4-4.8-6.5-6.7
	c-1.6-1.2-3.4-2.3-5.4-2.6c-2-0.3-4.2,0.2-5.5,1.8c-1.9,2.4-1.7,7.5-1.6,10.4C864.6,286.3,866.4,288.6,870.8,288.1z"/>
<g>
	<linearGradient id="SVGID_3_" gradientUnits="userSpaceOnUse" x1="787.0415" y1="601.2451" x2="619.6788" y2="712.8203">
		<stop  offset="0" style="stop-color:#4A50C0;stop-opacity:2.000000e-02"/>
		<stop  offset="1" style="stop-color:#444BCA;stop-opacity:0.64"/>
	</linearGradient>
	<ellipse class="st6" cx="729.8" cy="639.4" rx="51.2" ry="7.2"/>
	<path class="st7" d="M690.1,405.6c0,0-15.9,70.2,9.3,117.8c25.2,47.7,25.2,47.7,25.2,47.7S731.1,451.9,690.1,405.6z"/>
	<path class="st8" d="M691.2,601.1c1.5,8.6,3.5,17.3,7.7,24.9c4.3,7.6,11.1,14.2,19.6,16.2c3.9,0.9,7.9,0.9,11.8,0.8
		c4.3-0.1,8.9-0.4,12.6-2.6c4.9-2.9,7.4-8.4,9.4-13.7c3.4-9,5.9-18.3,7.6-27.7c1-5.4,1.6-11.4-0.9-16.3c-3.4-6.7-11.5-9.3-18.9-10.5
		c-12.3-2-29.2-3-41,2C688.9,578.5,689.5,591.7,691.2,601.1z"/>
	<path class="st9" d="M719.1,584.2c9.8,0.6,20.3-0.9,26.5-4.2c1.2-0.7,2.3-1.5,1.7-2.3c-0.7-1-3.3-1.4-5.6-1.6
		c-11.7-1.2-24.7-1.8-36.2,0.2C688.7,579.1,710.1,583.7,719.1,584.2z"/>
	<path class="st10" d="M713.9,400.7c0,0-7.9,133.7,10.6,182.7C724.5,583.4,736.4,464.2,713.9,400.7z"/>
	<path class="st7" d="M727.7,582.3h4.3c6.3-26.5,25.3-112.2,15.3-152.2c0,0-31.8,112.5-23.8,137.7
		C725.4,574.3,726.8,579,727.7,582.3z"/>
</g>
<g>
	<polygon class="st11" points="580.2,518.6 571.9,433.1 561.2,341.6 569.5,340.4 588.5,427.1 618.2,429.5 649.1,341.6 657.4,342.8 
		634.9,436.6 636,516.2 	"/>
	<path class="st12" d="M590.8,401.7c-2.2,8.2,1.3,21.3,9.5,23.6c8.2,2.2,17.9-7.3,20.2-15.5c2.2-8.2-2.6-16.7-10.8-18.9
		C601.5,388.7,593,393.5,590.8,401.7z"/>
	<path class="st13" d="M601.8,397c-1.7-0.5-4-1.6-4.9-3.2c-0.1-0.1-0.1-0.3-0.2-0.4c3.6-2.6,8.4-3.7,13-2.4
		c8.2,2.2,13,10.7,10.8,18.9c-1.6,5.9-7,12.4-13,14.8c0.1-1.7,0.5-3.3,0.9-4.9c1.7-6.5,3.6-12.9,5.7-19.3
		C609.9,399.7,605.8,398.5,601.8,397z"/>
	<path class="st12" d="M611.3,409.5c1.1-0.8,2.6-1.2,3.9-0.6c0.3,0.1,0.6,0.3,0.8,0.5c0.6,0.6,0.8,1.5,0.7,2.4
		c-0.2,2.4-2.2,4.4-4.4,5.1c-0.6,0.2-1.3,0.3-2,0.2c-0.7-0.1-1.3-0.4-1.7-1C607.1,414.1,609.7,410.7,611.3,409.5z"/>
	<polygon class="st14" points="636,516.2 627.8,647.4 618.7,647.4 611,517.3 602.9,517.6 598,650.6 591,650.4 580.2,518.6 
		578.6,502.3 635.9,503.1 	"/>
	<polygon class="st14" points="627.8,647.4 647.8,649.6 647,652.7 617.8,652.7 618.7,647.4 	"/>
	<polygon class="st14" points="598,650.6 598,654.3 570.6,655.3 570.6,651.9 591,650.4 	"/>
	<path class="st13" d="M605.5,412.9c-5,0.5-9-4.5-13.9-5.1c-0.3,0-0.6-0.1-0.9,0.1c-0.4,0.2-0.6,0.6-0.8,0.9
		c-0.6,1.2-1.3,2.5-1.9,3.7c-0.6,1.3-1.3,2.5-1.6,3.9c-0.3,1.7-0.1,3.4,0.2,5c0.2,1.3,0.5,2.7,1.1,3.9c1.1,2.1,3.1,3.7,5.3,4.5
		c2.2,0.8,4.7,0.9,7.1,0.7c1.6-0.1,3.3-0.5,4.7-1.2c3.2-1.6,5.2-5.5,4.6-9c-0.1-0.9-0.4-1.8-0.3-2.7c0.1-0.9,0.5-1.7,1-2.4
		c0.5-0.9,3.8-5.2,1.2-5.2c-0.8,0-1.9,1.3-2.6,1.7C607.7,412.3,606.6,412.7,605.5,412.9z"/>
	<g>
		<linearGradient id="SVGID_4_" gradientUnits="userSpaceOnUse" x1="647.9481" y1="266.9384" x2="647.9481" y2="393.0152">
			<stop  offset="0" style="stop-color:#484EC0;stop-opacity:0"/>
			<stop  offset="1" style="stop-color:#444BCA;stop-opacity:0.5018"/>
		</linearGradient>
		<polygon class="st15" points="638.5,371.9 650.4,371.9 657.4,342.8 649.1,341.6 		"/>
		<linearGradient id="SVGID_5_" gradientUnits="userSpaceOnUse" x1="568.83" y1="266.9381" x2="568.83" y2="393.0152">
			<stop  offset="0" style="stop-color:#484EC0;stop-opacity:0"/>
			<stop  offset="1" style="stop-color:#444BCA;stop-opacity:0.5018"/>
		</linearGradient>
		<polygon class="st16" points="569.5,340.4 561.2,341.6 564.8,371.9 576.4,371.9 		"/>
	</g>
	<circle class="st12" cx="567.2" cy="336.9" r="7.1"/>
	<circle class="st12" cx="650.3" cy="339.2" r="7.1"/>
</g>
<g>
	
		<rect x="437" y="133" transform="matrix(-1 -1.224647e-16 1.224647e-16 -1 1217.4628 470.3878)" class="st3" width="343.4" height="204.4"/>
	
		<rect x="608.9" y="158.8" transform="matrix(-1 -1.224647e-16 1.224647e-16 -1 1370.9232 469.3981)" class="st2" width="153.2" height="151.7"/>
	
		<rect x="456.5" y="160.3" transform="matrix(-1 -1.224647e-16 1.224647e-16 -1 1046.7488 333.3977)" class="st2" width="133.8" height="12.9"/>
	
		<rect x="456.5" y="191.8" transform="matrix(-1 -1.224647e-16 1.224647e-16 -1 1046.7488 396.3875)" class="st2" width="133.8" height="12.9"/>
	
		<rect x="456.5" y="223.2" transform="matrix(-1 -1.224647e-16 1.224647e-16 -1 1046.7488 459.3774)" class="st2" width="133.8" height="12.9"/>
	
		<rect x="456.5" y="254.7" transform="matrix(-1 -1.224647e-16 1.224647e-16 -1 1046.7488 522.3672)" class="st2" width="133.8" height="12.9"/>
	
		<rect x="456.5" y="286.2" transform="matrix(-1 -1.224647e-16 1.224647e-16 -1 1046.7488 585.3571)" class="st2" width="133.8" height="12.9"/>
</g>
</svg>
