<?xml version="1.0" encoding="utf-8"?>
<!-- Generator: Adobe Illustrator 21.1.0, SVG Export Plug-In . SVG Version: 6.00 Build 0)  -->
<svg version="1.1" id="Capa_1" xmlns="http://www.w3.org/2000/svg" xmlns:xlink="http://www.w3.org/1999/xlink" x="0px" y="0px"
	 viewBox="0 0 1125 739" style="enable-background:new 0 0 1125 739;" xml:space="preserve">
<style type="text/css">
	.st0{opacity:0.61;fill:#EBEFFF;}
	.st1{fill:#EBEFFF;}
	.st2{fill:#FFFFFF;}
	.st3{opacity:0.5;fill:url(#SVGID_1_);}
	.st4{fill:#E2E3F5;}
	.st5{opacity:0.2;fill:url(#SVGID_2_);}
	.st6{fill:#555782;}
	.st7{fill:#2B1599;}
	.st8{fill:#4E48AB;}
	.st9{fill:#C4C5EF;}
	.st10{fill:#8E90EA;}
	.st11{fill:#AFB1DB;}
</style>
<g>
	<path class="st0" d="M963.9,558.7l-819-2c-27.1,0.9-37-28.8-13.1-39.3c42.6-18.6,26.2-27.9,30.1-56.7
		c7.2-52.6-14.2-191.2,168.8-193.6c201.9-2.6,257.2,219.1,371.1,174.8S660,360.7,847.1,333.9c116-16.6,167.4,54.1,173.5,118.1
		C1028.1,531.8,963.9,558.7,963.9,558.7z"/>
	<g>
		<g>
			<path class="st1" d="M318.3,332.5c-1.8,19.6,7.5,37.6,21.8,50.5c0.5,0.5,1.2,0.5,1.8,0.2c9.2-4.1,11.6-15.1,3.1-21.4
				c-0.6-0.4-1.3-0.2-1.8,0.2c-10.8,9.2-10.9,23-4.1,34.7c8.3,14.3,24,22.5,38,30.2c15.6,8.6,30.9,17.3,42.3,31.3
				c10.4,12.7,17,28,21.5,43.7c5.1,18.3,8.1,37.3,10.8,56c0.3,1.9,3.2,1.1,2.9-0.8c-4.3-29.7-8.6-61.8-24-88.1
				c-7.7-13.1-18.3-24.1-30.9-32.5c-14.2-9.4-30.1-15.9-43.7-26.1c-14.1-10.5-27.5-31.9-10.6-46.3c-0.6,0.1-1.2,0.2-1.8,0.2
				c6.8,5.1,3.7,13.2-3.1,16.2c0.6,0.1,1.2,0.2,1.8,0.2c-13.8-12.4-22.7-29.5-21-48.4C321.5,330.6,318.5,330.6,318.3,332.5
				L318.3,332.5z"/>
		</g>
	</g>
	<g>
		<g>
			<path class="st2" d="M329.9,299.3c34.8,16.3,66.3,39.7,90.6,69.6c25.6,31.5,43.7,69.9,42.3,111.2c-0.9,25.7-6.5,51.1-6.7,76.9
				c0,1.9,3,1.9,3,0c0.1-23.9,5-47.4,6.4-71.2c1.3-22.7-1.9-44.2-10.6-65.2c-14.2-34.2-37.7-64.2-66.2-87.7
				c-17.5-14.4-36.8-26.4-57.4-36.1C329.7,295.9,328.2,298.5,329.9,299.3L329.9,299.3z"/>
		</g>
	</g>
	<g>
		<g>
			<path class="st2" d="M898.9,370.9c-26.4,18.4-45.5,45.4-57.4,75c-6.7,16.7-11.5,34.5-12.4,52.6c-1.1,20.7,1.9,41.3,3,61.9
				c0.1,1.9,3.1,1.9,3,0c-1-19.4-3.7-38.7-3.1-58.1c0.6-18.1,4.9-35.7,11.3-52.6c11.5-30,30.6-57.7,57.2-76.2
				C901.9,372.4,900.4,369.8,898.9,370.9L898.9,370.9z"/>
		</g>
	</g>
	<g>
		<g>
			<path class="st2" d="M220.8,359.4c2.3,14.9,1.1,31.1,13.4,42.1c8.8,7.9,22.4,10.4,33.4,5.8c9.6-4,12.5-14.4,3.5-21.1
				c-3.9-2.9-10.5-5-15-2.3c-3.7,2.2-5.8,6.9-5.7,11.1c0.5,12.1,13.5,19.6,23.8,22.3c16.2,4.2,33.4,2.8,49.8,5.6
				c29,5,58.8,18.4,77.5,41.8c9.7,12.1,15.5,26.8,14.4,42.4c-1.2,17-6.3,32.9-5,50.2c0.1,1.9,3.1,1.9,3,0c-1-13.6,1.4-26.5,3.7-39.8
				c1.8-10.6,2.2-21-1-31.3c-6.5-20.7-23.1-36.8-41.3-47.7c-22.6-13.5-47.8-19.2-73.9-20.8c-13.9-0.8-31-1-41.7-11.1
				c-3.9-3.7-7.8-9.6-5.8-15.2c3-8.5,13.9-5.9,18.1,0.1c5.3,7.5-3.2,13-9.8,14.5c-7.2,1.6-15,0.6-21.4-3.1
				c-16.2-9.4-14.8-28-17.2-44.1C223.4,356.7,220.5,357.5,220.8,359.4L220.8,359.4z"/>
		</g>
	</g>
	<g>
		<g>
			<path class="st2" d="M960.7,374.6c-0.8,9.5,0.2,20.3-4.6,28.9c-2.3,4.2-7.3,8.6-12.2,5c-3.3-2.4-4.9-11.3,0.3-13.2
				c4.7-1.6,3.7,7.9,3.1,10.1c-1.1,3.9-3.4,7.8-7.1,9.8c-7.3,4-16.3,2.5-24,5.4c-12.4,4.7-21.1,15.9-27.5,27
				c-8.4,14.6-13.7,31-18,47.2c-5.3,20.3-8.5,41.1-9.8,62c-0.1,1.9,2.9,1.9,3,0c1.5-25,5.8-49.8,13.3-73.8
				c6.1-19.7,14.6-43,32.1-55.4c3.6-2.6,7.6-4.5,12-5.5c5.4-1.2,11-0.9,16.3-2.6c7.3-2.3,12-8.3,13.1-15.8
				c0.6-4.2-0.4-13.4-6.8-11.5c-5.9,1.8-7.4,10.8-4.7,15.5c3.9,6.9,12.6,6.1,17.3,0.6c7.6-9.1,6.3-22.8,7.2-33.8
				C963.8,372.7,960.8,372.7,960.7,374.6L960.7,374.6z"/>
		</g>
	</g>
</g>
<path class="st1" d="M310.7,166.9l-147.3,0.6c0,0,22-4,22.5-13.9s64.7,4,69.9-3.5s20.2-15,27.1-6.9
	C289.9,151.3,296.8,158.2,310.7,166.9z"/>
<path class="st1" d="M1023.5,100.8l-147.3,0.6c0,0,22-4,22.5-13.9s5.2-20.3,18.5-19.6c11.6,0.6,11.3,29.6,36.7,21.1
	c8.7-2.9,21.2-26.1,31.9-26C994.6,63.1,1018.8,59.5,1023.5,100.8z"/>
<linearGradient id="SVGID_1_" gradientUnits="userSpaceOnUse" x1="679.7378" y1="565.9695" x2="395.3992" y2="755.5287">
	<stop  offset="0" style="stop-color:#4A50C0;stop-opacity:2.000000e-02"/>
	<stop  offset="1" style="stop-color:#444BCA;stop-opacity:0.64"/>
</linearGradient>
<ellipse class="st3" cx="582.5" cy="630.8" rx="87" ry="12.1"/>
<g>
	<g>
		<path class="st4" d="M992.8,556.2c-115.8,0-231.6,0-347.4,0s-231.6,0-347.4,0c-65.2,0-130.4,0-195.7,0c-1.9,0-1.9,3,0,3
			c115.8,0,231.6,0,347.4,0s231.6,0,347.4,0c65.2,0,130.4,0,195.7,0C994.7,559.2,994.7,556.2,992.8,556.2L992.8,556.2z"/>
	</g>
</g>
<linearGradient id="SVGID_2_" gradientUnits="userSpaceOnUse" x1="1136.8218" y1="178.2425" x2="-526.2367" y2="1286.9495">
	<stop  offset="0" style="stop-color:#4A50C0;stop-opacity:2.000000e-02"/>
	<stop  offset="1" style="stop-color:#444BCA;stop-opacity:0.64"/>
</linearGradient>
<ellipse class="st5" cx="568.1" cy="557.4" rx="510.9" ry="7.2"/>
<polygon class="st6" points="620.9,626.4 644.4,629 643.6,632.6 610.5,633 609.3,624.8 "/>
<polygon class="st6" points="555,624.3 555,628.7 522.6,629.9 522.6,625.9 546.7,624.1 "/>
<g>
	<path class="st7" d="M603.4,253c-9.4,20.1-10.8,19.7-24.5,19.7s-18.6-12.5-20.4-28c-2.4-20.1,5.9-26,20.1-27.1
		C596.3,216.1,610.3,238.3,603.4,253z"/>
</g>
<g>
	<path class="st8" d="M431.2,570.2c-32.9-107-12.8-180.1,6.6-217.5c10.5-20.2,27-26.4,38.6-29.4c14.3-3.6,47.6-2.8,49-2.7l-0.1,3.5
		c-0.3,0-34.2-0.9-48,2.6c-10.9,2.8-26.5,8.6-36.3,27.6c-19.9,38.5-40.7,118.4-0.4,233.9c10.7,39.1-3.5,56.6-11.8,62.6
		c-14.7,10.5-76.7,7.1-76.7,7.1v-4.7c0,0,44.5,2.3,65.8-2.1c15.7-3.8,22.8-16.8,22.2-35.5C439.3,592.9,432.9,575.8,431.2,570.2z"/>
</g>
<g>
	<path class="st9" d="M533.8,330.9l-3.5,28.3c0,0-14.7-20.2-16.5-24.8c-1.8-4.6-7.8-13-8.3-15.3c-1.2-5.9-3.5-7.1-9.4-3.5
		c-2.9,1.7-0.3,8.2,0,8.3c0.3,0-4.7-3.5-5.9-2.4c-1,1,3.3,3.1,5.9,8.3c1.2,2.4,16.6,29.5,30.7,47.2c2.7,3.5,8.1,3.9,10.6-1.2
		c3.3-6.8,8.3-18.9,14.2-38.9L533.8,330.9z"/>
</g>
<path class="st6" d="M611.6,399.4c0,0-3.1-9.4-7.5-9.4H559c-4.7,0-5.2,8.3-5.2,8.3l-8.1,226.3l9.2,0.5l24.8-189.1h3.5
	c4,15.5,26.4,191.1,26.4,191.1l7.8,1.5L611.6,399.4z"/>
<g>
	<path class="st8" d="M928.6,610.9L928.6,610.9C928.7,610.9,928.7,610.9,928.6,610.9z"/>
	<path class="st8" d="M931.5,615.3c-0.8,0-17.1,12.1-35.4,10.6c-9.1-0.7-18.5-4.5-27.1-15.1c-14.9-18.6-24.1-54.8-25.7-109.1
		c-1-32-7-54.6-16.6-68.8c-14.4-21.2-37.4-11.5-43.3-8.5c0,0-6.7,3.4-15.4,6.6c-12.5,4.6-30.6,8.1-44.5-1.7
		c-12.3-8.7-19.2-26.7-20.3-53.6c-0.7-15.8-2.9-45.2-10.8-52c-14.1-12.2-37.5-4.9-38.3-4.6l0.8,3.3c0.2-0.1,22.9-7.1,35.9,4.2
		c7.1,6.2,9,34.7,9.6,49.4c1.2,28.1,8.5,47,21.7,56.4c6.9,4.9,14.7,6.6,22.3,6.6c18.9,0,37.7-10.6,40.7-12.5l0,0
		c0.3-0.1,26.2-12.9,40.4,10.3c8.2,13.4,14.3,35.3,15.1,65c1.7,56.8,10.5,92.6,27.4,111.4c8.8,9.8,18.6,14,28.4,13.9
		c25.6-0.2,36.3-10.6,36.2-10.6L931.5,615.3z"/>
</g>
<g>
	<path class="st9" d="M638.8,334.5c0,0,5.9,27.1,5.9,29.5s11.1-24.9,13-29.5c1.8-4.6,4.8-16.2,5-17.1c0.9-4.1,2.8-9,13.9-5.3
		c3.5,1.2,0,10.6,0,10.6s3.5-7.1,5.9-5.9c1.5,0.7,0.6,4.1-3.5,8.3c-2.4,2.4-3.1,5-4.7,7.1c-2.7,3.5-6.2,7.3-7.1,9.4
		c-0.8,1.8-17.7,35.4-21.2,40.1c-2.7,3.6-8.3,1.2-9.4-2.4c-1.2-3.5-7.1-17.7-13.1-36.7L638.8,334.5z"/>
</g>
<g>
	<path class="st10" d="M553.8,398.2l57.8,2.4l3.5-75.5l10.6,29.5l16.5-8.3c0,0-9.2-38.7-15.4-50.2c-0.8-1.5-4.6-3.9-5.8-4.3
		c-13.7-4.8-30.7-5.7-30.7-5.7l-21,0c0,0-15.6,1.1-23.8,8.2c-5.9,4.7-14.5,51.6-14.5,51.6l15.7,7.4l9.4-26"/>
</g>
<g>
	<path class="st9" d="M600.6,249c0,4.8-5.7,14.4-5.7,14.4s-4.5,13.2-16.5,14.9c-4.6,0-8.9-2.1-12.7-7.8s-4.9-35.2-4.9-35.2
		s5-15.3,17.7-15.3C588.9,220,600.6,230.8,600.6,249z"/>
</g>
<g>
	<path class="st9" d="M593,291.1c-7.4,4.3-16.6,5-22,2c-1.4-0.8-0.8-1.9-0.7-3.5c0.8-6.8-0.6-14.6-1.5-22.5l21.8-1.6
		c0.8,7.5-1.4,12.3,2.1,19.4C594.1,287.6,595.5,289.6,593,291.1z"/>
</g>
<g>
	<path class="st8" d="M549.6,333.7l-22.7-3.5c-5.5-0.8-9.3-6-8.4-11.5l0,0c0.8-5.5,6-9.3,11.5-8.4l22.7,3.5L549.6,333.7z"/>
</g>
<g>
	<path class="st8" d="M625.3,320.3l22.3-5.6c5.4-1.4,10.9,1.9,12.2,7.3l0,0c1.4,5.4-1.9,10.9-7.3,12.2l-22.3,5.6L625.3,320.3z"/>
</g>
<g>
	
		<rect x="613.8" y="326.2" transform="matrix(0.9612 -0.2759 0.2759 0.9612 -66.3886 184.0046)" class="st8" width="14" height="3.5"/>
</g>
<g>
	
		<rect x="616.3" y="333.1" transform="matrix(0.9612 -0.2759 0.2759 0.9612 -68.184 184.9623)" class="st8" width="14" height="3.5"/>
</g>
<g>
	<path class="st11" d="M570.3,281.3c1.9,1.4,4.4,1.9,6.4,1.9c5.4,0,10.4-5.1,13.6-12.2c-3.1,5.1-7.3,8.5-11.7,8.5
		c-2.8,0-6-1.7-8.4-4.1C570.3,277.8,570.3,279.5,570.3,281.3z"/>
</g>
<g>
	<path class="st7" d="M601.5,253.8h-7.7c-0.8,0-1.4-0.6-1.4-1.4v-14.2h9.1V253.8z"/>
</g>
<g>
	<path class="st9" d="M601.4,254.8c-0.4,3.9-2.3,6.8-4.2,6.6c-1.9-0.2-2.8-3.4-2.4-7.3c0.4-3.9,2.2-7,4.2-6.8
		C601,247.4,601.8,250.8,601.4,254.8z"/>
</g>
<g>
	<path class="st7" d="M599.9,244.4h-26.6c-6.2,0-12.4-4-12.4-10.3l-1.2-2.4c0-5.3,6.5-11.8,11.8-11.8h14.2c4.8,0,14.2,7.5,14.2,12.3
		V244.4z"/>
</g>
<ellipse class="st9" cx="503.1" cy="320.3" rx="8.3" ry="7.1"/>
</svg>
