<?xml version="1.0" encoding="UTF-8"?>
<svg width="300px" height="182px" viewBox="0 0 300 182" version="1.1" xmlns="http://www.w3.org/2000/svg" xmlns:xlink="http://www.w3.org/1999/xlink">
    <!-- Generator: Sketch 51.3 (57544) - http://www.bohemiancoding.com/sketch -->
    <title>adios</title>
    <desc>Created with Sketch.</desc>
    <defs></defs>
    <g id="Cancelar-membrecía" stroke="none" stroke-width="1" fill="none" fill-rule="evenodd">
        <g id="07_eliminar_cuenta" transform="translate(-570.000000, -139.000000)" fill-rule="nonzero">
            <g id="adios" transform="translate(570.000000, 139.000000)">
                <ellipse id="Oval" fill="#8982BC" opacity="0.17" cx="17.3541985" cy="176.839122" rx="16.9986641" ry="1.5990458"></ellipse>
                <path d="M270.849046,176.556298 C270.849046,177.439695 213.585687,178.155344 142.949427,178.155344 C72.314313,178.155344 15.0538168,177.439695 15.0538168,176.556298 C15.0538168,175.672901 72.314313,174.957252 142.949427,174.957252 C213.585687,174.957252 270.849046,175.672901 270.849046,176.556298 Z" id="Shape" fill="#8982BC" opacity="0.17"></path>
                <path d="M257.519656,179.579198 C257.519656,180.46145 248.087977,181.177099 236.453244,181.177099 C224.819084,181.177099 215.386832,180.46145 215.386832,179.579198 C215.386832,178.694656 224.819084,177.979008 236.453244,177.979008 C248.087977,177.979008 257.519656,178.694656 257.519656,179.579198 Z" id="Shape" fill="#8982BC" opacity="0.17"></path>
                <ellipse id="Oval" fill="#8982BC" opacity="0.17" cx="111.52958" cy="176.279198" rx="14.9066794" ry="1.39751908"></ellipse>
                <polygon id="Shape" fill="#F2F4F9" points="41.5832061 0.696755725 41.5832061 174.880534 226.653435 174.880534 226.653435 6.45973282"></polygon>
                <polygon id="Shape" fill="#8982BC" opacity="0.18" points="122.890649 61.3780534 123.932061 105.316031 215.401145 104.581489 211.171374 53.2076336"></polygon>
                <polygon id="Shape" fill="#EFF3FB" points="40.6849237 10.8526718 226.653435 12.1648855 226.653435 4.61965649 40.6849237 0.330343511"></polygon>
                <polygon id="Shape" fill="#C4C5EF" points="40.6849237 10.8526718 40.6849237 26.145229 226.653435 26.145229 226.653435 12.1648855"></polygon>
                <circle id="Oval" fill="#FFFFFF" cx="58.829771" cy="18.4986641" r="5.41316794"></circle>
                <polyline id="Shape" fill="#FFFFFF" points="70.935687 16.6528626 70.935687 18.4986641 70.935687 20.3438931 98.0072519 20.3438931 98.0072519 16.6528626"></polyline>
                <polygon id="Shape" fill="#FFFFFF" points="113.112595 14.0942748 113.112595 23.9118321 181.714695 23.9118321 181.714695 14.8826336"></polygon>
                <circle id="Oval" fill="#C4C5EF" cx="46.9832061" cy="6.24732824" r="1.12958015"></circle>
                <circle id="Oval" fill="#8982BC" cx="52.3276718" cy="6.24732824" r="1.12958015"></circle>
                <circle id="Oval" fill="#C4C5EF" cx="57.7001908" cy="6.24732824" r="1.12958015"></circle>
                <rect id="Rectangle-path" fill="#8982BC" x="56.460687" y="38.2585878" width="2.47900763" height="31.2040076"></rect>
                <polygon id="Shape" fill="#8982BC" points="64.2429389 40.5194656 64.2429389 43.1387405 98.0072519 43.1387405 98.4263359 40.1679389"></polygon>
                <polygon id="Shape" fill="#8982BC" points="121.287595 37.0774809 121.287595 39.6967557 215.506489 39.6967557 216.67729 36.7259542"></polygon>
                <polygon id="Shape" fill="#8982BC" points="121.287595 107.878626 121.287595 110.497901 215.506489 110.497901 216.67729 107.526527"></polygon>
                <polygon id="Shape" fill="#8982BC" points="121.287595 46.0322519 121.287595 48.6520992 157.137023 48.6520992 157.58187 45.6812977"></polygon>
                <polygon id="Shape" fill="#8982BC" points="121.287595 116.949618 121.287595 119.570611 157.137023 119.570611 157.58187 116.598092"></polygon>
                <polygon id="Shape" fill="#8982BC" points="64.5366412 48.6520992 64.5366412 51.2730916 98.2998092 51.2730916 98.4263359 48.8868321"></polygon>
                <polygon id="Shape" fill="#8982BC" points="64.3895038 57.2874046 64.3895038 59.9072519 98.1532443 59.9072519 98.279771 57.5221374"></polygon>
                <polygon id="Shape" fill="#8982BC" points="64.3895038 66.8427481 64.3895038 69.4625954 98.1532443 69.4625954 98.279771 67.0774809"></polygon>
                <polygon id="Shape" fill="#E4E8F4" points="122.890649 58.9270992 126.718511 105.423092 215.072519 98.1486641 211.171374 50.7566794"></polygon>
                <polygon id="Shape" fill="#DDD6FF" points="222.790649 161.050191 223.873855 162.796374 225.234733 162.15 224.012405 160.241794"></polygon>
                <path d="M229.029962,167.150954 C229.029962,167.150954 222.968702,165.719656 222.006298,166.452481 C221.044466,167.183588 229.087214,168.249046 229.087214,168.249046 L229.029962,167.150954 Z" id="Shape" fill="#3F327A"></path>
                <path d="M206.311832,98.0198473 C206.311832,98.0198473 206.357634,94.9700382 206.17958,94.9162214 C205.659733,94.7599237 205.541794,96.330916 205.541794,96.330916 C205.541794,96.330916 204.60687,93.3097328 204.164885,93.448855 C203.891794,93.5335878 204.255916,95.2683206 204.255916,95.2683206 C204.255916,95.2683206 203.477863,93.8696565 203.092557,93.9578244 C202.716985,94.0437023 203.507634,95.9129771 203.507634,95.9129771 C203.507634,95.9129771 202.832061,95.0101145 202.483397,95.1229008 C202.243511,95.2001908 204.667557,99.3240458 204.667557,99.3240458 L206.311832,98.0198473 Z" id="Shape" fill="#C4C5EF"></path>
                <path d="M220.759351,121.462214 C220.759351,121.462214 209.513931,133.157061 214.344847,146.885496 C219.175191,160.613931 222.443702,162.071565 222.443702,162.071565 L225.242748,160.607634 C225.242748,160.607634 219.862214,147.745992 219.629198,143.061641 C219.417939,138.802099 226.845229,128.835115 226.845229,128.835115 L225.340649,166.696374 L228.903435,167.152672 C228.903435,167.152672 238.419275,124.767366 237.402481,121.461641 C236.385115,118.157634 233.724618,113.32729 220.759351,121.462214 Z" id="Shape" fill="#555782"></path>
                <path d="M214.090649,74.429771 C214.090649,74.429771 217.903053,84.0910305 218.41145,85.6167939 C218.92042,87.1419847 229.451336,94.426145 229.451336,94.426145 L224.257443,96.8026718 L214.090649,87.3801527 L211.801718,74.4303435 L214.090649,74.4303435 L214.090649,74.429771 Z" id="Shape" fill="#747AC4"></path>
                <g id="Group" transform="translate(216.412214, 83.015267)" fill="#C4C5EF">
                    <path d="M1.67805344,1.59332061 L0.211259542,6.6389313 C-0.116221374,7.76278626 0.533015267,8.9370229 1.65801527,9.25877863 L3.06068702,9.37041985 L3.7351145,12.7276718 L5.38740458,13.0545802 C6.46832061,13.0545802 7.34427481,13.635687 7.34427481,12.5553435 L7.34427481,2.88148855 L1.67805344,1.59332061 Z" id="Shape"></path>
                    <path d="M4.58816794,9.76087786 C4.02480916,9.34923664 3.19007634,8.57003817 3.21183206,7.57614504 C3.21183206,7.57614504 5.35362595,7.51545802 4.78053435,6.02919847 C4.425,5.10629771 3.19980916,5.83854962 3.19980916,5.83854962 C3.19980916,5.83854962 3.68874046,3.98874046 3.38874046,3.40362595 C3.38874046,3.40362595 -0.289122137,3.39961832 0.305725191,1.23206107 C0.305725191,1.23206107 1.32824427,0.304007634 3.64179389,0.174045802 C5.95534351,0.0429389313 7.23034351,3.9509542 7.23034351,3.9509542 L5.28034351,9.54103053 C5.18072519,9.82729008 4.83320611,9.93950382 4.58816794,9.76087786 Z" id="Shape"></path>
                </g>
                <path d="M211.874427,74.429771 C211.874427,74.429771 209.944466,72.0692748 210.050954,71.9158397 C210.36126,71.4704198 211.42958,72.6274809 211.42958,72.6274809 C211.42958,72.6274809 210.284542,69.6807252 210.717939,69.5135496 C210.983588,69.4116412 211.776527,70.996374 211.776527,70.996374 C211.776527,70.996374 211.517748,69.4162214 211.874427,69.2467557 C212.221947,69.0812977 212.764695,71.0364504 212.764695,71.0364504 C212.764695,71.0364504 212.732634,69.9091603 213.075573,69.780916 C213.31145,69.6921756 213.974427,74.429771 213.974427,74.429771 L211.874427,74.429771 Z" id="Shape" fill="#C4C5EF"></path>
                <path d="M217.138168,85.8967557 C216.776336,85.5772901 216.819275,85.3339695 216.652672,84.8816794 C216.486069,84.4282443 216.704771,83.2288168 217.114695,82.9734733 C217.591603,82.6763359 218.200191,82.9402672 218.756679,83.0192748 C219.59084,83.1372137 220.418702,82.8120229 221.256298,82.7209924 C222.094466,82.6299618 223.11126,82.904771 223.369466,83.7074427 C223.422137,83.8723282 223.466221,84.0795802 223.631679,84.1276718 C223.703244,84.1477099 223.778817,84.1311069 223.852672,84.1236641 C224.503053,84.0618321 224.957634,84.8244275 224.919847,85.4753817 C224.883779,86.1269084 224.543702,86.7200382 224.392557,87.3549618 C224.062786,88.7456107 224.643321,90.3 224.033588,91.5916031 C223.554389,92.6089695 222.042366,93.5083969 220.999809,92.776145 L222.332634,86.8912214 L217.138168,85.8967557 Z" id="Shape" fill="#353E70"></path>
                <path d="M225.234733,162.15 C225.234733,162.15 219.539313,164.672519 219.215267,165.837023 C218.892366,167.002099 225.943511,162.990458 225.943511,162.990458 L225.234733,162.15 Z" id="Shape" fill="#3F327A"></path>
                <g id="Group" transform="translate(218.129771, 124.809160)" fill="#8982BC">
                    <path d="M29.3272901,54.7700382 C29.1458015,54.8055344 26.746374,43.7244275 23.970229,30.0206107 C21.194084,16.3122137 19.0906489,5.17270992 19.2727099,5.13549618 C19.4530534,5.09942748 21.8513359,16.1782443 24.628626,29.8872137 C27.4041985,43.5898855 29.5087786,54.7328244 29.3272901,54.7700382 Z" id="Shape"></path>
                    <path d="M37.5229008,54.7700382 C37.3408397,54.8055344 34.9425573,43.7244275 32.1664122,30.0206107 C29.3891221,16.3122137 27.2862595,5.17270992 27.4677481,5.13549618 C27.6492366,5.09942748 30.0475191,16.1782443 32.8236641,29.8872137 C35.6009542,43.5898855 37.7038168,54.7328244 37.5229008,54.7700382 Z" id="Shape"></path>
                    <rect id="Rectangle-path" x="4.66087786" y="0.471755725" width="24.6664122" height="4.66374046"></rect>
                    <g transform="translate(0.000000, 2.290076)" id="Shape">
                        <path d="M15.7562977,0.526145038 C15.9389313,0.557633588 14.0753817,12.2135496 11.5946565,26.5580153 C9.11278626,40.9082061 6.95438931,52.5097328 6.77118321,52.4793893 C6.58854962,52.4467557 8.45209924,40.7931298 10.9333969,26.444084 C13.4135496,12.0996183 15.5725191,0.494656489 15.7562977,0.526145038 Z"></path>
                        <path d="M9.15229008,0.526145038 C9.33435115,0.557633588 7.47194656,12.2135496 4.99064885,26.5580153 C2.50935115,40.9082061 0.350954198,52.5097328 0.167175573,52.4793893 C-0.0148854962,52.4467557 1.8480916,40.7931298 4.32996183,26.444084 C6.8101145,12.0996183 8.96965649,0.494656489 9.15229008,0.526145038 Z"></path>
                    </g>
                    <polygon id="Shape" points="23.4692748 25.8583969 31.665458 25.8583969 32.0490458 27.7505725 23.8534351 27.7505725"></polygon>
                    <ellipse id="Oval" transform="translate(4.448513, 50.082470) rotate(-8.279192) translate(-4.448513, -50.082470) " cx="4.44851267" cy="50.0824704" rx="3.40484617" ry="1"></ellipse>
                    <ellipse id="Oval" transform="translate(5.152430, 45.765287) rotate(-8.279192) translate(-5.152430, -45.765287) " cx="5.15243038" cy="45.7652872" rx="3.4054187" ry="1"></ellipse>
                    <ellipse id="Oval" transform="translate(5.875473, 40.758100) rotate(-8.267852) translate(-5.875473, -40.758100) " cx="5.87547286" cy="40.7580997" rx="3.4053207" ry="1"></ellipse>
                    <ellipse id="Oval" transform="translate(6.768850, 35.746377) rotate(-8.273522) translate(-6.768850, -35.746377) " cx="6.76885019" cy="35.7463774" rx="3.40479716" ry="1"></ellipse>
                    <ellipse id="Oval" transform="translate(7.374725, 31.296183) rotate(-8.273522) translate(-7.374725, -31.296183) " cx="7.37472544" cy="31.2961826" rx="3.40479716" ry="1"></ellipse>
                    <ellipse id="Oval" transform="translate(8.528417, 26.794945) rotate(-8.279192) translate(-8.528417, -26.794945) " cx="8.5284174" cy="26.7949447" rx="3.40427364" ry="1"></ellipse>
                    <ellipse id="Oval" transform="translate(9.256842, 21.943631) rotate(-8.279192) translate(-9.256842, -21.943631) " cx="9.25684214" cy="21.943631" rx="3.40484617" ry="1"></ellipse>
                    <ellipse id="Oval" transform="translate(10.145571, 16.613395) rotate(-8.284861) translate(-10.145571, -16.613395) " cx="10.145571" cy="16.613395" rx="3.40489521" ry="1"></ellipse>
                    <ellipse id="Oval" transform="translate(11.264281, 10.628356) rotate(-8.273522) translate(-11.264281, -10.628356) " cx="11.2642812" cy="10.6283562" rx="3.40536968" ry="1"></ellipse>
                </g>
                <polygon id="Shape" fill="#C4C5EF" points="123.96355 124.394656 122.460687 154.939122 118.088931 175.331107 116.037595 174.767176 117.751718 154.368893 114.331489 133.35229 111.290267 152.941603 104.534542 175.408969 102.729389 175.470802 105.96584 153.106489 105.079008 125.884351"></polygon>
                <path d="M130.412405,73.094084 L128.39542,88.7364504 L118.649427,98.1458015 L109.911641,98.2734733 L106.740458,103.783969 L108.01374,108.767748 C108.945802,112.416412 108.624046,116.270611 107.101145,119.716031 L105.07958,125.886069 L124.169656,128.083397 C121.288168,113.833397 122.685115,112.323092 122.134924,104.16584 L133.406679,89.5631679 L133.438168,72.5456107 L130.412405,73.094084 Z" id="Shape" fill="#8E90EA"></path>
                <path d="M122.341031,72.5444656 C121.394084,73.0637405 115.269847,88.6969466 115.269847,88.6969466 L115.623664,98.6954198 L109.910496,99.7333969 L109.911069,88.2767176 L119.890076,70.7089695 L122.341031,72.5444656 Z" id="Shape" fill="#7D81D3"></path>
                <path d="M117.380153,88.6076336 L119.126336,93.1156489 C119.515649,94.1187023 119.014122,95.2477099 118.008206,95.6307252 L117.415076,95.8580153 L117.701336,99.1625954 L113.098855,99.5616412 L112.289885,90.2381679 L117.380153,88.6076336 Z" id="Shape" fill="#C4C5EF"></path>
                <path d="M114.837023,97.1164122 C114.837023,97.1164122 116.600382,95.5826336 116.450382,94.2125954 C116.450382,94.2125954 113.850573,93.1299618 114.555916,92.3748092 C115.260687,91.6196565 116.764122,92.9541985 116.764122,92.9541985 C116.764122,92.9541985 115.72729,90.9618321 115.95687,90.4030534 C115.95687,90.4030534 119.326145,90.105916 118.609351,88.1673664 C118.609351,88.1673664 117.598282,87.3979008 115.467366,87.4625954 C113.33645,87.5267176 112.479389,91.2103053 112.479389,91.2103053 L114.837023,97.1164122 Z" id="Shape" fill="#A6AACC"></path>
                <path d="M115.801145,87.6973282 C113.815076,87.1683206 111.585115,87.6641221 110.010115,88.9843511 C108.435115,90.3040076 107.558015,92.4137405 107.732061,94.4604962 C107.85458,95.8992366 108.448855,97.4003817 107.887214,98.729771 C107.598664,99.4127863 107.039885,99.9395038 106.491985,100.440458 C104.891221,101.902099 103.235496,103.339122 101.994847,105.116794 C100.754198,106.894466 99.9520992,109.086641 100.294466,111.227863 C100.440458,112.137023 100.797137,113.024427 101.392557,113.725763 C101.706298,114.094466 102.082443,114.411641 102.358969,114.810115 C103.34313,116.231679 102.790076,118.219466 103.393511,119.839695 C104.16813,121.920229 106.605916,122.85 108.814695,123.073855 C111.845038,123.381298 115.11126,122.740076 117.344656,120.668702 C119.578053,118.597901 120.409924,114.90687 118.689504,112.394084 C117.83874,111.149427 116.390267,110.055916 116.531679,108.555344 C116.619847,107.62271 117.324046,106.882443 117.728817,106.03855 C118.539504,104.346756 118.002481,102.121947 116.509924,100.986641 C115.95916,100.56813 115.305344,100.289885 114.795229,99.8215649 C114.285687,99.3543893 113.941603,98.5889313 114.246756,97.9677481 C114.482061,97.4908397 115.032252,97.2326336 115.279008,96.7603053 C115.64771,96.0549618 115.2,95.1996183 114.680725,94.5979008 C114.160878,93.9944656 113.520229,93.3961832 113.445229,92.6038168 C113.387977,92.0009542 113.678244,91.4267176 113.959351,90.8908397 C114.51584,89.8339695 115.071183,88.7770992 115.627099,87.719084" id="Shape" fill="#A6AACC"></path>
                <polygon id="Shape" fill="#555782" points="105.079008 125.884351 103.700382 136.530344 125.271756 138.085878 124.169084 128.082252"></polygon>
                <path d="M102.917176,174.541603 C102.917176,174.541603 109.146183,174.530153 109.915076,175.461641 C110.685115,176.394275 102.610878,175.597901 102.610878,175.597901 L102.917176,174.541603 Z" id="Shape" fill="#3F327A"></path>
                <path d="M115.560687,174.98416 C115.560687,174.98416 121.690076,173.875763 122.61126,174.657824 C123.532443,175.439885 115.445038,176.077672 115.445038,176.077672 L115.560687,174.98416 Z" id="Shape" fill="#3F327A"></path>
                <path d="M121.817176,72.5444656 C121.817176,72.5444656 124.505153,71.1040076 124.465076,70.921374 C124.349427,70.3906489 122.918702,71.0501908 122.918702,71.0501908 C122.918702,71.0501908 125.106298,68.7675573 124.769656,68.4469466 C124.56355,68.2505725 123.223855,69.4104962 123.223855,69.4104962 C123.223855,69.4104962 124.068321,68.0507634 123.804389,67.7570611 C123.546756,67.4708015 122.295802,69.0692748 122.295802,69.0692748 C122.295802,69.0692748 122.757824,68.040458 122.489885,67.7896947 C122.306107,67.6173664 119.878053,71.7395038 119.878053,71.7395038 L121.817176,72.5444656 Z" id="Shape" fill="#C4C5EF"></path>
                <path d="M130.851527,73.126145 C130.851527,73.126145 129.715076,70.2967557 129.862786,70.1822519 C130.291603,69.8496183 130.966031,71.2740458 130.966031,71.2740458 C130.966031,71.2740458 130.754198,68.1194656 131.216794,68.0896947 C131.501336,68.071374 131.78416,69.8209924 131.78416,69.8209924 C131.78416,69.8209924 132.00916,68.2368321 132.400191,68.1801527 C132.781489,68.1263359 132.714504,70.1541985 132.714504,70.1541985 C132.714504,70.1541985 133.020802,69.0692748 133.387214,69.0492366 C133.63855,69.0349237 132.855344,73.7541985 132.855344,73.7541985 L130.851527,73.126145 Z" id="Shape" fill="#C4C5EF"></path>
                <path d="M26.3736641,159.091031 C19.6574427,164.185305 8.78015267,159.543893 2.75496183,154.328244 C1.70267176,153.417939 0.927480916,152.213359 0.642366412,150.851908 C-0.729389313,144.316031 9.59770992,142.706107 9.89942748,136.849237 C10.0311069,134.286069 8.1,132.160305 6.67671756,130.023664 C3.4259542,125.145802 2.50648855,118.980344 3.19408397,113.160115 C3.88110687,107.339313 6.0629771,101.797328 8.60267176,96.5152672 C10.6803435,92.1938931 14.3896947,87.3085878 19.0706107,88.3477099 C22.078626,89.0146947 24.0074427,92.0061069 24.8822519,94.9603053 C26.0851145,99.0217557 25.9122137,103.384351 25.1043893,107.541412 C24.7465649,109.383779 24.2673664,111.296565 24.7631679,113.105153 C26.0318702,117.737405 32.5299618,118.785687 34.8875954,122.970229 C37.2875954,127.230916 34.423855,132.417939 31.7742366,136.528626 C29.5070611,140.045038 28.1146947,142.226908 29.6015267,145.230916 C29.9948473,146.026145 30.5736641,146.71145 31.246374,147.290267 C32.6765267,148.521756 35.3530534,152.279198 26.3736641,159.091031 Z" id="Shape" fill="#A1A4F0"></path>
                <path d="M18.7374046,175.249237 C18.6635496,175.249237 18.6034351,163.027099 18.6034351,147.953817 C18.6034351,132.874237 18.6635496,120.654389 18.7374046,120.654389 C18.8118321,120.654389 18.8719466,132.874237 18.8719466,147.953817 C18.8719466,163.027099 18.8112595,175.249237 18.7374046,175.249237 Z" id="Shape" fill="#453C87"></path>
                <path d="M19.8406489,155.762977 C19.8280534,155.77729 19.6734733,155.667366 19.4038168,155.456679 C19.1221374,155.230534 18.7391221,154.923664 18.2730916,154.552099 C17.3221374,153.783779 16.0053435,152.729198 14.5282443,151.592176 C13.051145,150.45458 11.6931298,149.452099 10.7078244,148.72958 C10.2280534,148.374618 9.83473282,148.083206 9.54446565,147.867939 C9.27080153,147.662405 9.12538168,147.540458 9.13568702,147.525573 C9.14599237,147.510115 9.31145038,147.60229 9.60343511,147.782061 C9.89484733,147.96126 10.3099237,148.232061 10.8171756,148.574427 C11.8316794,149.258588 13.2108779,150.239313 14.6919847,151.378626 C16.1725191,152.518511 17.4732824,153.6 18.3950382,154.406679 C18.8564885,154.80916 19.2234733,155.141794 19.4719466,155.377672 C19.7209924,155.612405 19.8526718,155.749237 19.8406489,155.762977 Z" id="Shape" fill="#453C87"></path>
                <path d="M26.9885496,127.045992 C27.0177481,127.071183 26.5729008,127.631679 25.844084,128.527099 C25.1032443,129.436832 24.1024809,130.666031 22.995229,132.024046 C21.8977099,133.390649 20.9049618,134.626145 20.1698473,135.542176 C19.4456107,136.442748 18.990458,136.992939 18.960687,136.970611 C18.9458015,136.958588 19.0396947,136.806298 19.2223282,136.538931 C19.4038168,136.272137 19.6763359,135.891985 20.0192748,135.425954 C20.7045802,134.495038 21.6772901,133.228053 22.7868321,131.856298 C23.896374,130.485115 24.9326336,129.269656 25.6992366,128.405153 C26.0828244,127.971756 26.398855,127.625954 26.6215649,127.392939 C26.8448473,127.158206 26.9742366,127.034542 26.9885496,127.045992 Z" id="Shape" fill="#453C87"></path>
                <g id="Group" transform="translate(277.671756, 115.648855)">
                    <path d="M16.3070611,44.2826336 C12.1517176,47.4349237 5.42347328,44.5631679 1.69637405,41.3370229 C1.04541985,40.7736641 0.565648855,40.0288168 0.388167939,39.1866412 C-0.459160305,35.1435115 5.92900763,34.1473282 6.11564885,30.5244275 C6.19751908,28.9385496 5.00267176,27.6229008 4.1221374,26.3015267 C2.11087786,23.2849237 1.54236641,19.4708015 1.96774809,15.8696565 C2.39198473,12.2685115 3.74198473,8.83969466 5.31354962,5.57232824 C6.59885496,2.89923664 8.89408397,-0.123091603 11.7898855,0.520419847 C13.65,0.932633588 14.8442748,2.78301527 15.3847328,4.61049618 C16.1290076,7.1221374 16.021374,9.82156489 15.5221374,12.3938931 C15.3005725,13.5332061 15.0051527,14.7160305 15.3114504,15.8353053 C16.0958015,18.7013359 20.1166031,19.348855 21.5736641,21.9383588 C23.0587786,24.5742366 21.2868321,27.7826336 19.6482824,30.3251908 C18.2456107,32.5013359 17.384542,33.8501908 18.3040076,35.7085878 C18.5473282,36.2009542 18.9057252,36.6246183 19.321374,36.9824427 C20.2070611,37.7444656 21.8616412,40.0694656 16.3070611,44.2826336 Z" id="Shape" fill="#989DE5"></path>
                    <path d="M10.4221374,60.0721374 C10.3477099,60.0721374 10.2875954,47.85 10.2875954,32.776145 C10.2875954,17.6977099 10.3477099,5.47729008 10.4221374,5.47729008 C10.4959924,5.47729008 10.5561069,17.6971374 10.5561069,32.776145 C10.5561069,47.85 10.4959924,60.0721374 10.4221374,60.0721374 Z" id="Shape" fill="#453C87"></path>
                </g>
                <path d="M280.249237,156.952099 C273.532443,162.046947 262.655725,157.404962 256.629962,152.189313 C255.578244,151.279008 254.801908,150.074427 254.516794,148.712977 C253.146183,142.177099 263.47271,140.568321 263.775,134.710305 C263.906679,132.14771 261.974427,130.021374 260.551718,127.885305 C257.301527,123.007443 256.381489,116.841985 257.069084,111.021183 C257.756107,105.200382 259.937977,99.6578244 262.477672,94.3757634 C264.555344,90.0543893 268.265267,85.1696565 272.946183,86.2082061 C275.953053,86.8763359 277.883015,89.8677481 278.757252,92.821374 C279.960115,96.8828244 279.787214,101.244847 278.979389,105.403053 C278.622137,107.244275 278.142366,109.156489 278.638168,110.967366 C279.90687,115.599046 286.405534,116.646756 288.763168,120.832443 C291.163168,125.091985 288.299427,130.280153 285.649809,134.389695 C283.382634,137.906679 281.99084,140.087977 283.477099,143.092557 C283.870992,143.887786 284.449809,144.573092 285.122519,145.152481 C286.552099,146.382824 289.228626,150.141985 280.249237,156.952099 Z" id="Shape" fill="#A1A4F0"></path>
                <path d="M272.612405,173.11145 C272.53855,173.11145 272.478435,160.88874 272.478435,145.814313 C272.478435,130.735305 272.53855,118.515458 272.612405,118.515458 C272.686832,118.515458 272.746947,130.735305 272.746947,145.814313 C272.746947,160.88874 272.686832,173.11145 272.612405,173.11145 Z" id="Shape" fill="#453C87"></path>
                <path d="M272.612405,153.624046 C272.599809,153.637786 272.445802,153.528435 272.176145,153.317176 C271.892748,153.091031 271.51145,152.785305 271.04542,152.412595 C270.093893,151.64542 268.776527,150.589695 267.3,149.452672 C265.822901,148.316221 264.465458,147.31374 263.47958,146.590076 C263.000954,146.235687 262.606489,145.944847 262.316221,145.72958 C262.043702,145.524046 261.89771,145.402099 261.908015,145.386641 C261.917748,145.371756 262.084351,145.463359 262.375191,145.643702 C262.666031,145.822901 263.082252,146.092557 263.588931,146.436069 C264.604008,147.120229 265.983206,148.100954 267.464313,149.24084 C268.944275,150.380725 270.245611,151.462214 271.166794,152.267176 C271.627672,152.670229 271.995229,153.00229 272.244275,153.23874 C272.493321,153.473473 272.625,153.610305 272.612405,153.624046 Z" id="Shape" fill="#453C87"></path>
                <path d="M280.013931,124.907634 C280.041985,124.932252 279.598282,125.493321 278.868321,126.387595 C278.128626,127.297328 277.12729,128.526527 276.020038,129.885687 C274.921947,131.251145 273.929771,132.487214 273.194084,133.402099 C272.47042,134.302099 272.015267,134.854008 271.984924,134.830534 C271.970611,134.819084 272.064504,134.666794 272.247137,134.4 C272.428626,134.132061 272.701718,133.751908 273.044084,133.287023 C273.729389,132.356107 274.702099,131.08855 275.811641,129.716794 C276.921183,128.345038 277.957443,127.12958 278.724046,126.265076 C279.107634,125.832252 279.421947,125.48645 279.645802,125.253435 C279.869656,125.019275 279.999618,124.895038 280.013931,124.907634 Z" id="Shape" fill="#453C87"></path>
                <path d="M217.079771,105.445992 L220.759351,121.462214 L236.453244,119.441794 L229.451908,94.426145 L224.258015,95.2591603 L220.558969,95.6902672 C218.456679,95.9370229 217.143321,96.3171756 215.62042,97.7874046 L209.592939,104.675954 L206.604389,97.4948473 L203.973664,98.8093511 C203.973664,98.8093511 206.126908,111.885115 209.514504,110.544847 C211.829198,109.628817 217.079771,105.445992 217.079771,105.445992 Z" id="Shape" fill="#8E90EA"></path>
            </g>
        </g>
    </g>
</svg>