<?xml version="1.0" encoding="UTF-8"?>
<svg width="16px" height="16px" viewBox="0 0 16 16" version="1.1" xmlns="http://www.w3.org/2000/svg" xmlns:xlink="http://www.w3.org/1999/xlink">
    <!-- Generator: Sketch 43.1 (39012) - http://www.bohemiancoding.com/sketch -->
    <title>Group 7</title>
    <desc>Created with Sketch.</desc>
    <defs></defs>
    <g id="Crear_minuta" stroke="none" stroke-width="1" fill="none" fill-rule="evenodd">
        <g id="05_crear_minuta-copy" transform="translate(-1139.000000, -677.000000)" fill="rgba(79, 92, 105, 0.2)">
            <g id="Group-7" transform="translate(1139.000000, 677.000000)">
                <path d="M9.67750495,0 L9.67750495,15.9821505 L0,14.1492903 L0,1.61406452 L9.67750495,0 Z M5.17751648,9.50989247 C4.59243435,9.50989247 4.11810357,8.75789247 4.11810357,7.83023656 C4.11810357,6.90258065 4.59243435,6.15058065 5.17751648,6.15058065 C5.76255412,6.15058065 6.2369294,6.90258065 6.2369294,7.83023656 C6.2369294,8.75789247 5.76255412,9.50989247 5.17751648,9.50989247 Z M5.20336885,5 C3.98643895,5 3,6.26916129 3,7.83483871 C3,9.40051613 3.98643895,10.6696774 5.20336885,10.6696774 C6.42020975,10.6696774 7.40669319,9.40051613 7.40669319,7.83483871 C7.40669319,6.26916129 6.42020975,5 5.20336885,5 Z" id="Combined-Shape"></path>
                <path d="M9.27812965,7.61064086 L9.27812965,11.8148129 L14.7509102,11.8148129 C14.7509102,11.8148129 15.5517995,11.707157 15.485055,10.6916301 L15.4890152,5.19915699 L11.4806086,7.82074839 C11.4806086,7.82074839 10.3459969,8.70633978 9.27812965,7.61064086" id="Fill-2"></path>
                <path d="M9.27812965,3.24403871 L14.7954065,3.24403871 C14.7954065,3.24403871 15.4445634,3.20102796 15.4445189,3.88451183 L10.4572377,7.09569462 L9.27812965,6.3692 L9.27812965,3.24403871 Z" id="Fill-5"></path>
            </g>
        </g>
    </g>
</svg>