<?xml version="1.0" encoding="UTF-8"?>
<svg width="25px" height="25px" viewBox="0 0 25 25" version="1.1" xmlns="http://www.w3.org/2000/svg" xmlns:xlink="http://www.w3.org/1999/xlink">
    <!-- Generator: Sketch 48.2 (47327) - http://www.bohemiancoding.com/sketch -->
    <title>logo_google_active</title>
    <desc>Created with Sketch.</desc>
    <defs>
        <polygon id="path-1" points="15.0695 8 0.0345 8 0.0345 0.2028 15.0695 0.2028 15.0695 8"></polygon>
        <polygon id="path-3" points="9.947 0.504990636 9.947 9.652 0.644423687 9.652 0.644423687 0.504990636 9.947 0.504990636"></polygon>
    </defs>
    <g id="Symbols" stroke="none" stroke-width="1" fill="none" fill-rule="evenodd">
        <g id="logo_google_active">
            <g id="Page-1" transform="translate(3.000000, 2.000000)">
                <g id="Group-3" transform="translate(1.000000, 0.336900)" fill="#D7282A">
                    <path d="M0.0421,5.9967 C0.4371,5.1287 0.9931,4.3717 1.6471,3.6867 C3.1261,2.1377 4.9161,1.1437 7.0361,0.8057 C10.0021,0.3317 12.6571,1.0317 14.9521,3.0077 C15.0971,3.1317 15.1331,3.2047 14.9751,3.3587 C14.1651,4.1517 13.3681,4.9587 12.5661,5.7597 C12.4841,5.8417 12.4291,5.9417 12.2821,5.8087 C10.2631,3.9577 6.9661,3.9777 4.8191,5.9747 C4.0821,6.6597 3.5581,7.4807 3.2151,8.4227 C3.1651,8.3907 3.1121,8.3607 3.0651,8.3237 C2.0571,7.5487 1.0501,6.7717 0.0421,5.9967" id="Fill-1"></path>
                </g>
                <g id="Group-6" transform="translate(1.000000, 12.336900)">
                    <mask id="mask-2" fill="white">
                        <use xlink:href="#path-1"></use>
                    </mask>
                    <g id="Clip-5"></g>
                    <path d="M3.1915,0.2028 C3.4805,0.9378 3.8405,1.6338 4.3755,2.2238 C5.7355,3.7258 7.4205,4.3738 9.4405,4.1638 C10.3785,4.0668 11.2335,3.7488 12.0325,3.2608 C12.1095,3.3288 12.1815,3.4018 12.2625,3.4658 C13.1975,4.1948 14.1335,4.9238 15.0695,5.6518 C14.0375,6.6328 12.8195,7.2848 11.4485,7.6318 C8.2175,8.4478 5.2385,7.9318 2.5935,5.8448 C1.5005,4.9818 0.6405,3.9158 0.0345,2.6538 C1.0865,1.8368 2.1385,1.0198 3.1915,0.2028" id="Fill-4" fill="#45AC43" mask="url(#mask-2)"></path>
                </g>
                <g id="Group-9" transform="translate(9.000000, 8.336900)">
                    <mask id="mask-4" fill="white">
                        <use xlink:href="#path-3"></use>
                    </mask>
                    <g id="Clip-8"></g>
                    <path d="M7.0695,9.652 C6.1335,8.923 5.1975,8.195 4.2625,7.465 C4.1815,7.402 4.1095,7.329 4.0325,7.26 C4.6665,6.777 5.1945,6.205 5.5425,5.478 C5.6795,5.189 5.7775,4.885 5.8695,4.579 C5.9325,4.368 5.9135,4.286 5.6515,4.288 C4.0945,4.3 2.5375,4.295 0.9795,4.294 C0.6495,4.294 0.6495,4.294 0.6495,3.953 C0.6495,2.897 0.6545,1.841 0.6445,0.786 C0.6425,0.583 0.6785,0.504 0.9085,0.505 C3.7805,0.513 6.6535,0.511 9.5265,0.507 C9.6805,0.507 9.7785,0.518 9.8055,0.708 C10.1635,3.219 9.8765,5.621 8.5615,7.838 C8.1585,8.516 7.6745,9.136 7.0695,9.652" id="Fill-7" fill="#5D7FBE" mask="url(#mask-4)"></path>
                </g>
                <path d="M4.1915,12.5397 C3.1385,13.3567 2.0865,14.1737 1.0345,14.9907 C0.5195,14.0357 0.2235,13.0087 0.0855,11.9397 C-0.1545,10.0877 0.1095,8.3057 0.8945,6.6047 C0.9375,6.5127 0.9925,6.4247 1.0425,6.3337 C2.0495,7.1087 3.0565,7.8857 4.0655,8.6607 C4.1125,8.6977 4.1655,8.7267 4.2145,8.7597 C3.7935,10.0177 3.8135,11.2767 4.1915,12.5397" id="Fill-10" fill="#F4C300"></path>
            </g>
        </g>
    </g>
</svg>