<?xml version="1.0" encoding="UTF-8"?>
<svg width="23px" height="15px" viewBox="0 0 23 15" version="1.1" xmlns="http://www.w3.org/2000/svg" xmlns:xlink="http://www.w3.org/1999/xlink">
    <!-- Generator: Sketch 49.1 (51147) - http://www.bohemiancoding.com/sketch -->
    <title>Page 1 Copy</title>
    <desc>Created with Sketch.</desc>
    <defs>
        <polygon id="path-1" points="11.7028182 14.2180982 11.7028182 0.00660727273 0.205829091 0.00660727273 0.205829091 14.2180982 11.7028182 14.2180982"></polygon>
    </defs>
    <g id="perfil_administrador_final" stroke="none" stroke-width="1" fill="none" fill-rule="evenodd">
        <g id="08_perfil_admin" transform="translate(-764.000000, -251.000000)">
            <g id="Page-1-Copy" transform="translate(764.000000, 251.000000)">
                <polygon id="Fill-1" fill="#9E9D9D" points="8.30843636 13.2128727 14.5259636 13.2128727 14.5259636 2.03905455 8.30843636 2.03905455"></polygon>
                <g id="Group-7" transform="translate(0.000000, 0.411909)">
                    <path d="M8.78269636,7.11218545 C8.78269636,4.84522182 9.84404182,2.82665818 11.4966964,1.52569455 C10.2885691,0.573912727 8.76304182,0.00644 7.10536909,0.00644 C3.18115091,0.00644 4.18181818e-05,3.18754909 4.18181818e-05,7.11218545 C4.18181818e-05,11.0368218 3.18115091,14.2179309 7.10536909,14.2179309 C8.76304182,14.2179309 10.2885691,13.6504582 11.4966964,12.6986764 C9.84404182,11.3977127 8.78269636,9.37914909 8.78269636,7.11218545" id="Fill-2" fill="#494747"></path>
                    <g id="Group-6" transform="translate(11.290909, 0.000000)">
                        <mask id="mask-2" fill="white">
                            <use xlink:href="#path-1"></use>
                        </mask>
                        <g id="Clip-5"></g>
                        <path d="M11.4808473,11.5153891 L11.4808473,11.2398073 L11.40892,11.2398073 L11.32612,11.4296618 L11.24332,11.2398073 L11.1713927,11.2398073 L11.1713927,11.5153891 L11.2219927,11.5153891 L11.2219927,11.3075527 L11.2997745,11.4869527 L11.3524655,11.4869527 L11.4302473,11.3071345 L11.4302473,11.5153891 L11.4808473,11.5153891 Z M11.0246109,11.5153891 L11.0246109,11.2866436 L11.1170291,11.2866436 L11.1170291,11.2402255 L10.8820109,11.2402255 L10.8820109,11.2866436 L10.9744291,11.2866436 L10.9744291,11.5153891 L11.0246109,11.5153891 Z M11.7029018,7.11235273 C11.7029018,11.0365709 8.52179273,14.2180982 4.59757455,14.2180982 C2.93948364,14.2180982 1.41479273,13.6502073 0.205829091,12.6988436 C1.85848364,11.39788 2.91982909,9.37931636 2.91982909,7.11235273 C2.91982909,4.84538909 1.85848364,2.82682545 0.205829091,1.52544364 C1.41479273,0.57408 2.93948364,0.00660727273 4.59757455,0.00660727273 C8.52179273,0.00660727273 11.7029018,3.18771636 11.7029018,7.11235273 Z" id="Fill-4" fill="#B7B7B7" mask="url(#mask-2)"></path>
                    </g>
                </g>
            </g>
        </g>
    </g>
</svg>