<?xml version="1.0" encoding="UTF-8"?>
<svg width="17px" height="16px" viewBox="0 0 17 16" version="1.1" xmlns="http://www.w3.org/2000/svg" xmlns:xlink="http://www.w3.org/1999/xlink">
    <!-- Generator: Sketch 43.1 (39012) - http://www.bohemiancoding.com/sketch -->
    <title>Page 1</title>
    <desc>Created with Sketch.</desc>
    <defs>
        <polygon id="path-1" points="6.25484791 0.0127053763 6.25484791 6.62836129 0.0439757145 6.62836129 0.0439757145 0.0127053763 6.25484791 0.0127053763"></polygon>
    </defs>
    <g id="Crear_minuta" stroke="none" stroke-width="1" fill="none" fill-rule="evenodd">
        <g id="05_crear_minuta-copy" transform="translate(-768.000000, -693.000000)">
            <g id="Group-10" transform="translate(768.000000, 693.000000)">
                <g id="Page-1">
                    <polygon id="Fill-1" fill="#2B73B5" points="9.6774827 8.6021505e-06 -2.22481608e-05 1.61407312 -2.22481608e-05 14.1492989 9.6774827 15.9821591"></polygon>
                    <g id="Group-9" transform="translate(2.625283, 3.207957)">
                        <g id="Group-4" transform="translate(7.608871, 1.978495)">
                            <mask id="mask-2" fill="white">
                                <use xlink:href="#path-1"></use>
                            </mask>
                            <g id="Clip-3"></g>
                            <path d="M0.0439757145,2.42418925 L0.0439757145,6.62836129 L5.51675627,6.62836129 C5.51675627,6.62836129 6.31764556,6.52070538 6.25090108,5.50517849 L6.25486125,0.0127053763 L2.24645463,2.63429677 C2.24645463,2.63429677 1.11184293,3.51988817 0.0439757145,2.42418925" id="Fill-2" fill="#2B73B5" mask="url(#mask-2)"></path>
                        </g>
                        <path d="M7.65284668,0.0360817204 L13.1701236,0.0360817204 C13.1701236,0.0360817204 13.8192804,-0.00692903226 13.8192359,0.676554839 L8.8319547,3.88773763 L7.65284668,3.16124301 L7.65284668,0.0360817204 Z" id="Fill-5" fill="#2B73B5"></path>
                        <path d="M2.21130254,6.32048172 C1.62622041,6.32048172 1.15188962,5.56848172 1.15188962,4.64082581 C1.15188962,3.71316989 1.62622041,2.96116989 2.21130254,2.96116989 C2.79634017,2.96116989 3.27071546,3.71316989 3.27071546,4.64082581 C3.27071546,5.56848172 2.79634017,6.32048172 2.21130254,6.32048172 M2.2371549,1.81058925 C1.02022501,1.81058925 0.0337860569,3.07975054 0.0337860569,4.64542796 C0.0337860569,6.21110538 1.02022501,7.48026667 2.2371549,7.48026667 C3.45399581,7.48026667 4.44047925,6.21110538 4.44047925,4.64542796 C4.44047925,3.07975054 3.45399581,1.81058925 2.2371549,1.81058925" id="Fill-7" fill="#FEFEFE"></path>
                    </g>
                </g>
            </g>
        </g>
    </g>
</svg>