<?xml version="1.0" encoding="UTF-8"?>
<svg width="12px" height="12px" viewBox="0 0 12 12" version="1.1" xmlns="http://www.w3.org/2000/svg" xmlns:xlink="http://www.w3.org/1999/xlink">
    <!-- Generator: Sketch 50.2 (55047) - http://www.bohemiancoding.com/sketch -->
    <title>fullscreen-button</title>
    <desc>Created with Sketch.</desc>
    <defs></defs>
    <g id="interface_video" stroke="none" stroke-width="1" fill="none" fill-rule="evenodd" opacity="0.9">
        <g id="interface_video_03" transform="translate(-946.000000, -567.000000)" fill="#4F5C69">
            <g id="fullscreen-button" transform="translate(946.000000, 567.000000)">
                <path d="M12,1.49880108e-14 L12,4.5 L10.488,4.5 L10.488,1.512 L7.5,1.512 L7.5,0 L12,1.49880108e-14 Z M10.488,10.488 L10.488,7.5 L12,7.5 L12,12 L7.5,12 L7.5,10.488 L10.488,10.488 Z M1.512,7.5 L1.512,10.488 L4.5,10.488 L4.5,12 L7.95925825e-14,12 L0,7.5 L1.512,7.5 Z M0,1.48787233e-14 L4.5,0 L4.5,1.512 L1.512,1.512 L1.512,4.5 L8.7149038e-14,4.5 L0,1.48787233e-14 Z" id="fullscreen---material"></path>
            </g>
        </g>
    </g>
</svg>