<?xml version="1.0" encoding="UTF-8"?>
<svg width="12px" height="12px" viewBox="0 0 12 12" version="1.1" xmlns="http://www.w3.org/2000/svg" xmlns:xlink="http://www.w3.org/1999/xlink">
    <!-- Generator: Sketch 50.2 (55047) - http://www.bohemiancoding.com/sketch -->
    <title>ic_volume_off_24px</title>
    <desc>Created with Sketch.</desc>
    <defs></defs>
    <g id="interface_video" stroke="none" stroke-width="1" fill="none" fill-rule="evenodd">
        <g id="interface_video_05" transform="translate(-353.000000, -587.000000)" fill="#5F6B77">
            <g id="ic_volume_off_24px" transform="translate(353.000000, 587.000000)">
                <g id="Group">
                    <path d="M9,6 C9,4.82 8.32,3.80666667 7.33333333,3.31333333 L7.33333333,4.78666667 L8.96666667,6.42 C8.98666667,6.28666667 9,6.14666667 9,6 L9,6 Z M10.6666667,6 C10.6666667,6.62666667 10.5333333,7.21333333 10.3066667,7.76 L11.3133333,8.76666667 C11.7533333,7.94 12,7 12,6 C12,3.14666667 10.0066667,0.76 7.33333333,0.153333333 L7.33333333,1.52666667 C9.26,2.1 10.6666667,3.88666667 10.6666667,6 L10.6666667,6 Z M0.846666667,0 L0,0.846666667 L3.15333333,4 L0,4 L0,8 L2.66666667,8 L6,11.3333333 L6,6.84666667 L8.83333333,9.68 C8.38666667,10.0266667 7.88666667,10.3 7.33333333,10.4666667 L7.33333333,11.84 C8.25333333,11.6333333 9.08666667,11.2066667 9.79333333,10.6333333 L11.1533333,12 L12,11.1533333 L6,5.15333333 L0.846666667,0 L0.846666667,0 Z M6,0.666666667 L4.60666667,2.06 L6,3.45333333 L6,0.666666667 L6,0.666666667 Z" id="Shape"></path>
                </g>
            </g>
        </g>
    </g>
</svg>