<?xml version="1.0" encoding="UTF-8"?>
<svg width="12px" height="12px" viewBox="0 0 12 12" version="1.1" xmlns="http://www.w3.org/2000/svg" xmlns:xlink="http://www.w3.org/1999/xlink">
    <!-- Generator: Sketch 50.2 (55047) - http://www.bohemiancoding.com/sketch -->
    <title>volume-button</title>
    <desc>Created with Sketch.</desc>
    <defs></defs>
    <g id="interface_video" stroke="none" stroke-width="1" fill="none" fill-rule="evenodd" opacity="0.9">
        <g id="interface_video_03" transform="translate(-353.000000, -567.000000)" fill="#4F5C69">
            <g id="volume-button" transform="translate(353.000000, 567.000000)">
                <path d="M7.344,0 C8.22933776,0.19262612 9.02666312,0.572521937 9.736,1.13969885 C10.4453369,1.70687576 10.9973314,2.39175836 11.392,3.19436719 C11.7973354,4.02908038 12,4.9172875 12,5.8590152 C12,6.8007429 11.7973354,7.68895002 11.392,8.52366321 C10.9973314,9.32627204 10.4453369,10.0111546 9.736,10.5783316 C9.02666312,11.1455085 8.22933776,11.5254043 7.344,11.7180304 L7.344,10.3375501 C7.9840032,10.1556254 8.55466416,9.84528801 9.056,9.40652851 C9.55733584,8.96776902 9.94933192,8.44073045 10.232,7.82539701 C10.5146681,7.21006357 10.656,6.55460952 10.656,5.8590152 C10.656,5.16342088 10.5146681,4.50796683 10.232,3.89263339 C9.94933192,3.27729995 9.55733584,2.75026138 9.056,2.31150189 C8.55466416,1.87274239 7.9840032,1.56240496 7.344,1.38048029 L7.344,0 Z M9.008,5.8590152 C9.008,6.44759501 8.85866816,6.97998422 8.56,7.4561988 C8.26133184,7.93241337 7.85600256,8.29893257 7.344,8.5557674 L7.344,3.162263 C7.85600256,3.41909783 8.26133184,3.78561703 8.56,4.2618316 C8.85866816,4.73804618 9.008,5.27043539 9.008,5.8590152 Z M0,3.85250315 L2.656,3.85250315 L6,0.49761499 L6,11.2204154 L2.656,7.86552725 L0,7.86552725 L0,3.85250315 Z" id="volume_up---material"></path>
            </g>
        </g>
    </g>
</svg>