<?xml version="1.0" encoding="UTF-8"?>
<svg width="21px" height="23px" viewBox="0 0 21 23" version="1.1" xmlns="http://www.w3.org/2000/svg" xmlns:xlink="http://www.w3.org/1999/xlink">
    <!-- Generator: Sketch 43.1 (39012) - http://www.bohemiancoding.com/sketch -->
    <title>Group 2 Copy 3</title>
    <desc>Created with Sketch.</desc>
    <defs></defs>
    <g id="fecha_y_hora" stroke="none" stroke-width="1" fill="none" fill-rule="evenodd" opacity="0.4">
        <g id="06_fecha_hora" transform="translate(-780.000000, -334.000000)" fill="#4F5C69">
            <g id="Group-2-Copy-3" transform="translate(780.000000, 334.000000)">
                <path d="M18.0178083,5.49180013 C19.8630978,7.34982716 21,9.88937043 21,12.6896552 C21,18.3839014 16.2989899,23 10.5,23 C4.70101013,23 0,18.3839014 0,12.6896552 C0,7.26226606 4.27071531,2.81433909 9.69230769,2.40936074 L9.69230769,0.793103448 L11.3076923,0.793103448 L11.3076923,2.40936074 C13.5078348,2.57370546 15.5184477,3.40385371 17.1310322,4.69507253 L17.8468569,4.02231259 L18.6872124,4.86266807 L18.0178083,5.49180013 Z M10.5,22.2068966 C15.8529137,22.2068966 20.1923077,17.9458824 20.1923077,12.6896552 C20.1923077,7.4334279 15.8529137,3.17241379 10.5,3.17241379 C5.14708627,3.17241379 0.807692308,7.4334279 0.807692308,12.6896552 C0.807692308,17.9458824 5.14708627,22.2068966 10.5,22.2068966 Z M8.07692308,0 L12.9230769,0 L12.9230769,0.793103448 L8.07692308,0.793103448 L8.07692308,0 Z M10.5,7.13793103 L11.3076923,7.13793103 L11.3076923,12.6896552 L10.5,12.6896552 L10.5,7.13793103 Z" id="Combined-Shape"></path>
            </g>
        </g>
    </g>
</svg>