<?xml version="1.0" encoding="UTF-8"?>
<svg width="15px" height="15px" viewBox="0 0 15 15" version="1.1" xmlns="http://www.w3.org/2000/svg" xmlns:xlink="http://www.w3.org/1999/xlink">
    <!-- Generator: Sketch 51.3 (57544) - http://www.bohemiancoding.com/sketch -->
    <title>ic_format_align_center_24px</title>
    <desc>Created with Sketch.</desc>
    <defs></defs>
    <g id="ic_format_align_center_24px" stroke="none" stroke-width="1" fill="none" fill-rule="evenodd" >
        <g id="Group">
            <g>
                <polygon id="Shape" points="0 0 15 0 15 15 0 15"></polygon>
                <path d="M4.96109238,8.88327714 L4.96109238,9.86382333 L9.86382333,9.86382333 L9.86382333,8.88327714 L4.96109238,8.88327714 L4.96109238,8.88327714 Z M3,11.8249157 L11.8249157,11.8249157 L11.8249157,10.8443695 L3,10.8443695 L3,11.8249157 L3,11.8249157 Z M3,7.90273095 L11.8249157,7.90273095 L11.8249157,6.92218476 L3,6.92218476 L3,7.90273095 L3,7.90273095 Z M4.96109238,4.96109238 L4.96109238,5.94163857 L9.86382333,5.94163857 L9.86382333,4.96109238 L4.96109238,4.96109238 L4.96109238,4.96109238 Z M3,3 L3,3.98054619 L11.8249157,3.98054619 L11.8249157,3 L3,3 L3,3 Z" id="Shape" fill="#4F5C69"></path>
            </g>
        </g>
    </g>
</svg>