<?xml version="1.0" encoding="UTF-8"?>
<svg width="15px" height="15px" viewBox="0 0 15 15" version="1.1" xmlns="http://www.w3.org/2000/svg" xmlns:xlink="http://www.w3.org/1999/xlink">
    <!-- Generator: Sketch 50.2 (55047) - http://www.bohemiancoding.com/sketch -->
    <title>icono_subtema_barwriting </title>
    <desc>Created with Sketch.</desc>
    <defs></defs>
    <g id="icono_subtema_barwriting-" stroke="none" stroke-width="1" fill="none" fill-rule="evenodd">
        <path d="M3.16666667,10.5833333 L2.89583333,10.5833333 C1.84879167,10.5833333 1,9.73454167 1,8.6875 C1,7.64027778 1.84879167,6.79166667 2.89583333,6.79166667 L3.70833333,6.79166667 L3.70833333,5.70833333 L5.33333333,7.0625 L3.70833333,8.41666667 L3.70833333,7.33333333 L2.89583333,7.33333333 C2.14797222,7.33333333 1.54166667,7.93963889 1.54166667,8.6875 C1.54166667,9.43536111 2.14797222,10.0416667 2.89583333,10.0416667 L3.16666667,10.0416667 L3.16666667,10.5833333 Z M6.41666667,6.25 L14,6.25 L14,7.875 L6.41666667,7.875 L6.41666667,6.25 Z M4.25,9.5 L11.8333333,9.5 L11.8333333,11.125 L4.25,11.125 L4.25,9.5 Z M4.25,3 L11.8333333,3 L11.8333333,4.625 L4.25,4.625 L4.25,3 Z" id="Shape" fill="#4F5C69" fill-rule="nonzero"></path>
    </g>
</svg>