<?xml version="1.0" encoding="UTF-8"?>
<svg width="15px" height="15px" viewBox="0 0 15 15" version="1.1" xmlns="http://www.w3.org/2000/svg" xmlns:xlink="http://www.w3.org/1999/xlink">
    <!-- Generator: Sketch 50.2 (55047) - http://www.bohemiancoding.com/sketch -->
    <title>icono_list_barwriting</title>
    <desc>Created with Sketch.</desc>
    <defs></defs>
    <g id="icono_list_barwriting" stroke="none" stroke-width="1" fill="none" fill-rule="evenodd">
        <g id="ic_format_list_numbered_24px-copy" transform="translate(2.000000, 3.000000)" fill="#4F5C69">
            <g id="Group">
                <path d="M0,7.73809524 L1.20888889,7.73809524 L1.20888889,8.03571429 L0.604444444,8.03571429 L0.604444444,8.63095238 L1.20888889,8.63095238 L1.20888889,8.92857143 L0,8.92857143 L0,9.52380952 L1.81333333,9.52380952 L1.81333333,7.14285714 L0,7.14285714 L0,7.73809524 L0,7.73809524 Z M0.604444444,2.38095238 L1.20888889,2.38095238 L1.20888889,0 L0,0 L0,0.595238095 L0.604444444,0.595238095 L0.604444444,2.38095238 L0.604444444,2.38095238 Z M0,4.16666667 L1.088,4.16666667 L0,5.41666667 L0,5.95238095 L1.81333333,5.95238095 L1.81333333,5.35714286 L0.725333333,5.35714286 L1.81333333,4.10714286 L1.81333333,3.57142857 L0,3.57142857 L0,4.16666667 L0,4.16666667 Z M3.02222222,0.595238095 L3.02222222,1.78571429 L11.4844444,1.78571429 L11.4844444,0.595238095 L3.02222222,0.595238095 L3.02222222,0.595238095 Z M3.02222222,8.92857143 L11.4844444,8.92857143 L11.4844444,7.73809524 L3.02222222,7.73809524 L3.02222222,8.92857143 L3.02222222,8.92857143 Z M3.02222222,5.35714286 L11.4844444,5.35714286 L11.4844444,4.16666667 L3.02222222,4.16666667 L3.02222222,5.35714286 L3.02222222,5.35714286 Z" id="Shape"></path>
            </g>
        </g>
    </g>
</svg>