<?xml version="1.0" encoding="UTF-8"?>
<svg width="15px" height="15px" viewBox="0 0 15 15" version="1.1" xmlns="http://www.w3.org/2000/svg" xmlns:xlink="http://www.w3.org/1999/xlink">
    <!-- Generator: Sketch 50.2 (55047) - http://www.bohemiancoding.com/sketch -->
    <title>icono_link_barwriting</title>
    <desc>Created with Sketch.</desc>
    <defs></defs>
    <g id="icono_link_barwriting" stroke="none" stroke-width="1" fill="none" fill-rule="evenodd">
        <path d="M5.25,4 L11.4545455,4 C12.7604545,4 13.8181818,5.05772727 13.8181818,6.36363636 C13.8181818,7.66954545 12.7604545,8.72727273 11.4545455,8.72727273 L6.43181818,8.72727273 C5.61636364,8.72727273 4.95454545,8.06545455 4.95454545,7.25 C4.95454545,6.43454545 5.61636364,5.77272727 6.43181818,5.77272727 L10.8636364,5.77272727 L10.8636364,6.95454545 L6.37863636,6.95454545 C6.05363636,6.95454545 6.05363636,7.54545455 6.37863636,7.54545455 L11.4545455,7.54545455 C12.1045455,7.54545455 12.6363636,7.01363636 12.6363636,6.36363636 C12.6363636,5.71363636 12.1045455,5.18181818 11.4545455,5.18181818 L5.25,5.18181818 C4.10954545,5.18181818 3.18181818,6.10954545 3.18181818,7.25 C3.18181818,8.39045455 4.10954545,9.31818182 5.25,9.31818182 L10.8636364,9.31818182 L10.8636364,10.5 L5.25,10.5 C3.45363636,10.5 2,9.04636364 2,7.25 C2,5.45363636 3.45363636,4 5.25,4 Z" id="Shape" fill="#4F5C69" transform="translate(7.909091, 7.250000) rotate(90.000000) translate(-7.909091, -7.250000) "></path>
    </g>
</svg>