<?xml version="1.0" encoding="UTF-8"?>
<svg width="15px" height="15px" viewBox="0 0 15 15" version="1.1" xmlns="http://www.w3.org/2000/svg" xmlns:xlink="http://www.w3.org/1999/xlink">
    <!-- Generator: Sketch 50.2 (55047) - http://www.bohemiancoding.com/sketch -->
    <title>icono_bold_barwriting</title>
    <desc>Created with Sketch.</desc>
    <defs></defs>
    <g id="icono_bold_barwriting" stroke="none" stroke-width="1" fill="none" fill-rule="evenodd">
        <g id="ic_format_bold_24px-copy" transform="translate(4.000000, 2.000000)" fill="#4F5C69">
            <g id="Group">
                <path d="M5.96262857,5.43013245 C6.63515761,4.97267738 7.10662126,4.22163176 7.10662126,3.52520764 C7.10662126,1.98215027 5.89329568,0.794132653 4.33330565,0.794132653 L0,0.794132653 L0,10.3528951 L4.88103548,10.3528951 C6.33009289,10.3528951 7.45328571,9.19218824 7.45328571,7.76520156 C7.45328571,6.72739306 6.85702286,5.83979369 5.96262857,5.43013245 L5.96262857,5.43013245 Z M2.07998671,2.50105452 L4.15997342,2.50105452 C4.73543641,2.50105452 5.19996678,2.95850958 5.19996678,3.52520764 C5.19996678,4.0919057 4.73543641,4.54936076 4.15997342,4.54936076 L2.07998671,4.54936076 L2.07998671,2.50105452 L2.07998671,2.50105452 Z M4.50663787,8.64597324 L2.07998671,8.64597324 L2.07998671,6.597667 L4.50663787,6.597667 C5.08210086,6.597667 5.54663123,7.05512206 5.54663123,7.62182012 C5.54663123,8.18851818 5.08210086,8.64597324 4.50663787,8.64597324 L4.50663787,8.64597324 Z" id="Shape"></path>
            </g>
        </g>
    </g>
</svg>