<?xml version="1.0" encoding="UTF-8"?>
<svg width="15px" height="15px" viewBox="0 0 15 15" version="1.1" xmlns="http://www.w3.org/2000/svg" xmlns:xlink="http://www.w3.org/1999/xlink">
    <!-- Generator: Sketch 50.2 (55047) - http://www.bohemiancoding.com/sketch -->
    <title>icono_alig01_barwriting</title>
    <desc>Created with Sketch.</desc>
    <defs></defs>
    <g id="icono_alig01_barwriting" stroke="none" stroke-width="1" fill="none" fill-rule="evenodd">
        <path d="M9.19288889,9.02083333 L2,9.02083333 L2,10.0243056 L9.19288889,10.0243056 L9.19288889,9.02083333 L9.19288889,9.02083333 Z M9.19288889,5.00694444 L2,5.00694444 L2,6.01041667 L9.19288889,6.01041667 L9.19288889,5.00694444 L9.19288889,5.00694444 Z M2,8.01736111 L12.7893333,8.01736111 L12.7893333,7.01388889 L2,7.01388889 L2,8.01736111 L2,8.01736111 Z M2,12.03125 L12.7893333,12.03125 L12.7893333,11.0277778 L2,11.0277778 L2,12.03125 L2,12.03125 Z M2,3 L2,4.00347222 L12.7893333,4.00347222 L12.7893333,3 L2,3 L2,3 Z" id="Shape" fill="#4F5C69"></path>
    </g>
</svg>