<?xml version="1.0" encoding="UTF-8"?>
<svg width="15px" height="15px" viewBox="0 0 15 15" version="1.1" xmlns="http://www.w3.org/2000/svg" xmlns:xlink="http://www.w3.org/1999/xlink">
    <!-- Generator: Sketch 50.2 (55047) - http://www.bohemiancoding.com/sketch -->
    <title>icono_aling02_barwriting</title>
    <desc>Created with Sketch.</desc>
    <defs></defs>
    <g id="icono_aling02_barwriting" stroke="none" stroke-width="1" fill="none" fill-rule="evenodd">
        <g id="ic_format_align_right_24px-copy" transform="translate(2.000000, 3.000000)" fill="#4F5C69">
            <g id="Group">
                <path d="M0,9.0066963 L10.7599998,9.0066963 L10.7599998,8.00595227 L0,8.00595227 L0,9.0066963 L0,9.0066963 Z M3.58666662,7.00520823 L10.7599998,7.00520823 L10.7599998,6.0044642 L3.58666662,6.0044642 L3.58666662,7.00520823 L3.58666662,7.00520823 Z M0,5.00372017 L10.7599998,5.00372017 L10.7599998,4.00297613 L0,4.00297613 L0,5.00372017 L0,5.00372017 Z M3.58666662,3.0022321 L10.7599998,3.0022321 L10.7599998,2.00148807 L3.58666662,2.00148807 L3.58666662,3.0022321 L3.58666662,3.0022321 Z M0,1.00074403 L10.7599998,1.00074403 L10.7599998,-8.8817842e-16 L0,-8.8817842e-16 L0,1.00074403 Z" id="Shape"></path>
            </g>
        </g>
    </g>
</svg>