<?xml version="1.0" encoding="UTF-8"?>
<svg width="15px" height="15px" viewBox="0 0 15 15" version="1.1" xmlns="http://www.w3.org/2000/svg" xmlns:xlink="http://www.w3.org/1999/xlink">
    <!-- Generator: Sketch 50.2 (55047) - http://www.bohemiancoding.com/sketch -->
    <title>icono_bullets_barwriting</title>
    <desc>Created with Sketch.</desc>
    <defs></defs>
    <g id="icono_bullets_barwriting" stroke="none" stroke-width="1" fill="none" fill-rule="evenodd">
        <g id="ic_format_list_bulleted_24px-copy" transform="translate(1.000000, 3.000000)" fill="#4F5C69">
            <g id="Group">
                <g>
                    <path d="M1.43866667,4.3625 C0.911893333,4.3625 0.486666667,4.78125 0.486666667,5.3 C0.486666667,5.81875 0.911893333,6.2375 1.43866667,6.2375 C1.96544,6.2375 2.39066667,5.81875 2.39066667,5.3 C2.39066667,4.78125 1.96544,4.3625 1.43866667,4.3625 L1.43866667,4.3625 Z M1.43866667,0.6125 C0.911893333,0.6125 0.486666667,1.03125 0.486666667,1.55 C0.486666667,2.06875 0.911893333,2.4875 1.43866667,2.4875 C1.96544,2.4875 2.39066667,2.06875 2.39066667,1.55 C2.39066667,1.03125 1.96544,0.6125 1.43866667,0.6125 L1.43866667,0.6125 Z M1.43866667,8.1125 C0.911893333,8.1125 0.486666667,8.5375 0.486666667,9.05 C0.486666667,9.5625 0.91824,9.9875 1.43866667,9.9875 C1.95909333,9.9875 2.39066667,9.5625 2.39066667,9.05 C2.39066667,8.5375 1.96544,8.1125 1.43866667,8.1125 L1.43866667,8.1125 Z M3.34266667,9.675 L12.228,9.675 L12.228,8.425 L3.34266667,8.425 L3.34266667,9.675 L3.34266667,9.675 Z M3.34266667,5.925 L12.228,5.925 L12.228,4.675 L3.34266667,4.675 L3.34266667,5.925 L3.34266667,5.925 Z M3.34266667,0.925 L3.34266667,2.175 L12.228,2.175 L12.228,0.925 L3.34266667,0.925 L3.34266667,0.925 Z" id="Shape"></path>
                </g>
            </g>
        </g>
    </g>
</svg>