<?xml version="1.0" encoding="UTF-8"?>
<svg width="15px" height="15px" viewBox="0 0 15 15" version="1.1" xmlns="http://www.w3.org/2000/svg" xmlns:xlink="http://www.w3.org/1999/xlink">
    <!-- Generator: Sketch 50 (54983) - http://www.bohemiancoding.com/sketch -->
    <title>icono_filtros</title>
    <desc>Created with Sketch.</desc>
    <defs></defs>
    <g id="icono_filtros" stroke="none" stroke-width="1" fill="none" fill-rule="evenodd">
        <g fill="#4F5C69" fill-rule="nonzero" id="Group">
            <g transform="translate(2.500000, 0.363636)">
                <path d="M5.60795455,2.48355928 C6.2918227,2.63890977 6.80113636,3.22941365 6.80113636,3.93272727 C6.80113636,4.63642566 6.29151213,5.22657413 5.60795455,5.38188404 L5.60795455,11.2636364 C5.60795455,11.4534215 5.44769283,11.6072727 5.25,11.6072727 C5.05230717,11.6072727 4.89204545,11.4534215 4.89204545,11.2636364 L4.89204545,5.38189527 C4.2081773,5.22654478 3.69886364,4.6360409 3.69886364,3.93272727 C3.69886364,3.22902889 4.20848787,2.63888042 4.89204545,2.48357051 L4.89204545,2.1 C4.89204545,1.91021488 5.05230717,1.75636364 5.25,1.75636364 C5.44769283,1.75636364 5.60795455,1.91021488 5.60795455,2.1 L5.60795455,2.48355928 Z M4.41477273,3.93272727 C4.41477273,4.37477621 4.78924167,4.73454545 5.25,4.73454545 C5.71046764,4.73454545 6.08522727,4.37505527 6.08522727,3.93272727 C6.08522727,3.49067833 5.71075833,3.13090909 5.25,3.13090909 C4.78953236,3.13090909 4.41477273,3.49039928 4.41477273,3.93272727 Z M1.3125,7.9817411 C1.99636815,8.13709158 2.50568182,8.72759546 2.50568182,9.43090909 C2.50568182,10.1346075 1.99605759,10.7247559 1.3125,10.8800659 L1.3125,11.2636364 C1.3125,11.4534215 1.15223829,11.6072727 0.954545455,11.6072727 C0.756852624,11.6072727 0.596590909,11.4534215 0.596590909,11.2636364 L0.596590909,10.8800771 C-0.0872772409,10.7247266 -0.596590909,10.1342227 -0.596590909,9.43090909 C-0.596590909,8.72721071 -0.0869666795,8.13706224 0.596590909,7.98175232 L0.596590909,2.1 C0.596590909,1.91021488 0.756852624,1.75636364 0.954545455,1.75636364 C1.15223829,1.75636364 1.3125,1.91021488 1.3125,2.1 L1.3125,7.9817411 Z M0.119318182,9.43090909 C0.119318182,9.87295803 0.493787127,10.2327273 0.954545455,10.2327273 C1.4150131,10.2327273 1.78977273,9.87323709 1.78977273,9.43090909 C1.78977273,8.98886015 1.41530378,8.62909091 0.954545455,8.62909091 C0.49407781,8.62909091 0.119318182,8.9885811 0.119318182,9.43090909 Z M9.90340909,5.91992292 C10.5872772,6.0752734 11.0965909,6.66577728 11.0965909,7.36909091 C11.0965909,8.07278929 10.5869667,8.66293776 9.90340909,8.81824768 L9.90340909,11.2636364 C9.90340909,11.4534215 9.74314738,11.6072727 9.54545455,11.6072727 C9.34776171,11.6072727 9.1875,11.4534215 9.1875,11.2636364 L9.1875,8.8182589 C8.50363185,8.66290842 7.99431818,8.07240454 7.99431818,7.36909091 C7.99431818,6.66539252 8.50394241,6.07524406 9.1875,5.91993414 L9.1875,2.1 C9.1875,1.91021488 9.34776171,1.75636364 9.54545455,1.75636364 C9.74314738,1.75636364 9.90340909,1.91021488 9.90340909,2.1 L9.90340909,5.91992292 Z M8.71022727,7.36909091 C8.71022727,7.81113985 9.08469622,8.17090909 9.54545455,8.17090909 C10.0059222,8.17090909 10.3806818,7.8114189 10.3806818,7.36909091 C10.3806818,6.92704197 10.0062129,6.56727273 9.54545455,6.56727273 C9.0849869,6.56727273 8.71022727,6.92676291 8.71022727,7.36909091 Z" id="Shape" transform="translate(5.250000, 6.681818) rotate(90.000000) translate(-5.250000, -6.681818) "></path>
            </g>
        </g>
    </g>
</svg>