<?xml version="1.0" encoding="UTF-8"?>
<svg width="15px" height="15px" viewBox="0 0 15 15" version="1.1" xmlns="http://www.w3.org/2000/svg" xmlns:xlink="http://www.w3.org/1999/xlink">
    <!-- Generator: Sketch 50 (54983) - http://www.bohemiancoding.com/sketch -->
    <title>icono_remplazar_img</title>
    <desc>Created with Sketch.</desc>
    <defs></defs>
    <g id="icono_remplazar_img" stroke="none" stroke-width="1" fill="none" fill-rule="evenodd">
        <g id="Group-19" fill="#4F5C69">
            <g id="Group-13" transform="translate(3.000000, 1.000000)">
                <g id="Group-16">
                    <path d="M6.36712646,13.3364868 C6.4893313,13.4475459 6.56744385,13.476446 6.74917603,13.3364868 L8.65477999,11.3867493 C8.69037531,11.3522133 8.72238159,11.3120422 8.72238159,11.2341614 C8.72238159,11.1562805 8.68790101,11.1071567 8.65778789,11.064886 C8.63969324,11.039486 8.62054086,11.0157583 8.60033074,10.9937029 C8.21348389,10.5188817 7.63321361,9.80665 6.85951991,8.85700771 C6.75434901,8.75496689 6.54172973,8.77585835 6.43655882,8.87789917 C6.33138792,8.97993999 6.33138792,9.16683337 6.43655882,9.26887419 L7.6774759,10.7849731 L4.10166521,10.7849731 C2.12971078,10.7849731 0.74810791,9.37312286 0.74810791,7.45985755 L0.74810791,5.35129968 C0.74810791,5.11709989 0.630859375,5 0.396362305,5 C0.132120768,5 0,5.11709989 0,5.35129968 L0,7.45985755 C0,8.20220373 0.2107278,8.89781707 0.5771772,9.49332847 C1.29370652,10.6577495 2.60560833,11.4394494 4.10166521,11.4394494 L7.6774759,11.4394494 L6.31789403,12.9648036 C6.23901585,13.0413342 6.22723389,13.2446594 6.36712646,13.3364868 Z" id="Path"></path>
                    <path d="M7.36712646,8.33648682 C7.4893313,8.44754589 7.56744385,8.47644603 7.74917603,8.33648682 L9.65477999,6.38674927 C9.69037531,6.35221333 9.72238159,6.31204224 9.72238159,6.23416138 C9.72238159,6.15628052 9.68790101,6.10715671 9.65778789,6.064886 C9.63969324,6.03948598 9.62054086,6.01575827 9.60033074,5.99370286 C9.21348389,5.51888172 8.63321361,4.80665 7.85951991,3.85700771 C7.75434901,3.75496689 7.54172973,3.77585835 7.43655882,3.87789917 C7.33138792,3.97993999 7.33138792,4.16683337 7.43655882,4.26887419 L8.6774759,5.78497314 L5.10166521,5.78497314 C3.12971078,5.78497314 1.74810791,4.37312286 1.74810791,2.45985755 L1.74810791,0.351299675 C1.74810791,0.117099892 1.63085938,8.8817842e-16 1.3963623,8.8817842e-16 C1.13212077,8.8817842e-16 1,0.117099892 1,0.351299675 L1,2.45985755 C1,3.20220373 1.2107278,3.89781707 1.5771772,4.49332847 C2.29370652,5.65774948 3.60560833,6.43944939 5.10166521,6.43944939 L8.6774759,6.43944939 L7.31789403,7.96480358 C7.23901585,8.04133419 7.22723389,8.24465942 7.36712646,8.33648682 Z" id="Path-Copy" transform="translate(5.361191, 4.215464) rotate(180.000000) translate(-5.361191, -4.215464) "></path>
                </g>
            </g>
        </g>
    </g>
</svg>