<?xml version="1.0" encoding="UTF-8"?>
<svg width="42px" height="42px" viewBox="0 0 42 42" version="1.1" xmlns="http://www.w3.org/2000/svg" xmlns:xlink="http://www.w3.org/1999/xlink">
    <!-- Generator: Sketch 46.1 (44463) - http://www.bohemiancoding.com/sketch -->
    <title>ico_noti_brief</title>
    <desc>Created with Sketch.</desc>
    <defs></defs>
    <g id="Symbols" stroke="none" stroke-width="1" fill="none" fill-rule="evenodd">
        <g id="ico_noti_brief">
            <g id="icon_mensaje">
                <g id="Group-2" transform="translate(4.000000, 2.000000)">
                    <polygon id="Rectangle-17" fill="#ECEFFB" points="21.4516129 2.29411765 33.8709677 2.29411765 33.8709677 25.9645278 26.605579 33.2647059 21.4516129 33.2647059"></polygon>
                    <path d="M5.63874464,35.8658676 L15.7608734,37.6961686" id="Stroke-1-Copy-3" stroke="#D3D3D3" stroke-width="2" stroke-linecap="round" stroke-linejoin="round" transform="translate(10.699809, 36.781018) rotate(-10.000000) translate(-10.699809, -36.781018) "></path>
                    <path d="M0.950764007,11.4947648 L2.25663783,3.9" id="Path-11" stroke="#D3D3D3" stroke-width="2" stroke-linecap="round" stroke-linejoin="round" transform="translate(1.603701, 7.697382) rotate(-10.000000) translate(-1.603701, -7.697382) "></path>
                    <polygon id="Path-2" fill="#ECEFFB" points="26.6213922 26.6815796 26.9886062 32.7529541 33.0548334 26.325"></polygon>
                    <path d="M33.6941488,2.99509804 C33.248913,2.99509804 32.9520891,3.29843137 32.9520891,3.75343137 L32.9520891,25.025 L26.2735517,25.025 C25.8283159,25.025 25.531492,25.3283333 25.531492,25.7833333 L25.531492,32.6083333 L6.23793946,32.6083333 L6.23793946,2.275 L32.6607727,2.275 C33.1060085,2.275 33.4028324,1.97166667 33.4028324,1.51666667 C33.4028324,1.06166667 33.1060085,0.758333333 32.6607727,0.758333333 L5.49587975,0.758333333 C5.05064392,0.758333333 4.75382003,1.06166667 4.75382003,1.51666667 L4.75382003,33.3666667 C4.75382003,33.8216667 5.05064392,34.125 5.49587975,34.125 L26.2735517,34.125 C26.4961696,34.125 26.6445816,34.0491667 26.7929935,33.8975 L34.2135906,26.3141667 C34.3620026,26.1625 34.4362085,26.0108333 34.4362085,25.7833333 L34.4362085,3.75343137 C34.4362085,3.29843137 34.1393847,2.99509804 33.6941488,2.99509804 Z M31.9132055,26.5416667 L27.0156114,31.5466667 L27.0156114,26.5416667 L31.9132055,26.5416667 Z M27.7576711,13.4276316 C27.7576711,13.8826316 27.4608472,14.1859649 27.0156114,14.1859649 L15.142656,14.1859649 C14.6974202,14.1859649 14.4005963,13.8826316 14.4005963,13.4276316 C14.4005963,12.9726316 14.6974202,12.6692982 15.142656,12.6692982 L27.0156114,12.6692982 C27.4608472,12.6692982 27.7576711,12.9726316 27.7576711,13.4276316 Z M27.7576711,17.9776316 C27.7576711,18.4326316 27.4608472,18.7359649 27.0156114,18.7359649 L12.1744172,18.7359649 C11.7291813,18.7359649 11.4323574,18.4326316 11.4323574,17.9776316 C11.4323574,17.5226316 11.7291813,17.2192982 12.1744172,17.2192982 L27.0156114,17.2192982 C27.4608472,17.2192982 27.7576711,17.5226316 27.7576711,17.9776316 Z" id="Shape" fill="#595A9C" fill-rule="nonzero"></path>
                    <ellipse id="Oval-10" fill="#D3D3D3" cx="1.90152801" cy="0.975" rx="1" ry="1"></ellipse>
                </g>
            </g>
        </g>
    </g>
</svg>