<?xml version="1.0" encoding="UTF-8"?>
<svg width="31px" height="37px" viewBox="0 0 31 37" version="1.1" xmlns="http://www.w3.org/2000/svg" xmlns:xlink="http://www.w3.org/1999/xlink">
    <!-- Generator: Sketch 51.3 (57544) - http://www.bohemiancoding.com/sketch -->
    <title>Group 3</title>
    <desc>Created with Sketch.</desc>
    <defs></defs>
    <g id="Flujo-de-devoluciones" stroke="none" stroke-width="1" fill="none" fill-rule="evenodd">
        <g id="10_aprobacion" transform="translate(-1085.000000, -157.000000)">
            <g id="Group-4" transform="translate(1040.000000, 0.000000)">
                <g id="box_noti_03" transform="translate(0.000000, 125.000000)">
                    <g id="Mensaje_lleno_admin" transform="translate(45.000000, 22.000000)">
                        <g id="Group-3" transform="translate(0.000000, 9.876543)">
                            <g id="icon_mensaje-copy">
                                <g id="Group-2">
                                    <polygon id="Path-3" fill="#ECEFFB" points="1.27441406 5.0708912 5.984375 5.0708912 5.984375 35.8931327 1.27441406 35.8931327"></polygon>
                                    <path d="M26.2174236,3.24620492 L17.4562495,1.72044553" id="Path-11" stroke="#D3D3D3" stroke-width="2" stroke-linecap="round" stroke-linejoin="round" transform="translate(21.836837, 2.483325) rotate(-10.000000) translate(-21.836837, -2.483325) "></path>
                                    <polygon id="Path-2" fill="#ECEFFB" points="22.6213922 29.6270978 22.9886062 35.4697627 29.0548334 29.2839506"></polygon>
                                    <path d="M29.6941488,6.83288953 C29.248913,6.83288953 28.9520891,7.12479626 28.9520891,7.56265634 L28.9520891,28.0329218 L22.2735517,28.0329218 C21.8283159,28.0329218 21.531492,28.3248285 21.531492,28.7626886 L21.531492,35.3305898 L2.23793946,35.3305898 L2.23793946,6.1399177 L28.6607727,6.1399177 C29.1060085,6.1399177 29.4028324,5.84801097 29.4028324,5.41015089 C29.4028324,4.97229081 29.1060085,4.68038409 28.6607727,4.68038409 L1.49587975,4.68038409 C1.05064392,4.68038409 0.753820034,4.97229081 0.753820034,5.41015089 L0.753820034,36.0603567 C0.753820034,36.4982167 1.05064392,36.7901235 1.49587975,36.7901235 L22.2735517,36.7901235 C22.4961696,36.7901235 22.6445816,36.7171468 22.7929935,36.5711934 L30.2135906,29.2735254 C30.3620026,29.127572 30.4362085,28.9816187 30.4362085,28.7626886 L30.4362085,7.56265634 C30.4362085,7.12479626 30.1393847,6.83288953 29.6941488,6.83288953 Z M27.9132055,29.4924554 L23.0156114,34.3089163 L23.0156114,29.4924554 L27.9132055,29.4924554 Z" id="Shape" fill="#595A9C" fill-rule="nonzero"></path>
                                    <ellipse id="Oval-10" fill="#D3D3D3" cx="29.950764" cy="1.92592593" rx="1" ry="1"></ellipse>
                                </g>
                            </g>
                            <g id="Group-12-Copy-4" transform="translate(11.000000, 14.814815)" fill="#595A9C">
                                <path d="M3.72475703,7.32383076 L0.808351525,4.23768737 C0.618151166,4.03641715 0.332850628,4.03641715 0.142650269,4.23768737 C-0.0475500897,4.43895759 -0.0475500897,4.74086293 0.142650269,4.94213315 L3.37605637,8.39727194 C3.47115655,8.49790705 3.59795679,8.53145209 3.72475703,8.53145209 C3.85155727,8.53145209 3.9783575,8.46436201 4.07345768,8.39727194 L10.8575875,1.21863406 C11.0474708,1.01736384 11.0474708,0.715458507 10.8575875,0.514188286 C10.6670701,0.312918065 10.3820866,0.312918065 10.1915692,0.514188286 L3.72475703,7.32383076 Z" id="Fill-1-Copy-4"></path>
                            </g>
                        </g>
                    </g>
                </g>
            </g>
        </g>
    </g>
</svg>