<?xml version="1.0" encoding="UTF-8"?>
<svg width="41px" height="32px" viewBox="0 0 41 32" version="1.1" xmlns="http://www.w3.org/2000/svg" xmlns:xlink="http://www.w3.org/1999/xlink">
    <!-- Generator: Sketch 46.1 (44463) - http://www.bohemiancoding.com/sketch -->
    <title>Group 20 Copy 3</title>
    <desc>Created with Sketch.</desc>
    <defs></defs>
    <g id="D-brief" stroke="none" stroke-width="1" fill="none" fill-rule="evenodd">
        <g id="23_Dbrief/admin--" transform="translate(-1079.000000, -585.000000)">
            <g id="Group-20" transform="translate(1041.000000, 0.000000)">
                <g id="Group-20-Copy-3" transform="translate(37.000000, 580.000000)">
                    <path d="M2.73666926,14.4241124 L7.43706799,21.7558949" id="Stroke-1-Copy-3" stroke="#D3D3D3" stroke-width="2" stroke-linecap="round" stroke-linejoin="round" transform="translate(5.086869, 18.090004) rotate(-10.000000) translate(-5.086869, -18.090004) "></path>
                    <path d="M36.4240812,24.0040476 C36.4240812,24.3894898 36.1232556,24.7023126 35.7525956,24.7023126 C35.3819356,24.7023126 35.0811101,24.3894898 35.0811101,24.0040476 C35.0811101,23.6186053 35.3819356,23.3057826 35.7525956,23.3057826 C36.1232556,23.3057826 36.4240812,23.6186053 36.4240812,24.0040476" id="Fill-13" fill="#D1D1D1" transform="translate(35.752596, 24.004048) rotate(-10.000000) translate(-35.752596, -24.004048) "></path>
                    <g id="Page-1" transform="translate(21.408195, 19.100073) rotate(10.000000) translate(-21.408195, -19.100073) translate(3.408195, 3.181154)">
                        <polygon id="Fill-1" fill="#ECEFFB" points="8.57279859 19.4669069 8.57279859 30.66814 25.7292042 11.0410495"></polygon>
                        <polygon id="Stroke-2" stroke="#595A9C" stroke-linecap="round" stroke-linejoin="round" points="8.57279859 19.4669069 8.57279859 30.66814 25.7292042 11.0410495"></polygon>
                        <polygon id="Fill-4" fill="#FFFFFF" points="10.8061234 21.214649 35.5066814 0.253492962 24.2369159 31.1337309"></polygon>
                        <polygon id="Stroke-5" stroke="#595A9C" stroke-linecap="round" stroke-linejoin="round" points="10.8061234 21.214649 35.5066814 0.253492962 24.2369159 31.1337309"></polygon>
                        <polygon id="Fill-7" fill="#FFFFFF" points="2.54019028e-13 13.1207028 10.8057939 21.120998 35.5063519 -1.84333029e-13"></polygon>
                        <polygon id="Stroke-8" stroke="#595A9C" stroke-linecap="round" stroke-linejoin="round" points="2.53975913e-13 13.1207028 10.8057939 21.120998 35.5063519 -1.84333029e-13"></polygon>
                    </g>
                    <path d="M27.8781477,35.1798826 L34.522838,27.7349049" id="Path-11" stroke="#D3D3D3" stroke-width="2" stroke-linecap="round" stroke-linejoin="round" transform="translate(31.200493, 31.457394) rotate(-10.000000) translate(-31.200493, -31.457394) "></path>
                    <path d="M22.8325007,33.2984395 L18.1227407,26.2907804 C18.1227407,26.2907804 43.3183878,8.85709548 41.9471376,10.3611099 C40.5758874,11.8651242 22.8325007,33.2984395 22.8325007,33.2984395 Z" id="Path-12" fill="#ECEFFB" transform="translate(30.061943, 21.783773) rotate(-10.000000) translate(-30.061943, -21.783773) "></path>
                </g>
            </g>
        </g>
    </g>
</svg>