<?xml version="1.0" encoding="UTF-8"?>
<svg width="42px" height="30px" viewBox="0 0 42 30" version="1.1" xmlns="http://www.w3.org/2000/svg" xmlns:xlink="http://www.w3.org/1999/xlink">
    <!-- Generator: Sketch 43.1 (39012) - http://www.bohemiancoding.com/sketch -->
    <title>Group 13</title>
    <desc>Created with Sketch.</desc>
    <defs>
        <polygon id="path-1" points="0.000186666664 0.238095238 41.57972 0.238095238 41.57972 29.5237143 0.000186666664 29.5237143 0.000186666664 0.238095238"></polygon>
    </defs>
    <g id="Page-1" stroke="none" stroke-width="1" fill="none" fill-rule="evenodd">
        <g id="Notificaciones-Hover" transform="translate(-1034.000000, -503.000000)">
            <g id="Group-11" transform="translate(990.000000, 48.000000)">
                <g id="Group-13" transform="translate(44.000000, 455.000000)">
                    <g id="Group-5-Copy-3">
                        <mask id="mask-2" fill="white">
                            <use xlink:href="#path-1"></use>
                        </mask>
                        <g id="Clip-4"></g>
                        <path d="M9.66018667,28.1427619 C5.08685333,28.1427619 1.35352,24.4284762 1.35352,19.8570476 C1.35352,15.5237143 4.71352,11.9046667 9.05352,11.5713333 L9.56685333,11.5237143 L9.70638667,11.0475238 C11.15352,5.52371429 16.1468533,1.71419048 21.83972,1.71419048 C28.3268533,1.71419048 33.83352,6.76180952 34.3463867,13.238 L34.39352,13.7141905 L34.8601867,13.8570476 C37.9868533,14.7618095 40.17972,17.6189524 40.17972,20.8570476 C40.17972,24.8575238 36.8668533,28.1427619 32.85352,28.1427619 L9.66018667,28.1427619 Z M21.83972,0.238 C15.6801867,0.238 10.2668533,4.28561905 8.49352,10.1427619 C3.68685333,10.7618095 0.000186666664,14.9046667 0.000186666664,19.8094286 C0.000186666664,25.190381 4.33972,29.5237143 9.70638667,29.5237143 L32.9001867,29.5237143 C37.7063867,29.5237143 41.57972,25.6189524 41.57972,20.8099048 C41.57972,17.1427619 39.15352,13.8094286 35.7001867,12.6189524 C34.9063867,5.66657143 28.93352,0.238 21.83972,0.238 Z" id="Fill-3" fill="#505C6A" mask="url(#mask-2)"></path>
                    </g>
                    <path d="M28.0033333,11.2142857 L18.4833333,20.8809524 L14.19,16.5 C13.91,16.2142857 13.49,16.2142857 13.21,16.5 C12.93,16.7857143 12.93,17.2142857 13.21,17.5 L17.97,22.4047619 C18.11,22.547619 18.2966667,22.5952381 18.4833333,22.5952381 C18.67,22.5952381 18.8566667,22.5 18.9966667,22.4047619 L28.9838,12.2142857 C29.2633333,11.9285714 29.2633333,11.5 28.9838,11.2142857 C28.7033333,10.9285714 28.2838,10.9285714 28.0033333,11.2142857" id="Fill-1-Copy-2" fill="#505C6A"></path>
                </g>
            </g>
        </g>
    </g>
</svg>