<?xml version="1.0" encoding="UTF-8"?>
<svg width="42px" height="42px" viewBox="0 0 42 42" version="1.1" xmlns="http://www.w3.org/2000/svg" xmlns:xlink="http://www.w3.org/1999/xlink">
    <!-- Generator: Sketch 46.1 (44463) - http://www.bohemiancoding.com/sketch -->
    <title>ico_noti_message</title>
    <desc>Created with Sketch.</desc>
    <defs></defs>
    <g id="Symbols" stroke="none" stroke-width="1" fill="none" fill-rule="evenodd">
        <g id="ico_noti_message">
            <g id="Group-16">
                <path d="M10.6451568,36.4678804 C7.33488817,35.8913089 5.10370944,31.6536122 4.24502003,30.0203954" id="Path-11" stroke="#D3D3D3" stroke-width="2" stroke-linecap="round" stroke-linejoin="round" transform="translate(7.445088, 33.244138) rotate(-10.000000) translate(-7.445088, -33.244138) "></path>
                <path d="M41.2422541,12.4808223 C37.9319854,11.9042508 35.7008067,7.66655413 34.8421173,6.03333737" id="Path-11-Copy" stroke="#D3D3D3" stroke-width="2" stroke-linecap="round" stroke-linejoin="round" transform="translate(38.042186, 9.257080) scale(-1, -1) rotate(10.000000) translate(-38.042186, -9.257080) "></path>
                <path d="M23.3723823,6.85565186 C23.3723823,6.85565186 31.3573947,6.35137939 33.8909776,8.69696045 C36.4245605,11.0425415 38.0444743,12.4822998 38.0099962,18.2122192 C37.9755181,23.9421387 37.5128445,28.3866577 36.1587457,29.3226929 C34.8046468,30.258728 31.1366238,32.6652832 26.6472439,32.727356 C25.8948432,32.9333496 22.2156982,37.7579956 22.2156982,37.7579956 L21.5328098,6.77325439 L23.3723823,6.85565186 Z" id="Path-3" fill="#ECEFFB"></path>
                <ellipse id="Oval-10" fill="#D3D3D3" cx="2.08281456" cy="27.721875" rx="1.08281456" ry="1.096875"></ellipse>
                <ellipse id="Oval-10-Copy" fill="#D3D3D3" cx="32.8328146" cy="4.096875" rx="1.08281456" ry="1.096875"></ellipse>
                <g id="Group-12" transform="translate(4.416667, 6.375000)" fill-rule="nonzero" fill="#595A9C">
                    <g id="noun_1191237_cc">
                        <path d="M17.0833333,32.2386513 C16.4177489,32.2386513 15.7965368,31.8952303 15.3971861,31.3800987 L12.7348485,27.4736842 L9.98376623,27.4736842 C4.48160173,27.4736842 0,23.2238487 0,18.0296053 L0,9.44407895 C0,4.24983553 4.48160173,0 10.0281385,0 L24.1829004,0 C29.6850649,0 34.1666667,4.24983553 34.1666667,9.44407895 L34.1666667,18.0296053 C34.1666667,23.2238487 29.6850649,27.4736842 24.1385281,27.4736842 L21.3874459,27.4736842 L18.7251082,31.3800987 C18.3701299,31.8952303 17.7489177,32.2386513 17.0833333,32.2386513 Z M10.0281385,1.71710526 C5.45779221,1.71710526 1.77489177,5.19424342 1.77489177,9.44407895 L1.77489177,18.0296053 C1.77489177,22.2794408 5.45779221,25.7565789 10.0281385,25.7565789 L13.7554113,25.7565789 L16.9058442,30.4356908 C16.9502165,30.5215461 17.038961,30.5215461 17.0833333,30.5215461 C17.1277056,30.5215461 17.2164502,30.5215461 17.2608225,30.4356908 L20.4556277,25.7565789 L24.1829004,25.7565789 C28.7088745,25.7565789 32.3917749,22.2794408 32.3917749,18.0296053 L32.3917749,9.44407895 C32.3917749,5.19424342 28.7088745,1.71710526 24.1385281,1.71710526 L10.0281385,1.71710526 Z" id="Shape"></path>
                        <path d="M24.6266234,11.1611842 L9.09632035,11.1611842 C8.60822511,11.1611842 8.20887446,10.7748355 8.20887446,10.3026316 C8.20887446,9.83042763 8.60822511,9.44407895 9.09632035,9.44407895 L24.6266234,9.44407895 C25.1147186,9.44407895 25.5140693,9.83042763 25.5140693,10.3026316 C25.5140693,10.7748355 25.1147186,11.1611842 24.6266234,11.1611842 Z" id="Shape"></path>
                        <path d="M18.4145022,18.0296053 L9.09632035,18.0296053 C8.60822511,18.0296053 8.20887446,17.6432566 8.20887446,17.1710526 C8.20887446,16.6988487 8.60822511,16.3125 9.09632035,16.3125 L18.4145022,16.3125 C18.9025974,16.3125 19.3019481,16.6988487 19.3019481,17.1710526 C19.3019481,17.6432566 18.9025974,18.0296053 18.4145022,18.0296053 Z" id="Shape"></path>
                        <path d="M24.6266234,18.0296053 L24.4491342,18.0296053 C24.4047619,18.0296053 24.3160173,17.9866776 24.271645,17.9866776 C24.2272727,17.9866776 24.1829004,17.94375 24.1385281,17.9008224 C24.0941558,17.8578947 24.0497835,17.8149671 24.0054113,17.8149671 C23.961039,17.7720395 23.9166667,17.7291118 23.8722944,17.6861842 C23.8279221,17.6432566 23.8279221,17.6003289 23.7835498,17.5574013 C23.7391775,17.5144737 23.7391775,17.4715461 23.7391775,17.3856908 L23.7391775,17.2139803 C23.7391775,16.9993421 23.8279221,16.7847039 24.0054113,16.6129934 C24.2272727,16.3983553 24.4935065,16.3125 24.8041126,16.3983553 C24.8484848,16.3983553 24.8928571,16.4412829 24.9816017,16.4412829 C25.025974,16.4842105 25.0703463,16.4842105 25.1147186,16.5271382 C25.1590909,16.5700658 25.2034632,16.6129934 25.2478355,16.6129934 C25.4253247,16.7847039 25.5140693,16.9993421 25.5140693,17.2139803 L25.5140693,17.3856908 C25.5140693,17.4286184 25.469697,17.5144737 25.469697,17.5574013 C25.469697,17.6003289 25.4253247,17.6432566 25.3809524,17.6861842 C25.3365801,17.7291118 25.3365801,17.7720395 25.2922078,17.8149671 C25.2478355,17.8578947 25.2034632,17.9008224 25.1590909,17.9008224 C25.1147186,17.94375 25.0703463,17.94375 25.025974,17.9866776 C24.9816017,17.9866776 24.9372294,18.0296053 24.8484848,18.0296053 C24.7597403,18.0296053 24.6709957,18.0296053 24.6266234,18.0296053 Z" id="Shape"></path>
                    </g>
                </g>
            </g>
        </g>
    </g>
</svg>