<?xml version="1.0" encoding="UTF-8"?>
<svg width="45px" height="35px" viewBox="0 0 45 35" version="1.1" xmlns="http://www.w3.org/2000/svg" xmlns:xlink="http://www.w3.org/1999/xlink">
    <!-- Generator: Sketch 51.2 (57519) - http://www.bohemiancoding.com/sketch -->
    <title>icono_noti</title>
    <desc>Created with Sketch.</desc>
    <defs></defs>
    <g id="Abrir_feedback_aprobado" stroke="none" stroke-width="1" fill="none" fill-rule="evenodd">
        <g id="respuesta_editor_09" transform="translate(-1076.000000, -160.000000)">
            <g id="Group-4" transform="translate(1040.000000, 0.000000)">
                <g id="box_noti_05" transform="translate(0.000000, 125.000000)">
                    <g id="icono_noti" transform="translate(36.000000, 35.000000)">
                        <path d="M26.1701555,32.2787681 L35.2800713,33.8838013" id="Stroke-1-Copy-3" stroke="#D3D3D3" stroke-width="2" stroke-linecap="round" stroke-linejoin="round" transform="translate(30.725113, 33.081285) rotate(-10.000000) translate(-30.725113, -33.081285) "></path>
                        <path d="M0.9,15.6600245 L2.07528644,9" id="Path-11" stroke="#D3D3D3" stroke-width="2" stroke-linecap="round" stroke-linejoin="round" transform="translate(1.487643, 12.330012) rotate(-10.000000) translate(-1.487643, -12.330012) "></path>
                        <circle id="Oval-3" fill="#ECEFFB" cx="25.2" cy="14.4" r="3.6"></circle>
                        <path d="M4.28049316,23.6269775 L11.9979492,15.8170166 C17.7342773,22.0302979 20.62229,25.0793701 20.6619873,24.9642334 C20.7016846,24.8490967 22.5548584,23.6517334 26.2215088,21.3721436 L35.4891357,27.8940674 L35.4891357,29.2561523 L4.28049316,29.2561523 L4.28049316,23.6269775 Z" id="Path-3" fill="#ECEFFB"></path>
                        <g id="noun_1243225_cc" transform="translate(3.600000, 0.000000)" fill="#595A9C" fill-rule="nonzero">
                            <g id="Group">
                                <path d="M0,29.7 L32.3217391,29.7 L32.3217391,4.4 L0,4.4 L0,29.7 Z M1.09565217,5.5 L31.226087,5.5 L31.226087,27.005 L22.4608696,20.79 L17.0373913,24.035 L8.2173913,15.18 L1.09565217,22.33 L1.09565217,5.5 Z M1.09565217,23.1 L1.47913043,23.485 L8.2173913,16.72 L16.8730435,25.41 L22.4608696,22.11 L31.226087,28.325 L31.226087,28.6 L1.09565217,28.6 L1.09565217,23.1 Z" id="Shape"></path>
                                <polygon id="Shape" points="5.47826087 2.75 6.57391304 2.75 6.57391304 1.1 36.7043478 1.1 36.7043478 24.2 33.9652174 24.2 33.9652174 25.3 37.8 25.3 37.8 0 5.47826087 0"></polygon>
                                <path d="M21.9130435,18.7 C24.3234783,18.7 26.2956522,16.72 26.2956522,14.3 C26.2956522,11.88 24.3234783,9.9 21.9130435,9.9 C19.5026087,9.9 17.5304348,11.88 17.5304348,14.3 C17.5304348,16.72 19.5026087,18.7 21.9130435,18.7 Z M21.9130435,11 C23.7208696,11 25.2,12.485 25.2,14.3 C25.2,16.115 23.7208696,17.6 21.9130435,17.6 C20.1052174,17.6 18.626087,16.115 18.626087,14.3 C18.626087,12.485 20.1052174,11 21.9130435,11 Z" id="Shape"></path>
                            </g>
                        </g>
                        <ellipse id="Oval-10" fill="#D3D3D3" cx="0.855687606" cy="6.255" rx="1" ry="1"></ellipse>
                        <ellipse id="Oval-10-Copy-2" fill="#D3D3D3" cx="44.0556876" cy="1.755" rx="1" ry="1"></ellipse>
                    </g>
                </g>
            </g>
        </g>
    </g>
</svg>