<?xml version="1.0" encoding="UTF-8"?>
<svg width="8px" height="8px" viewBox="0 0 8 8" version="1.1" xmlns="http://www.w3.org/2000/svg" xmlns:xlink="http://www.w3.org/1999/xlink">
    <!-- Generator: Sketch 51.3 (57544) - http://www.bohemiancoding.com/sketch -->
    <title>Shape</title>
    <desc>Created with Sketch.</desc>
    <defs></defs>
    <g id="PICHT-Re-abrir" stroke="none" stroke-width="1" fill="none" fill-rule="evenodd">
        <g id="18_pitch_cambio" transform="translate(-1004.000000, -623.000000)" fill="#FFFFFF">
            <g id="Group-4-Copy" transform="translate(1000.000000, 619.000000)">
                <path d="M7.993433,4.00005119 C7.76155779,4.0036746 7.57639579,4.19435591 7.57957767,4.42624273 L7.57957767,7.57947993 L4.42641019,7.57947993 C4.2747908,7.5773356 4.13376204,7.65699713 4.05732659,7.78796056 C3.98089114,7.91892398 3.98089114,8.08089913 4.05732659,8.21186255 C4.13376204,8.34282598 4.2747908,8.4224875 4.42641019,8.42034318 L7.57957767,8.42034318 L7.57957767,11.5735804 C7.57743339,11.7252031 7.65709316,11.866235 7.78805369,11.9426721 C7.91901422,12.0191093 8.08098578,12.0191093 8.21194631,11.9426721 C8.34290684,11.866235 8.42256661,11.7252031 8.42042233,11.5735804 L8.42042233,8.42034318 L11.5735898,8.42034318 C11.7252092,8.4224875 11.866238,8.34282598 11.9426734,8.21186255 C12.0191089,8.08089913 12.0191089,7.91892398 11.9426734,7.78796056 C11.866238,7.65699713 11.7252092,7.5773356 11.5735898,7.57947993 L8.42042233,7.57947993 L8.42042233,4.42624273 C8.42198165,4.31259974 8.37747096,4.20316572 8.29703224,4.12287571 C8.21659352,4.0425857 8.10707876,3.99827903 7.99344141,4.00005119 L7.993433,4.00005119 Z" id="Shape"></path>
            </g>
        </g>
    </g>
</svg>