<?xml version="1.0" encoding="UTF-8"?>
<svg width="15px" height="15px" viewBox="0 0 15 15" version="1.1" xmlns="http://www.w3.org/2000/svg" xmlns:xlink="http://www.w3.org/1999/xlink">
    <!-- Generator: Sketch 43.1 (39012) - http://www.bohemiancoding.com/sketch -->
    <title>Group 8</title>
    <desc>Created with Sketch.</desc>
    <defs></defs>
    <g id="Editar_brief" stroke="none" stroke-width="1" fill="none" fill-rule="evenodd">
        <g id="05_edicion-" transform="translate(-999.000000, -504.000000)" fill="#475C6A">
            <g id="Group-8" transform="translate(999.000000, 504.000000)">
                <g id="ico-upload-files">
                    <polygon id="Fill-1" points="0 6.06060605e-05 0 12.3255152 4.41636364 12.3255152 4.41636364 11.4479394 1.06060606 11.4479394 1.06060606 0.877636364 13.8328788 0.877636364 13.8328788 11.4479394 10.4771212 11.4479394 10.4771212 12.3255152 14.8934848 12.3255152 14.8934848 6.06060605e-05"></polygon>
                    <path d="M9.50343939,6.76742424 L7.59965152,4.77348485 C7.52616667,4.69651515 7.42419697,4.65287879 7.3175303,4.65287879 L7.12813636,4.65287879 C7.03162121,4.65287879 6.93919697,4.69242424 6.8725303,4.76227273 L4.95798485,6.76742424 L5.92859091,6.76742424 C6.01116667,6.76742424 6.09040909,6.73454545 6.14874242,6.67621212 L6.80783333,6.01712121 L6.80783333,14.8925758 L7.65359091,14.8925758 L7.65359091,6.01712121 L8.40389394,6.76742424 L9.50343939,6.76742424 Z" id="Fill-2"></path>
                </g>
            </g>
        </g>
    </g>
</svg>