<?xml version="1.0" encoding="UTF-8"?>
<svg width="37px" height="29px" viewBox="0 0 37 29" version="1.1" xmlns="http://www.w3.org/2000/svg" xmlns:xlink="http://www.w3.org/1999/xlink">
    <!-- Generator: Sketch 51.3 (57544) - http://www.bohemiancoding.com/sketch -->
    <title>Group 16</title>
    <desc>Created with Sketch.</desc>
    <defs></defs>
    <g id="Concurso_pitch" stroke="none" stroke-width="1" fill="none" fill-rule="evenodd" opacity="0.4">
        <g id="02_subir_propuestas" transform="translate(-702.000000, -279.000000)" fill="#4F5C69">
            <g id="Group-16" transform="translate(702.000000, 279.000000)">
                <path d="M37,13.5686275 C37,7.76470588 32.3653445,3.05882353 26.6492693,3.05882353 C26.4175365,3.05882353 26.1858038,3.05882353 25.954071,3.05882353 C23.7912317,1.09803922 21.0104384,0 18.0751566,0 C14.2901879,0 10.8141962,1.80392157 8.57411273,4.8627451 C3.78496868,5.33333333 0,9.41176471 0,14.3529412 C0,19.6078431 4.24843424,23.9215686 9.42379958,23.9215686 L9.42379958,20.4705882 C6.10229645,20.4705882 3.39874739,17.7254902 3.39874739,14.3529412 C3.39874739,10.9803922 6.10229645,8.23529412 9.34655532,8.23529412 L10.4279749,8.23529412 L10.9686848,7.37254902 C12.5135699,4.8627451 15.217119,3.37254902 18.0751566,3.37254902 C20.3924843,3.37254902 22.5553236,4.31372549 24.177453,6.03921569 L24.7954071,6.66666667 L25.6450939,6.50980392 C26.0313152,6.43137255 26.4175365,6.43137255 26.7265136,6.43137255 C30.5114823,6.43137255 33.6784969,9.56862745 33.6784969,13.4901961 C33.6784969,17.4117647 30.5887265,20.5490196 26.7265136,20.5490196 L26.7265136,24 C32.4425887,24 37,19.2941176 37,13.5686275 Z" id="Shape" fill-rule="nonzero"></path>
                <path d="M17.9966476,11.0000161 C18.2823904,10.998917 18.4830241,11.0537063 18.7200485,11.274787 L24.6416217,16.770221 C25.0628608,17.1561093 25.1402719,17.9090914 24.725708,18.3329529 C24.3258403,18.7418669 23.6127752,18.7911608 23.1948198,18.4016456 L19.0732973,14.5720375 L19.0766497,27.9009165 C19.0766497,28.5079403 18.5947413,29 18,29 C17.4052587,29 16.9233503,28.5079403 16.9233503,27.9009165 L16.9199979,14.5720375 L12.7984754,18.4016456 C12.38052,18.7911608 11.6474831,18.7612108 11.2675872,18.3329529 C10.8877452,17.9046401 10.9092244,17.1633632 11.3516736,16.770221 L17.2732467,11.274787 C17.4270999,11.130917 17.7086977,11.0055115 17.9966476,11.0000161 Z" id="Path-Copy"></path>
            </g>
        </g>
    </g>
</svg>