<?xml version="1.0" encoding="UTF-8"?>
<svg width="72px" height="70px" viewBox="0 0 72 70" version="1.1" xmlns="http://www.w3.org/2000/svg" xmlns:xlink="http://www.w3.org/1999/xlink">
    <!-- Generator: Sketch 51.3 (57544) - http://www.bohemiancoding.com/sketch -->
    <title>Shape</title>
    <desc>Created with Sketch.</desc>
    <defs></defs>
    <g id="PICHT_v1" stroke="none" stroke-width="1" fill="none" fill-rule="evenodd">
        <g id="10_pitch-" transform="translate(-528.000000, -368.000000)" fill="#595A9C" fill-rule="nonzero">
            <g id="Group-3" transform="translate(348.000000, 195.000000)">
                <g id="Group" transform="translate(180.000000, 173.000000)">
                    <path d="M16.8510642,0 C16.0049876,0 15.3191493,0.681305213 15.3191493,1.52173863 L15.3191493,10.1290728 C13.1186301,10.7931215 11.4893619,12.8255784 11.4893619,15.2173863 C11.4893619,18.1408821 13.9080258,20.5434716 16.8510642,20.5434716 C19.7941025,20.5434716 22.2127664,18.1408821 22.2127664,15.2173863 C22.2127664,12.8255784 20.5834983,10.7931215 18.3829791,10.1290728 L18.3829791,1.52173863 C18.3829791,0.681305213 17.6971408,0 16.8510642,0 Z M47.4893612,0 C46.6432846,0 45.9574463,0.681305213 45.9574463,1.52173863 L45.9574463,10.1290728 C43.7569271,10.7931215 42.1276589,12.8255784 42.1276589,15.2173863 C42.1276589,18.1408821 44.5463228,20.5434716 47.4893612,20.5434716 C50.4323995,20.5434716 52.8510634,18.1408821 52.8510634,15.2173863 C52.8510634,12.8255784 51.2217953,10.7931215 49.0212761,10.1290728 L49.0212761,1.52173863 C49.0212761,0.681305213 48.3354378,0 47.4893612,0 Z M7.6834725,4.5652159 C3.45454475,4.5652159 0,7.99684304 0,12.1976862 L0,56.2805371 C0,60.4813727 3.45446816,63.9130455 7.6834725,63.9130455 L49.1409187,63.9130455 C51.2646123,67.549316 55.2224677,70 59.7446806,70 C66.4949871,70 72,64.5315561 72,57.8260909 C72,52.7332122 68.8252595,48.3437571 64.3404254,46.531899 L64.3404254,12.1976862 C64.3404254,7.99684304 60.885804,4.5652159 56.6569529,4.5652159 L52.085106,4.5652159 C51.2757953,4.55387895 50.5313612,5.2829211 50.5313612,6.08695454 C50.5313612,6.89098797 51.2757953,7.62006056 52.085106,7.60869317 L56.6569529,7.60869317 C59.2385359,7.60869317 61.2765955,9.6331686 61.2765955,12.1976862 L61.2765955,22.8260795 L3.06382985,22.8260795 L3.06382985,12.1976862 C3.06382985,9.6331686 5.10173628,7.60869317 7.6834725,7.60869317 L12.2553194,7.60869317 C13.0646301,7.62003012 13.8090641,6.89098797 13.8090641,6.08695454 C13.8090641,5.2829211 13.0646301,4.55384852 12.2553194,4.5652159 L7.6834725,4.5652159 Z M21.446809,4.5652159 C20.6007324,4.5652159 19.914894,5.24649829 19.914894,6.08695454 C19.914894,6.92741078 20.6007324,7.60869317 21.446809,7.60869317 L42.8936164,7.60869317 C43.739693,7.60869317 44.4255313,6.92741078 44.4255313,6.08695454 C44.4255313,5.24649829 43.739693,4.5652159 42.8936164,4.5652159 L21.446809,4.5652159 Z M16.8510642,12.9347784 C18.1383323,12.9347784 19.1489366,13.9387074 19.1489366,15.2173863 C19.1489366,16.4960653 18.1383323,17.4999943 16.8510642,17.4999943 C15.5638727,17.4999943 14.5531918,16.4960653 14.5531918,15.2173863 C14.5531918,13.9387074 15.5638727,12.9347784 16.8510642,12.9347784 Z M47.4893612,12.9347784 C48.7766293,12.9347784 49.7872336,13.9387074 49.7872336,15.2173863 C49.7872336,16.4960653 48.7766293,17.4999943 47.4893612,17.4999943 C46.2021697,17.4999943 45.1914888,16.4960653 45.1914888,15.2173863 C45.1914888,13.9387074 46.2021697,12.9347784 47.4893612,12.9347784 Z M3.06382985,25.8695568 L61.2765955,25.8695568 L61.2765955,45.7710296 C60.7719061,45.7078775 60.266221,45.6521819 59.7446806,45.6521819 C52.9943741,45.6521819 47.4893612,51.1206257 47.4893612,57.8260909 C47.4893612,58.8788297 47.6413271,59.8941337 47.8962378,60.8695682 L7.6834725,60.8695682 C5.10188947,60.8695682 3.06566815,58.8450471 3.06382985,56.2805371 L3.06382985,25.8695568 Z M59.7446806,48.6956591 C64.8391403,48.6956591 68.9361701,52.765473 68.9361701,57.8260909 C68.9361701,62.8867088 64.8391403,66.9565227 59.7446806,66.9565227 C54.6502209,66.9565227 50.553191,62.8867088 50.553191,57.8260909 C50.553191,52.765473 54.6502209,48.6956591 59.7446806,48.6956591 Z M59.7446806,50.2173978 C58.898604,50.2173978 58.2127657,50.8986801 58.2127657,51.7391364 L58.2127657,57.8260909 C58.2127657,58.6665472 58.898604,59.3478296 59.7446806,59.3478296 L65.1063828,59.3478296 C65.9524594,59.3478296 66.6382978,58.6665472 66.6382978,57.8260909 C66.6382978,56.9856347 65.9524594,56.3043523 65.1063828,56.3043523 L61.2765955,56.3043523 L61.2765955,51.7391364 C61.2765955,50.8986801 60.5907572,50.2173978 59.7446806,50.2173978 Z" id="Shape"></path>
                </g>
            </g>
        </g>
    </g>
</svg>