<?xml version="1.0" encoding="UTF-8"?>
<svg width="20px" height="20px" viewBox="0 0 20 20" version="1.1" xmlns="http://www.w3.org/2000/svg" xmlns:xlink="http://www.w3.org/1999/xlink">
    <!-- Generator: Sketch 43.1 (39012) - http://www.bohemiancoding.com/sketch -->
    <title>icon_change_img</title>
    <desc>Created with Sketch.</desc>
    <defs></defs>
    <g id="Symbols" stroke="none" stroke-width="1" fill="none" fill-rule="evenodd">
        <g id="icon_change_img" fill-rule="nonzero" fill="#FFFFFF">
            <g id="Group" transform="translate(10.000000, 10.500000) rotate(90.000000) translate(-10.000000, -10.500000) translate(5.000000, 6.000000)">
                <path d="M2.47222222,8.90048077 C2.52777778,8.95105168 2.59722222,8.97633714 2.68055556,8.97633714 C2.76388889,8.97633714 2.83333333,8.95105168 2.875,8.90048077 L5.23611111,6.71328876 C5.29166667,6.66271785 5.31944444,6.59950421 5.31944444,6.53629056 C5.31944444,6.47307692 5.29166667,6.39722055 5.23611111,6.34664964 C5.125,6.24550781 4.93055556,6.24550781 4.81944444,6.34664964 L2.91666667,8.10398888 L2.91666667,0.252854567 C2.91666667,0.113784555 2.79166667,0 2.63888889,0 C2.48611111,0 2.36111111,0.113784555 2.36111111,0.252854567 L2.36111111,8.07870343 L0.472222222,6.34664964 C0.361111111,6.24550781 0.194444444,6.24550781 0.0833333333,6.34664964 C-0.0277777778,6.44779147 -0.0277777778,6.61214694 0.0833333333,6.71328876 L2.47222222,8.90048077 Z" id="Shape"></path>
                <path d="M5.18055556,2.6296875 L7.08333333,0.872348257 L7.08333333,8.72348257 C7.08333333,8.86255258 7.20833333,8.97633714 7.36111111,8.97633714 C7.51388889,8.97633714 7.63888889,8.86255258 7.63888889,8.72348257 L7.63888889,0.897633714 L9.52777778,2.6296875 C9.63888889,2.73082933 9.81944444,2.73082933 9.91666667,2.6296875 C10.0277778,2.52854567 10.0277778,2.3641902 9.91666667,2.26304838 L7.52777778,0.0758563702 C7.47222222,0.0252854567 7.40277778,0 7.31944444,0 C7.23611111,0 7.16666667,0.0252854567 7.125,0.0758563702 L4.76388889,2.26304838 C4.70833333,2.31361929 4.68055556,2.37683293 4.68055556,2.44004657 C4.68055556,2.50326022 4.70833333,2.57911659 4.76388889,2.6296875 C4.875,2.73082933 5.06944444,2.73082933 5.18055556,2.6296875 Z" id="Shape"></path>
            </g>
        </g>
    </g>
</svg>