<?xml version="1.0" encoding="UTF-8"?>
<svg width="30px" height="30px" viewBox="0 0 30 30" version="1.1" xmlns="http://www.w3.org/2000/svg" xmlns:xlink="http://www.w3.org/1999/xlink">
    <!-- Generator: Sketch 43.1 (39012) - http://www.bohemiancoding.com/sketch -->
    <title>edit</title>
    <desc>Created with Sketch.</desc>
    <defs></defs>
    <g id="Symbols" stroke="none" stroke-width="1" fill="none" fill-rule="evenodd">
        <g id="edit">
            <g id="Group-2" transform="translate(2.000000, 2.000000)">
                <g id="Group-6" fill="#595A9C">
                    <g id="Group-5">
                        <g id="Group-9">
                            <ellipse id="Oval-4-Copy-4" cx="12.9855351" cy="13.0958472" rx="12.9855351" ry="13.0958472"></ellipse>
                        </g>
                    </g>
                </g>
                <g id="ic_border_color_24px" transform="translate(8.000000, 8.000000)">
                    <g id="Group">
                        <polygon id="Shape" points="0 0 10 0 10 10 0 10"></polygon>
                        <path d="M7.39583333,2.91770833 L5.83333333,1.35520833 L1.66666667,5.521875 L1.66666667,7.084375 L3.22916667,7.084375 L7.39583333,2.91770833 L7.39583333,2.91770833 Z M8.62916667,1.684375 C8.79166667,1.521875 8.79166667,1.259375 8.62916667,1.096875 L7.65416667,0.121875 C7.49166667,-0.040625 7.22916667,-0.040625 7.06666667,0.121875 L6.25,0.938541667 L7.8125,2.50104167 L8.62916667,1.684375 L8.62916667,1.684375 Z" id="Shape" fill="#FFFFFF"></path>
                        <polygon id="Shape" fill="#AFB5D5" points="0 8.33333333 10 8.33333333 10 10 0 10"></polygon>
                    </g>
                </g>
            </g>
        </g>
    </g>
</svg>