<?xml version="1.0" encoding="UTF-8"?>
<svg width="17px" height="13px" viewBox="0 0 17 13" version="1.1" xmlns="http://www.w3.org/2000/svg" xmlns:xlink="http://www.w3.org/1999/xlink">
    <!-- Generator: Sketch 51.3 (57544) - http://www.bohemiancoding.com/sketch -->
    <title>Group Copy</title>
    <desc>Created with Sketch.</desc>
    <defs></defs>
    <g id="PICHT_v1" stroke="none" stroke-width="1" fill="none" fill-rule="evenodd">
        <g id="18_pitch-" transform="translate(-419.000000, -181.000000)" fill="#4F5C69" fill-rule="nonzero">
            <g id="Group-Copy" transform="translate(419.000000, 181.000000)">
                <path d="M8.49999999,0 C7.23525929,0 5.96860115,0.509727657 5.00363371,1.53326539 C4.18466859,2.40195852 3.71295812,3.50017492 3.58901626,4.63255824 C1.57524766,4.82648879 0,6.61989664 0,8.80645364 C0,11.1224654 1.7700558,13 3.95348836,13 L13.6395349,13 C15.5012326,13 17,11.4102266 17,9.4354856 C17,7.46074462 15.5012326,5.8709649 13.6395349,5.8709649 L13.4047965,5.8709649 C13.5789872,4.32891403 13.1058337,2.71664433 11.9901791,1.53326539 C11.0252709,0.509727657 9.76474069,0 8.49999999,0 Z M8.55862646,4.46079042 C8.66369588,4.46037408 8.73747013,4.48112858 8.82462548,4.56487518 L11.0020249,6.64657665 C11.1569171,6.79275329 11.1853817,7.07798717 11.0329439,7.23854833 C10.8859101,7.39344727 10.6237116,7.41212007 10.4700268,7.26456952 L8.95451725,5.81389232 L8.95451725,10.2895433 C8.95451725,10.5194874 8.77731653,10.7058824 8.55862646,10.7058824 C8.33993638,10.7058824 8.16273566,10.5194874 8.16273566,10.2895433 L8.16273566,5.81389232 L6.6472261,7.26456952 C6.4935413,7.41212007 6.22399905,7.40077483 6.08430898,7.23854833 C5.94463871,7.076301 5.95253673,6.79550113 6.11522805,6.64657665 L8.29262743,4.56487518 C8.34920023,4.5103764 8.45274546,4.46287211 8.55862646,4.46079042 Z" id="Shape"></path>
            </g>
        </g>
    </g>
</svg>