<?xml version="1.0" encoding="UTF-8"?>
<svg width="18px" height="18px" viewBox="0 0 18 18" version="1.1" xmlns="http://www.w3.org/2000/svg" xmlns:xlink="http://www.w3.org/1999/xlink">
    <!-- Generator: Sketch 48.2 (47327) - http://www.bohemiancoding.com/sketch -->
    <title>Page 1</title>
    <desc>Created with Sketch.</desc>
    <defs></defs>
    <g id="17_comentarios-" stroke="none" stroke-width="1" fill="none" fill-rule="evenodd" transform="translate(-184.000000, -352.000000)">
        <g id="Categoría" transform="translate(113.000000, 352.000000)" fill="#393A6F">
            <g id="Page-1" transform="translate(71.000000, 0.000000)">
                <path d="M8.83928571,16.6293103 C4.70087438,16.6293103 1.34621305,13.2136552 1.34621305,9 C1.34621305,4.78634483 4.70087438,1.37068966 8.83928571,1.37068966 C12.977697,1.37068966 16.3323584,4.78634483 16.3323584,9 C16.3323584,13.2136552 12.977697,16.6293103 8.83928571,16.6293103 M8.83928571,0 C3.95756158,0 0,4.02951724 0,9 C0,13.9704828 3.95756158,18 8.83928571,18 C13.7210099,18 17.6785714,13.9704828 17.6785714,9 C17.6785714,4.02951724 13.7210099,0 8.83928571,0" id="Fill-1"></path>
                <polygon id="Fill-3" points="12.065117 8.31132414 9.51574507 8.31132414 9.51574507 5.7156 8.16282635 5.7156 8.16282635 8.31132414 5.61345443 8.31132414 5.61345443 9.68863448 8.16282635 9.68863448 8.16282635 12.2845655 9.51574507 12.2845655 9.51574507 9.68863448 12.065117 9.68863448"></polygon>
            </g>
        </g>
    </g>
</svg>