<?xml version="1.0" encoding="UTF-8"?>
<svg width="14px" height="14px" viewBox="0 0 14 14" version="1.1" xmlns="http://www.w3.org/2000/svg" xmlns:xlink="http://www.w3.org/1999/xlink">
    <!-- Generator: Sketch 44 (41411) - http://www.bohemiancoding.com/sketch -->
    <title>icon_commenst_brief</title>
    <desc>Created with Sketch.</desc>
    <defs></defs>
    <g id="Symbols" stroke="none" stroke-width="1" fill="none" fill-rule="evenodd">
        <g id="ico-comments-brief" fill="#595A9C">
            <g id="noun_1155301_cc">
                <path d="M13.8264032,8.60567897 L13.8264032,2.02631579 C13.8264032,0.907212481 13.0927875,0 11.9736842,0 L2.02631579,0 C0.907212481,0 0,0.907212481 0,2.02631579 L0,8.65789474 C-6.54447257e-16,9.1953071 0.213486229,9.71070845 0.593494154,10.0907164 C0.973502079,10.4707243 1.48890343,10.6535819 2.02631579,10.6535819 L5.67272628,10.6535819 L8.77394737,13.7715789 C8.85618053,13.8553325 8.96791363,13.9035959 9.08526316,13.9060526 C9.13968071,13.9067346 9.19343801,13.8940858 9.24184211,13.8692105 C9.35473047,13.8078917 9.41448482,13.6948632 9.38921053,13.5689069 L9.38921053,10.6535819 L11.9736842,10.6535819 C13.336959,10.5250933 13.8264032,9.95570737 13.8264032,8.60567897 Z M9.07675332,9.90486688 C8.73659796,9.90486688 8.65641062,10.2426531 8.65641062,10.5692346 L8.65641062,12.8806809 L5.97211336,9.96366943 C5.93935096,9.93132367 5.89513093,9.91308845 5.84898653,9.91289505 L2.18866931,9.90486688 C1.31436985,9.90486688 0.801771019,9.4848297 0.752133018,8.53691483 L0.752133018,2.18792545 C0.752133018,1.25900249 1.33815725,0.847542018 2.243874,0.847542018 L11.7557887,0.871400339 C12.5315552,0.82339137 13.0942383,1.46767848 13.0942383,2.2117388 L13.0942383,8.5701276 C13.0942383,9.44039396 12.8122299,9.90486688 11.9379305,9.90486688 L9.07675332,9.90486688 Z" id="Shape" fill-rule="nonzero"></path>
                <rect id="Rectangle" x="3.13157895" y="3.86842105" width="7.73684211" height="1" rx="0.5"></rect>
                <rect id="Rectangle-Copy" x="3.13157895" y="6.07894737" width="7.73684211" height="1" rx="0.5"></rect>
            </g>
        </g>
    </g>
</svg>