<?xml version="1.0" encoding="UTF-8"?>
<svg width="11px" height="13px" viewBox="0 0 11 13" version="1.1" xmlns="http://www.w3.org/2000/svg" xmlns:xlink="http://www.w3.org/1999/xlink">
    <!-- Generator: Sketch 43.1 (39012) - http://www.bohemiancoding.com/sketch -->
    <title>ic_content_copy_24px copy 2</title>
    <desc>Created with Sketch.</desc>
    <defs></defs>
    <g id="Editar_brief" stroke="none" stroke-width="1" fill="none" fill-rule="evenodd">
        <g id="05_edicion-" transform="translate(-498.000000, -582.000000)">
            <g id="Group-21" transform="translate(497.000000, 582.000000)">
                <g id="ic_content_copy_24px-copy-2">
                    <g id="ico-duplicate">
                        <polygon id="Shape" points="0 0 13.1538462 0 13.1538462 13.5 0 13.5"></polygon>
                        <path d="M8.76923077,0.5625 L2.19230769,0.5625 C1.58942308,0.5625 1.09615385,1.06875 1.09615385,1.6875 L1.09615385,9.5625 L2.19230769,9.5625 L2.19230769,1.6875 L8.76923077,1.6875 L8.76923077,0.5625 L8.76923077,0.5625 Z M10.4134615,2.8125 L4.38461538,2.8125 C3.78173077,2.8125 3.28846154,3.31875 3.28846154,3.9375 L3.28846154,11.8125 C3.28846154,12.43125 3.78173077,12.9375 4.38461538,12.9375 L10.4134615,12.9375 C11.0163462,12.9375 11.5096154,12.43125 11.5096154,11.8125 L11.5096154,3.9375 C11.5096154,3.31875 11.0163462,2.8125 10.4134615,2.8125 L10.4134615,2.8125 Z M10.4134615,11.8125 L4.38461538,11.8125 L4.38461538,3.9375 L10.4134615,3.9375 L10.4134615,11.8125 L10.4134615,11.8125 Z" id="Shape" fill-opacity="0.3" fill="#4F5C69"></path>
                    </g>
                </g>
            </g>
        </g>
    </g>
</svg>