<?xml version="1.0" encoding="UTF-8"?>
<svg width="15px" height="13px" viewBox="0 0 15 13" version="1.1" xmlns="http://www.w3.org/2000/svg" xmlns:xlink="http://www.w3.org/1999/xlink">
    <!-- Generator: Sketch 43.1 (39012) - http://www.bohemiancoding.com/sketch -->
    <title>Group 12</title>
    <desc>Created with Sketch.</desc>
    <defs></defs>
    <g id="Editar_brief" stroke="none" stroke-width="1" fill="none" fill-rule="evenodd">
        <g id="05_edicion-" transform="translate(-999.000000, -540.000000)" fill="#4F5C69">
            <g id="Group-12" transform="translate(999.000000, 540.000000)">
                <g id="ico-image">
                    <path d="M0,12.5484412 L14.871,12.5484412 L14.871,-0.000382352941 L0,-0.000382352941 L0,12.5484412 Z M0.944855583,11.7514439 L13.9253944,11.7514439 L13.9253944,0.797379679 L0.944855583,0.797379679 L0.944855583,11.7514439 Z" id="Fill-1"></path>
                    <path d="M6.5151,5.71815629 L8.18685,7.78222656 L9.30135,6.72591886 L10.9594257,8.36981756 L4.2083975,8.36981756 L6.5151,5.71815629 Z M9.30135,6.02404706 L8.18685,7.1604 L6.5151,4.88769412 L3.17235,8.86492941 L12.08685,8.86492941 L9.30135,6.02404706 Z" id="Fill-2"></path>
                    <path d="M4.68498496,3.88191422 C4.68498496,4.19014429 4.43925857,4.44068884 4.13611158,4.44068884 C3.83212017,4.44068884 3.58639378,4.19014429 3.58639378,3.88191422 C3.58639378,3.57282317 3.83212017,3.32227861 4.13611158,3.32227861 C4.43925857,3.32227861 4.68498496,3.57282317 4.68498496,3.88191422" id="Fill-3"></path>
                </g>
            </g>
        </g>
    </g>
</svg>