<?xml version="1.0" encoding="UTF-8"?>
<svg width="83px" height="90px" viewBox="0 0 83 90" version="1.1" xmlns="http://www.w3.org/2000/svg" xmlns:xlink="http://www.w3.org/1999/xlink">
    <!-- Generator: Sketch 51.3 (57544) - http://www.bohemiancoding.com/sketch -->
    <title>medalla_02</title>
    <desc>Created with Sketch.</desc>
    <defs></defs>
    <g id="picht_mensajes" stroke="none" stroke-width="1" fill="none" fill-rule="evenodd">
        <g id="mensaje_box_prefinalista" transform="translate(-679.000000, -264.000000)" fill-rule="nonzero">
            <g id="Group-2" transform="translate(420.000000, 212.000000)">
                <g id="medalla_02" transform="translate(259.000000, 52.000000)">
                    <polygon id="Shape" fill="#B7BADF" points="44 47.0976957 20.99012 83 17.2144493 65.363553 0 68.901806 23.0103668 33"></polygon>
                    <polygon id="Shape" fill="#B7BADF" points="66.324929 33 83 72.8069424 66.3824886 66.2212775 59.6745791 83 43 43.1935601"></polygon>
                    <ellipse id="Oval" fill="#F3F5FF" cx="40" cy="86" rx="30" ry="4"></ellipse>
                    <path d="M12,50.4258101 C12,50.4258101 24.7955023,55.4483471 27.1134741,57.620649 C28.9326104,59.3259303 29.5525562,62.000243 29.5525562,62.000243 L20.5159406,74.7342089 L21.4565309,82 L38,57.3120558 L24.7959986,46.3193332 L16.9784277,42 L12,50.4258101 Z" id="Shape" fill="#8B8DC6" opacity="0.2"></path>
                    <path d="M72,46.9550215 C72,46.9550215 58.6802474,52.2803791 56.2060206,55.3866307 C54.4750515,57.5600128 53.8075052,60.1260251 55.0955876,63.8579999 C56.1768247,66.9920835 57.8122887,74.4500692 57.8122887,74.4500692 L59.171134,82 L48,55.6356278 L64.9895258,41.4706237 L69.036866,40 L72,46.9550215 Z" id="Shape" fill="#8B8DC6" opacity="0.2"></path>
                    <g id="Group" transform="translate(13.000000, 0.000000)">
                        <ellipse id="Oval" fill="#CBCCF1" cx="28.9744407" cy="29.0822906" rx="28.5669661" ry="28.8111282"></ellipse>
                        <path d="M28.9744407,53.6584274 C15.5381017,53.6584274 4.6070678,42.6334701 4.6070678,29.0822906 C4.6070678,15.5316068 15.5381017,4.50664957 28.9744407,4.50664957 C42.4107797,4.50664957 53.3423051,15.5316068 53.3423051,29.0822906 C53.3423051,42.6334701 42.4107797,53.6584274 28.9744407,53.6584274 Z M28.9744407,6.4117265 C16.5796441,6.4117265 6.496,16.5820513 6.496,29.0822906 C6.496,41.5835214 16.5801356,51.7528547 28.9744407,51.7528547 C41.3687458,51.7528547 51.4528814,41.5830256 51.4528814,29.0822906 C51.4533729,16.5815556 41.3692373,6.4117265 28.9744407,6.4117265 Z" id="Shape" fill="#B7BADF"></path>
                        <polygon id="Shape" fill="#8B8DC6" points="28.9744407 13.166 32.5178475 24.1636923 43.9841525 24.1636923 34.7075932 30.961094 38.251 41.9597778 28.9744407 35.1623761 19.6983729 41.9597778 23.2412881 30.961094 13.9652203 24.1636923 25.4310339 24.1636923"></polygon>
                        <ellipse id="Oval" fill="#F3F5FF" opacity="0.3" transform="translate(18.779128, 21.452271) rotate(33.443748) translate(-18.779128, -21.452271) " cx="18.7791283" cy="21.4522715" rx="6.28443846" ry="8.78448183"></ellipse>
                    </g>
                    <path d="M50.5333421,8.28179621 C49.6795481,10.1517038 65.4747363,46.9265527 31,48.8732511 C31,48.8732511 53.7787349,61.3088844 62.608428,36.5797308 C68.9508974,18.8156089 51.6179043,5.90726292 50.5333421,8.28179621 Z" id="Shape" fill="#8B8DC6" opacity="0.2"></path>
                </g>
            </g>
        </g>
    </g>
</svg>