<?xml version="1.0" encoding="UTF-8"?>
<svg width="101px" height="91px" viewBox="0 0 101 91" version="1.1" xmlns="http://www.w3.org/2000/svg" xmlns:xlink="http://www.w3.org/1999/xlink">
    <!-- Generator: Sketch 51.3 (57544) - http://www.bohemiancoding.com/sketch -->
    <title>medalla</title>
    <desc>Created with Sketch.</desc>
    <defs>
        <path d="M86.9449728,2.2715616 C86.9449728,3.4553232 67.5136896,4.4149392 43.543752,4.4149392 C19.5740496,4.4149392 0.1427664,3.4553232 0.1427664,2.2715616 C0.1427664,1.0878 19.5740496,0.1279488 43.543752,0.1279488 C67.5136896,0.1279488 86.9449728,1.0878 86.9449728,2.2715616" id="path-1"></path>
        <linearGradient x1="149.798341%" y1="19.0747761%" x2="-143.335375%" y2="109.025463%" id="linearGradient-3">
            <stop stop-color="#4A50C0" offset="0%"></stop>
            <stop stop-color="#444BCA" offset="100%"></stop>
        </linearGradient>
    </defs>
    <g id="picht_mensajes" stroke="none" stroke-width="1" fill="none" fill-rule="evenodd">
        <g id="mensaje_box_finalista" transform="translate(-670.000000, -259.000000)">
            <g id="medalla" transform="translate(670.000000, 259.000000)">
                <path d="M74.0346992,11.469528 C74.487224,17.190768 75.5493872,22.8630864 77.1981392,28.3559472 C77.561288,29.565816 78.0020528,30.8401296 78.9887168,31.6188768 C81.0147296,33.2163552 83.9561408,31.8747744 86.064944,30.3892512 C89.7425312,27.8001696 93.1613984,24.8084256 96.019784,21.3206448 C97.8550496,19.0806 99.4894544,16.5597264 100.053699,13.7083968 C100.618179,10.856832 99.9313952,7.6176576 97.7506208,5.717712 C94.3794992,2.7814752 87.1252256,2.8873152 82.8793952,2.7885312 C76.9107248,2.6488224 73.534664,5.1374736 74.0346992,11.469528" id="Shape" fill="#FFFFFF" fill-rule="nonzero" opacity="0.7"></path>
                <g id="Group" opacity="0.2" transform="translate(0.224000, 86.553600)">
                    <g id="Clipped">
                        <g>
                            <mask id="mask-2" fill="white">
                                <use xlink:href="#path-1"></use>
                            </mask>
                            <g id="SVGID_8_"></g>
                            <polygon id="Shape" fill="url(#linearGradient-3)" fill-rule="nonzero" mask="url(#mask-2)" points="87.7884 3.0961728 26.8511376 98.3954496 -0.700896 1.4469504 60.2363664 -93.8523264"></polygon>
                        </g>
                    </g>
                </g>
                <rect id="Rectangle-path" fill="#CACBEF" fill-rule="nonzero" x="44.8115696" y="44.8942704" width="6.9198192" height="24.2422992"></rect>
                <path d="M34.7151392,35.9980656 L18.7984496,35.9980656 C11.5213616,35.9980656 5.600672,30.0776112 5.600672,22.800288 C5.600672,15.5229648 11.5213616,9.60204 18.7984496,9.60204 L28.2885344,9.60204 L28.2885344,16.4320128 L18.7984496,16.4320128 C15.287384,16.4320128 12.4306448,19.2885168 12.4306448,22.8005232 C12.4306448,26.3120592 15.287384,29.1690336 18.7984496,29.1690336 L34.7151392,29.1690336 L34.7151392,35.9980656 Z" id="Shape" fill="#B6B9DD" fill-rule="nonzero"></path>
                <path d="M61.8278192,35.9980656 L77.7442736,35.9980656 C85.0220672,35.9980656 90.9425216,30.0776112 90.9425216,22.800288 C90.9425216,15.5229648 85.0220672,9.60204 77.7442736,9.60204 L68.2541888,9.60204 L68.2541888,16.4320128 L77.7442736,16.4320128 C81.2558096,16.4320128 84.1130192,19.2885168 84.1130192,22.8005232 C84.1130192,26.3120592 81.2558096,29.1690336 77.7442736,29.1690336 L61.8278192,29.1690336 L61.8278192,35.9980656 Z" id="Shape" fill="#B6B9DD" fill-rule="nonzero"></path>
                <path d="M41.5987376,35.2296672 L41.5987376,42.4296096 C41.5987376,45.0368016 43.71248,47.1514848 46.3203776,47.1514848 L50.2225808,47.1514848 C52.8304784,47.1514848 54.9442208,45.0370368 54.9442208,42.4296096 L54.9442208,35.2296672 L41.5987376,35.2296672 Z" id="Shape" fill="#B6B9DD" fill-rule="nonzero"></path>
                <path d="M22.5569456,7.0033152 L22.5569456,16.8419664 C22.5569456,31.0433424 34.0697504,42.5561472 48.2715968,42.5561472 C62.473208,42.5561472 73.9860128,31.0433424 73.9860128,16.8419664 L73.9860128,7.0033152 L22.5569456,7.0033152 Z" id="Shape" fill="#CACBEF" fill-rule="nonzero"></path>
                <rect id="Rectangle-path" fill="#A3A5D3" fill-rule="nonzero" x="18.2311472" y="0.2241456" width="60.0804288" height="6.7791696"></rect>
                <path d="M55.8709088,69.1365696 L40.6722848,69.1365696 C36.8333504,69.1365696 33.7209488,72.248736 33.7209488,76.0879056 L62.8220096,76.0879056 C62.8220096,72.2489712 59.7098432,69.1365696 55.8709088,69.1365696 Z" id="Shape" fill="#B6B9DD" fill-rule="nonzero"></path>
                <rect id="Rectangle-path" fill="#CACBEF" fill-rule="nonzero" x="28.5187952" y="76.0879056" width="39.5060736" height="14.5689936"></rect>
                <rect id="Rectangle-path" fill="#B6B9DD" fill-rule="nonzero" x="41.0039168" y="80.0627856" width="14.5351248" height="6.6187632"></rect>
                <polygon id="Shape" fill="#8A8BC3" fill-rule="nonzero" points="48.2715968 10.9918368 51.584624 17.7049152 58.9931888 18.7814256 53.6322752 24.0073344 54.8976512 31.3860288 48.2715968 27.901776 41.645072 31.3860288 42.9106832 24.0073344 37.5497696 18.7814256 44.9583344 17.7049152"></polygon>
                <path d="M27.7090016,15.1066608 C27.909392,17.4125616 28.3802624,19.6984704 29.1103232,21.9121728 C29.2712,22.3997424 29.4666512,22.913184 29.9036528,23.227176 C30.801176,23.8709184 32.104184,23.3304288 33.0386336,22.7316096 C34.667864,21.6880272 36.1827872,20.4826272 37.449104,19.0768368 C38.2621904,18.1741392 38.986136,17.1580752 39.2363888,16.0091232 C39.4861712,14.859936 39.1820576,13.5543408 38.215856,12.7887648 C36.722336,11.6054736 33.5085632,11.6480448 31.6274336,11.608296 C28.98308,11.551848 27.4874432,12.5547408 27.7090016,15.1066608" id="Shape" fill="#FFFFFF" fill-rule="nonzero" opacity="0.3"></path>
            </g>
        </g>
    </g>
</svg>