<?xml version="1.0" encoding="UTF-8"?>
<svg width="100px" height="121px" viewBox="0 0 100 121" version="1.1" xmlns="http://www.w3.org/2000/svg" xmlns:xlink="http://www.w3.org/1999/xlink">
    <!-- Generator: Sketch 51.3 (57544) - http://www.bohemiancoding.com/sketch -->
    <title>mensaje</title>
    <desc>Created with Sketch.</desc>
    <defs></defs>
    <g id="picht_mensajes" stroke="none" stroke-width="1" fill="none" fill-rule="evenodd">
        <g id="mensaje_box_eliminado" transform="translate(-670.000000, -240.000000)">
            <g id="mensaje" transform="translate(670.000000, 240.000000)">
                <ellipse id="Oval" fill="#C7CFE8" fill-rule="nonzero" cx="64.172549" cy="109.418627" rx="6.48823529" ry="1"></ellipse>
                <g id="Group" transform="translate(54.901961, 85.784314)">
                    <path d="M8.1377451,23.6343137 C8.1377451,23.6343137 2.37009804,17.35 0.743627451,13.5789216 C-0.882352941,9.80833333 1.77843137,9.14215686 3.10931373,11.1387255 C4.44019608,13.1348039 6.87990196,17.6446078 7.54607843,12.2470588 C8.21127451,6.8504902 7.32401961,5.66715686 8.1377451,5.00196078 C8.9504902,4.3372549 9.98578431,4.77990196 10.7245098,7.36813725 C11.4637255,9.95539216 14.0514706,10.4735294 14.7171569,8.03333333 C15.3833333,5.59362745 17.0838235,0.196078431 19.5235294,0.491176471 C21.9642157,0.787254902 19.45,4.70588235 19.5235294,6.92401961 C19.597549,9.14166667 21.5936275,8.77254902 23.1465686,6.77598039 C24.6995098,4.77941176 30.0230392,-1.38088235 32.3887255,0.478921569 C34.7544118,2.33921569 31.427451,4.77892157 32.3887255,7.14558824 C33.3495098,9.51127451 33.2019608,13.3681373 28.6921569,11.8838235 C24.1818627,10.3985294 24.477451,14.6132353 24.2553922,15.352451 C24.0343137,16.0921569 22.925,18.6058824 20.1156863,17.3490196 C17.3058824,16.0921569 15.7529412,16.6833333 16.7882353,17.7181373 C17.8230392,18.7534314 19.6710784,19.8622549 18.7102941,20.4544118 C17.7495098,21.045098 14.0519608,19.1230392 12.4990196,20.1583333 C10.9470588,21.1936275 10.3558824,23.6338235 10.3558824,23.6338235 L8.1377451,23.6338235 L8.1377451,23.6343137 Z" id="Shape" fill="#9796C3" fill-rule="nonzero"></path>
                    <path d="M30.3181373,5.88921569 C30.3181373,5.88921569 26.5480392,8.99509804 23.0730392,10.695098 C19.597549,12.3970588 10.5029412,13.8009804 9.91176471,17.8676471 C9.32009804,21.9338235 9.54215686,23.6348039 9.54215686,23.6348039" id="Shape" stroke="#F8F8FA"></path>
                </g>
                <path d="M30.8333333,66.3627451 C36.129902,67.0181373 41.472549,67.1166667 46.8029412,67.3132353 C49.2465686,67.4034314 51.6421569,67.2946078 53.8990196,68.1382353 C56.0112745,68.9289216 57.6980392,70.5156863 59.877451,71.195098 C61.5691176,71.7220588 63.3936275,71.7039216 65.1607843,71.5107843 C72.6338235,70.6921569 79.6696078,66.6852941 84.0137255,60.7740196 C87.9911765,55.3598039 89.6529412,48.4313725 88.6107843,41.8813725 C87.9789216,37.9088235 86.0794118,34.2039216 85.6245098,30.2014706 C85.1436275,25.9696078 86.8215686,22.279902 87.8823529,18.2553922 C88.622549,15.4490196 88.9460784,12.5411765 88.8392157,9.64803922 C88.7779412,7.98088235 88.5598039,6.27254902 87.7416667,4.80245098 C85.5166667,0.810294118 79.9063725,0.0568627451 75.2230392,0.506862745 C69.4269608,1.06372549 63.6436275,2.78529412 58.5446078,5.49656863 C54.5176471,7.6372549 50.5294118,10.7529412 45.9088235,11.597549 C40.6985294,12.5495098 36.6676471,9.11176471 31.9784314,7.54362745 C21.427451,4.01568627 8.68823529,10.9460784 4.03676471,20.1642157 C-1.70539216,31.5431373 -1.05098039,50.1583333 9.69607843,58.6029412 C15.5529412,63.2053922 23.1004902,65.379902 30.5955882,66.3318627 C30.6754902,66.3426471 30.7544118,66.352451 30.8333333,66.3627451 Z" id="Shape" fill="#E9ECF6" fill-rule="nonzero" opacity="0.6"></path>
                <ellipse id="Oval" fill="#C7CFE8" fill-rule="nonzero" cx="61.5171569" cy="112.633333" rx="6.48823529" ry="1"></ellipse>
                <ellipse id="Oval" fill="#E9ECF6" fill-rule="nonzero" cx="43.5377451" cy="114.537745" rx="37.9102941" ry="3.99901961"></ellipse>
                <ellipse id="Oval" fill="#C7CFE8" fill-rule="nonzero" cx="72.429902" cy="119.694118" rx="6.48823529" ry="1"></ellipse>
                <path d="M36.1745098,112.455882 L36.05,115.003431 C36.05,115.003431 39.8156863,116.913235 40.6196078,116.836275 C41.4240196,116.759804 42.0230392,115.910784 42.0328431,115.531863 C42.0446078,115.053431 38.9117647,112.781373 38.9117647,112.781373 L36.5406863,111.188725 L36.1745098,112.455882 Z" id="Shape" fill="#53557E" fill-rule="nonzero"></path>
                <polygon id="Shape" fill="#53557E" fill-rule="nonzero" points="36.1745098 112.455882 38.9279412 88.1279412 38.9117647 60.7009804 41.7730392 55.8308824 51.154902 54.5387255 51.6882353 63.9681373 47.4985294 87.4857843 38.9117647 112.781373"></polygon>
                <path d="M52.5436275,27.6220588 C52.5436275,27.6220588 58.204902,28.8019608 59.9857843,29.6485294 C61.7671569,30.4955882 68.5936275,44.8995098 68.5936275,44.8995098 L64.5166667,48.6740196 L58.7789216,41.8794118 L52.5436275,27.6220588 Z" id="Shape" fill="#777AB2" fill-rule="nonzero"></path>
                <g id="Group" transform="translate(46.568627, 54.901961)" fill="#53557E" fill-rule="nonzero">
                    <polygon id="Shape" points="15.4426471 2.36323529 14.0093137 27.0186275 9.37058824 58.0808824 6.98284314 58.4803922 5.975 29.2411765 0.45245098 0.00294117647"></polygon>
                    <path d="M6.98921569,59.9803922 C6.98921569,59.9803922 11.5955882,61.7171569 12.0093137,61.4784314 C12.422549,61.2387255 13.7495098,60.222549 13.3357843,59.9990196 C12.9220588,59.7764706 9.40098039,57.8794118 9.40098039,57.8794118 L7.00735294,58.0573529 L6.98921569,59.9803922 Z" id="Shape"></path>
                </g>
                <path d="M38.5446078,34.227451 C40.7911765,29.4210784 41.772549,27.7848039 49.9656863,27.55 C54.1401961,27.4303922 55.6210784,27.4588235 58.8480392,32.7191176 C59.0911765,33.1147059 59.1779412,34.845098 59.2588235,35.3269608 C59.4014706,36.1759804 59.5544118,37.0235294 59.7289216,37.8671569 C59.8661765,38.529902 60.1882353,39.8465686 60.1882353,39.8465686 L64.3539216,65.5529412 C64.3539216,65.5529412 61.9421569,66.3107843 60.6906863,66.5083333 L38.9112745,71.6357843 C38.9117647,71.6357843 37.6416667,36.1598039 38.5446078,34.227451 Z" id="Shape" fill="#8383B7" fill-rule="nonzero"></path>
                <path d="M49.9769608,28.904902 C49.4784314,29.1509804 48.3034314,29.2392157 47.077451,28.7588235 C46.8303922,28.6622549 46.6637255,28.4240196 46.6671569,28.1588235 C46.677451,27.4137255 46.7372549,26.670098 46.8465686,25.9333333 C45.927451,25.6102941 44.8647059,25.1254902 44.7044118,24.1637255 C44.6539216,23.8612745 44.2632353,22.6740196 44.3156863,22.3715686 C44.5318627,21.1210784 44.8401961,18.9460784 45.0568627,17.695098 C45.1313725,17.2627451 45.2107843,16.8166667 45.4460784,16.4465686 C45.8588235,15.7960784 47.7313725,15.9259804 48.4901961,15.7936275 C50.4264706,15.4578431 52.3803922,15.6014706 53.8818627,16.870098 C54.2808824,17.2073529 55.0107843,17.7686275 55.1862745,18.2612745 C55.4583333,19.0205882 53.5338235,25.8269608 52.2210784,26.3872549 C51.8029412,26.5661765 51.2980392,26.5039216 50.9137255,26.7480392 C50.2377451,27.1789216 50.3289216,28.1848039 49.9769608,28.904902 Z" id="Shape" fill="#C0BEDC" fill-rule="nonzero"></path>
                <path d="M61.1539216,14.5696078 C61.3441176,14.2573529 61.7088235,8.11617647 57.0794118,8.78921569 C55.4990196,9.01911765 54.1470588,9.83529412 52.5897059,9.25343137 C51.1264706,8.70686275 50.0686275,8.92941176 48.5397059,9.475 C46.8843137,10.0656863 45.4661765,10.1808824 43.9681373,11.0147059 C43.3426471,11.3627451 42.8431373,11.9073529 42.4544118,12.5078431 C41.1058824,14.5901961 40.2941176,17.4857843 41.6318627,19.575 C41.9318627,20.0436275 42.2911765,20.4720588 42.6681373,20.8813725 C43.4490196,21.7284314 43.6848039,22.9348039 44.7588235,23.2490196 C44.7848039,22.2882353 44.5058824,19.0970588 45.2431373,18.3093137 C46.4147059,17.0593137 49.1647059,17.495098 50.6171569,17.8029412 C52.2019608,18.1387255 53.6142157,19.2607843 55.1857843,19.5004902 C56.3166667,19.6730392 57.7588235,19.1186275 58.7205882,18.5343137 C59.9073529,17.8132353 60.4598039,15.7093137 61.1539216,14.5696078 Z" id="Shape" fill="#353C6C" fill-rule="nonzero"></path>
                <path d="M41.7730392,29.3970588 C41.7730392,29.3970588 37.5161765,32.552451 35.6156863,34.7926471 C33.7151961,37.0328431 31.3872549,49.227451 31.3872549,49.227451 L38.9122549,52.7588235 L38.9151961,53.777451 L41.7730392,29.3970588 Z" id="Shape" fill="#777AB2" fill-rule="nonzero"></path>
                <polygon id="Shape" fill="#575EA0" fill-rule="nonzero" points="83.970098 34.7985294 7.85686275 40.5284314 47.6995098 61.3906863"></polygon>
                <path d="M5.47058824,42.2784314 L9.16078431,91.2936275 L80.5098039,85.9215686 C85.9068627,85.5156863 89.9289216,80.5102941 89.4941176,74.7421569 L86.5906863,36.1710784 L47.9343137,64.5122549 L5.47058824,42.2784314 Z" id="Shape" fill="#575EA0" fill-rule="nonzero"></path>
                <path d="M70.3132353,35.8269608 C70.2632353,36.4808824 70.2617647,37.1465686 70.3132353,37.8196078 C70.4691176,39.8970588 71.1019608,41.825 72.0955882,43.5039216 L83.970098,34.7985294 L70.3132353,35.8269608 Z" id="Shape" fill="#505B9F" fill-rule="nonzero"></path>
                <path d="M84.3769608,49.9147059 C85.4916667,49.8308824 86.5632353,49.6088235 87.5769608,49.2686275 L86.5911765,36.1715686 L73.672549,45.6431373 C76.2970588,48.5352941 80.1803922,50.2308824 84.3769608,49.9147059 Z" id="Shape" fill="#505B9F" fill-rule="nonzero"></path>
                <circle id="Oval" fill="#9796C3" fill-rule="nonzero" cx="86.5004902" cy="34.9676471" r="13.1161765"></circle>
                <polygon id="Shape" fill="#FFFFFF" fill-rule="nonzero" points="89.229902 42.1387255 86.1588235 42.3215686 85.5558824 32.2102941 83.6357843 32.325 83.452451 29.2539216 88.4441176 28.9563725"></polygon>
                <path d="M30.7710784,39.4848039 C30.7710784,39.4848039 30.3186275,37.7313725 32.3862745,37.329902 C34.4539216,36.9284314 35.6151961,37.1764706 35.6151961,37.1764706 C35.6151961,37.1764706 37.2583333,37.5647059 37.429902,38.4534314 C37.6004902,39.3426471 35.8362745,41.8102941 34.3039216,41.704902 C32.7720588,41.6 30.7710784,39.4848039 30.7710784,39.4848039 Z" id="Shape" fill="#C0BEDC" fill-rule="nonzero"></path>
                <path d="M59.5921569,36.4666667 C58.7436275,35.7852941 58.8313725,34.8602941 60.8465686,34.454902 C62.7102941,33.9720588 63.272549,33.6960784 63.825,33.9446078 C64.1887255,34.104902 65.9916667,36.0941176 65.9990196,36.3348039 C66.0068627,36.575 63.9455882,38.9053922 62.9191176,38.8019608 C61.8926471,38.6985294 60.4426471,37.147549 59.5921569,36.4666667 Z" id="Shape" fill="#C0BEDC" fill-rule="nonzero"></path>
                <ellipse id="Oval" fill="#C0BEDC" fill-rule="nonzero" cx="44.7823529" cy="20.1318627" rx="1.13039216" ry="1.26078431"></ellipse>
            </g>
        </g>
    </g>
</svg>