<?xml version="1.0" encoding="UTF-8"?>
<svg width="12px" height="10px" viewBox="0 0 12 10" version="1.1" xmlns="http://www.w3.org/2000/svg" xmlns:xlink="http://www.w3.org/1999/xlink">
    <!-- Generator: Sketch 51.2 (57519) - http://www.bohemiancoding.com/sketch -->
    <title>icono_mail</title>
    <desc>Created with Sketch.</desc>
    <defs></defs>
    <g id="vista_cerrana_funciones_menu" stroke="none" stroke-width="1" fill="none" fill-rule="evenodd">
        <g id="vista_cerrada_buscar_comentarios_01" transform="translate(-1154.000000, -153.000000)" fill="#4F5C69" fill-rule="nonzero">
            <g id="Group" transform="translate(1118.000000, 60.000000)">
                <g id="icono_mail" transform="translate(35.000000, 90.000000)">
                    <g id="icon_send_mail" transform="translate(1.000000, 3.000000)">
                        <path d="M10.6378378,0 L1.34054054,0 C0.605405405,0 0,0.620928621 0,1.37491337 L0,7.82813583 C0,8.58212058 0.605405405,9.2030492 1.34054054,9.2030492 L10.6594595,9.2030492 C11.3945946,9.2030492 12,8.58212058 12,7.82813583 L12,1.37491337 C11.9783784,0.620928621 11.372973,0 10.6378378,0 Z M10.6378378,0.665280665 C10.7027027,0.665280665 10.7459459,0.665280665 10.8108108,0.687456687 C9.77297297,1.75190575 6.35675676,5.3000693 6.14054054,5.52182952 C6.05405405,5.61053361 6.01081081,5.63270963 5.98918919,5.65488565 C5.96756757,5.63270963 5.92432432,5.61053361 5.83783784,5.52182952 C5.62162162,5.3000693 2.18378378,1.75190575 1.14594595,0.687456687 C1.21081081,0.665280665 1.25405405,0.665280665 1.31891892,0.665280665 L10.6378378,0.665280665 Z M0.88334817,8.29132259 C0.650840703,8.0874302 0.67027027,7.89151966 0.67027027,7.82813583 L0.67027027,1.37491337 C0.67027027,1.30838531 0.691891892,1.21968122 0.713513514,1.15315315 C1.72972973,2.1954262 5.21081081,5.78794179 5.40540541,5.98752599 C5.55675676,6.14275814 5.75135135,6.32016632 6.01081081,6.32016632 C6.27027027,6.32016632 6.46486486,6.14275814 6.61621622,5.98752599 C6.83243243,5.76576577 10.2918919,2.1954262 11.3081081,1.13097713 C11.3297297,1.1975052 11.3513514,1.28620929 11.3513514,1.35273735 L11.3513514,7.80595981 C11.3513514,7.85828 11.3513514,8.14659706 11.2099609,8.3213141 C11.0685705,8.49603115 10.7459459,8.49341649 10.6810811,8.49341649 C6.5674992,8.49341649 3.48231279,8.49341649 1.42552185,8.49341649 C1.39719475,8.49341649 1.13691711,8.5136844 0.88334817,8.29132259 Z" id="Shape-Copy-2"></path>
                    </g>
                </g>
            </g>
        </g>
    </g>
</svg>