<?xml version="1.0" encoding="UTF-8"?>
<svg width="15px" height="15px" viewBox="0 0 15 15" version="1.1" xmlns="http://www.w3.org/2000/svg" xmlns:xlink="http://www.w3.org/1999/xlink">
    <!-- Generator: Sketch 50.2 (55047) - http://www.bohemiancoding.com/sketch -->
    <title>ico/menu_versiones</title>
    <desc>Created with Sketch.</desc>
    <defs></defs>
    <g id="ico/menu_versiones" stroke="none" stroke-width="1" fill="none" fill-rule="evenodd">
        <g id="ic_alarm_24px" fill="#4F5C69">
            <g id="Group">
                <path d="M13,4.93 L10.7,3 L10.055,3.765 L12.355,5.695 L13,4.93 L13,4.93 Z M5.94,3.765 L5.3,3 L3,4.925 L3.645,5.69 L5.94,3.765 L5.94,3.765 Z M8.25,6.07 L7.5,6.07 L7.5,9.07 L9.875,10.495 L10.25,9.88 L8.25,8.695 L8.25,6.07 L8.25,6.07 Z M8,4.07 C5.515,4.07 3.5,6.085 3.5,8.57 C3.5,11.055 5.51,13.07 8,13.07 C10.485,13.07 12.5,11.055 12.5,8.57 C12.5,6.085 10.485,4.07 8,4.07 L8,4.07 Z M8,12.32 C5.92678571,12.32 4.25,10.6432143 4.25,8.57 C4.25,6.49678571 5.92678571,4.82 8,4.82 C10.0732143,4.82 11.75,6.49678571 11.75,8.57 C11.75,10.6432143 10.0732143,12.32 8,12.32 L8,12.32 Z" id="Shape"></path>
            </g>
        </g>
    </g>
</svg>