<?xml version="1.0" encoding="UTF-8"?>
<svg width="15px" height="15px" viewBox="0 0 15 15" version="1.1" xmlns="http://www.w3.org/2000/svg" xmlns:xlink="http://www.w3.org/1999/xlink">
    <!-- Generator: Sketch 50.2 (55047) - http://www.bohemiancoding.com/sketch -->
    <title>ico/menu_cancelar</title>
    <desc>Created with Sketch.</desc>
    <defs></defs>
    <g id="ico/menu_cancelar" stroke="none" stroke-width="1" fill="none" fill-rule="evenodd">
        <g id="ic_alarm_24px">
            <g id="Group"></g>
        </g>
        <g id="icono_cancelar_core" fill="#4F5C69" fill-rule="nonzero">
            <g id="Group-2" transform="translate(2.000000, 3.000000)">
                <path d="M11.867105,0.815778162 L0.153453944,0.815778162 C0.0767269719,0.815778162 0,0.896364242 0,0.976950323 L2.08166817e-17,1.49450549 C2.08166817e-17,1.57509158 0.0767269719,1.65567766 0.153453944,1.65567766 L0.716118404,1.65567766 C0.792845376,1.65567766 0.869572348,1.73626374 0.869572348,1.81684982 L0.869572348,8.1025641 C0.869572348,8.31746032 1.04860195,8.50549451 1.25320721,8.50549451 L10.7417761,8.50549451 C10.9463813,8.50549451 11.1254109,8.31746032 11.1254109,8.1025641 L11.1254109,1.84371184 C11.1254109,1.76312576 11.2021379,1.68253968 11.2788649,1.68253968 L11.8415293,1.68253968 C11.9182563,1.68253968 11.9949833,1.6019536 11.9949833,1.52136752 L11.9949833,1.00381235 C12.0205589,0.896364242 11.943832,0.815778162 11.867105,0.815778162 Z M10.2302629,7.72649573 L1.79029601,7.72649573 C1.71356904,7.72649573 1.63684207,7.64590965 1.63684207,7.56532357 L1.63684207,1.84371184 C1.63684207,1.76312576 1.71356904,1.68253968 1.79029601,1.68253968 L10.2046873,1.68253968 C10.2814142,1.68253968 10.3581412,1.76312576 10.3581412,1.84371184 L10.3581412,7.53846154 C10.3837169,7.64590965 10.3069899,7.72649573 10.2302629,7.72649573 Z" id="Shape"></path>
                <path d="M5.31399687,4.67132867 L4.00862986,5.81507382 C3.8383646,5.96425796 3.80998705,6.18803419 3.95187477,6.33721834 C4.0370074,6.43667444 4.15051758,6.46153846 4.26402775,6.46153846 C4.37753793,6.46153846 4.4910481,6.43667444 4.57618073,6.36208236 L5.88154775,5.21833722 C5.90992529,5.19347319 5.99505792,5.19347319 6.02343547,5.21833722 L7.32880248,6.36208236 C7.41393511,6.43667444 7.52744529,6.46153846 7.64095546,6.46153846 C7.75446564,6.46153846 7.86797581,6.41181041 7.95310844,6.33721834 C8.09499616,6.18803419 8.06661862,5.96425796 7.89635336,5.81507382 L6.59098634,4.67132867 C6.5626088,4.64646465 6.5626088,4.57187257 6.59098634,4.54700855 L7.89635336,3.4032634 C8.06661862,3.25407925 8.06661862,3.03030303 7.89635336,2.88111888 C7.72608809,2.73193473 7.4706902,2.73193473 7.30042494,2.88111888 L5.99505792,4.02486402 C5.96668038,4.04972805 5.88154775,4.04972805 5.8531702,4.02486402 L4.54780319,2.88111888 C4.37753793,2.73193473 4.12214003,2.73193473 3.95187477,2.88111888 C3.78160951,3.03030303 3.78160951,3.25407925 3.95187477,3.4032634 L5.25724179,4.54700855 C5.37075196,4.57187257 5.37075196,4.64646465 5.31399687,4.67132867 Z" id="Shape"></path>
            </g>
        </g>
    </g>
</svg>