<?xml version="1.0" encoding="UTF-8"?>
<svg width="15px" height="15px" viewBox="0 0 15 15" version="1.1" xmlns="http://www.w3.org/2000/svg" xmlns:xlink="http://www.w3.org/1999/xlink">
    <!-- Generator: Sketch 50.2 (55047) - http://www.bohemiancoding.com/sketch -->
    <title>ico/menu_bsucar</title>
    <desc>Created with Sketch.</desc>
    <defs></defs>
    <g id="ico/menu_bsucar" stroke="none" stroke-width="1" fill="none" fill-rule="evenodd">
        <g id="Group-13" fill="#505C6A" fill-rule="nonzero">
            <g id="Group-Copy" transform="translate(3.000000, 3.000000)">
                <path d="M4.21028329,0.048052 C1.96223053,0.048052 0.131335921,1.90334133 0.131335921,4.18138533 C0.131335921,6.4594 1.9622175,8.31472 4.21028329,8.31472 C5.19266474,8.31472 6.09566474,7.95793333 6.80074368,7.36888 L9.19383579,9.79805333 C9.34796737,9.95424 9.59890092,9.95425333 9.75304566,9.79805333 C9.90720355,9.64185333 9.90720355,9.38758667 9.75304566,9.23138667 L7.35583592,6.80638667 C7.93713855,6.09189333 8.28923066,5.17686667 8.28923066,4.18138533 C8.28923066,1.90334 6.45832263,0.048052 4.21028329,0.048052 Z M4.21028329,0.848052 C6.03166474,0.848052 7.49975684,2.33569733 7.49975684,4.18138533 C7.49975684,6.02704 6.03165158,7.51472 4.21028316,7.51472 C2.38890158,7.51472 0.920809474,6.02704 0.920809474,4.18138533 C0.920809474,2.335696 2.38888842,0.848052 4.21028316,0.848052 L4.21028329,0.848052 Z" id="Shape"></path>
            </g>
        </g>
    </g>
</svg>