<?xml version="1.0" encoding="UTF-8"?>
<svg width="15px" height="15px" viewBox="0 0 15 15" version="1.1" xmlns="http://www.w3.org/2000/svg" xmlns:xlink="http://www.w3.org/1999/xlink">
    <!-- Generator: Sketch 50.2 (55047) - http://www.bohemiancoding.com/sketch -->
    <title>ico/menu_descargar</title>
    <desc>Created with Sketch.</desc>
    <defs></defs>
    <g id="ico/menu_descargar" stroke="none" stroke-width="1" fill="none" fill-rule="evenodd">
        <g id="Group-9" fill="#4F5C69" fill-rule="nonzero">
            <path d="M11.5950413,12.7190083 C11.5950413,12.8842975 11.4628099,13 11.2975207,13 L3.28099174,13 C3.11570248,13 3,12.8677686 3,12.7190083 C3,12.553719 3.1322314,12.4380165 3.28099174,12.4380165 L11.2975207,12.4380165 C11.4628099,12.4380165 11.5950413,12.553719 11.5950413,12.7190083 Z M7.09917355,10.8181818 C7.14876033,10.8677686 7.23140496,10.9008264 7.29752066,10.9008264 C7.36363636,10.9008264 7.44628099,10.8677686 7.49586777,10.8181818 L9.7107438,8.60330579 C9.82644628,8.48760331 9.82644628,8.30578512 9.7107438,8.19008264 C9.59504132,8.07438017 9.41322314,8.07438017 9.29752066,8.19008264 L7.5785124,9.90909091 L7.5785124,3.28099174 C7.5785124,3.11570248 7.44628099,3 7.28099174,3 C7.11570248,3 7,3.1322314 7,3.28099174 L7,9.90909091 L5.28099174,8.19008264 C5.16528926,8.07438017 4.98347107,8.07438017 4.8677686,8.19008264 C4.75206612,8.30578512 4.75206612,8.48760331 4.8677686,8.60330579 L7.09917355,10.8181818 Z" id="Shape"></path>
        </g>
    </g>
</svg>