<?xml version="1.0" encoding="UTF-8"?>
<svg width="15px" height="15px" viewBox="0 0 15 15" version="1.1" xmlns="http://www.w3.org/2000/svg" xmlns:xlink="http://www.w3.org/1999/xlink">
    <!-- Generator: Sketch 50.2 (55047) - http://www.bohemiancoding.com/sketch -->
    <title>menu_archivar</title>
    <desc>Created with Sketch.</desc>
    <defs></defs>
    <g id="menu_archivar" stroke="none" stroke-width="1" fill="none" fill-rule="evenodd">
        <g id="Group-9"></g>
        <g id="icono_papelera" transform="translate(1.000000, 3.000000)" fill="#4F5C69" fill-rule="nonzero">
            <path d="M12.9439944,4.71841157 C12.9301088,4.68138311 12.9449202,4.64186234 12.9157602,4.60803826 L10.6294839,1.96637768 C10.287202,1.57099199 9.71048368,1.33333333 9.09303402,1.33333333 L3.90719741,1.33333333 C3.28951632,1.33333333 2.71302939,1.57081397 2.37074751,1.96637768 L0.0842397593,4.60803826 C0.0550798426,4.64186234 0.0698912289,4.68156113 0.0560055543,4.7185896 L0,4.82255413 L0,6.90220094 C0.00023142791,7.68656353 0.826197639,8.32174414 1.84586901,8.32210018 L11.154131,8.32210018 C12.1738024,8.32174414 12.9995371,7.68656353 13,6.90220094 L13,4.82255413 L12.9439944,4.71841157 Z M3.20874798,2.39558744 C3.36426753,2.21578576 3.62647535,2.10790475 3.90719741,2.10790475 L9.09280259,2.10790475 C9.37352465,2.10790475 9.63573247,2.21596378 9.79125202,2.39558744 L11.5568156,4.43535744 L9.45244156,4.43535744 C8.75329785,4.43535744 8.08007406,4.73389944 7.78245776,5.25247598 C7.56607267,5.63255182 7.0738255,5.89869392 6.50011571,5.89833787 C5.92640592,5.89887194 5.43415876,5.63272984 5.21777366,5.25247598 C4.92015737,4.73389944 4.24716501,4.43553546 3.54778986,4.43535744 L1.44341588,4.43535744 L3.20874798,2.39558744 Z M11.9932886,6.90220094 C11.9923629,7.2584219 11.6174497,7.5469947 11.1543624,7.54752877 L1.84586901,7.54752877 C1.38255034,7.54681668 1.00763712,7.2584219 1.00671141,6.90220094 L1.00671141,5.20975083 L3.54778986,5.20975083 C3.87965749,5.20975083 4.18005091,5.35394822 4.29507059,5.56241136 C4.66535524,6.21592817 5.51376996,6.67237522 6.50011571,6.67273126 C7.48623004,6.67237522 8.33487619,6.21592817 8.70516084,5.56241136 C8.82018051,5.35412624 9.12057394,5.20975083 9.45244156,5.20975083 L11.9932886,5.20975083 L11.9932886,6.90220094 Z" id="Shape"></path>
        </g>
    </g>
</svg>