<?xml version="1.0" encoding="UTF-8"?>
<svg width="15px" height="15px" viewBox="0 0 15 15" version="1.1" xmlns="http://www.w3.org/2000/svg" xmlns:xlink="http://www.w3.org/1999/xlink">
    <!-- Generator: Sketch 51.2 (57519) - http://www.bohemiancoding.com/sketch -->
    <title>icono_reaunudar</title>
    <desc>Created with Sketch.</desc>
    <defs></defs>
    <g id="icono_reaunudar" stroke="none" stroke-width="1" fill="none" fill-rule="evenodd">
        <g fill="#4f5c69" fill-rule="nonzero" id="Group">
            <g transform="translate(7.500000, 8.000000) scale(-1, -1) translate(-7.500000, -8.000000) translate(3.000000, 3.000000)">
                <path d="M8.04395604,9.84210526 C8.15384615,9.94736842 8.28571429,10 8.43956044,10 C8.59340659,10 8.72527473,9.94736842 8.83516484,9.84210526 C8.94505495,9.73684211 9,9.61052632 9,9.46315789 C9,9.31578947 8.94505495,9.18947368 8.83516484,9.08421053 L4.54945055,5 L8.82417582,0.915789474 C8.93406593,0.810526316 8.98901099,0.684210526 8.98901099,0.536842105 C8.98901099,0.389473684 8.92307692,0.263157895 8.82417582,0.157894737 C8.71428571,0.0526315789 8.58241758,0 8.43956044,0 C8.30769231,0 8.16483516,0.0526315789 8.05494505,0.147368421 L3,4.98947368 L8.04395604,9.84210526 Z" id="Shape"></path>
                <path d="M5.04395604,9.84210526 C5.15384615,9.94736842 5.28571429,10 5.43956044,10 C5.59340659,10 5.72527473,9.94736842 5.83516484,9.84210526 C5.94505495,9.73684211 6,9.61052632 6,9.46315789 C6,9.31578947 5.94505495,9.18947368 5.83516484,9.08421053 L1.54945055,5 L5.82417582,0.915789474 C5.93406593,0.810526316 5.98901099,0.684210526 5.98901099,0.536842105 C5.98901099,0.389473684 5.92307692,0.263157895 5.82417582,0.157894737 C5.71428571,0.0526315789 5.58241758,0 5.43956044,0 C5.30769231,0 5.16483516,0.0526315789 5.05494505,0.147368421 L0,4.98947368 L5.04395604,9.84210526 Z" id="Shape"></path>
            </g>
        </g>
    </g>
</svg>