<?xml version="1.0" encoding="UTF-8"?>
<svg width="12px" height="12px" viewBox="0 0 12 12" version="1.1" xmlns="http://www.w3.org/2000/svg" xmlns:xlink="http://www.w3.org/1999/xlink">
    <!-- Generator: Sketch 51.2 (57519) - http://www.bohemiancoding.com/sketch -->
    <title>icono_compartir</title>
    <desc>Created with Sketch.</desc>
    <defs></defs>
    <g id="vista_cerrana_funciones_menu" stroke="none" stroke-width="1" fill="none" fill-rule="evenodd">
        <g id="vista_cerrada_buscar_comentarios_01" transform="translate(-1155.000000, -82.000000)" fill="#4F5C69" fill-rule="nonzero">
            <g id="Group" transform="translate(1118.000000, 60.000000)">
                <g id="icono_compartir" transform="translate(35.000000, 20.000000)">
                    <path d="M8,2 C4.68902439,2 2,4.68902439 2,8 C2,11.3109756 4.68902439,14 8,14 C11.3109756,14 14,11.3109756 14,8 C14,4.68902439 11.3109756,2 8,2 Z M8,13.3597561 C5.05487805,13.3597561 2.6402439,10.9634146 2.6402439,8 C2.6402439,5.03658537 5.03658537,2.6402439 8,2.6402439 C10.945122,2.6402439 13.3597561,5.03658537 13.3597561,8 C13.3597561,10.9634146 10.945122,13.3597561 8,13.3597561 Z M8,7.3597561 C8.8597561,7.3597561 9.55487805,6.66463415 9.55487805,5.80487805 C9.55487805,4.94512195 8.8597561,4.25 8,4.25 C7.1402439,4.25 6.44512195,4.94512195 6.44512195,5.80487805 C6.44512195,6.66463415 7.1402439,7.3597561 8,7.3597561 Z M8,4.8902439 C8.49390244,4.8902439 8.91463415,5.29268293 8.91463415,5.80487805 C8.91463415,6.31707317 8.51219512,6.7195122 8,6.7195122 C7.48780488,6.7195122 7.08536585,6.31707317 7.08536585,5.80487805 C7.08536585,5.29268293 7.50609756,4.8902439 8,4.8902439 Z M11.0365854,11.1280488 C11.054878,11.3109756 10.9268293,11.4573171 10.7621951,11.4756098 C10.7439024,11.4756098 10.7439024,11.4756098 10.7256098,11.4756098 C10.5609756,11.4756098 10.4329268,11.347561 10.4146341,11.1829268 C10.2134146,9.40853659 9.40853659,8.49390244 8,8.49390244 C6.6097561,8.49390244 5.78658537,9.3902439 5.58536585,11.1829268 C5.56707317,11.3658537 5.40243902,11.4939024 5.23780488,11.4573171 C5.05487805,11.4390244 4.92682927,11.2743902 4.96341463,11.1097561 C5.07317073,10.2134146 5.31097561,9.48170732 5.71341463,8.93292683 C6.24390244,8.2195122 7.01219512,7.85365854 8,7.85365854 C8.98780488,7.85365854 9.75609756,8.2195122 10.2865854,8.93292683 C10.6890244,9.48170732 10.945122,10.2134146 11.0365854,11.1280488 Z" id="Shape"></path>
                </g>
            </g>
        </g>
    </g>
</svg>