<?xml version="1.0" encoding="UTF-8"?>
<svg width="15px" height="15px" viewBox="0 0 15 15" version="1.1" xmlns="http://www.w3.org/2000/svg" xmlns:xlink="http://www.w3.org/1999/xlink">
    <!-- Generator: Sketch 50.2 (55047) - http://www.bohemiancoding.com/sketch -->
    <title>ico/menu_comparar</title>
    <desc>Created with Sketch.</desc>
    <defs></defs>
    <g id="ico/menu_comparar" stroke="none" stroke-width="1" fill="none" fill-rule="evenodd">
        <g id="Group-11" fill="#4F5C69" fill-rule="nonzero">
            <g id="Group" transform="translate(2.000000, 3.000000)">
                <path d="M11.7777694,1.16777676 L10.159032,0 L10.1639704,1.3403857 L2.49563403,1.3403857 C1.11952472,1.3403857 0,2.47529494 0,3.87031474 L0,5 L0.648654428,5 L0.64414541,3.87031474 C0.64414541,2.83553176 1.47466356,1.99338296 2.49563403,1.99338296 L10.166547,1.99338296 L10.1719149,3.39079709 L11.7337528,2.29223804 L11.7775547,2.2550172 C11.9209844,2.10983414 11.9999996,1.91676462 11.9999996,1.71128815 C12.0002143,1.50602934 11.9211991,1.31295982 11.7777694,1.16777676 Z M11.3352415,1.7776762 L10.8115513,2.14618432 L10.8081158,1.26594402 L11.3345974,1.64402943 C11.3528481,1.66949632 11.3560689,1.69626921 11.3560689,1.71128815 C11.3560689,1.72608942 11.3528481,1.75242697 11.3352415,1.7776762 Z" id="Shape"></path>
                <path d="M0.222230175,8.83222324 L1.84096765,10 L1.8360292,8.6596143 L9.50458059,8.6596143 C10.8804752,8.6596143 12,7.5244874 12,6.12968526 L12,5 L11.3513455,5 L11.3558546,6.12968526 C11.3558546,7.16446824 10.5253364,8.00661704 9.50458059,8.00661704 L1.83345262,8.00661704 L1.82808474,6.60920291 L0.266246779,7.70776196 L0.22244489,7.74476514 C0.0790151732,7.89016586 0,8.08323538 0,8.28849419 C0,8.49375299 0.0788004581,8.68682252 0.222230175,8.83222324 Z M0.664758088,8.2223238 L1.18844833,7.85381568 L1.19188377,8.73427365 L0.665402233,8.35597057 C0.647151446,8.33050368 0.643930719,8.30373079 0.643930719,8.28871185 C0.643930719,8.27369292 0.647151446,8.24735536 0.664758088,8.2223238 Z" id="Shape"></path>
            </g>
        </g>
    </g>
</svg>