<?xml version="1.0" encoding="UTF-8"?>
<svg width="15px" height="13px" viewBox="0 0 15 13" version="1.1" xmlns="http://www.w3.org/2000/svg" xmlns:xlink="http://www.w3.org/1999/xlink">
    <!-- Generator: Sketch 51.2 (57519) - http://www.bohemiancoding.com/sketch -->
    <title>icono_solicitud copy</title>
    <desc>Created with Sketch.</desc>
    <defs></defs>
    <g id="vista_cerrana_funciones_menu" stroke="none" stroke-width="1" fill="none" fill-rule="evenodd">
        <g id="vista_cerrada_buscar_comentarios_01" transform="translate(-1153.000000, -221.000000)" fill="#4F5C69" fill-rule="nonzero">
            <g id="Group" transform="translate(1118.000000, 60.000000)">
                <g id="icono_solicitud-copy" transform="translate(35.000000, 160.000000)">
                    <path d="M15,8.90206186 C15,10.1546392 14.2268041,11.2680412 13.0824742,11.7319588 L13.0824742,12.9072165 C13.0824742,13.0618557 12.9896907,13.185567 12.8505155,13.2474227 C12.8041237,13.2628866 12.757732,13.2783505 12.7113402,13.2783505 C12.6185567,13.2783505 12.5257732,13.2474227 12.4484536,13.1701031 L11.2268041,11.9484536 L9.41752577,11.9484536 C8.25773196,11.9484536 7.22164948,11.314433 6.69587629,10.2783505 C6.4630127,9.89199829 6.52746582,9.76489258 6.69818996,9.66810885 C6.8589325,9.57258606 7.05386006,9.68673549 7.11571573,9.81044683 C7.56416934,10.6918901 8.44329897,11.2702948 9.41752577,11.2702948 L11.3219013,11.2331272 C11.383757,11.2331272 11.4456126,11.2640551 11.4920044,11.2949829 L12.5006871,12.4508057 L12.5098298,11.3536072 C12.5098298,11.2608237 12.5716855,11.1680402 12.664469,11.1371123 C13.7160154,10.7814422 14.3751221,9.85803097 14.3751221,8.74462891 C14.3751221,7.5075155 13.7314793,6.9187416 12.5098298,6.68678284 C12.296814,6.64820862 12.1202698,6.47303772 12.1498108,6.28587341 C12.1793518,6.09870911 12.296814,5.96183777 12.6122355,5.98358154 C14.0658437,6.23100422 15,7.43298969 15,8.90206186 Z M0,4.92783505 C0,2.7628866 1.7628866,1 3.92783505,1 L7.28350515,1 C9.44845361,1 11.2113402,2.7628866 11.2113402,4.92783505 C11.2113402,7.09278351 9.44845361,8.8556701 7.28350515,8.8556701 L4.8556701,8.8556701 L3.23195876,10.4793814 C3.15463918,10.556701 3.04639175,10.6030928 2.93814433,10.6030928 C2.70618557,10.6030928 2.52061856,10.4175258 2.52061856,10.185567 L2.52061856,8.59278351 C1.00515464,8.00515464 0,6.56701031 0,4.92783505 Z M0.584228516,5.04606109 C0.584228516,6.48035637 1.69152728,7.64926143 3.02589958,8.0974787 C3.11388017,8.12735985 3.1725339,8.2170033 3.1725339,8.30664676 L3.1725339,9.93463135 C4.13051005,8.78757731 4.62904937,8.21405029 4.66815186,8.21405029 L7.47291917,8.21405029 C9.27652129,8.21405029 10.4934082,7.00366211 10.6166687,5.04606109 C10.7399292,3.08846008 8.94577732,1.51743223 7.12751177,1.51743223 L4.04811664,1.51743223 C2.24451452,1.50249166 0.584228516,3.1934297 0.584228516,5.04606109 Z M3.57216495,5.15979381 L7.05154639,5.15979381 L5.90721649,6.30412371 C5.81443299,6.39690722 5.81443299,6.53608247 5.90721649,6.62886598 C5.95360825,6.67525773 6.01546392,6.69072165 6.07731959,6.69072165 C6.13917526,6.69072165 6.20103093,6.67525773 6.24742268,6.62886598 L7.79381443,5.08247423 C7.80927835,5.06701031 7.84020619,5.03608247 7.84020619,5.00515464 C7.8556701,4.9742268 7.8556701,4.94329897 7.8556701,4.92783505 C7.8556701,4.89690722 7.8556701,4.86597938 7.84020619,4.85051546 C7.82474227,4.81958763 7.80927835,4.78865979 7.79381443,4.77319588 L6.24742268,3.22680412 C6.15463918,3.13402062 6.01546392,3.13402062 5.92268041,3.22680412 C5.82989691,3.31958763 5.82989691,3.45876289 5.92268041,3.55154639 L7.06701031,4.69587629 L3.57216495,4.69587629 C3.44845361,4.69587629 3.34020619,4.80412371 3.34020619,4.92783505 C3.34020619,5.05154639 3.44845361,5.15979381 3.57216495,5.15979381 Z" id="Shape"></path>
                </g>
            </g>
        </g>
    </g>
</svg>