<?xml version="1.0" encoding="UTF-8"?>
<svg width="15px" height="15px" viewBox="0 0 15 15" version="1.1" xmlns="http://www.w3.org/2000/svg" xmlns:xlink="http://www.w3.org/1999/xlink">
    <!-- Generator: Sketch 49 (51002) - http://www.bohemiancoding.com/sketch -->
    <title>icono_resetear</title>
    <desc>Created with Sketch.</desc>
    <defs></defs>
    <g id="icono_resetear" stroke="none" stroke-width="1" fill="none" fill-rule="evenodd">
        <g id="Group" fill="#4F5C69" fill-rule="nonzero">
            <path d="M9.48913043,6.50543478 L9.35869565,6.50543478 L9.35869565,5.31521739 C9.35869565,4.36956522 8.5923913,3.60326087 7.63043478,3.60326087 L7.35326087,3.60326087 C6.4076087,3.60326087 5.64130435,4.36956522 5.625,5.31521739 L5.625,6.50543478 L5.49456522,6.50543478 C4.92391304,6.50543478 4.45108696,6.97826087 4.45108696,7.54891304 C4.45108696,7.54891304 4.45108696,7.54891304 4.45108696,7.54891304 L4.45108696,9.89673913 C4.45108696,10.4673913 4.92391304,10.9402174 5.49456522,10.9402174 L9.45652174,10.9402174 C10.0271739,10.9402174 10.5,10.4673913 10.5,9.89673913 L10.5,7.56521739 C10.5326087,6.97826087 10.0597826,6.50543478 9.48913043,6.50543478 Z M6.45652174,5.33152174 C6.45652174,4.82608696 6.86413043,4.43478261 7.35326087,4.43478261 L7.63043478,4.43478261 C8.13586957,4.43478261 8.52717391,4.8423913 8.52717391,5.33152174 L8.52717391,6.52173913 L6.45652174,6.52173913 L6.45652174,5.33152174 Z M9.7173913,9.91304348 C9.7173913,10.0434783 9.61956522,10.1413043 9.48913043,10.1413043 L5.51086957,10.1413043 C5.38043478,10.1413043 5.2826087,10.0434783 5.2826087,9.91304348 L5.2826087,7.56521739 C5.2826087,7.43478261 5.38043478,7.33695652 5.51086957,7.33695652 L9.47282609,7.33695652 C9.60326087,7.33695652 9.70108696,7.43478261 9.70108696,7.56521739 L9.7173913,9.91304348 Z" id="Shape"></path>
            <path d="M7.5,8.33152174 C7.27173913,8.33152174 7.0923913,8.51086957 7.0923913,8.73913043 C7.0923913,8.9673913 7.27173913,9.14673913 7.5,9.14673913 C7.72826087,9.14673913 7.9076087,8.9673913 7.9076087,8.73913043 C7.9076087,8.51086957 7.72826087,8.33152174 7.5,8.33152174 Z" id="Shape"></path>
            <path d="M13.5326087,2.23369565 C13.7608696,2.23369565 13.9402174,2.05434783 13.9402174,1.82608696 C13.9402174,1.59782609 13.7608696,1.41847826 13.5326087,1.41847826 L11.7880435,1.41847826 C11.5597826,1.41847826 11.3804348,1.59782609 11.3804348,1.82608696 L11.3804348,3.57065217 C11.3804348,3.79891304 11.5597826,3.97826087 11.7880435,3.97826087 C11.7880435,3.97826087 11.7880435,3.97826087 11.7880435,3.97826087 C12.0163043,3.97826087 12.1956522,3.79891304 12.1956522,3.57065217 L12.1956522,2.82065217 C13.0108696,3.63586957 13.6141304,4.66304348 13.9076087,5.78804348 C14.201087,6.91304348 14.201087,8.10326087 13.9076087,9.22826087 C13.6141304,10.3532609 13.0108696,11.3804348 12.1956522,12.1956522 C11.3804348,13.0108696 10.3369565,13.6141304 9.22826087,13.9076087 C8.10326087,14.201087 6.91304348,14.201087 5.78804348,13.9076087 C5.57608696,13.8423913 5.34782609,13.9728261 5.2826087,14.201087 C5.2173913,14.4130435 5.34782609,14.6413043 5.57608696,14.7065217 C6.21195652,14.8695652 6.84782609,14.9673913 7.5,14.9673913 C8.15217391,14.9673913 8.80434783,14.8858696 9.42391304,14.7065217 C10.6793478,14.3641304 11.8369565,13.6956522 12.7663043,12.7826087 C13.6956522,11.8532609 14.3641304,10.6956522 14.6902174,9.44021739 C15.0326087,8.18478261 15.0326087,6.84782609 14.6902174,5.57608696 C14.3478261,4.32065217 13.6793478,3.16304348 12.7663043,2.23369565 L13.5326087,2.23369565 C13.5326087,2.23369565 13.5326087,2.23369565 13.5326087,2.23369565 Z" id="Shape"></path>
            <path d="M2.80434783,2.80434783 C3.61956522,1.98913043 4.66304348,1.38586957 5.77173913,1.0923913 C6.89673913,0.798913043 8.08695652,0.798913043 9.21195652,1.0923913 C9.42391304,1.1576087 9.65217391,1.02717391 9.7173913,0.798913043 C9.7826087,0.586956522 9.65217391,0.358695652 9.42391304,0.293478261 C8.16847826,-0.0489130435 6.83152174,-0.0489130435 5.55978261,0.293478261 C4.30434783,0.635869565 3.14673913,1.30434783 2.23369565,2.23369565 C1.30434783,3.14673913 0.635869565,4.30434783 0.293478261,5.57608696 C-0.0489130435,6.83152174 -0.0489130435,8.16847826 0.293478261,9.44021739 C0.635869565,10.6956522 1.30434783,11.8532609 2.2173913,12.7826087 L1.4673913,12.7826087 C1.4673913,12.7826087 1.4673913,12.7826087 1.4673913,12.7826087 C1.23913043,12.7826087 1.05978261,12.9619565 1.05978261,13.1902174 C1.05978261,13.4184783 1.23913043,13.5978261 1.4673913,13.5978261 L3.21195652,13.5978261 C3.21195652,13.5978261 3.21195652,13.5978261 3.21195652,13.5978261 C3.44021739,13.5978261 3.61956522,13.4184783 3.61956522,13.1902174 L3.61956522,11.4456522 C3.61956522,11.2173913 3.44021739,11.0380435 3.21195652,11.0380435 C3.21195652,11.0380435 3.21195652,11.0380435 3.21195652,11.0380435 C2.98369565,11.0380435 2.80434783,11.2173913 2.80434783,11.4456522 L2.80434783,12.1956522 C1.98913043,11.3804348 1.38586957,10.3532609 1.0923913,9.22826087 C0.798913043,8.10326087 0.798913043,6.91304348 1.0923913,5.78804348 C1.38586957,4.66304348 1.98913043,3.63586957 2.80434783,2.80434783 Z" id="Shape"></path>
        </g>
    </g>
</svg>