<?xml version="1.0" encoding="UTF-8"?>
<svg width="35px" height="24px" viewBox="0 0 35 24" version="1.1" xmlns="http://www.w3.org/2000/svg" xmlns:xlink="http://www.w3.org/1999/xlink">
    <!-- Generator: Sketch 43.1 (39012) - http://www.bohemiancoding.com/sketch -->
    <title>
icono_Upward</title>
    <desc>Created with Sketch.</desc>
    <defs></defs>
    <g id="Symbols" stroke="none" stroke-width="1" fill="none" fill-rule="evenodd">
        <g id="-icono_Upward">
            <g id="ico-upward">
                <rect id="Rectangle-18" stroke="#4F5C69" x="0.5" y="0.5" width="34" height="23"></rect>
                <path d="M9.99469565,13.2967742 L9.11269565,13.2967742 C9.12202903,13.7634432 9.21069481,14.183439 9.37869565,14.5567742 C9.54669649,14.9301094 9.77302756,15.2451062 10.0576957,15.5017742 C10.3423637,15.7584421 10.6783604,15.9544402 11.0656957,16.0897742 C11.4530309,16.2251082 11.87536,16.2927742 12.3326957,16.2927742 C12.7993647,16.2927742 13.2403602,16.2111083 13.6556957,16.0477742 C14.0710311,15.88444 14.4326941,15.6557757 14.7406957,15.3617742 C15.0486972,15.0677727 15.2913614,14.7177762 15.4686957,14.3117742 C15.6460299,13.9057722 15.7346957,13.4647766 15.7346957,12.9887742 C15.7346957,12.4941051 15.6576964,12.0391096 15.5036957,11.6237742 C15.3496949,11.2084388 15.1303637,10.8514424 14.8456957,10.5527742 C14.5610276,10.254106 14.2156977,10.020775 13.8096957,9.85277419 C13.4036936,9.68477335 12.9486982,9.60077419 12.4446957,9.60077419 C12.0526937,9.60077419 11.6700309,9.68010673 11.2966957,9.83877419 C10.9233605,9.99744165 10.6153635,10.2214394 10.3726957,10.5107742 L10.3446957,10.4827742 L10.9746957,7.23477419 L15.2586957,7.23477419 L15.2586957,6.42277419 L10.3586957,6.42277419 L9.40669565,11.5047742 L10.1626957,11.5047742 C10.4053635,11.131439 10.7180271,10.8444419 11.1006957,10.6437742 C11.4833642,10.4431065 11.8986934,10.3427742 12.3466957,10.3427742 C12.7106975,10.3427742 13.0466941,10.4081069 13.3546957,10.5387742 C13.6626972,10.6694415 13.9263612,10.8491064 14.1456957,11.0777742 C14.3650301,11.306442 14.537695,11.5747727 14.6636957,11.8827742 C14.7896963,12.1907757 14.8526957,12.5267724 14.8526957,12.8907742 C14.8526957,13.2454426 14.7966962,13.5837726 14.6846957,13.9057742 C14.5726951,14.2277758 14.4093634,14.5124396 14.1946957,14.7597742 C13.9800279,15.0071088 13.7233638,15.2031068 13.4246957,15.3477742 C13.1260275,15.4924416 12.7853642,15.5647742 12.4026957,15.5647742 C12.066694,15.5647742 11.7540304,15.5111081 11.4646957,15.4037742 C11.1753609,15.2964403 10.9233634,15.1424419 10.7086957,14.9417742 C10.4940279,14.7411065 10.3236963,14.5007756 10.1976957,14.2207742 C10.071695,13.9407728 10.004029,13.6327759 9.99469565,13.2967742 Z" id="5" fill="#4F5C69"></path>
                <g id="Group-13" transform="translate(21.304348, 6.967742)" stroke="#4F5C69">
                    <path d="M2.76086957,8.93754189 L2.76086957,0" id="Path-26"></path>
                    <polyline id="Path-27" points="0 2.27268145 2.8294837 0 5.60351828 2.15322581"></polyline>
                </g>
            </g>
        </g>
    </g>
</svg>