<?xml version="1.0" encoding="UTF-8"?>
<svg width="20px" height="15px" viewBox="0 0 20 15" version="1.1" xmlns="http://www.w3.org/2000/svg" xmlns:xlink="http://www.w3.org/1999/xlink">
    <!-- Generator: Sketch 43.1 (39012) - http://www.bohemiancoding.com/sketch -->
    <title>ico_small_time</title>
    <desc>Created with Sketch.</desc>
    <defs></defs>
    <g id="Symbols" stroke="none" stroke-width="1" fill="none" fill-rule="evenodd">
        <g id="ico_small_time" fill="#393A6F">
            <g id="icon" transform="translate(4.000000, 2.000000)">
                <path d="M9.56684015,2.8130003 C10.5422189,3.76206851 11.1428571,5.0574786 11.1428571,6.48557354 C11.1428571,9.39585377 8.64844361,11.755102 5.57142857,11.755102 C2.49441354,11.755102 0,9.39585377 0,6.48557354 C0,3.71168168 2.26609384,1.43838448 5.14285714,1.23140354 L5.14285714,0.405348346 L6,0.405348346 L6,1.23140354 C7.16650539,1.31533272 8.23260205,1.73901391 9.08791843,2.39805625 L9.46145376,2.04782475 L9.90735666,2.49372766 L9.56684015,2.8130003 Z M5.57142857,10.9612949 C8.18491891,10.9612949 10.3035714,8.95744617 10.3035714,6.48557354 C10.3035714,4.01370091 8.18491891,2.00985222 5.57142857,2.00985222 C2.95793824,2.00985222 0.839285714,4.01370091 0.839285714,6.48557354 C0.839285714,8.95744617 2.95793824,10.9612949 5.57142857,10.9612949 Z M4.28571429,0 L6.85714286,0 L6.85714286,0.405348346 L4.28571429,0.405348346 L4.28571429,0 Z M5.18817139,3.64813512 L6,3.64813512 L6,6.48557354 L5.18817139,6.48557354 L5.18817139,3.64813512 Z" id="Combined-Shape"></path>
            </g>
        </g>
    </g>
</svg>