<?xml version="1.0" encoding="UTF-8"?>
<svg width="20px" height="15px" viewBox="0 0 20 15" version="1.1" xmlns="http://www.w3.org/2000/svg" xmlns:xlink="http://www.w3.org/1999/xlink">
    <!-- Generator: Sketch 43.1 (39012) - http://www.bohemiancoding.com/sketch -->
    <title>ico_small_upward</title>
    <desc>Created with Sketch.</desc>
    <defs></defs>
    <g id="Symbols" stroke="none" stroke-width="1" fill="none" fill-rule="evenodd">
        <g id="ico_small_upward">
            <g id="Group-8" transform="translate(3.000000, 3.000000)">
                <g id="Group-22">
                    <g id="Group-13" transform="translate(8.323077, 2.916667)" stroke="#393A6F" stroke-width="0.6">
                        <path d="M1.4,4.13775088 L1.4,0" id="Path-26"></path>
                        <polyline id="Path-27" points="0 1.05216734 1.32042572 0 2.6149752 0.996863799"></polyline>
                    </g>
                    <path d="M0,0 L14,0 L14,10 L0,10 L0,0 Z M0.8,0.833333333 L0.8,9.16666667 L13.2,9.16666667 L13.2,0.833333333 L0.8,0.833333333 Z" id="Combined-Shape" fill="#393A6F"></path>
                </g>
                <path d="M3.84945165,6.11964108 C3.88335012,6.30508567 3.94815505,6.44815503 4.04386839,6.54885344 C4.13958173,6.64955185 4.2791616,6.6999003 4.46261216,6.6999003 C4.67397912,6.6999003 4.83499446,6.62562387 4.94566301,6.47706879 C5.05633156,6.32851371 5.111665,6.1415764 5.111665,5.91625125 C5.111665,5.69491415 5.05982106,5.50797683 4.95613161,5.3554337 C4.85244215,5.20289056 4.69092832,5.12662014 4.47158524,5.12662014 C4.36789579,5.12662014 4.27816588,5.13958113 4.20239282,5.16550349 C4.06879295,5.21336016 3.96809605,5.30209307 3.9002991,5.43170489 L3.13459621,5.39581256 L3.43968096,3 L5.82951147,3 L5.82951147,3.72382851 L4.0558325,3.72382851 L3.9002991,4.67198405 C4.03190495,4.58624085 4.13459584,4.5294119 4.20837488,4.50149551 C4.33200461,4.45563287 4.48255146,4.43270189 4.66001994,4.43270189 C5.01894497,4.43270189 5.33200265,4.55333877 5.59920239,4.79461615 C5.86640213,5.03589353 6,5.38683718 6,5.84745763 C6,6.24825724 5.87138713,6.60617988 5.61415753,6.92123629 C5.35692793,7.2362927 4.97208631,7.39381854 4.45962114,7.39381854 C4.04685736,7.39381854 3.7078777,7.28315166 3.44267198,7.06181456 C3.17746627,6.84047746 3.02991042,6.52642277 3,6.11964108 L3.84945165,6.11964108 Z" id="5" fill="#393A6F"></path>
            </g>
        </g>
    </g>
</svg>