<?xml version="1.0" encoding="UTF-8"?>
<svg width="20px" height="15px" viewBox="0 0 20 15" version="1.1" xmlns="http://www.w3.org/2000/svg" xmlns:xlink="http://www.w3.org/1999/xlink">
    <!-- Generator: Sketch 43.1 (39012) - http://www.bohemiancoding.com/sketch -->
    <title>icon_small_p
icon_small_percentage</title>
    <desc>Created with Sketch.</desc>
    <defs></defs>
    <g id="Symbols" stroke="none" stroke-width="1" fill="none" fill-rule="evenodd">
        <g id="icon_small_p-icon_small_percentage" fill-rule="nonzero" fill="#393A6F">
            <path d="M9.31363636,3.56761364 C8.93544034,3.18917791 8.47862216,2.99997337 7.94318182,3 C7.40774148,2.99997337 6.94921875,3.18917791 6.56761364,3.56761364 C6.18917791,3.94921875 5.99997337,4.40774148 6,4.94318182 C5.99997337,5.47862216 6.18917791,5.93544034 6.56761364,6.31363636 C6.94921875,6.69548118 7.40774148,6.88639027 7.94318182,6.88636364 C8.47862216,6.88639027 8.93544034,6.69548118 9.31363636,6.31363636 C9.69548118,5.93544034 9.88639027,5.47862216 9.88636364,4.94318182 C9.88639027,4.40774148 9.69548118,3.94921875 9.31363636,3.56761364 L9.31363636,3.56761364 Z M7.94318182,3.81818182 C8.25320934,3.81822177 8.51741388,3.92731268 8.73579545,4.14545455 C8.95734641,4.36724521 9.06814187,4.6331543 9.06818182,4.94318182 C9.06814187,5.25320934 8.95734641,5.51741388 8.73579545,5.73579545 C8.51741388,5.95734641 8.25320934,6.06814187 7.94318182,6.06818182 C7.6331543,6.06814187 7.36724521,5.95734641 7.14545455,5.73579545 C6.92731268,5.51741388 6.81822177,5.25320934 6.81818182,4.94318182 C6.81822177,4.6331543 6.92731268,4.36724521 7.14545455,4.14545455 C7.36724521,3.92731268 7.6331543,3.81822177 7.94318182,3.81818182 L7.94318182,3.81818182 Z M15,10.0568182 C15.0000266,9.52137784 14.8091175,9.06285511 14.4272727,8.68125 C14.0490767,8.30281428 13.5922585,8.11360973 13.0568182,8.11363636 C12.5213778,8.11360973 12.0628551,8.30281428 11.68125,8.68125 C11.3028143,9.06285511 11.1136097,9.52137784 11.1136364,10.0568182 C11.1136097,10.5922585 11.3028143,11.0490767 11.68125,11.4272727 C12.0628551,11.8091175 12.5213778,12.0000266 13.0568182,12 C13.5922585,12.0000266 14.0490767,11.8091175 14.4272727,11.4272727 C14.8091175,11.0490767 15.0000266,10.5922585 15,10.0568182 L15,10.0568182 Z M13.8494318,9.25909091 C14.0709828,9.48088157 14.1817782,9.74679066 14.1818182,10.0568182 C14.1817782,10.3668457 14.0709828,10.6310502 13.8494318,10.8494318 C13.6310502,11.0709828 13.3668457,11.1817782 13.0568182,11.1818182 C12.7467907,11.1817782 12.4808816,11.0709828 12.2590909,10.8494318 C12.040949,10.6310502 11.9318581,10.3668457 11.9318182,10.0568182 C11.9318581,9.74679066 12.040949,9.48088157 12.2590909,9.25909091 C12.4808816,9.04094904 12.7467907,8.93185813 13.0568182,8.93181818 C13.3668457,8.93185813 13.6310502,9.04094904 13.8494318,9.25909091 L13.8494318,9.25909091 Z M14.5909091,3 C14.4780629,3.00011985 14.3809038,3.0393244 14.2994318,3.11761364 L6.11761364,11.2994318 C6.0393244,11.3809038 6.00011985,11.4780629 6,11.5909091 C6.00011985,11.7037553 6.0393244,11.7992099 6.11761364,11.8772727 C6.19908558,11.9589711 6.29624467,11.9998801 6.40909091,12 C6.52193714,11.9998801 6.61739169,11.9589711 6.69545455,11.8772727 L14.8772727,3.69545455 C14.9589711,3.61739169 14.9998801,3.52193714 15,3.40909091 C14.9998801,3.29624467 14.9589711,3.19908558 14.8772727,3.11761364 C14.7992099,3.0393244 14.7037553,3.00011985 14.5909091,3 Z" id="Shape"></path>
        </g>
    </g>
</svg>