<?xml version="1.0" encoding="UTF-8"?>
<svg width="24px" height="12px" viewBox="0 0 24 12" version="1.1" xmlns="http://www.w3.org/2000/svg" xmlns:xlink="http://www.w3.org/1999/xlink">
    <!-- Generator: Sketch 50.2 (55047) - http://www.bohemiancoding.com/sketch -->
    <title>icono_link</title>
    <desc>Created with Sketch.</desc>
    <defs></defs>
    <g id="Compartir_v6" stroke="none" stroke-width="1" fill="none" fill-rule="evenodd">
        <g id="compartir_01" transform="translate(-1301.000000, -39.000000)" fill="#4F5C69" fill-rule="nonzero">
            <g id="Group-2" transform="translate(36.000000, 16.000000)">
                <g id="Group-9" transform="translate(1257.000000, 9.000000)">
                    <g id="icono_link" transform="translate(5.000000, 9.000000)">
                        <g id="Group-Copy-11" transform="translate(10.516073, 11.111111) rotate(45.000000) translate(-10.516073, -11.111111) translate(3.293851, 3.888889)">
                            <path d="M4.41666667,1.81944444 C4.41666667,1.81944444 4.36224539,1.87386572 4.33503476,1.90107636 C3.57057873,2.66553239 2.04166667,4.19444444 2.04166667,4.19444444 C0.958333333,5.27777778 0.333333333,6.77777778 0.333333333,8.31944444 C0.333333333,9.86111111 0.958333333,11.3611111 2.04166667,12.4444444 C3.16666667,13.5694444 4.66666667,14.1527778 6.16666667,14.1527778 C7.66666667,14.1527778 9.16666667,13.5694444 10.2916667,12.4444444 L12.6666667,10.0694444 C13.3601591,9.37595198 12.416394,8.64643492 11.9846458,9.07818311 L9.80958093,11.253248 C7.85124759,13.2115813 4.93022152,13.4725563 2.97188818,11.5142229 C2.01355485,10.5558896 1.51355485,9.30588959 1.51355485,7.97255626 C1.51355485,6.63922293 2.19988203,5.65763564 3.15821536,4.69930231 C3.15821536,4.69930231 4.48837763,3.36914004 5.15345859,2.70405908 C5.95718737,1.90033029 5.06866715,1.16744396 4.41666667,1.81944444 Z" id="Shape"></path>
                            <path d="M13.2070134,0.568124558 L6.12368011,7.65145789 C5.69000241,8.08513559 6.3185162,8.82106577 6.8059021,8.33367987 L13.8892354,1.25034654 C14.3738933,0.765688679 13.6916713,0.0834666958 13.2070134,0.568124558 Z" id="Shape"></path>
                        </g>
                        <g id="Group-Copy-12" transform="translate(19.730399, 11.111111) scale(-1, -1) rotate(45.000000) translate(-19.730399, -11.111111) translate(13.063733, 4.444444)">
                            <path d="M4.41666667,0.708333333 C4.41666667,0.708333333 4.36224539,0.762754608 4.33503476,0.789965245 C3.57057873,1.55442127 2.04166667,3.08333333 2.04166667,3.08333333 C0.958333333,4.16666667 0.333333333,5.66666667 0.333333333,7.20833333 C0.333333333,8.75 0.958333333,10.25 2.04166667,11.3333333 C3.16666667,12.4583333 4.66666667,13.0416667 6.16666667,13.0416667 C7.66666667,13.0416667 9.16666667,12.4583333 10.2916667,11.3333333 L12.6666667,8.95833333 C13.3601591,8.26484087 12.416394,7.53532381 11.9846458,7.967072 L9.80958093,10.1421368 C7.85124759,12.1004702 4.93022152,12.3614451 2.97188818,10.4031118 C2.01355485,9.44477848 1.51355485,8.19477848 1.51355485,6.86144515 C1.51355485,5.52811182 2.19988203,4.54652453 3.15821536,3.5881912 C3.15821536,3.5881912 4.48837763,2.25802893 5.15345859,1.59294797 C5.95718737,0.789219183 5.06866715,0.0563328481 4.41666667,0.708333333 Z" id="Shape"></path>
                        </g>
                    </g>
                </g>
            </g>
        </g>
    </g>
</svg>