<?xml version="1.0" encoding="UTF-8"?>
<svg width="12px" height="12px" viewBox="0 0 12 12" version="1.1" xmlns="http://www.w3.org/2000/svg" xmlns:xlink="http://www.w3.org/1999/xlink">
    <!-- Generator: Sketch 50.2 (55047) - http://www.bohemiancoding.com/sketch -->
    <title>icono_aprobar</title>
    <desc>Created with Sketch.</desc>
    <defs></defs>
    <g id="Compartir_v6" stroke="none" stroke-width="1" fill="none" fill-rule="evenodd">
        <g id="compartir_14" transform="translate(-853.000000, -383.000000)" fill="#4F5C69" fill-rule="nonzero">
            <g id="box_funciones" transform="translate(832.000000, 300.000000)">
                <g id="Group-6">
                    <g id="icono_aprobar" transform="translate(21.000000, 83.000000)">
                        <path d="M6,12 C2.6862915,12 0,9.3137085 0,6 C0,2.6862915 2.6862915,0 6,0 C9.3137085,0 12,2.6862915 12,6 C12,9.3137085 9.3137085,12 6,12 Z M6,1.33333333 C3.42267117,1.33333333 1.33333333,3.42267117 1.33333333,6 C1.33333333,8.57732883 3.42267117,10.6666667 6,10.6666667 C8.57732883,10.6666667 10.6666667,8.57732883 10.6666667,6 C10.6666667,3.42267117 8.57732883,1.33333333 6,1.33333333 Z M5.5,8.43933333 C5.49033333,8.45033333 5.48666667,8.46466667 5.476,8.47533333 C5.2902796,8.66086799 5.01096866,8.71601939 4.76866667,8.615 C4.67785072,8.58276652 4.59515307,8.53112315 4.52633333,8.46366667 C4.51200312,8.44442164 4.49876023,8.42439037 4.48666667,8.40366667 L3.18166667,7.099 C2.92816799,6.8455013 2.92816801,6.43449872 3.1816667,6.18100003 C3.43516538,5.92750134 3.84616796,5.92750133 4.09966667,6.181 L4.97966667,7.06133333 L7.84866667,4.19233333 C8.11081783,3.93027422 8.53577422,3.93034884 8.79783333,4.1925 C9.05989245,4.45465116 9.05981783,4.87960755 8.79766667,5.14166667 L5.5,8.43933333 Z" id="Shape"></path>
                    </g>
                </g>
            </g>
        </g>
    </g>
</svg>