<?xml version="1.0" encoding="UTF-8"?>
<svg width="132px" height="104px" viewBox="0 0 132 104" version="1.1" xmlns="http://www.w3.org/2000/svg" xmlns:xlink="http://www.w3.org/1999/xlink">
    <!-- Generator: Sketch 49.3 (51167) - http://www.bohemiancoding.com/sketch -->
    <title>Group</title>
    <desc>Created with Sketch.</desc>
    <defs></defs>
    <g id="compartir_core_v3" stroke="none" stroke-width="1" fill="none" fill-rule="evenodd" opacity="0.143387681">
        <g id="compartir_01" transform="translate(-643.000000, -220.000000)">
            <g id="Group" transform="translate(619.000000, 205.000000)">
                <rect id="Rectangle" x="0" y="0" width="179" height="128"></rect>
                <g id="Group-Copy" transform="translate(25.000000, 16.000000)">
                    <g id="Group-29-Copy-3" transform="translate(64.642248, 24.877821) scale(1, -1) rotate(-314.100006) translate(-64.642248, -24.877821) translate(47.142248, 16.377821)" stroke="#3E4758" stroke-width="2">
                        <path d="M9.54883068e-05,15.1701919 C15.4396696,19.800488 25.9138058,15.0087703 31.4225042,0.795038735" id="Path-13"></path>
                        <path d="M27.3276528,3.21014426 C27.4371703,3.14402413 28.9158902,2.12538004 31.7638127,0.154211993 L34.2158068,4.159964" id="Path-14"></path>
                    </g>
                    <polygon id="Path-2-Copy-5" fill="#EBECF0" points="46.1448575 78.696939 63.3917285 65.7889873 78.1915643 78.696939 91.6183781 67.7784169 104.793453 82.0073578 104.793453 89.6764865 46.1448575 89.6764865"></polygon>
                    <rect id="Rectangle-Copy-12" stroke="#3E4758" stroke-width="2" x="46.7312253" y="46.6069652" width="58.1185771" height="42.5820896"></rect>
                    <polyline id="Path-3-Copy-5" stroke="#3E4758" points="45.5820174 79.5813897 63.6140613 65.7889873 78.4647396 78.5848439 91.5886971 67.7086261 105.420052 81.9845013"></polyline>
                    <rect id="Rectangle-3-Copy-22" fill="#3E4758" x="45.7312253" y="96.3383085" width="29.8023715" height="1.53731343"></rect>
                    <rect id="Rectangle-3-Copy-23" fill="#3E4758" x="45.7312253" y="101.462687" width="35.4545455" height="1.53731343"></rect>
                    <g id="Group-5" transform="translate(5.138340, 38.945274)">
                        <ellipse id="Oval-12" stroke="#3E4758" cx="10.1976285" cy="8.71769203" rx="5.09881423" ry="6.46796505"></ellipse>
                        <path d="M0.553810009,22.6851132 C0.553810009,23.4612031 -0.119178367,18.4243104 2.29009874,17.7484904 C4.50398029,17.1274802 8.72979734,17.9834027 9.0457798,15.3930223 C9.07366818,15.1643972 9.08287557,15.3799082 9.0457798,15.094207" id="Path-24" stroke="#3E4758"></path>
                        <path d="M13.6966144,13.4983618 C13.6966144,13.4983618 13.155205,16.8264148 14.594732,17.2823381 C16.034259,17.7382614 21.7413306,16.6448764 21.8909865,21.7003084" id="Path-25" stroke="#3E4758"></path>
                        <path d="M7.62194165,17.2953254 C8.04407655,19.0542062 8.92670549,19.9336465 10.2698285,19.9336465 C12.2845129,19.9336465 14.892012,19.7845252 14.523543,17.2953254" id="Path-5" stroke="#3E4758"></path>
                        <path d="M5.31942536,6.95569883 C5.73381467,7.36752767 7.27163791,6.38606414 9.9328951,4.01130823 C10.1853116,3.78606602 15.1949341,6.7557755 15.1650442,7.57344209 C15.1189856,8.83342101 14.1691821,13.6929336 13.5505027,13.5179975 C12.9318233,13.3430615 16.3910612,14.7034158 17.4069789,13.1169079 C18.4228966,11.5304 18.6329958,4.7981085 16.3910612,2.58161114 C14.1491265,0.365113771 6.81888947,-0.763731777 4.36104635,2.34502181 C2.8743923,4.22538636 2.33778641,5.94795143 2.33778641,7.24117139 C2.33778641,8.92283681 2.02976071,14.5672019 5.73091007,14.5672019 C8.19834297,14.5672019 8.26837606,13.9954786 5.94100932,12.8520322 L5.31942536,6.95569883 Z" id="Path-6" fill="#3E4758"></path>
                    </g>
                    <ellipse id="Oval-13" stroke="#3E4758" stroke-width="2" cx="15.6719368" cy="49.4502488" rx="15.6719368" ry="15.6293532"></ellipse>
                    <polygon id="Path-10-Copy-3" fill="#3E4758" points="115.16106 84.4336579 113.685666 77.5765127 119.652926 81.2642256 116.250326 81.4750782"></polygon>
                    <g id="Group-5-Copy" transform="translate(103.794466, 7.174129)" stroke="#3E4758">
                        <ellipse id="Oval-12" cx="10.1976285" cy="6.53011967" rx="5.09881423" ry="6.53011967"></ellipse>
                        <path d="M0.553810009,20.6317623 C0.553810009,21.4153101 -0.119178367,16.3300149 2.29009874,15.6477005 C4.50398029,15.0207227 8.72979734,15.8848702 9.0457798,13.2695972 C9.07366818,13.0387752 9.08287557,13.2563571 9.0457798,12.9679105" id="Path-24"></path>
                        <path d="M13.6966144,11.3567299 C13.6966144,11.3567299 13.155205,14.7167641 14.594732,15.1770687 C16.034259,15.6373732 21.7413306,14.5334811 21.8909865,19.6374939" id="Path-25"></path>
                        <path d="M7.62194165,15.1901807 C8.04407655,16.9659637 8.92670549,17.8538551 10.2698285,17.8538551 C12.2845129,17.8538551 14.892012,17.7033008 14.523543,15.1901807" id="Path-5"></path>
                    </g>
                    <ellipse id="Oval-13-Copy" stroke="#3E4758" stroke-width="2" cx="114.328063" cy="15.6293532" rx="15.6719368" ry="15.6293532"></ellipse>
                    <path d="M108.620106,13.6314895 C111.898942,12.2560178 113.789916,11.399754 114.293028,11.062698 C115.047695,10.5571141 117.512319,16.0694089 118.964766,14.6683247 C120.417212,13.2672405 119.96595,6.85136008 114.293028,6.85136008 C110.51108,6.85136008 108.620106,9.11140321 108.620106,13.6314895 Z" id="Path-26" fill="#3E4758"></path>
                </g>
            </g>
        </g>
    </g>
</svg>