<?xml version="1.0" encoding="UTF-8"?>
<svg width="350px" height="250px" viewBox="0 0 350 250" version="1.1" xmlns="http://www.w3.org/2000/svg" xmlns:xlink="http://www.w3.org/1999/xlink">
    <!-- Generator: Sketch 49.1 (51147) - http://www.bohemiancoding.com/sketch -->
    <title>Artboard</title>
    <desc>Created with Sketch.</desc>
    <defs>
        <rect id="path-1" x="0.0331529967" y="0.243754477" width="196.839288" height="136.5797" rx="20"></rect>
    </defs>
    <g id="Artboard" stroke="none" stroke-width="1" fill="none" fill-rule="evenodd">
        <g id="Group">
            <rect id="Rectangle" x="0" y="0" width="350" height="250"></rect>
        </g>
        <g id="Group" transform="translate(0.000000, 4.000000)">
            <rect id="Rectangle" x="0" y="0" width="350" height="250"></rect>
        </g>
        <g id="Group" transform="translate(0.000000, -3.000000)">
            <rect id="Rectangle" x="0" y="0" width="350" height="250"></rect>
            <g id="Group-Copy" transform="translate(72.000000, 5.000000)">
                <g id="Group-20" transform="translate(0.000000, 0.994242)">
                    <g id="MIRROR-Copy">
                        <g id="Rectangle-37" transform="translate(0.192360, 104.130009)">
                            <mask id="mask-2" fill="white">
                                <use xlink:href="#path-1"></use>
                            </mask>
                            <use id="Mask" fill="#C5C6EF" xlink:href="#path-1"></use>
                            <rect fill="#8B8CC2" mask="url(#mask-2)" x="0.0331529967" y="95.9751324" width="196.839288" height="46.8483222"></rect>
                            <rect id="Rectangle-36" fill="#65669A" mask="url(#mask-2)" x="0.0331529967" y="81.3497949" width="196.839288" height="17.1033557"></rect>
                        </g>
                        <rect id="Rectangle-32" fill="#C5C6EF" x="0.225513044" y="0.31738785" width="196.839288" height="100.389262" rx="20"></rect>
                        <rect id="Rectangle-33" fill="#A5A6DD" x="0.225513044" y="25.6006094" width="196.839288" height="5.20536914"></rect>
                        <rect id="Rectangle-34" fill="#A5A6DD" x="96.4251652" y="28.575106" width="4.43998395" height="72.1315437"></rect>
                    </g>
                    <g id="Clouds" transform="translate(21.814860, 51.232969)" fill="#FFFFFF" opacity="0.141474185">
                        <g id="Group-3-Copy-4">
                            <path d="M131.327845,15.2808212 C131.261267,14.969546 131.226219,14.6465328 131.226219,14.3153092 C131.226219,11.7853486 133.270979,9.73441024 135.793319,9.73441024 C136.902185,9.73441024 137.918753,10.1307834 138.70987,10.7899758 C139.172519,7.28530296 142.163311,4.58089894 145.783848,4.58089894 C146.387059,4.58089894 146.972788,4.65596834 147.532258,4.79730103 C149.287851,1.91998791 152.450293,0 156.059822,0 C161.577439,0 166.050352,4.48642756 166.050352,10.0207164 C166.050352,15.0725637 157.378993,19.9834686 156.916153,20.0414328 C156.85535,20.0490475 156.804045,20.0447796 156.759701,20.0316195 C156.717785,20.0380818 156.674948,20.0414328 156.631444,20.0414328 L128.371782,20.0414328 L128.371782,19.1825143 C128.371782,19.0855745 128.388051,18.9923856 128.417916,18.9054628 L128.371782,18.8962081 C128.371782,18.8962081 128.393658,18.8852372 128.433662,18.8632953 C128.561387,18.5469975 128.872172,18.3235957 129.227379,18.3235957 L129.241649,18.3235957 C129.950849,17.7702652 130.888396,16.8159113 131.226219,15.4605339 C131.241778,15.3981085 131.275997,15.3382352 131.327845,15.2808212 Z" id="Combined-Shape-Copy-2"></path>
                            <path d="M128.536931,103.781821 C128.486435,103.545736 128.459853,103.300748 128.459853,103.049533 C128.459853,101.130697 130.010691,99.5751734 131.923747,99.5751734 C132.764761,99.5751734 133.535772,99.8758006 134.13579,100.375762 C134.486684,97.7176604 136.755035,95.6665189 139.501014,95.6665189 C139.958515,95.6665189 140.402759,95.7234549 140.827086,95.830648 C142.158607,93.6483644 144.557145,92.1921593 147.294774,92.1921593 C151.479582,92.1921593 154.87204,95.5948675 154.87204,99.7923209 C154.87204,103.623869 148.295292,107.34852 147.944254,107.392482 C147.89676,107.39843 147.856907,107.394819 147.822593,107.384127 C147.788013,107.389625 147.752529,107.392482 147.71636,107.392482 L126.29492,107.392482 L126.29492,106.74104 C126.29492,106.667524 126.307257,106.596852 126.330006,106.530931 L126.29492,106.523893 C126.29492,106.523893 126.311587,106.515534 126.34206,106.498817 C126.439344,106.259308 126.67668,106.090058 126.954665,106.089599 C127.492554,105.669928 128.203633,104.946103 128.459853,103.918123 C128.471654,103.870777 128.497607,103.825366 128.536931,103.781821 Z" id="Combined-Shape-Copy-3"></path>
                            <path d="M1.91629989,26.3698922 C1.8738987,26.1716529 1.85157826,25.9659382 1.85157826,25.7549945 C1.85157826,24.1437594 3.15380767,22.8375953 4.76018905,22.8375953 C5.46638381,22.8375953 6.11379684,23.0900302 6.61762897,23.5098446 C6.91227227,21.2778526 8.81699358,19.5555212 11.1227751,19.5555212 C11.5069367,19.5555212 11.8799655,19.60333 12.2362702,19.6933394 C13.3543403,17.8608888 15.3683788,16.638122 17.6671494,16.638122 C21.1811087,16.638122 24.0297355,19.495356 24.0297355,23.0199327 C24.0297355,26.2372609 18.5072787,29.3648283 18.2125139,29.4017435 C18.172634,29.4067379 18.1391696,29.4037057 18.1103561,29.3947274 C18.0813197,29.3993441 18.0515242,29.4017435 18.0211533,29.4017435 L0.0336965224,29.4017435 L0.0336965224,28.8547312 C0.0336965224,28.7929999 0.0440554763,28.733657 0.06315781,28.6783038 L0.0336965224,28.6723937 C0.0336965224,28.6723937 0.0476917048,28.665375 0.0732794883,28.6513375 C0.154968443,28.4502236 0.354257753,28.3081054 0.58768055,28.3077196 C1.03934284,27.9553247 1.63643118,27.3475329 1.85157826,26.4843443 C1.86148741,26.444588 1.88327965,26.4064569 1.91629989,26.3698922 Z" id="Combined-Shape-Copy-4"></path>
                        </g>
                    </g>
                </g>
                <ellipse id="Oval-14" fill="#EBBDBD" opacity="0.272984601" cx="164.243243" cy="97.6084453" rx="3.18918919" ry="1.59692898"></ellipse>
                <polygon id="Path-69" fill="#595A89" points="73.3513514 145.516315 132.895913 145.516315 141.121622 193.424184 80.9389264 192.288339"></polygon>
                <polygon id="Path-71-Copy" fill="#FFFFFF" points="4.78378378 307.484468 8.77011482 308.403071 38.2150559 206.924642 67.0548463 307.484468 72.5540541 307.434098 39.9472667 197.466877 36.2621897 197.416507"></polygon>
                <rect id="Rectangle-14" fill="#FFFFFF" x="16.7432432" y="195.424184" width="173.256757" height="3.19385797"></rect>
                <polygon id="Path-85" fill="#FFFFFF" points="61.7837838 179.253359 73.1171875 179.253359 71.90979 194.813721 62.5118408 194.813721"></polygon>
                <path d="M62.5041504,195.417236 C62.3591397,190.626449 61.9287945,184.84261 61.7837838,180.051823 L62.5041504,195.417236 Z" id="Path-80" stroke="#A2B1FF"></path>
                <path d="M64.5810811,179.051823 L74.1486486,179.109665" id="Path-81" stroke="#979797"></path>
                <polygon id="Path-71" fill="#FFFFFF" points="138.22973 309.081397 142.216061 310 171.661002 208.521571 200.500792 309.081397 206 309.031027 173.393213 199.063806 169.708136 199.013436"></polygon>
                <path d="M72.7666272,180.051823 C72.5606343,184.576456 72.2374268,195.43103 72.2374268,195.43103" id="Path-82" stroke="#A2B1FF"></path>
                <path d="M72.1942139,194.891479 C69.0050247,194.863233 65.5307419,194.919726 62.3415527,194.891479 L72.1942139,194.891479 Z" id="Path-83" stroke="#A2B1FF"></path>
                <path d="M72.1486486,177.65643 L74.3918919,177.65643 L74.3918919,180.850288 L59.3918919,180.850288 L59.3918919,177.65643 L61.7837838,177.65643 L61.7837838,176.857965 L72.1486486,176.857965 L72.1486486,177.65643 Z" id="Combined-Shape" fill="#A2B1FF"></path>
                <path d="M81.0251465,192.184732 C81.0251465,191.625164 155.472973,192.184732 155.472973,192.184732 L155.472973,194.750419 L81.0251465,195.440103 C81.0251465,195.440103 81.0251465,192.7443 81.0251465,192.184732 Z" id="Path-70" fill="#595A89" transform="translate(118.249060, 193.688069) scale(1, -1) translate(-118.249060, -193.688069) "></path>
                <text id="30" font-family="Roboto-Bold, Roboto" font-size="144" font-weight="bold" fill="#FFFFFF">
                    <tspan x="18.3828125" y="163">30</tspan>
                </text>
            </g>
        </g>
    </g>
</svg>