<?xml version="1.0" encoding="UTF-8"?>
<svg width="350px" height="250px" viewBox="0 0 350 250" version="1.1" xmlns="http://www.w3.org/2000/svg" xmlns:xlink="http://www.w3.org/1999/xlink">
    <!-- Generator: Sketch 49.1 (51147) - http://www.bohemiancoding.com/sketch -->
    <title>Artboard</title>
    <desc>Created with Sketch.</desc>
    <defs></defs>
    <g id="Artboard" stroke="none" stroke-width="1" fill="none" fill-rule="evenodd">
        <g id="Group">
            <rect id="Rectangle" x="0" y="0" width="350" height="250"></rect>
            <g id="Group-Copy" transform="translate(49.000000, 30.000000)">
                <g id="Group-29-Copy-3" transform="translate(125.429242, 49.082046) scale(1, -1) rotate(-314.100006) translate(-125.429242, -49.082046) translate(92.020354, 32.598332)" stroke="#3E4758" stroke-width="2">
                    <path d="M0,29.6050877 C30.0477866,38.6409083 50.4320671,29.2900805 61.1528415,1.55260434" id="Path-13"></path>
                    <path d="M53.1836308,6.26557725 C53.3967686,6.13654672 56.2745852,4.14870729 61.8170805,0.302058953 L66.5890381,8.119109" id="Path-14"></path>
                </g>
                <polygon id="Path-2-Copy-5" fill="#EBECF0" points="89.8049919 153.573638 123.370056 128.384334 152.172814 153.573638 178.303459 132.266619 203.944181 160.033776 203.944181 174.999746 89.8049919 174.999746"></polygon>
                <rect id="Rectangle-Copy-12" stroke="#3E4758" stroke-width="2" x="90" y="90" width="115" height="85"></rect>
                <polyline id="Path-3-Copy-5" stroke="#3E4758" points="88.7096185 155.299605 123.80275 128.384334 152.704455 153.35489 178.245695 132.130426 205.16364 159.989172"></polyline>
                <rect id="Rectangle-3-Copy-22" fill="#3E4758" x="89" y="188" width="58" height="3"></rect>
                <rect id="Rectangle-3-Copy-23" fill="#3E4758" x="89" y="198" width="69" height="3"></rect>
                <g id="Group-5" transform="translate(10.000000, 76.000000)">
                    <ellipse id="Oval-12" stroke="#3E4758" cx="19.8461538" cy="17.0121951" rx="9.92307692" ry="12.6219512"></ellipse>
                    <path d="M1.07779948,44.2690072 C1.07779948,45.7835128 -0.231939437,35.9542369 4.45688446,34.6354036 C8.76543856,33.4235294 16.9895287,35.0938246 17.6044792,30.0388105 C17.6587542,29.5926587 17.6766732,30.0132188 17.6044792,29.4556855" id="Path-24" stroke="#3E4758"></path>
                    <path d="M26.6557188,26.3414634 C26.6557188,26.3414634 25.6020528,32.8360134 28.4035938,33.7257278 C31.2051348,34.6154422 42.3119742,32.481749 42.6032277,42.3472037" id="Path-25" stroke="#3E4758"></path>
                    <path d="M14.8334711,33.7510718 C15.6550105,37.1834508 17.3727422,38.8996403 19.9866662,38.8996403 C23.9075521,38.8996403 28.9821464,38.6086366 28.2650491,33.7510718" id="Path-5" stroke="#3E4758"></path>
                    <path d="M10.3524201,13.5737424 C11.1588855,14.3774084 14.1517261,12.4621252 19.330942,7.82789277 C19.8221833,7.38834243 29.5716794,13.1836007 29.5135091,14.7792414 C29.4238719,17.2380352 27.5754082,26.7211616 26.3713629,26.3797816 C25.1673177,26.0384015 31.8995267,28.6930736 33.8766589,25.5970727 C35.8537911,22.5010718 36.2626765,9.36329911 31.8995267,5.03790134 C27.536377,0.712503573 13.270608,-1.4903892 8.48726713,4.5762076 C5.59400964,8.24565689 4.54969201,11.6071674 4.54969201,14.1308296 C4.54969201,17.4125262 3.95022661,28.427258 11.1532327,28.427258 C15.9552367,28.427258 16.0915319,27.3115651 11.5621181,25.0801794 L10.3524201,13.5737424 Z" id="Path-6" fill="#3E4758"></path>
                </g>
                <circle id="Oval-13" stroke="#3E4758" stroke-width="2" cx="30.5" cy="96.5" r="30.5"></circle>
                <polygon id="Path-10-Copy-3" fill="#3E4758" points="224.121141 164.768595 221.249797 151.387175 232.863001 158.583586 226.24102 158.995056"></polygon>
                <g id="Group-5-Copy" transform="translate(202.000000, 14.000000)" stroke="#3E4758">
                    <ellipse id="Oval-12" cx="19.8461538" cy="12.7432432" rx="9.92307692" ry="12.7432432"></ellipse>
                    <path d="M1.07779948,40.2619827 C1.07779948,41.791042 -0.231939437,31.8673106 4.45688446,30.5358038 C8.76543856,29.312284 16.9895287,30.9986301 17.6044792,25.8950393 C17.6587542,25.4446001 17.6766732,25.8692017 17.6044792,25.3063107" id="Path-24"></path>
                    <path d="M26.6557188,22.1621622 C26.6557188,22.1621622 25.6020528,28.7191223 28.4035938,29.6173865 C31.2051348,30.5156507 42.3119742,28.3614535 42.6032277,38.3217114" id="Path-25"></path>
                    <path d="M14.8334711,29.642974 C15.6550105,33.1083369 17.3727422,34.8410183 19.9866662,34.8410183 C23.9075521,34.8410183 28.9821464,34.5472181 28.2650491,29.642974" id="Path-5"></path>
                </g>
                <circle id="Oval-13-Copy" stroke="#3E4758" stroke-width="2" cx="222.5" cy="30.5" r="30.5"></circle>
                <path d="M211.391437,26.6012561 C217.772557,23.9170833 221.452684,22.2461219 222.431816,21.5883719 C223.900515,20.6017469 228.697052,31.3587494 231.523736,28.6245948 C234.35042,25.8904401 233.472196,13.3701299 222.431816,13.3701299 C215.071563,13.3701299 211.391437,17.7805053 211.391437,26.6012561 Z" id="Path-26" fill="#3E4758"></path>
            </g>
        </g>
    </g>
</svg>