<?xml version="1.0" encoding="UTF-8"?>
<svg width="24px" height="24px" viewBox="0 0 24 24" version="1.1" xmlns="http://www.w3.org/2000/svg" xmlns:xlink="http://www.w3.org/1999/xlink">
    <!-- Generator: Sketch 50.2 (55047) - http://www.bohemiancoding.com/sketch -->
    <title>icono/brands</title>
    <desc>Created with Sketch.</desc>
    <defs></defs>
    <g id="icono/brands" stroke="none" stroke-width="1" fill="none" fill-rule="evenodd">
        <g id="icono_brands" fill="#4B4C4D">
            <g transform="translate(3.000000, 3.000000)" id="Group">
                <g>
                    <path d="M18,2 L18,16 C18,17.1 17.1,18 16,18 L2,18 C0.9,18 0,17.1 0,16 L0,2 C0,0.9 0.9,0 2,0 L16,0 C17.1,0 18,0.9 18,2 Z M9,8.99267578 L9,4 C6.27351351,4.02378378 4,6.13378906 4,8.99267578 C4,11.8515625 5.85510254,13.9926758 9,13.9926758 C12.1448975,13.9926758 14,11.7356488 14,8.99267578 L9,8.99267578 Z" id="Combined-Shape"></path>
                </g>
            </g>
        </g>
    </g>
</svg>