<?xml version="1.0" encoding="UTF-8"?>
<svg width="24px" height="24px" viewBox="0 0 24 24" version="1.1" xmlns="http://www.w3.org/2000/svg" xmlns:xlink="http://www.w3.org/1999/xlink">
    <!-- Generator: Sketch 50.2 (55047) - http://www.bohemiancoding.com/sketch -->
    <title>icono/equipos</title>
    <desc>Created with Sketch.</desc>
    <defs></defs>
    <g id="icono/equipos" stroke="none" stroke-width="1" fill="none" fill-rule="evenodd">
        <g id="icono_equipos" fill="#4B4C4D">
            <g transform="translate(0.000000, 3.000000)" id="Shape">
                <path d="M17.0198322,8.36903959 C18.5966743,8.36903959 19.8650038,7.03254236 19.8650038,5.38578685 C19.8650038,3.73903134 18.5966743,2.40253411 17.0198322,2.40253411 C15.4429901,2.40253411 14.1632342,3.73903134 14.1632342,5.38578685 C14.1632342,7.03254236 15.4429901,8.36903959 17.0198322,8.36903959 L17.0198322,8.36903959 Z M8.45003814,7.17573849 C10.3468192,7.17573849 11.8665294,5.57671502 11.8665294,3.59583521 C11.8665294,1.61495539 10.3468192,0.0159319238 8.45003814,0.0159319238 C6.55325706,0.0159319238 5.02212052,1.61495539 5.02212052,3.59583521 C5.02212052,5.57671502 6.55325706,7.17573849 8.45003814,7.17573849 L8.45003814,7.17573849 Z M17.0198322,10.7556418 C14.9288024,10.7556418 10.7353166,11.8534788 10.7353166,14.0372198 L10.7353166,16.7221472 L23.3043478,16.7221472 L23.3043478,14.0372198 C23.3043478,11.8534788 19.1108619,10.7556418 17.0198322,10.7556418 L17.0198322,10.7556418 Z M8.45003814,9.56234068 C5.78768879,9.56234068 0.451563692,10.958503 0.451563692,13.7388945 L0.451563692,16.7221472 L8.45003814,16.7221472 L8.45003814,14.0372198 C8.45003814,13.0229139 8.82710908,11.2448952 11.1580931,9.89646499 C10.1639969,9.68167079 9.20418002,9.56234068 8.45003814,9.56234068 L8.45003814,9.56234068 Z"></path>
            </g>
        </g>
    </g>
</svg>