<?xml version="1.0" encoding="UTF-8"?>
<svg width="15px" height="15px" viewBox="0 0 15 15" version="1.1" xmlns="http://www.w3.org/2000/svg" xmlns:xlink="http://www.w3.org/1999/xlink">
    <!-- Generator: Sketch 43.1 (39012) - http://www.bohemiancoding.com/sketch -->
    <title>icon_numerico</title>
    <desc>Created with Sketch.</desc>
    <defs></defs>
    <g id="Symbols" stroke="none" stroke-width="1" fill="none" fill-rule="evenodd">
        <g id="ico-number" fill-rule="nonzero" fill="#595A9C">
            <path d="M13.6,10.2666667 L11.0666667,10.2666667 L11.0666667,5.73333333 L13.6,5.73333333 C13.8266667,5.73333333 14,5.56 14,5.33333333 C14,5.10666667 13.8266667,4.93333333 13.6,4.93333333 L11.0666667,4.93333333 L11.0666667,2.4 C11.0666667,2.17333333 10.8933333,2 10.6666667,2 C10.44,2 10.2666667,2.17333333 10.2666667,2.4 L10.2666667,4.93333333 L5.73333333,4.93333333 L5.73333333,2.4 C5.73333333,2.17333333 5.56,2 5.33333333,2 C5.10666667,2 4.93333333,2.17333333 4.93333333,2.4 L4.93333333,4.93333333 L2.4,4.93333333 C2.17333333,4.93333333 2,5.10666667 2,5.33333333 C2,5.56 2.17333333,5.73333333 2.4,5.73333333 L4.93333333,5.73333333 L4.93333333,10.2666667 L2.4,10.2666667 C2.17333333,10.2666667 2,10.44 2,10.6666667 C2,10.8933333 2.17333333,11.0666667 2.4,11.0666667 L4.93333333,11.0666667 L4.93333333,13.6 C4.93333333,13.8266667 5.10666667,14 5.33333333,14 C5.56,14 5.73333333,13.8266667 5.73333333,13.6 L5.73333333,11.0666667 L10.2666667,11.0666667 L10.2666667,13.6 C10.2666667,13.8266667 10.44,14 10.6666667,14 C10.8933333,14 11.0666667,13.8266667 11.0666667,13.6 L11.0666667,11.0666667 L13.6,11.0666667 C13.8266667,11.0666667 14,10.8933333 14,10.6666667 C14,10.44 13.8266667,10.2666667 13.6,10.2666667 Z M5.73333333,10.2666667 L5.73333333,5.73333333 L10.2666667,5.73333333 L10.2666667,10.2666667 L5.73333333,10.2666667 Z" id="Shape"></path>
        </g>
    </g>
</svg>