<?xml version="1.0" encoding="UTF-8"?>
<svg width="7px" height="7px" viewBox="0 0 7 7" version="1.1" xmlns="http://www.w3.org/2000/svg" xmlns:xlink="http://www.w3.org/1999/xlink">
    <!-- Generator: Sketch 50 (54983) - http://www.bohemiancoding.com/sketch -->
    <title>Combined Shape</title>
    <desc>Created with Sketch.</desc>
    <defs></defs>
    <g id="eliminar_paginas" stroke="none" stroke-width="1" fill="none" fill-rule="evenodd">
        <g id="eliminar_pagina_03" transform="translate(-171.000000, -158.000000)" fill="#393A6F">
            <g id="icono_closed" transform="translate(167.000000, 154.000000)">
                <path d="M7.08717827,7.29270725 L7.08717827,4.09128642 C7.08717827,3.90279913 7.23997742,3.74999998 7.42846471,3.74999998 C7.43003069,3.74999998 7.43159665,3.75001076 7.43316249,3.75003232 C7.62500986,3.75267333 7.7791467,3.90894665 7.7791467,4.1008122 L7.7791467,7.29270725 L10.9461353,7.29270725 C11.1139547,7.29270725 11.2499991,7.4287517 11.2499991,7.59657103 C11.2499991,7.60803069 11.2493509,7.61948117 11.2480574,7.6308676 C11.2261751,7.82350371 11.0631843,7.96902794 10.8693093,7.96902794 L7.7791467,7.96902794 L7.7791467,10.9087136 C7.7791467,11.0972009 7.62634755,11.25 7.43786026,11.25 C7.43629428,11.25 7.43472832,11.2499892 7.43316249,11.2499677 C7.24131512,11.2473267 7.08717827,11.0910533 7.08717827,10.8991878 L7.08717827,7.96902794 L4.05386466,7.96902794 C3.88604532,7.96902794 3.75000087,7.83298349 3.75000087,7.66516416 C3.75000087,7.6537045 3.75064914,7.64225402 3.75194257,7.6308676 C3.77382489,7.43823148 3.93681571,7.29270725 4.13069069,7.29270725 L7.08717827,7.29270725 Z" id="Combined-Shape" transform="translate(7.500000, 7.500000) rotate(45.000000) translate(-7.500000, -7.500000) "></path>
            </g>
        </g>
    </g>
</svg>