<?xml version="1.0" encoding="UTF-8"?>
<svg width="12px" height="12px" viewBox="0 0 12 12" version="1.1" xmlns="http://www.w3.org/2000/svg" xmlns:xlink="http://www.w3.org/1999/xlink">
    <!-- Generator: Sketch 46.1 (44463) - http://www.bohemiancoding.com/sketch -->
    <title>Group</title>
    <desc>Created with Sketch.</desc>
    <defs></defs>
    <g id="Marcado_rectangulo" stroke="none" stroke-width="1" fill="none" fill-rule="evenodd">
        <g id="01_bar_tools" transform="translate(-710.000000, -968.000000)" fill="#FFFFFF">
            <g id="ic_add_to_photos_24px" transform="translate(710.000000, 967.000000)">
                <g id="Group" transform="translate(0.000000, 1.000000)">
                    <path d="M1.33333333,2.5 L0.166666667,2.5 L0.166666667,10.6666667 C0.166666667,11.3083333 0.691666667,11.8333333 1.33333333,11.8333333 L9.5,11.8333333 L9.5,10.6666667 L1.33333333,10.6666667 L1.33333333,2.5 L1.33333333,2.5 Z M10.6666667,0.166666667 L3.66666667,0.166666667 C3.025,0.166666667 2.5,0.691666667 2.5,1.33333333 L2.5,8.33333333 C2.5,8.975 3.025,9.5 3.66666667,9.5 L10.6666667,9.5 C11.3083333,9.5 11.8333333,8.975 11.8333333,8.33333333 L11.8333333,1.33333333 C11.8333333,0.691666667 11.3083333,0.166666667 10.6666667,0.166666667 L10.6666667,0.166666667 Z M10.0833333,5.41666667 L7.75,5.41666667 L7.75,7.75 L6.58333333,7.75 L6.58333333,5.41666667 L4.25,5.41666667 L4.25,4.25 L6.58333333,4.25 L6.58333333,1.91666667 L7.75,1.91666667 L7.75,4.25 L10.0833333,4.25 L10.0833333,5.41666667 L10.0833333,5.41666667 Z" id="Shape"></path>
                </g>
            </g>
        </g>
    </g>
</svg>