<?xml version="1.0" encoding="UTF-8"?>
<svg width="40px" height="32px" viewBox="0 0 40 32" version="1.1" xmlns="http://www.w3.org/2000/svg" xmlns:xlink="http://www.w3.org/1999/xlink">
    <!-- Generator: Sketch 50.2 (55047) - http://www.bohemiancoding.com/sketch -->
    <title>Group 16</title>
    <desc>Created with Sketch.</desc>
    <defs></defs>
    <g id="interface_html" stroke="none" stroke-width="1" fill="none" fill-rule="evenodd">
        <g id="interface_feedback_vacio" transform="translate(-622.000000, -358.000000)" fill="#A2B1FF">
            <g id="Group-16" transform="translate(622.000000, 358.000000)">
                <path d="M39,14.5686275 C39,8.76470588 34.3653445,4.05882353 28.6492693,4.05882353 C28.4175365,4.05882353 28.1858038,4.05882353 27.954071,4.05882353 C25.7912317,2.09803922 23.0104384,1 20.0751566,1 C16.2901879,1 12.8141962,2.80392157 10.5741127,5.8627451 C5.78496868,6.33333333 2,10.4117647 2,15.3529412 C2,20.6078431 6.24843424,24.9215686 11.4237996,24.9215686 L11.4237996,21.4705882 C8.10229645,21.4705882 5.39874739,18.7254902 5.39874739,15.3529412 C5.39874739,11.9803922 8.10229645,9.23529412 11.3465553,9.23529412 L12.4279749,9.23529412 L12.9686848,8.37254902 C14.5135699,5.8627451 17.217119,4.37254902 20.0751566,4.37254902 C22.3924843,4.37254902 24.5553236,5.31372549 26.177453,7.03921569 L26.7954071,7.66666667 L27.6450939,7.50980392 C28.0313152,7.43137255 28.4175365,7.43137255 28.7265136,7.43137255 C32.5114823,7.43137255 35.6784969,10.5686275 35.6784969,14.4901961 C35.6784969,18.4117647 32.5887265,21.5490196 28.7265136,21.5490196 L28.7265136,25 C34.4425887,25 39,20.2941176 39,14.5686275 Z" id="Shape" fill-rule="nonzero"></path>
                <path d="M19.9966476,12.0000161 C20.2823904,11.998917 20.4830241,12.0537063 20.7200485,12.274787 L26.6416217,17.770221 C27.0628608,18.1561093 27.1402719,18.9090914 26.725708,19.3329529 C26.3258403,19.7418669 25.6127752,19.7911608 25.1948198,19.4016456 L21.0732973,15.5720375 L21.0766497,28.9009165 C21.0766497,29.5079403 20.5947413,30 20,30 C19.4052587,30 18.9233503,29.5079403 18.9233503,28.9009165 L18.9199979,15.5720375 L14.7984754,19.4016456 C14.38052,19.7911608 13.6474831,19.7612108 13.2675872,19.3329529 C12.8877452,18.9046401 12.9092244,18.1633632 13.3516736,17.770221 L19.2732467,12.274787 C19.4270999,12.130917 19.7086977,12.0055115 19.9966476,12.0000161 Z" id="Path-Copy"></path>
            </g>
        </g>
    </g>
</svg>