<?xml version="1.0" encoding="UTF-8"?>
<svg width="30px" height="36px" viewBox="0 0 30 36" version="1.1" xmlns="http://www.w3.org/2000/svg" xmlns:xlink="http://www.w3.org/1999/xlink">
    <!-- Generator: Sketch 50.2 (55047) - http://www.bohemiancoding.com/sketch -->
    <title>icono_html_loading</title>
    <desc>Created with Sketch.</desc>
    <defs></defs>
    <g id="interface_html" stroke="none" stroke-width="1" fill="none" fill-rule="evenodd">
        <g id="interface_feedback_vacio_05_cargador" transform="translate(-623.000000, -319.000000)" fill="#DDDDDD" fill-rule="nonzero">
            <g id="icono_html_loading" transform="translate(623.000000, 319.000000)">
                <g id="noun_453301_cc" transform="translate(3.396226, 0.132075)">
                    <g id="Group_1_">
                        <path d="M25.9,10.9 C25.8,10.8 25.8,10.8 25.8,10.8 L15.8,1.2 C15.3,0.7 14.6,0.5 13.9,0.5 L2,0.5 C0.9,0.5 0,1.4 0,2.4 L0,31.8 C0,32.8 0.9,33.7 2,33.7 L24.6,33.7 C25.7,33.7 26.6,32.8 26.6,31.8 L26.6,12.8 C26.6,11.9 26.3,11.3 25.9,10.9 Z M16.5,3.2 L23.6,10 L18.4,10 C17.4,10 16.6,9.2 16.6,8.2 L16.6,3.2 L16.5,3.2 Z M25.6,31.5 C25.6,32 25.1,32.5 24.6,32.5 L2,32.5 C1.4,32.5 1,32 1,31.5 L1,2.2 C1,1.7 1.5,1.2 2,1.2 L13.7,1.2 C14.2,1.2 14.7,1.4 15,1.7 C15.3,2 15.6,2.5 15.6,3 L15.6,8.2 C15.6,9.6 16.8,10.9 18.4,10.9 L23.9,10.9 C24.4,10.9 24.8,11.1 25.2,11.4 C25.5,11.7 25.7,12.1 25.7,12.6 L25.6,31.5 Z" id="Shape"></path>
                    </g>
                </g>
                <g id="Group_2_" transform="translate(9.622642, 12.584906)">
                    <path d="M14.6,10.8 L1.8,10.8 C1.3,10.8 0.9,10.5 0.7,10.1 C0.5,9.6 0.6,9.1 0.9,8.7 L3.4,5.9 C3.9,5.4 4.7,5.3 5.2,5.8 L6.3,7 C6.4,7 6.5,7 6.5,7 L6.6,6.9 L9.8,3.7 C10.3,3.1 11.3,3.1 11.8,3.8 L15.6,8.8 C15.9,9.2 15.9,9.7 15.7,10.1 C15.5,10.5 15.1,10.8 14.6,10.8 Z M4.3,6.6 C4.3,6.6 4.2,6.6 4.2,6.7 L1.7,9.5 C1.6,9.6 1.6,9.6 1.7,9.6 C1.7,9.7 1.8,9.7 1.8,9.7 L14.6,9.7 C14.7,9.7 14.7,9.7 14.7,9.6 C14.7,9.5 14.7,9.5 14.7,9.5 L10.9,4.5 C10.8,4.4 10.8,4.4 10.7,4.5 L10.6,4.6 L7.4,7.7 C7,8.3 6.1,8.3 5.5,7.8 L4.3,6.6 C4.4,6.6 4.4,6.6 4.3,6.6 Z" id="Shape_1_"></path>
                    <path d="M2.8,3.4 C1.8,3.4 1.1,2.7 1.1,1.7 C1.1,0.7 1.9,0 2.8,0 C3.7,0 4.5,0.7 4.5,1.7 C4.5,2.7 3.8,3.4 2.8,3.4 Z M2.8,1.1 C2.5,1.1 2.2,1.3 2.2,1.7 C2.2,2.1 2.4,2.3 2.8,2.3 C3.2,2.3 3.4,2 3.4,1.7 C3.4,1.4 3.2,1.1 2.8,1.1 Z" id="Shape_2_"></path>
                </g>
                <path d="M25.4,34 C25.3,34.4 24.7,34.9 24.2,34.9 L2,34.9 C1.4,34.9 1,34.4 1,33.9 L1,4.3 C1,3.8 1.5,3.3 2,3.3 L2.9,3.3 L2.9,2.4 L2,2.4 C0.9,2.4 0.1,3.3 0.1,4.3 L0.1,34 C0.1,35.1 1,35.9 2,35.9 L24.3,35.9 C25.5,35.9 26.4,34.9 26.6,34 L25.4,34 Z" id="Shape"></path>
            </g>
        </g>
    </g>
</svg>