<?xml version="1.0" encoding="UTF-8"?>
<svg width="40px" height="29px" viewBox="0 0 40 29" version="1.1" xmlns="http://www.w3.org/2000/svg" xmlns:xlink="http://www.w3.org/1999/xlink">
    <!-- Generator: Sketch 50.2 (55047) - http://www.bohemiancoding.com/sketch -->
    <title>Shape</title>
    <desc>Created with Sketch.</desc>
    <defs></defs>
    <g id="interface_video" stroke="none" stroke-width="1" fill="none" fill-rule="evenodd">
        <g id="interface_video_02" transform="translate(-619.000000, -323.000000)" fill="#DDDDDD" fill-rule="nonzero">
            <path d="M658.009009,323 L620.126126,323 C619.734234,323 619.472973,323.261261 619.472973,323.653153 L619.472973,351.346847 C619.472973,351.738739 619.734234,352 620.126126,352 L658.009009,352 C658.400901,352 658.662162,351.738739 658.662162,351.346847 L658.662162,323.653153 C658.662162,323.326577 658.400901,323 658.009009,323 Z M657.355856,350.693694 L620.779279,350.693694 L620.779279,324.306306 L657.355856,324.306306 L657.355856,350.693694 Z M632.601351,343.247748 C632.731982,343.313063 632.862613,343.378378 632.927928,343.378378 C632.993243,343.378378 633.123874,343.378378 633.189189,343.313063 L648.995495,336.324324 C649.256757,336.193694 649.387387,335.997748 649.387387,335.736486 C649.387387,335.475225 649.256757,335.213964 648.995495,335.148649 L633.189189,328.15991 C632.993243,328.094595 632.731982,328.094595 632.601351,328.225225 C632.470721,328.355856 632.274775,328.551802 632.274775,328.747748 L632.274775,342.725225 C632.274775,342.921171 632.405405,343.117117 632.601351,343.247748 Z M633.581081,329.792793 L647.166667,335.736486 L633.581081,341.68018 L633.581081,329.792793 Z M624.502252,347.623874 L625.220721,347.623874 C625.481982,348.538288 626.331081,349.191441 627.310811,349.191441 C628.290541,349.191441 629.13964,348.538288 629.400901,347.623874 L653.632883,347.623874 C654.024775,347.623874 654.286036,347.362613 654.286036,346.970721 C654.286036,346.578829 654.024775,346.317568 653.632883,346.317568 L629.400901,346.317568 C629.13964,345.403153 628.290541,344.75 627.310811,344.75 C626.331081,344.75 625.481982,345.403153 625.220721,346.317568 L624.502252,346.317568 C624.11036,346.317568 623.849099,346.578829 623.849099,346.970721 C623.849099,347.362613 624.11036,347.623874 624.502252,347.623874 Z M627.310811,346.056306 C627.833333,346.056306 628.225225,346.448198 628.225225,346.970721 C628.225225,347.493243 627.833333,347.885135 627.310811,347.885135 C626.788288,347.885135 626.396396,347.493243 626.396396,346.970721 C626.396396,346.448198 626.788288,346.056306 627.310811,346.056306 Z" id="Shape"></path>
        </g>
    </g>
</svg>