<?xml version="1.0" encoding="UTF-8"?>
<svg width="7px" height="7px" viewBox="0 0 7 7" version="1.1" xmlns="http://www.w3.org/2000/svg" xmlns:xlink="http://www.w3.org/1999/xlink">
    <!-- Generator: Sketch 51.3 (57544) - http://www.bohemiancoding.com/sketch -->
    <title>Combined Shape</title>
    <desc>Created with Sketch.</desc>
    <defs></defs>
    <g id="Symbols" stroke="none" stroke-width="1" fill="none" fill-rule="evenodd">
        <g id="listado_notas" transform="translate(-282.000000, -13.000000)" fill="#4F5C69">
            <g id="lsiatdo_notas">
                <path d="M285.006689,16.2512853 L285.006689,12.4097588 C285.006689,12.1834553 285.190145,12 285.416448,12 C285.418327,12 285.420207,12.0000129 285.422086,12.0000388 C285.652421,12.003208 285.837482,12.1908324 285.837482,12.4211899 L285.837482,16.2512853 L289.640044,16.2512853 C289.841418,16.2512853 290.004665,16.4145318 290.004665,16.6159064 C290.004665,16.6296644 290.003886,16.6434113 290.002332,16.6570812 C289.97606,16.88825 289.780461,17.0628772 289.547804,17.0628772 L285.837482,17.0628772 L285.837482,20.5903187 C285.837482,20.8166223 285.654027,21.0000776 285.427723,21.0000776 C285.425844,21.0000776 285.423965,21.0000646 285.422086,21.0000388 C285.19175,20.9968695 285.006689,20.8092452 285.006689,20.5788877 L285.006689,17.0628772 L281.364621,17.0628772 C281.163246,17.0628772 281,16.8996307 281,16.6982561 C281,16.6844981 281.000779,16.6707512 281.002332,16.6570812 C281.028605,16.4259125 281.224203,16.2512853 281.45686,16.2512853 L285.006689,16.2512853 Z" id="Combined-Shape" transform="translate(285.502332, 16.500039) rotate(45.000000) translate(-285.502332, -16.500039) "></path>
            </g>
        </g>
    </g>
</svg>