<?xml version="1.0" encoding="UTF-8"?>
<svg width="28px" height="23px" viewBox="0 0 28 23" version="1.1" xmlns="http://www.w3.org/2000/svg" xmlns:xlink="http://www.w3.org/1999/xlink">
    <!-- Generator: Sketch 46.1 (44463) - http://www.bohemiancoding.com/sketch -->
    <title>Page 1 Copy 17</title>
    <desc>Created with Sketch.</desc>
    <defs></defs>
    <g id="Feedback_crear" stroke="none" stroke-width="1" fill="none" fill-rule="evenodd">
        <g id="07_feedback-" transform="translate(-542.000000, -557.000000)" fill="#D3D4E6">
            <g id="Page-1-Copy-17" transform="translate(542.000000, 557.000000)">
                <path d="M0,23 L28,23 L28,0 L0,0 L0,23 Z M1.99395709,21.3621311 L26.0060429,21.3621311 L26.0060429,1.63786894 L1.99395709,1.63786894 L1.99395709,21.3621311 Z" id="Fill-1"></path>
                <polygon id="Fill-2" points="17.8390179 10.8306866 15.5624279 12.9559264 12.3751442 9 6 16 23 16"></polygon>
                <path d="M8,7.00013633 C8,7.55228357 7.55228357,8 7.00013633,8 C6.44771643,8 6,7.55228357 6,7.00013633 C6,6.44771643 6.44771643,6 7.00013633,6 C7.55228357,6 8,6.44771643 8,7.00013633" id="Fill-3"></path>
            </g>
        </g>
    </g>
</svg>