<?xml version="1.0" encoding="UTF-8"?>
<svg width="11px" height="19px" viewBox="0 0 11 19" version="1.1" xmlns="http://www.w3.org/2000/svg" xmlns:xlink="http://www.w3.org/1999/xlink">
    <!-- Generator: Sketch 51.2 (57519) - http://www.bohemiancoding.com/sketch -->
    <title>Group</title>
    <desc>Created with Sketch.</desc>
    <defs></defs>
    <g id="tool-sidebar" stroke="none" stroke-width="1" fill="none" fill-rule="evenodd">
        <g id="29_sidebar-" transform="translate(-420.000000, -884.000000)" fill="#99BFEC">
            <g id="Group-6" transform="translate(420.000000, 884.000000)">
                <g id="Group" transform="translate(5.500000, 9.500000) rotate(90.000000) translate(-5.500000, -9.500000) translate(-4.000000, 4.000000)">
                    <path d="M0.75,5.6875 C0.75,3.0275 2.9025,0.875 5.5625,0.875 L14.75,0.875 C16.68375,0.875 18.25,2.44125 18.25,4.375 C18.25,6.30875 16.68375,7.875 14.75,7.875 L7.3125,7.875 C6.105,7.875 5.125,6.895 5.125,5.6875 C5.125,4.48 6.105,3.5 7.3125,3.5 L13.875,3.5 L13.875,5.25 L7.23375,5.25 C6.7525,5.25 6.7525,6.125 7.23375,6.125 L14.75,6.125 C15.7125,6.125 16.5,5.3375 16.5,4.375 C16.5,3.4125 15.7125,2.625 14.75,2.625 L5.5625,2.625 C3.87375,2.625 2.5,3.99875 2.5,5.6875 C2.5,7.37625 3.87375,8.75 5.5625,8.75 L13.875,8.75 L13.875,10.5 L5.5625,10.5 C2.9025,10.5 0.75,8.3475 0.75,5.6875 L0.75,5.6875 Z" id="Shape"></path>
                </g>
            </g>
        </g>
    </g>
</svg>