<?xml version="1.0" encoding="UTF-8"?>
<svg width="50px" height="62px" viewBox="0 0 50 62" version="1.1" xmlns="http://www.w3.org/2000/svg" xmlns:xlink="http://www.w3.org/1999/xlink">
    <!-- Generator: Sketch 46.1 (44463) - http://www.bohemiancoding.com/sketch -->
    <title>ico_pdf</title>
    <desc>Created with Sketch.</desc>
    <defs></defs>
    <g id="Symbols" stroke="none" stroke-width="1" fill="none" fill-rule="evenodd">
        <g id="ico_pdf" fill-rule="nonzero" fill="#AEB5D8">
            <g id="Group-9">
                <g id="Group" transform="translate(2.000000, 2.000000)">
                    <path d="M14.3623213,36 C14.021741,36 13.6811607,35.9321153 13.4768125,35.6605764 L13.4768125,35.6605764 C13.1362321,35.3890376 13,34.9817293 13,34.5065363 C13.2043482,33.148842 15.4521784,31.5874935 17.018848,30.9765311 C17.3594283,30.8407616 17.7000086,30.7049922 18.108705,30.5013381 C19.130446,28.4647966 20.084071,26.0209469 20.6289995,24.3917137 C19.7434906,22.2872875 19.6072585,20.2507461 19.9478388,19.1645906 C20.2884192,18.2820893 20.9014638,18.0784352 21.2420441,18.0105505 C21.9232048,17.9426658 22.3319012,18.2142046 22.5362494,18.4857435 C22.7405976,18.7572823 23.4217583,19.5718989 22.4000173,22.8303653 C22.4000173,22.8303653 22.1956691,23.4413277 21.8550887,24.3917137 C22.4000173,25.6136386 23.2174101,26.9034482 24.3072671,27.9896036 C24.5797314,28.2611425 24.7840796,28.4647966 24.9884278,28.6684508 C25.8058206,28.5326813 26.5550973,28.4647966 27.3043741,28.4647966 C27.3043741,28.4647966 27.3043741,28.4647966 27.3043741,28.4647966 C29.0753918,28.4647966 30.0971328,28.7363355 30.6420614,29.2794132 C30.9145256,29.5509521 31.0507578,29.9582603 30.9826417,30.3655686 C30.9145256,30.9086464 30.5739453,31.3159547 29.9609007,31.5874935 C28.8710436,31.9948018 26.9637938,31.6553782 24.6478475,29.8224909 C22.6043655,30.1619145 20.4927674,30.8407616 18.8579818,31.4517241 C18.1768211,32.7415337 17.4956604,33.8955738 16.7463837,34.574421 C16.065223,35.524807 15.1115981,36 14.3623213,36 Z M17.2913122,32.1305712 C15.6565266,32.8773031 14.2260892,34.1671127 14.1579731,34.7101904 L14.2260892,34.7780751 C14.4304374,34.9817293 15.2478302,34.7101904 16.065223,33.8276891 C16.4739194,33.4203808 16.8826158,32.8094184 17.2913122,32.1305712 Z M26.3507491,29.6188368 C27.9174187,30.6371075 29.0753918,30.7049922 29.6203204,30.5013381 C29.8246686,30.4334534 29.8927846,30.2976839 29.9609007,30.2976839 C29.9609007,30.1619145 29.9609007,30.0940298 29.8927846,30.0940298 C29.7565525,29.8903756 29.211624,29.6188368 27.3724902,29.6188368 C27.3043741,29.6188368 27.3043741,29.6188368 27.236258,29.6188368 C26.9637938,29.6188368 26.6913295,29.6188368 26.3507491,29.6188368 Z M21.3782763,25.8851774 C20.9014638,27.1071023 20.2884192,28.600566 19.6753746,30.0261451 C20.9014638,29.6188368 22.3319012,29.2115285 23.6942225,28.9399896 C23.6261065,28.8721049 23.6261065,28.8721049 23.5579904,28.8042202 C22.6724815,27.9217189 21.9232048,26.9034482 21.3782763,25.8851774 Z M21.5145084,19.1645906 C21.5145084,19.1645906 21.4463923,19.1645906 21.4463923,19.1645906 C21.3101602,19.1645906 21.1739281,19.3003601 21.105812,19.5718989 C20.8333477,20.2507461 20.9014638,21.4047862 21.3101602,22.6945958 C21.3782763,22.5588264 21.3782763,22.4909417 21.3782763,22.4909417 C22.0594369,20.3865155 21.9232048,19.4361295 21.7188566,19.2324753 C21.7188566,19.2324753 21.6507405,19.1645906 21.5145084,19.1645906 Z" id="Shape"></path>
                    <g transform="translate(14.000000, 47.000000)" id="Shape">
                        <path d="M0.2,0.572727273 C0.6,0.509090909 1.2,0.445454545 2,0.445454545 C2.86666667,0.445454545 3.46666667,0.636363636 3.86666667,0.954545455 C4.26666667,1.27272727 4.46666667,1.71818182 4.46666667,2.29090909 C4.46666667,2.86363636 4.26666667,3.37272727 3.93333333,3.69090909 C3.46666667,4.13636364 2.73333333,4.32727273 1.93333333,4.32727273 C1.73333333,4.32727273 1.53333333,4.32727273 1.33333333,4.26363636 L1.33333333,6.55454545 L0.2,6.55454545 L0.2,0.572727273 Z M1.33333333,3.43636364 C1.46666667,3.5 1.66666667,3.5 1.93333333,3.5 C2.8,3.5 3.33333333,3.11818182 3.33333333,2.35454545 C3.33333333,1.65454545 2.86666667,1.33636364 2,1.33636364 C1.66666667,1.33636364 1.46666667,1.33636364 1.33333333,1.4 L1.33333333,3.43636364 Z"></path>
                        <path d="M5.53333333,0.572727273 C6.06666667,0.509090909 6.73333333,0.445454545 7.4,0.445454545 C8.6,0.445454545 9.4,0.7 10,1.14545455 C10.6,1.65454545 11,2.35454545 11,3.37272727 C11,4.45454545 10.6,5.28181818 10,5.79090909 C9.33333333,6.36363636 8.33333333,6.61818182 7.06666667,6.61818182 C6.4,6.61818182 5.86666667,6.55454545 5.46666667,6.55454545 L5.46666667,0.572727273 L5.53333333,0.572727273 Z M6.66666667,5.79090909 C6.8,5.79090909 7.06666667,5.79090909 7.33333333,5.79090909 C8.86666667,5.79090909 9.73333333,5.02727273 9.73333333,3.43636364 C9.73333333,2.1 8.93333333,1.33636364 7.46666667,1.33636364 C7.06666667,1.33636364 6.8,1.33636364 6.66666667,1.4 L6.66666667,5.79090909 Z"></path>
                        <polygon points="12 0.509090909 15.6666667 0.509090909 15.6666667 1.4 13.1333333 1.4 13.1333333 3.11818182 15.4666667 3.11818182 15.4666667 4.00909091 13.1333333 4.00909091 13.1333333 6.61818182 12 6.61818182"></polygon>
                    </g>
                    <path d="M32.2481752,0 L0,0 L0,59 L47,59 L47,14.6651323 L32.2481752,0 Z M32.659854,2.85155351 L44.049635,14.1898734 L32.659854,14.1898734 L32.659854,2.85155351 Z M31.0131387,1.69735328 L31.0131387,15.8193326 L45.2846715,15.8193326 L45.2846715,43.6559264 L1.71532847,43.6559264 L1.71532847,1.69735328 L31.0131387,1.69735328 Z M1.71532847,57.3026467 L1.71532847,44.8101266 L45.2846715,44.8101266 L45.2846715,57.3026467 L1.71532847,57.3026467 Z" id="Shape"></path>
                </g>
            </g>
        </g>
    </g>
</svg>