<?xml version="1.0" encoding="UTF-8"?>
<svg width="40px" height="40px" viewBox="0 0 40 40" version="1.1" xmlns="http://www.w3.org/2000/svg" xmlns:xlink="http://www.w3.org/1999/xlink">
    <g id="Symbols" stroke="none" stroke-width="1" fill="none" fill-rule="evenodd">
        <g id="icon_floting_note" fill="#393A6F" fill-rule="nonzero">
            <g id="Group-3">
                <g id="Group-2" transform="translate(4.000000, 10.000000)">
                    <g id="Group" transform="translate(0.000000, 3.000000)">
                        <path d="M1,1.56970215 L19.6,1.56970215 C20.2,1.56970215 20.4555664,1.29568255 20.4555664,0.903320312 C20.4555664,0.51095807 20.2,0.236938477 19.6,0.236938477 L1,0.236938477 C0.4,0.236938477 2.25629151e-12,0.402709961 9.09494702e-13,0.986206055 C9.09494702e-13,1.56970215 0.5,1.56970215 1,1.56970215 Z" id="Shape"></path>
                        <path d="M1,16.5697021 L19.6,16.5697021 C20.2,16.5697021 20.4555664,16.2956826 20.4555664,15.9033203 C20.4555664,15.5109581 20.2,15.2369385 19.6,15.2369385 L1,15.2369385 C0.4,15.2369385 2.25629151e-12,15.40271 9.09494702e-13,15.9862061 C9.09494702e-13,16.5697021 0.5,16.5697021 1,16.5697021 Z" id="Shape-Copy-3"></path>
                        <path d="M1,9.33276367 L14.6,9.33276367 C15.2,9.33276367 15.4555664,9.05874408 15.4555664,8.66638184 C15.4555664,8.27401959 15.2,8 14.6,8 L1,8 C0.4,8 2.25629151e-12,8.16577148 9.09494702e-13,8.74926758 C9.09494702e-13,9.33276367 0.5,9.33276367 1,9.33276367 Z" id="Shape-Copy"></path>
                    </g>
                    <path d="M31.357666,1.18551438 C31.2072081,1.03488902 31.0030429,0.950254488 30.7901449,0.950254488 C30.5772469,0.950254488 30.3730816,1.03488902 30.2226238,1.18551438 L19.2350749,12.1818256 C18.9216417,12.4952588 18.9216417,13.0034346 19.2350749,13.3168678 C19.5485082,13.6303011 20.0566839,13.6303011 20.3701172,13.3168678 L31.357666,2.32055664 C31.5082914,2.17009876 31.5929259,1.96593354 31.5929259,1.75303551 C31.5929259,1.54013748 31.5082914,1.33597226 31.357666,1.18551438 Z" id="Shape"></path>
                </g>
            </g>
        </g>
    </g>
</svg>