<?xml version="1.0" encoding="UTF-8"?>
<svg width="12px" height="12px" viewBox="0 0 12 12" version="1.1" xmlns="http://www.w3.org/2000/svg" xmlns:xlink="http://www.w3.org/1999/xlink">
    <!-- Generator: Sketch 49.1 (51147) - http://www.bohemiancoding.com/sketch -->
    <title>icon_descargar_pdf_factura</title>
    <desc>Created with Sketch.</desc>
    <defs>
        <polygon id="path-1" points="7.93605634 0 5.63380282e-05 0 5.63380282e-05 10.1408225 7.93605634 10.1408225"></polygon>
    </defs>
    <g id="icon_descargar_pdf_factura" stroke="none" stroke-width="1" fill="none" fill-rule="evenodd">
        <g id="Page-1" transform="translate(2.000000, 1.000000)">
            <path d="M6.13723944,6.06634366 C6.14309859,6.07648451 6.14298592,6.08054085 6.14152113,6.08324507 C6.12495775,6.11197746 6.05002817,6.15761127 5.91966197,6.15761127 C5.88326761,6.15761127 5.84450704,6.15389296 5.80450704,6.14645634 C5.64180282,6.11637183 5.45205634,6.00392113 5.22591549,5.80335775 C5.8395493,5.83265352 6.0875493,5.98059718 6.13723944,6.06634366 Z M4.31312676,5.44009014 C4.10332394,5.46025915 3.78377465,5.50183662 3.42726761,5.58623099 C3.56552113,5.31017465 3.69352113,5.0304 3.8004507,4.77113239 C3.83752113,4.81755493 3.87549296,4.8652169 3.91402817,4.91400563 C4.04304225,5.07659718 4.18794366,5.25935775 4.33814085,5.43783662 L4.31312676,5.44009014 Z M3.60878873,2.92054085 C3.63752113,2.83254085 3.67312676,2.7927662 3.69532394,2.78532958 C3.69588732,2.7852169 3.69633803,2.78499155 3.69678873,2.78487887 C3.71819718,2.80899155 3.80923944,2.94679437 3.7684507,3.50949859 C3.76135211,3.60763944 3.73746479,3.73169577 3.69723944,3.87907606 C3.5656338,3.54014648 3.52946479,3.1635831 3.60878873,2.92054085 Z M1.98095775,7.06645634 C1.91932394,7.10668169 1.856,7.13068169 1.81138028,7.13068169 C1.80292958,7.13068169 1.7971831,7.12978028 1.79391549,7.12899155 C1.78614085,7.08966761 1.81408451,6.91963944 2.08957746,6.65045634 C2.21892958,6.5240338 2.38253521,6.40865352 2.57622535,6.30656901 C2.33183099,6.69980845 2.11188732,6.98093521 1.98095775,7.06645634 Z M4.83301408,5.40651268 C4.62107042,5.17023099 4.41171831,4.90623099 4.22321127,4.66870986 C4.13430986,4.55648451 4.04923944,4.44944225 3.96969014,4.35220282 L3.96383099,4.34510423 C4.08033803,4.01327324 4.14692958,3.74172394 4.16180282,3.53778028 C4.1995493,3.01823099 4.14152113,2.6835831 3.98456338,2.51490704 C3.87853521,2.4007662 3.71932394,2.36099155 3.56957746,2.41135775 C3.46230986,2.44730141 3.31707042,2.54363944 3.23402817,2.79806197 C3.11030986,3.17732958 3.17025352,3.84899155 3.52202817,4.40448451 C3.36507042,4.81552676 3.14625352,5.28786479 2.90456338,5.73755493 C2.44428169,5.89890704 2.07740845,6.11107606 1.81408451,6.36842817 C1.47008451,6.70420282 1.33025352,7.03749859 1.43030986,7.28268169 C1.49194366,7.43456901 1.63447887,7.52516056 1.81149296,7.52516056 C1.93476056,7.52516056 2.06805634,7.48065352 2.19707042,7.39659718 C2.5228169,7.18363944 2.94816901,6.47411831 3.17633803,6.06296338 C3.64833803,5.9155831 4.1143662,5.85530141 4.35121127,5.83242817 C4.4583662,5.82206197 4.56473239,5.81383662 4.66715493,5.80809014 C5.08169014,6.24583662 5.42073239,6.47670986 5.73307042,6.53428732 C5.79594366,6.54600563 5.8588169,6.55186479 5.92022535,6.55186479 C6.17476056,6.55186479 6.38512676,6.45034366 6.48326761,6.28031549 C6.55729577,6.15186479 6.55583099,6.00200563 6.47909859,5.86904789 C6.30580282,5.56899155 5.78276056,5.40380845 5.00630986,5.40380845 C4.95042254,5.40392113 4.89273239,5.40470986 4.83301408,5.40651268 Z" id="Fill-1" fill="#4F5C69"></path>
            <g id="Group-5">
                <mask id="mask-2" fill="white">
                    <use xlink:href="#path-1"></use>
                </mask>
                <g id="Clip-4"></g>
                <path d="M7.36940845,9.5739493 L0.566704225,9.5739493 L0.566704225,0.566850704 L5.10180282,0.566850704 L5.10180282,2.26747042 C5.10180282,2.58059718 5.35532394,2.83434366 5.66856338,2.83434366 L7.36929577,2.83434366 L7.36929577,9.5739493 L7.36940845,9.5739493 Z M5.66867606,0.801442254 L7.13470423,2.26747042 L5.66867606,2.26747042 L5.66867606,0.801442254 Z M5.66867606,-2.25352113e-05 L0.566704225,-2.25352113e-05 C0.254140845,-2.25352113e-05 5.63380282e-05,0.253385915 5.63380282e-05,0.566850704 L5.63380282e-05,9.5739493 C5.63380282e-05,9.88707606 0.254140845,10.1408225 0.566704225,10.1408225 L7.36929577,10.1408225 C7.68264789,10.1408225 7.93605634,9.88707606 7.93605634,9.5739493 L7.93605634,2.26747042 L5.66867606,-2.25352113e-05 Z" id="Fill-3" fill="#4F5C69" mask="url(#mask-2)"></path>
            </g>
        </g>
    </g>
</svg>