<?xml version="1.0" encoding="UTF-8"?>
<svg width="24px" height="24px" viewBox="0 0 24 24" version="1.1" xmlns="http://www.w3.org/2000/svg" xmlns:xlink="http://www.w3.org/1999/xlink">
    <!-- Generator: Sketch 50.2 (55047) - http://www.bohemiancoding.com/sketch -->
    <title>icono/zoom</title>
    <desc>Created with Sketch.</desc>
    <defs></defs>
    <g id="icono/zoom" stroke="none" stroke-width="1" fill="none" fill-rule="evenodd">
        <g id="icono_brands"></g>
        <g id="Group-13" fill="#FFFFFF" fill-rule="nonzero">
            <path d="M13.3779904,9.55980861 L11.1674641,9.55980861 L11.1674641,7.3492823 C11.1674641,6.90534049 10.8075782,6.54545455 10.3636364,6.54545455 C9.91969456,6.54545455 9.55980861,6.90534049 9.55980861,7.3492823 L9.55980861,9.55980861 L7.3492823,9.55980861 C6.90534049,9.55980861 6.54545455,9.91969456 6.54545455,10.3636364 C6.54545455,10.8075782 6.90534049,11.1674641 7.3492823,11.1674641 L9.55980861,11.1674641 L9.55980861,13.3779904 C9.55980861,13.8219322 9.91969456,14.1818182 10.3636364,14.1818182 C10.8075782,14.1818182 11.1674641,13.8219322 11.1674641,13.3779904 L11.1674641,11.1674641 L13.3779904,11.1674641 C13.8219322,11.1674641 14.1818182,10.8075782 14.1818182,10.3636364 C14.1818182,9.91969456 13.8219322,9.55980861 13.3779904,9.55980861 Z" id="Shape"></path>
            <path d="M23.7736895,22.6810504 L17.6618607,16.5692217 C21.1708808,12.4731259 20.8158876,6.33625082 16.8579681,2.67208706 C12.9000486,-0.992076703 6.75405478,-0.873687082 2.94018385,2.94018385 C-0.873687082,6.75405478 -0.992076703,12.9000486 2.67208706,16.8579681 C6.33625082,20.8158876 12.4731259,21.1708808 16.5692217,17.6618607 L22.6810504,23.7736895 C22.8762316,23.9688706 23.1607143,24.0450975 23.4273368,23.9736563 C23.6939592,23.902215 23.902215,23.6939592 23.9736563,23.4273368 C24.0450975,23.1607143 23.9688706,22.8762316 23.7736895,22.6810504 Z M1.55026147,10.0442749 C1.55026147,5.35316084 5.35316084,1.55026147 10.0442749,1.55026147 C14.7353891,1.55026147 18.5382884,5.35316084 18.5382884,10.0442749 C18.5382884,14.7353891 14.7353891,18.5382884 10.0442749,18.5382884 C7.79152251,18.5382884 5.63103695,17.643386 4.03810042,16.0504495 C2.44516389,14.4575129 1.55026147,12.2970274 1.55026147,10.0442749 Z" id="Shape"></path>
        </g>
    </g>
</svg>