<?xml version="1.0" encoding="UTF-8"?>
<svg width="12px" height="12px" viewBox="0 0 12 12" version="1.1" xmlns="http://www.w3.org/2000/svg" xmlns:xlink="http://www.w3.org/1999/xlink">
    <!-- Generator: Sketch 49.1 (51147) - http://www.bohemiancoding.com/sketch -->
    <title>icon_print</title>
    <desc>Created with Sketch.</desc>
    <defs></defs>
    <g id="icon_print" stroke="none" stroke-width="1" fill="none" fill-rule="evenodd">
        <g id="Group-15-Copy" fill="#4F5C69" fill-rule="nonzero">
            <g id="Group">
                <path d="M11.76,3.33866667 L10.022,3.33866667 L10.022,0.689333333 C10.022,0.566 9.922,0.466 9.8,0.466 L2.2,0.466 C2.07666667,0.466 1.97733333,0.566 1.97733333,0.689333333 L1.97733333,3.33933333 L0.24,3.33933333 C0.116666667,3.33933333 0.0173333333,3.43933333 0.0173333333,3.56266667 L0.0173333333,9.34133333 C0.0173333333,9.46466667 0.117333333,9.564 0.24,9.564 L1.97666667,9.564 L1.97666667,11.312 C1.97666667,11.4353333 2.07666667,11.5346667 2.19933333,11.5346667 L9.8,11.5346667 C9.92266667,11.5346667 10.022,11.4353333 10.022,11.312 L10.022,9.564 L11.76,9.564 C11.8826667,9.564 11.9826667,9.46466667 11.9826667,9.34133333 L11.9826667,3.562 C11.9826667,3.43933333 11.8826667,3.33866667 11.76,3.33866667 Z M9.57666667,7.36933333 L9.57666667,11.0886667 L2.42266667,11.0886667 L2.42266667,7.36933333 L9.57666667,7.36933333 Z M2.42266667,3.33866667 L2.42266667,0.911333333 L9.576,0.911333333 L9.576,3.33933333 L2.42266667,3.33933333 L2.42266667,3.33866667 Z M9.8,6.924 L2.2,6.924 C2.07666667,6.924 1.97733333,7.02333333 1.97733333,7.14666667 L1.97733333,9.118 L0.462666667,9.118 L0.462666667,3.784 L11.5366667,3.784 L11.5366667,9.118 L10.022,9.118 L10.022,7.14666667 C10.022,7.024 9.922,6.924 9.8,6.924 Z" id="Shape"></path>
                <path d="M11.0026667,5.16866667 L11.0026667,4.42333333 C11.0026667,4.3 10.9026667,4.20066667 10.7793333,4.20066667 L9.39533333,4.20066667 C9.272,4.20066667 9.17266667,4.3 9.17266667,4.42333333 L9.17266667,5.16866667 C9.17266667,5.29133333 9.27266667,5.39 9.39533333,5.39 L10.7793333,5.39 C10.9026667,5.39 11.0026667,5.29133333 11.0026667,5.16866667 Z M9.61733333,4.94466667 L9.61733333,4.646 L10.5566667,4.646 L10.5566667,4.94466667 L9.61733333,4.94466667 Z" id="Shape"></path>
            </g>
        </g>
    </g>
</svg>