<?xml version="1.0" encoding="UTF-8"?>
<svg width="23px" height="23px" viewBox="0 0 23 23" version="1.1" xmlns="http://www.w3.org/2000/svg" xmlns:xlink="http://www.w3.org/1999/xlink">
    <!-- Generator: Sketch 49.1 (51147) - http://www.bohemiancoding.com/sketch -->
    <title>icono_link</title>
    <desc>Created with Sketch.</desc>
    <defs></defs>
    <g id="icono_link" stroke="none" stroke-width="1" fill="none" fill-rule="evenodd">
        <g id="Group-Copy-11" transform="translate(11.500000, 11.500000) rotate(45.000000) translate(-11.500000, -11.500000) translate(4.000000, 4.000000)" fill="#4F5C69" fill-rule="nonzero">
            <g id="Group-10">
                <path d="M3.75,5.96875 C3.875,5.84375 3.875,5.65625 3.75,5.53125 C3.625,5.40625 3.4375,5.40625 3.3125,5.53125 L1.53125,7.3125 C0.71875,8.125 0.25,9.25 0.25,10.40625 C0.25,11.5625 0.71875,12.6875 1.53125,13.5 C2.375,14.34375 3.5,14.78125 4.625,14.78125 C5.75,14.78125 6.875,14.34375 7.71875,13.5 L9.5,11.71875 C9.625,11.59375 9.625,11.40625 9.5,11.28125 C9.375,11.15625 9.1875,11.15625 9.0625,11.28125 L7.28125,13.0625 C5.8125,14.53125 3.4375,14.53125 1.96875,13.0625 C1.25,12.34375 0.875,11.40625 0.875,10.40625 C0.875,9.40625 1.25,8.46875 1.96875,7.75 L3.75,5.96875 Z" id="Shape"></path>
                <path d="M11.25,9.0625 C11.125,9.1875 11.125,9.375 11.25,9.5 C11.3125,9.5625 11.40625,9.59375 11.46875,9.59375 C11.53125,9.59375 11.625,9.5625 11.6875,9.5 L13.46875,7.71875 C14.28125,6.90625 14.75,5.78125 14.75,4.625 C14.75,3.46875 14.28125,2.34375 13.46875,1.53125 C11.75,-0.1875 9,-0.1875 7.28125,1.53125 L5.5,3.3125 C5.375,3.4375 5.375,3.625 5.5,3.75 C5.625,3.875 5.8125,3.875 5.9375,3.75 L7.71875,1.96875 C9.1875,0.5 11.5625,0.5 13.03125,1.96875 C13.75,2.6875 14.125,3.625 14.125,4.625 C14.125,5.625 13.75,6.5625 13.03125,7.28125 L11.25,9.0625 Z" id="Shape"></path>
                <path d="M10.375,4.625 C10.25,4.5 10.0625,4.5 9.9375,4.625 L4.625,9.9375 C4.5,10.0625 4.5,10.25 4.625,10.375 C4.6875,10.4375 4.78125,10.46875 4.84375,10.46875 C4.90625,10.46875 5,10.4375 5.0625,10.375 L10.375,5.0625 C10.5,4.9375 10.5,4.75 10.375,4.625 Z" id="Shape"></path>
            </g>
        </g>
    </g>
</svg>