<?xml version="1.0" encoding="UTF-8"?>
<svg width="12px" height="12px" viewBox="0 0 12 12" version="1.1" xmlns="http://www.w3.org/2000/svg" xmlns:xlink="http://www.w3.org/1999/xlink">
    <!-- Generator: Sketch 49.1 (51147) - http://www.bohemiancoding.com/sketch -->
    <title>icon_descargar_cvs</title>
    <desc>Created with Sketch.</desc>
    <defs></defs>
    <g id="icon_descargar_cvs" stroke="none" stroke-width="1" fill="none" fill-rule="evenodd">
        <path d="M10.5950413,10.7190083 C10.5950413,10.8842975 10.4628099,11 10.2975207,11 L2.28099174,11 C2.11570248,11 2,10.8677686 2,10.7190083 C2,10.553719 2.1322314,10.4380165 2.28099174,10.4380165 L10.2975207,10.4380165 C10.4628099,10.4380165 10.5950413,10.553719 10.5950413,10.7190083 Z M6.09917355,8.81818182 C6.14876033,8.8677686 6.23140496,8.90082645 6.29752066,8.90082645 C6.36363636,8.90082645 6.44628099,8.8677686 6.49586777,8.81818182 L8.7107438,6.60330579 C8.82644628,6.48760331 8.82644628,6.30578512 8.7107438,6.19008264 C8.59504132,6.07438017 8.41322314,6.07438017 8.29752066,6.19008264 L6.5785124,7.90909091 L6.5785124,1.28099174 C6.5785124,1.11570248 6.44628099,1 6.28099174,1 C6.11570248,1 6,1.1322314 6,1.28099174 L6,7.90909091 L4.28099174,6.19008264 C4.16528926,6.07438017 3.98347107,6.07438017 3.8677686,6.19008264 C3.75206612,6.30578512 3.75206612,6.48760331 3.8677686,6.60330579 L6.09917355,8.81818182 Z" id="Shape" fill="#4F5C69" fill-rule="nonzero"></path>
    </g>
</svg>