<?xml version="1.0" encoding="UTF-8"?>
<svg width="12px" height="12px" viewBox="0 0 12 12" version="1.1" xmlns="http://www.w3.org/2000/svg" xmlns:xlink="http://www.w3.org/1999/xlink">
    
    <g id="icon_informacion" stroke="none" stroke-width="1" fill="none" fill-rule="evenodd">
        <g id="noun_926218_cc">
            <circle  cx="6" cy="6" r="5" id="circle"></circle>
            <path id="circle-outer" d="M6.00180972,0 C4.39854597,0 2.89156403,0.623601802 1.75867542,1.75675839 C0.625278962,2.88991497 0,4.39704899 0,5.99998369 C0,7.60290769 0.62379864,9.11004171 1.75768133,10.2431767 C2.89006209,11.3763334 4.39750866,12 6.00077241,12 C7.60415459,11.9997839 9.11073242,11.3755772 10.2448636,10.2421396 C12.5850455,7.90299277 12.5850455,4.09643457 10.2448636,1.75675839 C9.11250448,0.624109542 7.60456519,0 6.00180972,0 Z M9.52424983,2.47721967 C11.4664198,4.41948677 11.4664198,7.57947604 9.52424983,9.52172153 C8.58248472,10.4627796 7.33034923,10.9809336 5.99973511,10.9809336 C4.66910975,10.9809336 3.41803318,10.4632657 2.47727944,9.5227154 C1.53703786,8.58216508 1.01824477,7.33082393 1.01824477,5.99998369 C1.01824477,4.66913264 1.53648679,3.41827774 2.47826271,2.47721967 C3.41901646,1.53717709 4.67016867,1.01900153 6.00077241,1.01900153 C7.33293168,1.01900153 8.58400826,1.53717709 9.52424983,2.47721967 Z M5.93450374,7.76036107 C5.77192775,7.76036107 5.63583546,7.81434354 5.5242279,7.92338879 C5.41263114,8.03241242 5.35709166,8.16593721 5.35709166,8.32539994 C5.35709166,8.5052803 5.41467334,8.64487636 5.53035448,8.74474987 C5.64500913,8.84460178 5.78008572,8.89453314 5.93450374,8.89453314 C6.08279517,8.89453314 6.21479226,8.84356469 6.32844202,8.7426649 C6.44209177,8.64179751 6.49862491,8.50270919 6.49862491,8.32539994 C6.49862491,8.16593721 6.44511725,8.03190468 6.33655677,7.92338879 C6.22700221,7.81434354 6.09401103,7.76036107 5.93450374,7.76036107 Z"  fill="#4F5C69" fill-rule="nonzero"></path>
            <path id="symbol-question" d="M4.98963708,3.39587236 C4.69406991,3.5579062 4.46929883,3.76171515 4.31488082,4.00832549 C4.16048441,4.25493583 4.08303229,4.49845652 4.08303229,4.73843373 C4.08303229,4.85459813 4.13092121,4.9626279 4.22825502,5.06247981 C4.32557803,5.16235332 4.44539759,5.21226307 4.58656835,5.21226307 C4.82659646,5.21226307 4.98963708,5.06962057 5.07627368,4.78377382 C5.16647601,4.51067469 5.27809438,4.3038085 5.40956245,4.1637047 C5.54105169,4.0236009 5.74591948,3.95328433 6.02365796,3.95328433 C6.26165469,3.95328433 6.45582526,4.02307156 6.60614808,4.16167374 C6.75650332,4.30076206 6.83193486,4.47143828 6.83193486,4.6737023 C6.83193486,4.77714079 6.80746094,4.87342772 6.75751901,4.96159081 C6.70910063,5.05022923 6.64845069,5.13023607 6.57556919,5.2025836 C6.50371419,5.2744234 6.38701735,5.38143768 6.22497082,5.5230755 C6.0409896,5.6846016 5.89371387,5.82421926 5.785175,5.94192849 C5.67661452,6.05961612 5.58898384,6.19563639 5.52323381,6.35154494 C5.45749459,6.5074535 5.42484109,6.69084482 5.42484109,6.90332856 C5.42484109,7.0729893 5.46970454,7.200378 5.55939903,7.28649932 C5.64857487,7.37260985 5.76016082,7.41540043 5.89165006,7.41540043 C6.14441758,7.41540043 6.29477282,7.28391741 6.34268335,7.02101618 C6.37072301,6.89720327 6.39163119,6.81061742 6.40538629,6.761183 C6.41914139,6.71175938 6.43900147,6.66234657 6.46398324,6.61292295 C6.48894339,6.56349934 6.52818811,6.50947365 6.57966438,6.44985203 C6.63114065,6.39025201 6.70094265,6.32148026 6.78657436,6.24302905 C7.09742017,5.9648308 7.31352543,5.76713634 7.43380962,5.64944872 C7.5530457,5.53224723 7.65647367,5.39262956 7.74412597,5.23059572 C7.83178907,5.06909123 7.87459952,4.88056849 7.87459952,4.66554605 C7.87459952,4.39296546 7.79920039,4.14025144 7.64579807,3.90739329 C7.4929036,3.67455674 7.27578265,3.49061446 6.99500789,3.35558806 C6.71521641,3.22057247 6.39112335,3.15283781 6.02469527,3.15283781 C5.63076779,3.15283781 5.28523666,3.23384933 4.98963708,3.39587236 Z" fill="#4F5C69"></path>
            <path  id="symbol-question-dot" d="M5.93450374,7.76036107 C5.77192775,7.76036107 5.63583546,7.81434354 5.5242279,7.92338879 C5.41263114,8.03241242 5.35709166,8.16593721 5.35709166,8.32539994 C5.35709166,8.5052803 5.41467334,8.64487636 5.53035448,8.74474987 C5.64500913,8.84460178 5.78008572,8.89453314 5.93450374,8.89453314 C6.08279517,8.89453314 6.21479226,8.84356469 6.32844202,8.7426649 C6.44209177,8.64179751 6.49862491,8.50270919 6.49862491,8.32539994 C6.49862491,8.16593721 6.44511725,8.03190468 6.33655677,7.92338879 C6.22700221,7.81434354 6.09401103,7.76036107 5.93450374,7.76036107 Z" id="Path" fill="#4F5C69"></path>
        </g>
    </g>
</svg>