<?xml version="1.0" encoding="UTF-8"?>
<svg width="10px" height="9px" viewBox="0 0 10 9" version="1.1" xmlns="http://www.w3.org/2000/svg" xmlns:xlink="http://www.w3.org/1999/xlink">
    <!-- Generator: Sketch 43.1 (39012) - http://www.bohemiancoding.com/sketch -->
    <title>ic_local_see_24px copy</title>
    <desc>Created with Sketch.</desc>
    <defs></defs>
    <g id="Page-1" stroke="none" stroke-width="1" fill="none" fill-rule="evenodd">
        <g id="Menu-administrador" transform="translate(-1303.000000, -122.000000)">
            <g id="Group-14" transform="translate(1190.000000, 52.000000)">
                <g id="ic_local_see_24px-copy" transform="translate(113.000000, 70.000000)">
                    <g id="Group">
                        <polygon id="Shape" points="0 0 10 0 10 10 0 10"></polygon>
                        <circle id="Oval" fill="#FFFFFF" cx="5" cy="5" r="1.33333333"></circle>
                        <path d="M3.75,0.833333333 L2.9875,1.66666667 L1.66666667,1.66666667 C1.20833333,1.66666667 0.833333333,2.04166667 0.833333333,2.5 L0.833333333,7.5 C0.833333333,7.95833333 1.20833333,8.33333333 1.66666667,8.33333333 L8.33333333,8.33333333 C8.79166667,8.33333333 9.16666667,7.95833333 9.16666667,7.5 L9.16666667,2.5 C9.16666667,2.04166667 8.79166667,1.66666667 8.33333333,1.66666667 L7.0125,1.66666667 L6.25,0.833333333 L3.75,0.833333333 L3.75,0.833333333 Z M5,7.08333333 C3.85,7.08333333 2.91666667,6.15 2.91666667,5 C2.91666667,3.85 3.85,2.91666667 5,2.91666667 C6.15,2.91666667 7.08333333,3.85 7.08333333,5 C7.08333333,6.15 6.15,7.08333333 5,7.08333333 L5,7.08333333 Z" id="Shape" fill="#FFFFFF"></path>
                    </g>
                </g>
            </g>
        </g>
    </g>
</svg>