<?xml version="1.0" encoding="UTF-8"?>
<svg width="19px" height="19px" viewBox="0 0 19 19" version="1.1" xmlns="http://www.w3.org/2000/svg" xmlns:xlink="http://www.w3.org/1999/xlink">
    <!-- Generator: Sketch 43.1 (39012) - http://www.bohemiancoding.com/sketch -->
    <title>Group Copy</title>
    <desc>Created with Sketch.</desc>
    <defs></defs>
    <g id="Page-1" stroke="none" stroke-width="1" fill="none" fill-rule="evenodd">
        <g id="proyectos_02A" transform="translate(-1401.000000, -118.000000)" fill-rule="nonzero" fill="#505C6A">
            <g id="ico-search" transform="translate(1401.000000, 118.000000)">
                <path d="M7.99953825,0.0912988 C3.728238,0.0912988 0.24953825,3.61634853 0.24953825,7.94463213 C0.24953825,12.27286 3.72821325,15.797968 7.99953825,15.797968 C9.866063,15.797968 11.581763,15.1200733 12.921413,14.000872 L17.468288,18.6163013 C17.761138,18.913056 18.2379118,18.9130813 18.5307868,18.6163013 C18.8236868,18.3195213 18.8236868,17.8364147 18.5307868,17.5396347 L13.9760883,12.9321347 C15.0805633,11.5745973 15.7495383,9.83604667 15.7495383,7.94463213 C15.7495383,3.616346 12.270813,0.0912988 7.99953825,0.0912988 Z M7.99953825,1.6112988 C11.460163,1.6112988 14.249538,4.43782493 14.249538,7.94463213 C14.249538,11.451376 11.460138,14.277968 7.999538,14.277968 C4.538913,14.277968 1.749538,11.451376 1.749538,7.94463213 C1.749538,4.4378224 4.538888,1.6112988 7.999538,1.6112988 L7.99953825,1.6112988 Z" id="Shape"></path>
            </g>
        </g>
    </g>
</svg>