<?xml version="1.0" encoding="UTF-8"?>
<svg width="12px" height="12px" viewBox="0 0 12 12" version="1.1" xmlns="http://www.w3.org/2000/svg" xmlns:xlink="http://www.w3.org/1999/xlink">
    <!-- Generator: Sketch 50.2 (55047) - http://www.bohemiancoding.com/sketch -->
    <title>Shape</title>
    <desc>Created with Sketch.</desc>
    <defs></defs>
    <g id="Tabla_de_privilegios" stroke="none" stroke-width="1" fill="none" fill-rule="evenodd">
        <g id="table_03" transform="translate(-830.000000, -257.000000)" fill="#A2B1FF" fill-rule="nonzero">
            <g id="Group-3" transform="translate(479.000000, 0.000000)">
                <g id="Group-2" transform="translate(29.000000, 0.000000)">
                    <g id="Group" transform="translate(1.000000, 151.000000)">
                        <path d="M331.242587,107.757413 C328.899369,105.414196 325.100631,105.414196 322.757413,107.757413 C320.414196,110.100631 320.414196,113.899369 322.757413,116.242587 C325.100631,118.585804 328.899369,118.585804 331.242587,116.242587 C333.585804,113.899369 333.585804,110.100631 331.242587,107.757413 Z M329.940119,110.908743 C329.806964,111.041898 329.672279,111.176583 329.539124,111.309738 C328.954467,111.894394 328.371341,112.477521 327.786685,113.062177 C327.419361,113.42797 327.053568,113.795294 326.687775,114.161087 C326.453606,114.395255 326.055672,114.395255 325.821504,114.161087 C325.74957,114.089152 325.677635,114.017218 325.607232,113.945284 C325.100631,113.437153 324.594031,112.930553 324.087431,112.422422 C323.845609,112.180601 323.862445,111.801033 324.087431,111.556151 C324.310886,111.312799 324.727186,111.329635 324.953702,111.556151 C325.025636,111.628085 325.09757,111.700019 325.167974,111.771953 C325.530706,112.134685 325.893438,112.498948 326.254639,112.86168 C326.828582,112.287737 327.400995,111.715324 327.974938,111.141381 L329.073847,110.042472 C329.315669,109.80065 329.695236,109.817486 329.940119,110.042472 C330.18347,110.267457 330.166635,110.682227 329.940119,110.908743 Z" id="Shape"></path>
                    </g>
                </g>
            </g>
        </g>
    </g>
</svg>