<?xml version="1.0" encoding="UTF-8"?>
<svg width="24px" height="24px" viewBox="0 0 24 24" version="1.1" xmlns="http://www.w3.org/2000/svg" xmlns:xlink="http://www.w3.org/1999/xlink">
    <!-- Generator: Sketch 51.3 (57544) - http://www.bohemiancoding.com/sketch -->
    <title>icon_commenst_brief</title>
    <desc>Created with Sketch.</desc>
    <defs></defs>
    <g id="Observaciones_04" stroke="none" stroke-width="1" fill="none" fill-rule="evenodd">
        <g id="03_devoluciones" transform="translate(-1040.000000, -839.000000)" fill="#4F5C69">
            <g id="icon_commenst_brief" transform="translate(1040.000000, 839.000000)">
                <g id="noun_1155301_cc">
                    <path d="M23.7024054,14.7525925 L23.7024054,3.47368421 C23.7024054,1.5552214 22.4447786,0 20.5263158,0 L3.47368421,0 C1.5552214,0 0,1.5552214 0,3.47368421 L0,14.8421053 C-1.12190958e-15,15.7633836 0.750104632,18.2632833 3.47368421,18.2632833 L8.73214286,18.2632833 C8.73214286,18.2632833 11.7589286,23.4642857 12,23.4642857 C12.2410714,23.4642857 15.5089286,18.2632833 15.5089286,18.2632833 L20.5263158,18.2632833 C23.0356097,18.2632833 23.7024054,17.0669269 23.7024054,14.7525925 Z M14.6005777,16.2406622 C13.7617675,17.7117219 12.0019739,20.8466529 12.0019739,20.8466529 L10.1096406,16.4726683 C10.051982,16.4157429 9.97415916,16.3836508 9.8929496,16.3833104 L4.27246101,16.3691816 C2.73378059,16.3691816 1.82765416,16.4726683 1.82765416,14.7244676 L1.82765416,4.252824 C1.82765416,2.61801164 2.87342639,1.68023189 4.46739813,1.68023189 L19.7015405,1.68023189 C21.0668126,1.59574086 22.0239781,2.92680953 22.0239781,4.23628197 L22.0239781,14.7244676 C22.0239781,16.2406622 21.7564053,16.1531013 19.9212624,16.1531013 C19.9212624,16.1531013 14.6442284,16.1641099 14.6005777,16.2406622 Z" id="Shape" fill-rule="nonzero"></path>
                    <rect id="Rectangle-Copy" x="6.85714286" y="10.2857143" width="6.85714286" height="1.71428571" rx="0.857142857"></rect>
                    <rect id="Rectangle-Copy-2" x="6.85714286" y="6.85714286" width="8.57142857" height="1.71428571" rx="0.857142857"></rect>
                </g>
            </g>
        </g>
    </g>
</svg>