<?xml version="1.0" encoding="UTF-8"?>
<svg width="35px" height="35px" viewBox="0 0 35 35" version="1.1" xmlns="http://www.w3.org/2000/svg" xmlns:xlink="http://www.w3.org/1999/xlink">
    <!-- Generator: Sketch 50.2 (55047) - http://www.bohemiancoding.com/sketch -->
    <title>icono_minuta</title>
    <desc>Created with Sketch.</desc>
    <defs></defs>
    <g id="Page-1" stroke="none" stroke-width="1" fill="none" fill-rule="evenodd">
        <g id="icono_minuta" transform="translate(-2.000000, -2.000000)">
            <g>
                <path d="M3.7574992,35.8464895 L10.2361451,36.9912724" id="Stroke-1-Copy-3" stroke="#D3D3D3" stroke-linecap="round" stroke-linejoin="round" transform="translate(6.996822, 36.418881) rotate(-10.000000) translate(-6.996822, -36.418881) "></path>
                <path d="M35.0543091,33.1550843 L36.3207125,25.9577213" id="Path-11" stroke="#D3D3D3" stroke-linecap="round" stroke-linejoin="round" transform="translate(35.687511, 29.556403) rotate(-10.000000) translate(-35.687511, -29.556403) "></path>
                <path d="M36.5589385,21.4677552 C36.5589385,21.7959465 36.2964295,22.0623047 35.9729809,22.0623047 C35.6495323,22.0623047 35.3870234,21.7959465 35.3870234,21.4677552 C35.3870234,21.1395639 35.6495323,20.8732057 35.9729809,20.8732057 C36.2964295,20.8732057 36.5589385,21.1395639 36.5589385,21.4677552" id="Fill-13" fill="#D3D3D3" fill-rule="nonzero" transform="translate(35.972981, 21.467755) rotate(-10.000000) translate(-35.972981, -21.467755) "></path>
                <path d="M2.85365854,14.5441747 C2.85365854,12.3308442 4.65048929,10.5365854 6.85016168,10.5365854 L29.7908146,10.5365854 C31.9980224,10.5365854 33.7873178,12.3287206 33.7873178,14.5441747 L33.7873178,30.6344762 C33.7873178,32.8478067 31.990487,34.6420655 29.7908146,34.6420655 L6.85016168,34.6420655 C4.64295394,34.6420655 2.85365854,32.8499303 2.85365854,30.6344762 L2.85365854,14.5441747 Z" id="Rectangle-7" fill="#FFFFFF" fill-rule="nonzero"></path>
                <path d="M3.35365854,13.3810729 L3.35365854,32.7496628 C3.35365854,33.5753406 4.0224762,34.2404918 4.85234984,34.2404918 L31.8623746,34.2404918 C32.6906999,34.2404918 33.3610659,33.5726951 33.3610659,32.7496628 L33.3610659,13.3810729 C33.3610659,12.5553951 32.6922483,11.8902439 31.8623746,11.8902439 L4.85234984,11.8902439 C4.02402463,11.8902439 3.35365854,12.5580406 3.35365854,13.3810729 Z" id="Rectangle-8" stroke="#D3D3D3"></path>
                <path d="M10.2019968,5.41463415 L25.0463568,5.41463415 C24.504646,5.82040392 24.1556207,6.4574568 24.1556207,7.17377519 C24.1556207,8.39943508 25.177465,9.39302874 26.4379738,9.39302874 C27.6984826,9.39302874 28.7203269,8.39943508 28.7203269,7.17377519 C28.7203269,6.4574568 28.3713015,5.82040392 27.8295907,5.41463415 L30.106105,5.41463415 C32.5155947,5.41463415 34.4688721,7.37201268 34.4688721,9.77561518 C34.4688721,12.1841185 32.5150576,14.1365962 30.106105,14.1365962 L7.21642557,14.1365962 C4.80693587,14.1365962 2.85365854,12.1792177 2.85365854,9.77561518 C2.85365854,7.36711186 4.807473,5.41463415 7.21642557,5.41463415 L7.67787011,5.41463415 C7.06289177,5.82588455 6.65758035,6.52911964 6.65758035,7.32756635 C6.65758035,8.59534628 7.67942463,9.62308499 8.93993344,9.62308499 C10.2004422,9.62308499 11.2222865,8.59534628 11.2222865,7.32756635 C11.2222865,6.52911964 10.8169751,5.82588455 10.2019968,5.41463415 Z" id="Combined-Shape" fill="#EEEEEF" fill-rule="nonzero"></path>
                <rect id="Rectangle-3" stroke="#D3D3D3" x="2.5" y="5.06097561" width="31.7137276" height="8.18207456" rx="4.09103728"></rect>
                <rect id="Rectangle-6-Copy" stroke="#D3D3D3" fill="#FFFFFF" fill-rule="nonzero" x="25.5487805" y="2.5" width="2.04313745" height="5.50396948" rx="1.02156872"></rect>
                <rect id="Rectangle-6" stroke="#D3D3D3" fill="#FFFFFF" fill-rule="nonzero" x="8.47560976" y="2.5" width="2.04313745" height="5.50396948" rx="1.02156872"></rect>
                <path d="M23.4402423,23.8066297 C23.4402423,26.4736041 21.296388,28.6356057 18.6517994,28.6356057 C16.0072108,28.6356057 13.8633566,26.4736041 13.8633566,23.8066297 C13.8633566,21.1396552 16.0072108,18.9776537 18.6517994,18.9776537 C21.296388,18.9776537 23.4402423,21.1396552 23.4402423,23.8066297" id="Fill-15-Copy" stroke="#D3D3D3" opacity="0.292062953" transform="translate(18.651799, 23.806630) rotate(-10.000000) translate(-18.651799, -23.806630) "></path>
                <path d="M15.6585366,23.4444551 C19.7076156,26.8188382 18.0414836,27.260478 23.7566946,19.0731707" id="Path-10" stroke="#D3D3D3" opacity="0.602807971"></path>
            </g>
        </g>
    </g>
</svg>