<?xml version="1.0" encoding="UTF-8"?>
<svg width="19px" height="14px" viewBox="0 0 19 14" version="1.1" xmlns="http://www.w3.org/2000/svg" xmlns:xlink="http://www.w3.org/1999/xlink">
    <!-- Generator: Sketch 50.2 (55047) - http://www.bohemiancoding.com/sketch -->
    <title>icono_comparar</title>
    <desc>Created with Sketch.</desc>
    <defs></defs>
    <g id="comparar_v3" stroke="none" stroke-width="1" fill="none" fill-rule="evenodd">
        <g id="Artboard" transform="translate(-304.000000, -100.000000)">
            <g id="Group-2">
                <g id="box01" transform="translate(10.000000, 91.000000)">
                    <g id="seleccion">
                        <g id="icono_comparar" transform="translate(294.000000, 9.000000)">
                            <path d="M9.5,13.5403712 C8.72360013,13.8373215 7.88079787,14 7,14 C3.13400675,14 0,10.8659932 0,7 C0,3.13400675 3.13400675,0 7,0 C7.88079787,0 8.72360013,0.162678537 9.5,0.459628821 C10.2763999,0.162678537 11.1192021,0 12,0 C15.8659932,0 19,3.13400675 19,7 C19,10.8659932 15.8659932,14 12,14 C11.1192021,14 10.2763999,13.8373215 9.5,13.5403712 Z" id="Combined-Shape" fill="#A2B1FF" opacity="0.395033482"></path>
                            <g id="Group" fill="#4648C7" fill-rule="nonzero">
                                <path d="M7.676,2.08155556 C7.33466916,2.38629268 7.02617352,2.7259209 6.75555556,3.09488889 C6.61680936,3.28260434 6.65650678,3.54725379 6.84422223,3.68599999 C7.03193768,3.82474619 7.29658713,3.78504878 7.43533333,3.59733333 C7.67134015,3.27609973 7.94020148,2.98035226 8.23755556,2.71488889 C8.35932775,2.61716803 8.41723193,2.46022317 8.38810742,2.30682957 C8.35898291,2.15343598 8.24758448,2.02863623 8.09846962,1.98234812 C7.94935475,1.93606001 7.7868675,1.97584039 7.676,2.08577778 L7.676,2.08155556 Z" id="Shape"></path>
                                <path d="M8.99333333,2.07311111 C9.06729669,2.07362193 9.14009655,2.05469397 9.20444444,2.01822222 C9.54969591,1.82006932 9.91481125,1.65873929 10.2937778,1.53688889 C10.4467188,1.49885939 10.5657498,1.37881767 10.6024847,1.22556056 C10.6392196,1.07230345 10.5875432,0.911344047 10.4684618,0.80811218 C10.3493804,0.704880314 10.1827178,0.676561253 10.0362222,0.734666667 C9.59544594,0.873238225 9.17079694,1.05866829 8.76955556,1.28777778 C8.60226577,1.38257431 8.52015392,1.57842753 8.56982137,1.76418383 C8.61948883,1.94994012 8.78838965,2.07867765 8.98066667,2.07733333 L8.99333333,2.07311111 Z" id="Shape"></path>
                                <path d="M5.48888889,6.96666667 C5.48854919,7.41204618 5.53382241,7.85628962 5.624,8.29244444 C5.66473331,8.49220758 5.8423899,8.63433285 6.04622222,8.63022222 L6.13066667,8.63022222 C6.24041856,8.60784674 6.33678195,8.54277809 6.39854772,8.44933757 C6.46031349,8.35589705 6.48241938,8.24174294 6.46,8.132 C6.37619868,7.73921483 6.33374511,7.33873617 6.33333333,6.93711111 C6.33333333,6.70392422 6.14429801,6.51488889 5.91111111,6.51488889 C5.79381674,6.51460114 5.68168872,6.5631189 5.60159934,6.64881454 C5.52150995,6.73451018 5.48067791,6.84965969 5.48888889,6.96666667 Z" id="Shape"></path>
                                <path d="M6.05044444,6.08844444 C6.25298141,6.09295109 6.43017351,5.95296933 6.47266667,5.75488889 C6.55687326,5.36582044 6.68139769,4.98658693 6.84422222,4.62333333 C6.91744683,4.48438061 6.90748858,4.31626627 6.81837187,4.18692984 C6.72925515,4.0575934 6.57571093,3.98841414 6.41979055,4.00734924 C6.26387017,4.02628435 6.13134722,4.13020386 6.07577778,4.27711111 C5.89036203,4.69479358 5.74886108,5.13061652 5.65355556,5.57755556 C5.62977641,5.68731886 5.65070789,5.80203312 5.71172019,5.89632485 C5.77273248,5.99061658 5.86879747,6.05671503 5.97866667,6.08 L6.05044444,6.08844444 Z" id="Shape"></path>
                                <path d="M17.2477778,4.66977778 C17.4083659,5.03456783 17.5300747,5.41526158 17.6108889,5.80555556 C17.6516222,6.00531869 17.8292788,6.14744396 18.0331111,6.14333333 L18.1175556,6.14333333 C18.2273075,6.12095785 18.3236708,6.0558892 18.3854366,5.96244868 C18.4472024,5.86900816 18.4693083,5.75485405 18.4468889,5.64511111 C18.3524363,5.19657999 18.2109118,4.75926926 18.0246667,4.34044444 C17.930226,4.12707844 17.6806993,4.03067042 17.4673333,4.12511111 C17.2539673,4.2195518 17.1575593,4.46907844 17.252,4.68244444 L17.2477778,4.66977778 Z" id="Shape"></path>
                                <path d="M11.4591111,1.29622222 C11.8549356,1.25511496 12.2539533,1.25511496 12.6497778,1.29622222 L12.6962222,1.29622222 C12.9294091,1.3090475 13.1288414,1.13040911 13.1416667,0.897222222 C13.1544919,0.66403533 12.9758536,0.46460306 12.7426667,0.451777778 C12.2878699,0.404929626 11.8294634,0.404929626 11.3746667,0.451777778 C11.2594311,0.45810625 11.1518085,0.511329371 11.0768326,0.599067086 C11.0018568,0.6868048 10.9660632,0.801409087 10.9777778,0.916222222 C10.9881682,1.03175264 11.0456313,1.13792 11.1366751,1.2097967 C11.2277189,1.2816734 11.3443237,1.31292806 11.4591111,1.29622222 Z" id="Shape"></path>
                                <path d="M16.2893333,3.17933333 C16.4194475,3.32499209 16.5420511,3.47718963 16.6566667,3.63533333 C16.7421824,3.76457244 16.8916257,3.83657837 17.0459927,3.82292153 C17.2003597,3.80926469 17.33484,3.71214006 17.3963375,3.5698947 C17.4578351,3.42764934 17.4364658,3.26314558 17.3406667,3.14133333 C17.214,2.964 17.0704444,2.78666667 16.9184444,2.61777778 C16.7655309,2.44054434 16.6034579,2.27142475 16.4328889,2.11111111 C16.2603306,1.95370997 15.9928456,1.96599727 15.8354445,2.13855557 C15.6780433,2.31111386 15.6903306,2.57859884 15.8628889,2.736 C16.012989,2.87591732 16.1553484,3.02391477 16.2893333,3.17933333 Z" id="Shape"></path>
                                <path d="M13.8151111,1.55377778 C14.1943834,1.67840944 14.5595014,1.84257102 14.9044444,2.04355556 C15.1049368,2.14843628 15.3524671,2.07662557 15.4657016,1.88072988 C15.5789361,1.6848342 15.5176178,1.4344983 15.3266667,1.31311111 C14.9255193,1.08160332 14.5009149,0.893362051 14.06,0.751555556 C13.91491,0.698124995 13.7522195,0.728272416 13.6359075,0.830142185 C13.5195955,0.932011955 13.4682669,1.08930922 13.502107,1.240176 C13.5359471,1.39104277 13.6495429,1.51134676 13.7982222,1.55377778 L13.8151111,1.55377778 Z" id="Shape"></path>
                                <path d="M9.15377778,11.8897778 C8.81053797,11.6888733 8.48930149,11.4525452 8.19533333,11.1846667 C8.01927723,11.0272655 7.74895671,11.0423883 7.59155556,11.2184444 C7.4341544,11.3945005 7.44927723,11.6648211 7.62533333,11.8222222 C7.96311845,12.1304677 8.3324984,12.4021955 8.72733333,12.6328889 C8.92782574,12.7377696 9.17535597,12.6659589 9.28859047,12.4700632 C9.40182497,12.2741675 9.34050665,12.0238316 9.14955556,11.9024444 L9.15377778,11.8897778 Z" id="Shape"></path>
                                <path d="M17.7882222,9.09466667 C17.5760077,8.99953819 17.3268231,9.09392631 17.2308889,9.30577778 C17.0678701,9.66933838 16.8669032,10.0146618 16.6313333,10.336 C16.5307392,10.4567054 16.5054935,10.6232862 16.5658058,10.7683773 C16.626118,10.9134683 16.7620104,11.0130665 16.918528,11.0268942 C17.0750456,11.040722 17.2262951,10.9664917 17.3111111,10.8342222 C17.5813177,10.4653573 17.8119931,10.069105 17.9993333,9.652 C18.0944618,9.43978551 18.0000737,9.19060087 17.7882222,9.09466667 Z" id="Shape"></path>
                                <path d="M11.4,12.6328889 C11.0038405,12.5889683 10.6133059,12.5040695 10.2346667,12.3795556 C10.0895767,12.326125 9.92688619,12.3562724 9.81057417,12.4581422 C9.69426215,12.560012 9.64293357,12.7173092 9.67677366,12.868176 C9.71061376,13.0190428 9.82420955,13.1393468 9.97288889,13.1817778 C10.4064057,13.3245931 10.8535216,13.4222228 11.3071111,13.4731111 L11.3535556,13.4731111 C11.5867424,13.4859364 11.7861747,13.307298 11.799,13.0741111 C11.8118253,12.8409242 11.6331869,12.6414919 11.4,12.6286667 L11.4,12.6328889 Z" id="Shape"></path>
                                <path d="M15.8206667,11.2268889 C15.5233671,11.4919698 15.1993313,11.7254454 14.8537778,11.9235556 C14.6509052,12.040149 14.5809621,12.2991274 14.6975556,12.502 C14.814149,12.7048726 15.0731274,12.7748157 15.276,12.6582222 C15.6776861,12.4280137 16.0541161,12.1563048 16.3991111,11.8475556 L16.1204444,11.5308889 L16.4033333,11.8433333 C16.5714999,11.6861453 16.582768,11.4232218 16.4286667,11.2522222 C16.3525809,11.1662471 16.2447652,11.1149624 16.1300572,11.1101829 C16.0153492,11.1054034 15.9036408,11.1475412 15.8206667,11.2268889 Z" id="Shape"></path>
                                <path d="M18.1555556,6.56977778 C17.9223687,6.56977778 17.7333333,6.75881311 17.7333333,6.992 C17.7323649,7.39080373 17.6899142,7.78842496 17.6066667,8.17844444 C17.5828875,8.28820775 17.603819,8.40292201 17.6648313,8.49721373 C17.7258436,8.59150546 17.8219086,8.65760392 17.9317778,8.68088889 L18.0204444,8.68088889 C18.2229814,8.68539554 18.4001735,8.54541378 18.4426667,8.34733333 C18.5344797,7.90144774 18.5797594,7.44723584 18.5777778,6.992 C18.5777778,6.75881311 18.3887424,6.56977778 18.1555556,6.56977778 Z" id="Shape"></path>
                                <path d="M13.7602222,12.4006667 C13.3812617,12.5214159 12.99068,12.6020795 12.5948889,12.6413333 C12.361702,12.6529927 12.1821184,12.8514798 12.1937778,13.0846667 C12.2054371,13.3178536 12.4039242,13.4974371 12.6371111,13.4857778 L12.6666667,13.4857778 C13.1212008,13.4414612 13.5698153,13.349474 14.0051111,13.2113333 C14.2278046,13.1402113 14.3506776,12.9020268 14.2795556,12.6793333 C14.2084336,12.4566398 13.970249,12.3337669 13.7475556,12.4048889 L13.7602222,12.4006667 Z" id="Shape"></path>
                                <path d="M6.71755556,10.7877778 C6.80307132,10.9170169 6.95251455,10.9890228 7.10688159,10.975366 C7.26124862,10.9617091 7.39572888,10.8645845 7.45722643,10.7223391 C7.51872398,10.5800938 7.49735466,10.41559 7.40155556,10.2937778 C7.16866069,9.97072795 6.97052537,9.62399113 6.81044444,9.25933333 C6.70978885,9.05861401 6.46963954,8.97178911 6.26389654,9.0617314 C6.05815355,9.15167369 5.95879855,9.38691578 6.03777778,9.59711111 C6.22200106,10.0167342 6.44984691,10.4158183 6.71755556,10.7877778 Z" id="Shape"></path>
                                <path d="M7.13555556,12.6371111 C6.93915139,12.6570359 6.74185655,12.6669007 6.54444444,12.6666667 C4.39133923,12.6642935 2.42331284,11.4488928 1.45700922,9.52480211 C0.490705597,7.60071141 0.691049494,5.29632667 1.97490705,3.56786565 C3.25876461,1.83940464 5.40701226,0.981874032 7.52822222,1.35111111 C7.67906769,1.37675484 7.83213542,1.31997552 7.92976628,1.20216138 C8.02739714,1.08434723 8.05475867,0.923397032 8.00154406,0.779939157 C7.94832945,0.636481282 7.82262325,0.532310397 7.67177778,0.506666667 C5.24964288,0.114992054 2.81190622,1.11104431 1.3571062,3.08682349 C-0.0976938186,5.06260267 -0.325123965,7.68614144 0.767975017,9.88279368 C1.861074,12.0794459 4.09104133,13.4801336 6.54444444,13.5111111 C6.7714647,13.5114478 6.99835363,13.5001738 7.22422222,13.4773333 C7.37506769,13.4614946 7.50600477,13.3663838 7.56771073,13.2278284 C7.62941668,13.089273 7.61251691,12.9283228 7.52337739,12.8056062 C7.43423788,12.6828896 7.28640103,12.6170501 7.13555556,12.6328889 L7.13555556,12.6371111 Z" id="Shape"></path>
                                <path d="M10.6695556,3.03577778 C11.7123813,4.13080058 12.2773604,5.59532034 12.2401426,7.10699996 C12.2029247,8.61867957 11.5665601,10.053622 10.4711111,11.096 C10.3020506,11.256899 10.2954344,11.5243839 10.4563333,11.6934444 C10.6172323,11.8625049 10.8847173,11.8691212 11.0537778,11.7082222 C12.3117743,10.5114105 13.0425962,8.86373031 13.0853583,7.12790633 C13.1281204,5.39208235 12.4793171,3.71041501 11.2817778,2.45311111 C11.1208788,2.28405061 10.8533938,2.27743438 10.6843333,2.43833333 C10.5152728,2.59923229 10.5086566,2.86671728 10.6695556,3.03577778 Z" id="Shape"></path>
                                <path d="M8.53311111,5.36644444 L10.0108889,3.88866667 C10.1543502,3.72114566 10.1447047,3.47142913 9.98874892,3.31547331 C9.83279309,3.15951749 9.58307656,3.14987202 9.41555556,3.29333333 L7.93777778,4.77111111 C7.81728562,4.87429795 7.76480096,5.03631666 7.80190239,5.19055468 C7.83900382,5.3447927 7.95942952,5.4652184 8.11366754,5.50231983 C8.26790557,5.53942127 8.42992427,5.4869366 8.53311111,5.36644444 Z" id="Shape"></path>
                                <path d="M10.8553333,8.21644444 C10.6906509,8.05273893 10.4246825,8.05273893 10.26,8.21644444 L8.778,9.71111111 C8.65750784,9.81429795 8.60502318,9.97631666 8.64212461,10.1305547 C8.67922604,10.2847927 8.79965175,10.4052184 8.95388977,10.4423198 C9.10812779,10.4794213 9.27014649,10.4269366 9.37333333,10.3064444 L10.8511111,8.82866667 C10.9355721,8.74953382 10.9838457,8.63919879 10.9846439,8.52346191 C10.9854421,8.40772504 10.9386948,8.29673468 10.8553333,8.21644444 Z" id="Shape"></path>
                                <path d="M7.72244444,8.322 C7.88712693,8.48570552 8.1530953,8.48570552 8.31777778,8.322 L10.9777778,5.68311111 C11.087895,5.57299392 11.1309006,5.41249461 11.0905949,5.26207173 C11.0502893,5.11164884 10.9327956,4.99415519 10.7823727,4.9538495 C10.6319498,4.91354381 10.4714505,4.95654947 10.3613333,5.06666667 L7.72244444,7.70555556 C7.63717653,7.78538585 7.58878879,7.89697242 7.58878879,8.01377778 C7.58878879,8.13058314 7.63717653,8.24216971 7.72244444,8.322 Z" id="Shape"></path>
                            </g>
                        </g>
                    </g>
                </g>
            </g>
        </g>
    </g>
</svg>