<?xml version="1.0" encoding="UTF-8"?>
<svg width="35px" height="38px" viewBox="0 0 35 38" version="1.1" xmlns="http://www.w3.org/2000/svg" xmlns:xlink="http://www.w3.org/1999/xlink">
    <!-- Generator: Sketch 50.2 (55047) - http://www.bohemiancoding.com/sketch -->
    <title>icono_minuta</title>
    <desc>Created with Sketch.</desc>
    <defs></defs>
    <g id="Page-1" stroke="none" stroke-width="1" fill="none" fill-rule="evenodd">
        <g id="icono_minuta">
            <path d="M5.63874452,35.514795 L15.7608732,37.2761483" id="Stroke-1-Copy-3" stroke="#D3D3D3" stroke-width="2" stroke-linecap="round" stroke-linejoin="round" transform="translate(10.699809, 36.395472) rotate(-10.000000) translate(-10.699809, -36.395472) "></path>
            <path d="M0.950763963,12.0617553 L2.25663779,4.75308646" id="Path-11" stroke="#D3D3D3" stroke-width="2" stroke-linecap="round" stroke-linejoin="round" transform="translate(1.603701, 8.407421) rotate(-10.000000) translate(-1.603701, -8.407421) "></path>
            <polygon id="Path-2" fill="#F9F9FA" fill-rule="nonzero" points="26.6213922 26.6764805 26.9886062 32.5191454 33.0548334 26.3333333"></polygon>
            <path d="M33.6941488,3.88227225 C33.248913,3.88227225 32.9520891,4.17417897 32.9520891,4.61203905 L32.9520891,25.0823045 L26.2735517,25.0823045 C25.8283159,25.0823045 25.531492,25.3742112 25.531492,25.8120713 L25.531492,32.3799726 L6.23793946,32.3799726 L6.23793946,3.18930041 L32.6607727,3.18930041 C33.1060085,3.18930041 33.4028324,2.89739369 33.4028324,2.45953361 C33.4028324,2.02167353 33.1060085,1.7297668 32.6607727,1.7297668 L5.49587975,1.7297668 C5.05064392,1.7297668 4.75382003,2.02167353 4.75382003,2.45953361 L4.75382003,33.1097394 C4.75382003,33.5475995 5.05064392,33.8395062 5.49587975,33.8395062 L26.2735517,33.8395062 C26.4961696,33.8395062 26.6445816,33.7665295 26.7929935,33.6205761 L34.2135906,26.3229081 C34.3620026,26.1769547 34.4362085,26.0310014 34.4362085,25.8120713 L34.4362085,4.61203905 C34.4362085,4.17417897 34.1393847,3.88227225 33.6941488,3.88227225 Z M31.9132055,26.5418381 L27.0156114,31.358299 L27.0156114,26.5418381 L31.9132055,26.5418381 Z M27.7576711,11.9465021 C27.7576711,12.3843621 27.4608472,12.6762689 27.0156114,12.6762689 L15.142656,12.6762689 C14.6974202,12.6762689 14.4005963,12.3843621 14.4005963,11.9465021 C14.4005963,11.508642 14.6974202,11.2167353 15.142656,11.2167353 L27.0156114,11.2167353 C27.4608472,11.2167353 27.7576711,11.508642 27.7576711,11.9465021 Z M27.7576711,16.3251029 C27.7576711,16.762963 27.4608472,17.0548697 27.0156114,17.0548697 L12.1744172,17.0548697 C11.7291813,17.0548697 11.4323574,16.762963 11.4323574,16.3251029 C11.4323574,15.8872428 11.7291813,15.5953361 12.1744172,15.5953361 L27.0156114,15.5953361 C27.4608472,15.5953361 27.7576711,15.8872428 27.7576711,16.3251029 Z M27.7576711,20.7037037 C27.7576711,21.1415638 27.4608472,21.4334705 27.0156114,21.4334705 L12.1744172,21.4334705 C11.7291813,21.4334705 11.4323574,21.1415638 11.4323574,20.7037037 C11.4323574,20.2658436 11.7291813,19.9739369 12.1744172,19.9739369 L27.0156114,19.9739369 C27.4608472,19.9739369 27.7576711,20.2658436 27.7576711,20.7037037 Z" id="Shape" fill="#D3D3D3" fill-rule="nonzero"></path>
            <circle id="Oval-10" fill="#D3D3D3" fill-rule="nonzero" cx="1.90152801" cy="1.9382716" r="1"></circle>
        </g>
    </g>
</svg>