<?xml version="1.0" encoding="UTF-8"?>
<svg width="15px" height="15px" viewBox="0 0 15 15" version="1.1" xmlns="http://www.w3.org/2000/svg" xmlns:xlink="http://www.w3.org/1999/xlink">
    <!-- Generator: Sketch 50.2 (55047) - http://www.bohemiancoding.com/sketch -->
    <title>icono_papelera</title>
    <desc>Created with Sketch.</desc>
    <defs></defs>
    <g id="icono_papelera" stroke="none" stroke-width="1" fill="none" fill-rule="evenodd">
        <path d="M14.9353782,7.07761736 C14.9193563,7.02207466 14.9364463,6.96279351 14.9028003,6.91205739 L12.2647891,2.94956652 C11.8698485,2.35648799 11.2044043,2 10.4919623,2 L4.5083047,2 C3.79559575,2 3.13041853,2.35622096 2.7354779,2.94956652 L0.0971997223,6.91205739 C0.0635536646,6.96279351 0.0806437256,7.02234169 0.0646217934,7.07788439 L0,7.2338312 L0,10.3533014 C0.000267032204,11.5298453 0.953304969,12.4826162 2.12984886,12.4831503 L12.8701511,12.4831503 C14.046695,12.4826162 14.9994659,11.5298453 15,10.3533014 L15,7.2338312 L14.9353782,7.07761736 Z M3.70240151,3.59338116 C3.88184715,3.32367864 4.18439464,3.16185712 4.5083047,3.16185712 L10.4916953,3.16185712 C10.8156054,3.16185712 11.1181528,3.32394567 11.2975985,3.59338116 L13.3347872,6.65303616 L10.9066633,6.65303616 C10.0999591,6.65303616 9.32316237,7.10084916 8.97975896,7.87871397 C8.73008385,8.44882773 8.16210635,8.84804087 7.50013352,8.84750681 C6.83816068,8.84830791 6.27018318,8.44909476 6.02050807,7.87871397 C5.67710466,7.10084916 4.90057501,6.65330319 4.09360369,6.65303616 L1.66547986,6.65303616 L3.70240151,3.59338116 Z M13.8384099,10.3533014 C13.8373418,10.8876328 13.4047496,11.3204921 12.8704182,11.3212931 L2.12984886,11.3212931 C1.59525039,11.320225 1.16265822,10.8876328 1.16159009,10.3533014 L1.16159009,7.81462624 L4.09360369,7.81462624 C4.47652787,7.81462624 4.82313567,8.03092233 4.95585068,8.34361704 C5.3831022,9.32389226 6.36204226,10.0085628 7.50013352,10.0090969 C8.63795774,10.0085628 9.61716483,9.32389226 10.0444164,8.34361704 C10.1771314,8.03118936 10.5237392,7.81462624 10.9066633,7.81462624 L13.8384099,7.81462624 L13.8384099,10.3533014 Z" id="Shape" fill="#4F5C69" fill-rule="nonzero"></path>
    </g>
</svg>