<?xml version="1.0" encoding="UTF-8"?>
<svg width="12px" height="16px" viewBox="0 0 12 16" version="1.1" xmlns="http://www.w3.org/2000/svg" xmlns:xlink="http://www.w3.org/1999/xlink">
    <!-- Generator: Sketch 50.2 (55047) - http://www.bohemiancoding.com/sketch -->
    <title>noun_781665_cc</title>
    <desc>Created with Sketch.</desc>
    <defs></defs>
    <g id="dashboard_funciones_box" stroke="none" stroke-width="1" fill="none" fill-rule="evenodd" opacity="0.3">
        <g id="Artboard-Copy-4" transform="translate(-213.000000, -140.000000)" fill="#4F5C69" fill-rule="nonzero">
            <g id="Group-2">
                <g id="Group" transform="translate(213.000000, 139.000000)">
                    <g id="noun_781665_cc" transform="translate(0.000000, 1.000000)">
                        <path d="M5.82580645,6.63870968 C5.76774194,6.83225806 5.69032258,7.04516129 5.61290323,7.31612903 C5.4,7.95483871 5.30322581,8.20645161 5.26451613,8.34193548 C5.20645161,8.53548387 5.20645161,8.53548387 5.07096774,8.84516129 L5.0516129,8.88387097 C5.01290323,9 4.95483871,9.11612903 4.89677419,9.23225806 C5.32258065,9.05806452 5.61290323,8.96129032 6.09677419,8.80645161 L6.36774194,8.70967742 C6.56129032,8.6516129 6.73548387,8.59354839 6.87096774,8.53548387 C6.92903226,8.51612903 6.98709677,8.49677419 7.04516129,8.47741935 C6.92903226,8.34193548 6.83225806,8.18709677 6.69677419,8.01290323 C6.3483871,7.5483871 6.11612903,7.16129032 5.82580645,6.63870968 Z" id="Shape"></path>
                        <path d="M2.4,11.5741935 C2.26451613,11.9225806 2.32258065,11.9612903 2.34193548,11.9806452 C2.4,12.0193548 2.49677419,12.0580645 2.57419355,12 C2.69032258,11.883871 2.72903226,11.8064516 2.92258065,11.4387097 C2.98064516,11.3419355 3.03870968,11.2064516 3.11612903,11.0709677 C3.13548387,11.0322581 3.15483871,10.9935484 3.17419355,10.9548387 C2.82580645,11.1483871 2.45806452,11.3806452 2.4,11.5741935 Z" id="Shape"></path>
                        <path d="M5.71699776,4.35483871 C5.98549962,3.79354839 5.98549962,3.65806452 5.80649838,3.23225806 C5.76174807,3.17419355 5.76174807,3.15483871 5.71699776,3.11612903 C5.67224745,3.15483871 5.62749714,3.19354839 5.58274683,3.2516129 C5.35899529,3.58064516 5.40374559,3.79354839 5.58274683,4.18064516 C5.62749714,4.25806452 5.67224745,4.29677419 5.71699776,4.35483871 Z" id="Shape"></path>
                        <path d="M10.083871,0 L1.91612903,0 C0.851612903,0 0,0.870967742 0,1.95483871 L0,13.1612903 C0,14.2451613 0.851612903,15.116129 1.91612903,15.116129 L8.1483871,15.116129 L12,11.2064516 L12,1.95483871 C12,0.870967742 11.1483871,0 10.083871,0 Z M8.09032258,9.50322581 C7.91612903,9.3483871 7.76129032,9.23225806 7.64516129,9.11612903 C7.49032258,9.15483871 7.33548387,9.21290323 7.14193548,9.29032258 C7.00645161,9.3483871 6.83225806,9.40645161 6.61935484,9.46451613 L6.3483871,9.56129032 C5.7483871,9.75483871 5.47741935,9.8516129 4.85806452,10.1032258 C4.66451613,10.1806452 4.52903226,10.2387097 4.39354839,10.2967742 C4.37419355,10.3354839 4.35483871,10.3548387 4.35483871,10.3548387 C4.31612903,10.4129032 4.12258065,10.8193548 3.81290323,11.4193548 C3.73548387,11.5548387 3.67741935,11.6903226 3.61935484,11.7870968 C3.42580645,12.1741935 3.32903226,12.3677419 3.09677419,12.5612903 C2.92258065,12.716129 2.70967742,12.7935484 2.47741935,12.7935484 C2.26451613,12.7935484 2.03225806,12.716129 1.85806452,12.5612903 C1.35483871,12.1548387 1.58709677,11.5354839 1.68387097,11.283871 C1.85806452,10.8193548 2.32258065,10.5290323 3.03870968,10.1225806 C3.36774194,9.92903226 3.6,9.81290323 3.83225806,9.69677419 C3.98709677,9.40645161 4.2,8.96129032 4.35483871,8.59354839 L4.37419355,8.55483871 C4.49032258,8.26451613 4.49032258,8.26451613 4.5483871,8.09032258 C4.58709677,7.95483871 4.68387097,7.68387097 4.89677419,7.04516129 C5.10967742,6.42580645 5.22580645,6.03870968 5.32258065,5.6516129 C5.0516129,5.10967742 4.85806452,4.70322581 4.78064516,4.35483871 C4.68387097,3.87096774 4.64516129,3.52258065 4.78064516,3.05806452 C4.97419355,2.38064516 5.43870968,2.30322581 5.55483871,2.30322581 C5.78709677,2.28387097 6.23225806,2.43870968 6.36774194,3.09677419 C6.48387097,3.69677419 6.44516129,3.9483871 6.29032258,4.68387097 L6.23225806,4.95483871 C6.19354839,5.18709677 6.15483871,5.38064516 6.11612903,5.55483871 C6.17419355,5.6516129 6.23225806,5.76774194 6.29032258,5.86451613 C6.67741935,6.58064516 6.92903226,7.00645161 7.35483871,7.56774194 C7.56774194,7.85806452 7.70322581,8.0516129 7.89677419,8.24516129 C7.97419355,8.22580645 8.0516129,8.20645161 8.12903226,8.20645161 C8.41935484,8.1483871 8.57419355,8.1483871 8.78709677,8.1483871 C9,8.1483871 9.23225806,8.1483871 9.58064516,8.20645161 C10.316129,8.32258065 10.4903226,8.84516129 10.4903226,9.13548387 C10.4709677,9.36774194 10.4516129,9.87096774 9.77419355,10.0258065 C9.56129032,10.083871 9.21290323,10.1032258 9,10.0451613 C8.70967742,9.96774194 8.45806452,9.81290323 8.09032258,9.50322581 Z M8.53548387,14.1483871 L8.53548387,12.1548387 C8.53548387,11.8258065 8.78709677,11.5741935 9.11612903,11.5741935 L11.0709677,11.5741935 L8.53548387,14.1483871 Z" id="Shape"></path>
                        <path d="M9.58064516,9.4035933 C9.65806452,9.37827685 9.69677419,9.35296039 9.69677419,9.35296039 C9.69677419,9.32764394 9.69677419,9.25169457 9.69677419,9.1757452 C9.69677419,9.15042875 9.63870968,9.04916292 9.44516129,8.99853001 C9.15483871,8.92258065 8.96129032,8.92258065 8.78709677,8.92258065 C8.72903226,8.92258065 8.67096774,8.92258065 8.63225806,8.92258065 C8.96129032,9.27701102 9.11612903,9.37827685 9.21290323,9.4035933 C9.2516129,9.42890976 9.42580645,9.42890976 9.58064516,9.4035933 Z" id="Shape"></path>
                    </g>
                </g>
            </g>
        </g>
    </g>
</svg>