<?xml version="1.0" encoding="UTF-8"?>
<svg width="30px" height="30px" viewBox="0 0 30 30" version="1.1" xmlns="http://www.w3.org/2000/svg" xmlns:xlink="http://www.w3.org/1999/xlink">
    <!-- Generator: Sketch 50 (54983) - http://www.bohemiancoding.com/sketch -->
    <title>icono_menu</title>
    <desc>Created with Sketch.</desc>
    <defs></defs>
    <g id="icono_menu" stroke="none" stroke-width="1" fill="none" fill-rule="evenodd">
        <g fill="#4F5C69" id="Header-Copy">
            <g transform="translate(15.000000, 15.500000) rotate(90.000000) translate(-15.000000, -15.500000) translate(5.000000, 13.000000)">
                <path d="M2.375,0.5 C1.34375,0.5 0.5,1.34375 0.5,2.375 C0.5,3.40625 1.34375,4.25 2.375,4.25 C3.40625,4.25 4.25,3.40625 4.25,2.375 C4.25,1.34375 3.40625,0.5 2.375,0.5 L2.375,0.5 Z M17.625,0.5 C16.59375,0.5 15.75,1.34375 15.75,2.375 C15.75,3.40625 16.59375,4.25 17.625,4.25 C18.65625,4.25 19.5,3.40625 19.5,2.375 C19.5,1.34375 18.65625,0.5 17.625,0.5 L17.625,0.5 Z M10,0.5 C8.96875,0.5 8.125,1.34375 8.125,2.375 C8.125,3.40625 8.96875,4.25 10,4.25 C11.03125,4.25 11.875,3.40625 11.875,2.375 C11.875,1.34375 11.03125,0.5 10,0.5 L10,0.5 Z" id="Shape"></path>
            </g>
        </g>
    </g>
</svg>