<?xml version="1.0" encoding="UTF-8"?>
<svg width="55px" height="59px" viewBox="0 0 55 59" version="1.1" xmlns="http://www.w3.org/2000/svg" xmlns:xlink="http://www.w3.org/1999/xlink">
    <!-- Generator: Sketch 43.1 (39012) - http://www.bohemiancoding.com/sketch -->
    <title>Group 2</title>
    <desc>Created with Sketch.</desc>
    <defs>
        <rect id="path-1" x="14" y="27" width="11.0967742" height="1.40540541" rx="0.702702703"></rect>
        <rect id="path-2" x="27" y="27" width="4.85483871" height="1.40540541" rx="0.702702703"></rect>
        <rect id="path-3" x="14" y="31" width="11.0967742" height="1.40540541" rx="0.702702703"></rect>
        <rect id="path-4" x="14" y="34" width="11.0967742" height="1.40540541" rx="0.702702703"></rect>
    </defs>
    <g id="Crear_minuta" stroke="none" stroke-width="1" fill="none" fill-rule="evenodd">
        <g id="04_crear_minuta-copy" transform="translate(-612.000000, -396.000000)">
            <g id="Group-2" transform="translate(612.000000, 396.000000)">
                <path d="M40.2411164,25.7128114 L41.9323179,25.0349847 L44.7473184,26.4645798 L47.5729862,25.0349847 L50.4338733,26.4645798 C50.4338733,26.4645798 50.4338733,17.854413 50.0144594,16.3925649 C49.5950455,14.9307168 47.5729862,13 45.2422615,13 C42.9115367,13 40.7836284,14.2626689 40.2411164,16.8423907 C39.6986045,19.4221125 40.2411164,25.7128114 40.2411164,25.7128114 Z" id="Path-7" fill="#E9F3FC"></path>
                <path d="M9.09228719,56.9964791 L20.7515125,59.0794506" id="Stroke-1-Copy-3" stroke="#7D8BDB" stroke-linecap="round" stroke-linejoin="round" transform="translate(14.921900, 58.037965) rotate(-10.000000) translate(-14.921900, -58.037965) "></path>
                <path d="M44.7551292,41.9607123 C44.7551292,42.4202258 44.3915989,42.7931643 43.9436776,42.7931643 C43.4957563,42.7931643 43.132226,42.4202258 43.132226,41.9607123 C43.132226,41.5011988 43.4957563,41.1282603 43.9436776,41.1282603 C44.3915989,41.1282603 44.7551292,41.5011988 44.7551292,41.9607123" id="Fill-13" fill="#3C4FBC" transform="translate(43.943678, 41.960712) rotate(-10.000000) translate(-43.943678, -41.960712) "></path>
                <path d="M42.5763276,53.7911531 L43.7493773,47.0506473" id="Path-11" stroke="#7D8BDB" stroke-linecap="round" stroke-linejoin="round" transform="translate(43.162852, 50.420900) rotate(-10.000000) translate(-43.162852, -50.420900) "></path>
                <path d="M9.64546056,16.4311655 C9.64546056,16.4311655 10.6494769,14.014975 13.8805759,13.5335462 C17.1116748,13.0521175 43.5602476,13 43.5602476,13 C43.5602476,13 41.1440014,14.378724 40.1475698,18.6288271 C39.1511382,22.8789301 40.2264614,24.8984176 40.1475698,25.8641258 C39.8113385,29.9799187 40.1475698,54.7744405 40.1475698,54.7744405 L9,54.7744405 L9.64546056,16.4311655 Z" id="Rectangle-3" fill="#FFFFFF"></path>
                <path d="M14.8000133,13 C11.6018095,13 9,15.6361514 9,18.8765691 L9,55.8645745 C9,55.8645745 39.3035655,55.9173757 40.2470979,55.8645745 C41.1906302,55.8117733 41.0708811,54.0698506 41.0708811,54.0698506 L41.0708811,27.8885861 L42.4847741,26.9338396 L45.1651093,28.2916239 L47.8945948,26.9088675 L51.3064516,28.6373129 L51.3064516,18.8765691 C51.306165,15.7523006 48.8872001,13.1894684 45.8473374,13.0103082 L14.8000133,13 Z M39.7061384,18.8765691 L39.7061384,54.4818182 L10.3647427,54.4818182 L10.3647427,18.8765691 C10.3647427,16.398671 12.3545388,14.3827563 14.8000133,14.3827563 L41.7723107,14.3827563 C40.5098807,15.4619276 39.7061384,17.0762564 39.7061384,18.8765691 L39.7061384,18.8765691 L39.7061384,18.8765691 Z M49.9414223,26.3999888 L47.8943082,25.3629216 L45.1648227,26.7456779 L42.3869035,25.3380947 L41.0708811,26.226491 L41.0708811,18.8765691 C41.0708811,16.398671 43.0606772,14.3827563 45.5061517,14.3827563 C47.9516262,14.3827563 49.9414223,16.3988162 49.9414223,18.8765691 L49.9414223,26.3999888 L49.9414223,26.3999888 Z" id="pros-and-cons" fill="#3C4FBC"></path>
                <path d="M16.7438261,15.4095751 C12.9360889,16.0001412 10.870969,18.6056548 9.80394326,20.7107608 C9.01726381,22.2627793 8.77310628,23.5427972 8.77310628,23.5427972 C8.77310628,23.5427972 9.31614454,20.4224241 10.292402,14.8127135 C10.4404034,13.962277 12.109874,11.7804855 14.5448365,11.7636149 C15.9723174,11.7537245 41.6335259,16.6031274 41.6335259,16.6031274 L39.1374761,19.4102984 C41.276048,18.6572449 19.9110854,14.9183448 16.7438261,15.4095751 Z" id="Path-12" fill="#CADCEE" opacity="0.271342844" transform="translate(25.203316, 17.653198) rotate(-10.000000) translate(-25.203316, -17.653198) "></path>
                <g id="Rectangle-15">
                    <use fill="#D8D8D8" fill-rule="evenodd" xlink:href="#path-1"></use>
                    <rect stroke="#B7C1F9" stroke-width="1" x="14.5" y="27.5" width="10.0967742" height="1" rx="0.5"></rect>
                </g>
                <g id="Rectangle-15-Copy-6">
                    <use fill="#D8D8D8" fill-rule="evenodd" xlink:href="#path-2"></use>
                    <rect stroke="#6878D2" stroke-width="1" x="27.5" y="27.5" width="3.85483871" height="1" rx="0.5"></rect>
                </g>
                <rect id="Rectangle-15-Copy-7" fill="#6878D2" x="27" y="31" width="6.93548387" height="1.40540541" rx="0.702702703"></rect>
                <rect id="Rectangle-15-Copy-8" fill="#6878D2" x="27" y="34" width="5.5483871" height="1.45948875" rx="0.729744374"></rect>
                <g id="Rectangle-15-Copy">
                    <use fill="#D8D8D8" fill-rule="evenodd" xlink:href="#path-3"></use>
                    <rect stroke="#B7C1F9" stroke-width="1" x="14.5" y="31.5" width="10.0967742" height="1" rx="0.5"></rect>
                </g>
                <g id="Rectangle-15-Copy-2">
                    <use fill="#D8D8D8" fill-rule="evenodd" xlink:href="#path-4"></use>
                    <rect stroke="#B7C1F9" stroke-width="1" x="14.5" y="34.5" width="10.0967742" height="1" rx="0.5"></rect>
                </g>
                <rect id="Rectangle-15-Copy-3" stroke="#B7C1F8" x="14.5" y="38.5" width="10.0967742" height="1" rx="0.5"></rect>
                <rect id="Rectangle-15-Copy-4" fill="#B7C1F8" x="27" y="38" width="5.5483871" height="1.40540541" rx="0.702702703"></rect>
                <path d="M2.66608849,10.7466449 L2.66608849,9.71257372 C2.66608849,9.48639226 2.48155708,9.30136615 2.25598037,9.30136615 L2.15353958,9.30136615 C1.92830779,9.30136615 1.74377638,9.48639226 1.74377638,9.71257372 L1.74377638,10.7466449 L0.712470026,10.7466449 C0.486893318,10.7466449 0.302361914,10.931671 0.302361914,11.1575066 L0.302361914,11.2602221 C0.302361914,11.4864035 0.486893318,11.6714296 0.712470026,11.6714296 L1.74377638,11.6714296 L1.74377638,12.7055008 C1.74377638,12.9316823 1.92830779,13.1167084 2.15353958,13.1167084 L2.25598037,13.1167084 C2.48155708,13.1167084 2.66608849,12.9316823 2.66608849,12.7055008 L2.66608849,11.6714296 L3.69739484,11.6714296 C3.92297155,11.6714296 4.10715804,11.4864035 4.10715804,11.2602221 L4.10715804,11.1575066 C4.10715804,10.931671 3.92297155,10.7466449 3.69739484,10.7466449 L2.66608849,10.7466449 Z" id="Fill-5" fill="#3C4FBC" opacity="0.618376359" transform="translate(2.204760, 11.209037) rotate(-10.000000) translate(-2.204760, -11.209037) "></path>
                <path d="M53.8908882,36.11436 L52.4252569,36.11436 L52.4252569,34.6447995 C52.4252569,34.3233638 52.1630118,34.0604157 51.8424356,34.0604157 L51.6968529,34.0604157 C51.3767668,34.0604157 51.1145218,34.3233638 51.1145218,34.6447995 L51.1145218,36.11436 L49.6488905,36.11436 C49.3283142,36.11436 49.0660692,36.3773081 49.0660692,36.6982522 L49.0660692,36.8442253 C49.0660692,37.165661 49.3283142,37.4286091 49.6488905,37.4286091 L51.1145218,37.4286091 L51.1145218,38.8981696 C51.1145218,39.2196052 51.3767668,39.4825534 51.6968529,39.4825534 L51.8424356,39.4825534 C52.1630118,39.4825534 52.4252569,39.2196052 52.4252569,38.8981696 L52.4252569,37.4286091 L53.8908882,37.4286091 C54.2114644,37.4286091 54.4732193,37.165661 54.4732193,36.8442253 L54.4732193,36.6982522 C54.4732193,36.3773081 54.2114644,36.11436 53.8908882,36.11436" id="Fill-5-Copy" fill="#919FF3" transform="translate(51.769644, 36.771485) rotate(35.000000) translate(-51.769644, -36.771485) "></path>
                <path d="M44.703893,1.99200193 C44.703893,2.94205561 43.9357846,3.71222327 42.9882711,3.71222327 C42.0407576,3.71222327 41.2726491,2.94205561 41.2726491,1.99200193 C41.2726491,1.04194826 42.0407576,0.271780593 42.9882711,0.271780593 C43.9357846,0.271780593 44.703893,1.04194826 44.703893,1.99200193" id="Fill-15" fill="#6F82EF" transform="translate(42.988271, 1.992002) rotate(-10.000000) translate(-42.988271, -1.992002) "></path>
            </g>
        </g>
    </g>
</svg>