<?xml version="1.0" encoding="UTF-8"?>
<svg width="62px" height="62px" viewBox="0 0 62 62" version="1.1" xmlns="http://www.w3.org/2000/svg" xmlns:xlink="http://www.w3.org/1999/xlink">
    <!-- Generator: Sketch 48.2 (47327) - http://www.bohemiancoding.com/sketch -->
    <title>ilus_brief</title>
    <desc>Created with Sketch.</desc>
    <defs></defs>
    <g id="Symbols" stroke="none" stroke-width="1" fill="none" fill-rule="evenodd">
        <g id="ilus_brief">
            <g id="Group-6" transform="translate(3.000000, 0.000000)">
                <g id="Group" transform="translate(8.000000, 10.000000)">
                    <path d="M32.334323,17.1841348 L34.0255245,16.5063081 L36.840525,17.9359032 L39.6661928,16.5063081 L42.5270799,17.9359032 C42.5270799,17.9359032 42.5270799,9.32573638 42.107666,7.8638883 C41.6882521,6.40204022 39.6661928,4.47132337 37.3354681,4.47132337 C35.0047433,4.47132337 32.876835,5.73399229 32.334323,8.3137141 C31.7918111,10.8934359 32.334323,17.1841348 32.334323,17.1841348 Z" id="Path-7" fill="#E9F2FC"></path>
                    <path d="M1.33005529,48.4938477 L12.9892806,50.5768192" id="Stroke-1-Copy-3" stroke="#8285D9" stroke-linecap="round" stroke-linejoin="round" transform="translate(7.159668, 49.535333) rotate(-10.000000) translate(-7.159668, -49.535333) "></path>
                    <path d="M36.3751288,33.3395629 C36.3751288,33.7990764 36.0115985,34.1720149 35.5636772,34.1720149 C35.1157559,34.1720149 34.7522256,33.7990764 34.7522256,33.3395629 C34.7522256,32.8800494 35.1157559,32.5071109 35.5636772,32.5071109 C36.0115985,32.5071109 36.3751288,32.8800494 36.3751288,33.3395629" id="Fill-13" fill="#595A9C" transform="translate(35.563677, 33.339563) rotate(-10.000000) translate(-35.563677, -33.339563) "></path>
                    <path d="M34.6483069,44.6286461 L35.8213566,37.8881402" id="Path-11" stroke="#595A9C" fill="#595A9C" stroke-linecap="round" stroke-linejoin="round" transform="translate(35.234832, 41.258393) rotate(-10.000000) translate(-35.234832, -41.258393) "></path>
                    <path d="M1.33900895,7.64738176 C1.33900895,7.64738176 2.34302526,5.23119117 5.57412424,4.74976246 C8.80522323,4.26833374 35.253796,4.21621622 35.253796,4.21621622 C35.253796,4.21621622 32.8375498,5.59494024 31.8411182,9.84504329 C30.8446865,14.0951463 31.9200097,16.1146338 31.8411182,17.0803421 C31.5048869,21.1961349 31.8411182,45.9906567 31.8411182,45.9906567 L0.693548387,45.9906567 L1.33900895,7.64738176 Z" id="Rectangle-3" fill="#FFFFFF"></path>
                    <path d="M6.49356172,3.51351351 C3.2953579,3.51351351 0.693548387,6.14966495 0.693548387,9.39008264 L0.693548387,46.378088 C0.693548387,46.378088 30.9971139,46.4308892 31.9406463,46.378088 C32.8841786,46.3252868 32.7644295,44.5833641 32.7644295,44.5833641 L32.7644295,18.4020996 L34.1783224,17.4473531 L36.8586577,18.8051374 L39.5881432,17.4223811 L43,19.1508264 L43,9.39008264 C42.9997134,6.26581416 40.5807485,3.70298191 37.5408858,3.52382176 L6.49356172,3.51351351 Z M31.3996868,9.39008264 L31.3996868,44.9953317 L2.05829112,44.9953317 L2.05829112,9.39008264 C2.05829112,6.9121845 4.04808718,4.89626982 6.49356172,4.89626982 L33.4658591,4.89626982 C32.2034291,5.97544114 31.3996868,7.58976994 31.3996868,9.39008264 L31.3996868,9.39008264 L31.3996868,9.39008264 Z M41.6349707,16.9135023 L39.5878566,15.8764351 L36.8583711,17.2591914 L34.0804519,15.8516082 L32.7644295,16.7400045 L32.7644295,9.39008264 C32.7644295,6.9121845 34.7542255,4.89626982 37.1997001,4.89626982 C39.6451746,4.89626982 41.6349707,6.91232969 41.6349707,9.39008264 L41.6349707,16.9135023 L41.6349707,16.9135023 Z" id="pros-and-cons" fill="#595A9C"></path>
                    <path d="M8.77872782,6.60014813 C4.97099059,7.19071418 2.90587074,9.79622783 1.83884498,11.9013338 C1.05216553,13.4533523 0.808007994,14.7333702 0.808007994,14.7333702 C0.808007994,14.7333702 1.35104625,11.6129971 2.32730373,6.0032865 C2.47530512,5.15285001 4.14477568,2.97105853 6.57973823,2.95418786 C8.00721911,2.94429754 33.6684276,7.79370042 33.6684276,7.79370042 L31.1723779,10.6008714 C33.3109497,9.84781788 11.9459871,6.10891785 8.77872782,6.60014813 Z" id="Path-12" fill="#CADCEE" opacity="0.271342844" transform="translate(17.238218, 8.843771) rotate(-10.000000) translate(-17.238218, -8.843771) "></path>
                    <rect id="Rectangle-15" fill-opacity="0.8" fill="#AFB5D5" x="5.5483871" y="22.2702703" width="21.4516129" height="1.40540541" rx="0.702702703"></rect>
                    <rect id="Rectangle-15-Copy-7" fill="#595A9C" x="19.4193548" y="25.7837838" width="6.93548387" height="1.40540541" rx="0.702702703"></rect>
                    <rect id="Rectangle-15-Copy" fill="#AFB5D5" x="5.5483871" y="25.7837838" width="11.0967742" height="1.40540541" rx="0.702702703"></rect>
                </g>
                <g id="Group-2">
                    <path d="M3.0521809,10.6693718 L3.0521809,9.63530066 C3.0521809,9.4091192 2.86764949,9.22409308 2.64207278,9.22409308 L2.53963199,9.22409308 C2.3144002,9.22409308 2.12986879,9.4091192 2.12986879,9.63530066 L2.12986879,10.6693718 L1.09856244,10.6693718 C0.872985728,10.6693718 0.688454324,10.854398 0.688454324,11.0802336 L0.688454324,11.182949 C0.688454324,11.4091305 0.872985728,11.5941566 1.09856244,11.5941566 L2.12986879,11.5941566 L2.12986879,12.6282278 C2.12986879,12.8544092 2.3144002,13.0394353 2.53963199,13.0394353 L2.64207278,13.0394353 C2.86764949,13.0394353 3.0521809,12.8544092 3.0521809,12.6282278 L3.0521809,11.5941566 L4.08348725,11.5941566 C4.30906396,11.5941566 4.49325045,11.4091305 4.49325045,11.182949 L4.49325045,11.0802336 C4.49325045,10.854398 4.30906396,10.6693718 4.08348725,10.6693718 L3.0521809,10.6693718 Z" id="Fill-5" fill="#4648C7" opacity="0.618376359" transform="translate(2.590852, 11.131764) rotate(-10.000000) translate(-2.590852, -11.131764) "></path>
                    <path d="M53.4811477,37.5133312 L52.0155164,37.5133312 L52.0155164,36.0437707 C52.0155164,35.722335 51.7532713,35.4593869 51.4326951,35.4593869 L51.2871124,35.4593869 C50.9670263,35.4593869 50.7047813,35.722335 50.7047813,36.0437707 L50.7047813,37.5133312 L49.23915,37.5133312 C48.9185737,37.5133312 48.6563287,37.7762793 48.6563287,38.0972235 L48.6563287,38.2431966 C48.6563287,38.5646322 48.9185737,38.8275803 49.23915,38.8275803 L50.7047813,38.8275803 L50.7047813,40.2971408 C50.7047813,40.6185765 50.9670263,40.8815246 51.2871124,40.8815246 L51.4326951,40.8815246 C51.7532713,40.8815246 52.0155164,40.6185765 52.0155164,40.2971408 L52.0155164,38.8275803 L53.4811477,38.8275803 C53.8017239,38.8275803 54.0634788,38.5646322 54.0634788,38.2431966 L54.0634788,38.0972235 C54.0634788,37.7762793 53.8017239,37.5133312 53.4811477,37.5133312" id="Fill-5-Copy" fill="#AFB5D5" transform="translate(51.359904, 38.170456) rotate(35.000000) translate(-51.359904, -38.170456) "></path>
                    <path d="M44.3682629,2.53934491 C44.3682629,3.48939858 43.6001544,4.25956625 42.6526409,4.25956625 C41.7051274,4.25956625 40.937019,3.48939858 40.937019,2.53934491 C40.937019,1.58929124 41.7051274,0.819123568 42.6526409,0.819123568 C43.6001544,0.819123568 44.3682629,1.58929124 44.3682629,2.53934491" id="Fill-15" fill="#8285D9" transform="translate(42.652641, 2.539345) rotate(-10.000000) translate(-42.652641, -2.539345) "></path>
                </g>
            </g>
        </g>
    </g>
</svg>