<?xml version="1.0" encoding="UTF-8"?>
<svg width="62px" height="62px" viewBox="0 0 62 62" version="1.1" xmlns="http://www.w3.org/2000/svg" xmlns:xlink="http://www.w3.org/1999/xlink">
    <!-- Generator: Sketch 48.2 (47327) - http://www.bohemiancoding.com/sketch -->
    <title>ilus_presentacion</title>
    <desc>Created with Sketch.</desc>
    <defs></defs>
    <g id="Symbols" stroke="none" stroke-width="1" fill="none" fill-rule="evenodd">
        <g id="ilus_presentacion">
            <g id="Group-21" transform="translate(1.000000, 0.000000)">
                <g id="Group-20">
                    <rect id="Rectangle-11" fill="#FFFFFF" x="8" y="13" width="44" height="34"></rect>
                    <circle id="Oval-3" fill="#FFFFFF" cx="30" cy="59" r="2"></circle>
                    <g id="Group" transform="translate(5.000000, 12.000000)" fill="#595A9C" fill-rule="nonzero">
                        <path d="M49,0.5 L1,0.5 C0.724,0.5 0.5,0.724 0.5,1 C0.5,1.276 0.724,1.5 1,1.5 L2.5,1.5 L2.5,35 C2.5,35.276 2.724,35.5 3,35.5 L24.5,35.5 L24.5,44.551 C23.36,44.783 22.5,45.792 22.5,47 C22.5,48.379 23.622,49.5 25,49.5 C26.379,49.5 27.5,48.379 27.5,47 C27.5,45.792 26.64,44.783 25.5,44.551 L25.5,35.5 L47,35.5 C47.276,35.5 47.5,35.276 47.5,35 L47.5,1.5 L49,1.5 C49.276,1.5 49.5,1.276 49.5,1 C49.5,0.724 49.276,0.5 49,0.5 Z M26.5,47 C26.5,47.827 25.827,48.5 25,48.5 C24.173,48.5 23.5,47.827 23.5,47 C23.5,46.173 24.173,45.5 25,45.5 C25.827,45.5 26.5,46.173 26.5,47 Z M46.5,34.5 L3.5,34.5 L3.5,1.5 L46.5,1.5 L46.5,34.5 Z" id="Shape"></path>
                    </g>
                    <path d="M9.09228719,48.9964791 L20.7515125,51.0794506" id="Stroke-1-Copy-3" stroke="#595A9C" stroke-linecap="round" stroke-linejoin="round" transform="translate(14.921900, 50.037965) rotate(-10.000000) translate(-14.921900, -50.037965) "></path>
                    <path d="M55.8114516,35.1695592 C55.8114516,35.6290727 55.4479213,36.0020112 55,36.0020112 C54.5520787,36.0020112 54.1885484,35.6290727 54.1885484,35.1695592 C54.1885484,34.7100457 54.5520787,34.3371072 55,34.3371072 C55.4479213,34.3371072 55.8114516,34.7100457 55.8114516,35.1695592" id="Fill-13-Copy" fill="#9293D6" transform="translate(55.000000, 35.169559) rotate(-10.000000) translate(-55.000000, -35.169559) "></path>
                    <path d="M54.6326501,46 L55.8056997,39.2594941" id="Path-11-Copy" stroke="#9293D6" fill="#595A9C" stroke-linecap="round" stroke-linejoin="round" transform="translate(55.219175, 42.629747) rotate(-10.000000) translate(-55.219175, -42.629747) "></path>
                    <path d="M11.1711749,18.2885454 C10.1787275,23.7312795 5.59769396,40.2744874 5.49361564,40.2561356 C5.37635857,40.23546 10.8232708,10.0301593 10.8232708,10.0301593 L53.1946095,17.5392063 L53.0461702,18.3810474 C53.0461702,18.3810474 19.8850923,13.9948442 16.5710105,13.2268329 C13.7660291,12.5768013 12.0765276,13.3234523 11.1711749,18.2885454 Z" id="Path-12" fill="#CADCEE" opacity="0.3" transform="translate(29.343179, 25.143155) rotate(-10.000000) translate(-29.343179, -25.143155) "></path>
                    <path d="M17.9233546,26.3365935 C16.4054485,34.7665109 12.8801721,49.3434611 12.7760938,49.3251093 C12.6588367,49.3044337 17.9351532,20.0666296 17.9351532,20.0666296 L54.390832,26.4947494 C54.390832,26.4947494 31.3142174,22.7931418 23.850505,22.1218696 C20.788575,21.8464854 18.4584423,23.3649038 17.9233546,26.3365935 Z" id="Path-12-Copy" fill="#CADCEE" opacity="0.271342844" transform="translate(33.582500, 34.695878) scale(-1, -1) rotate(-10.000000) translate(-33.582500, -34.695878) "></path>
                    <path d="M58.6660885,19.7466449 L58.6660885,18.7125737 C58.6660885,18.4863923 58.4815571,18.3013661 58.2559804,18.3013661 L58.1535396,18.3013661 C57.9283078,18.3013661 57.7437764,18.4863923 57.7437764,18.7125737 L57.7437764,19.7466449 L56.71247,19.7466449 C56.4868933,19.7466449 56.3023619,19.931671 56.3023619,20.1575066 L56.3023619,20.2602221 C56.3023619,20.4864035 56.4868933,20.6714296 56.71247,20.6714296 L57.7437764,20.6714296 L57.7437764,21.7055008 C57.7437764,21.9316823 57.9283078,22.1167084 58.1535396,22.1167084 L58.2559804,22.1167084 C58.4815571,22.1167084 58.6660885,21.9316823 58.6660885,21.7055008 L58.6660885,20.6714296 L59.6973948,20.6714296 C59.9229716,20.6714296 60.107158,20.4864035 60.107158,20.2602221 L60.107158,20.1575066 C60.107158,19.931671 59.9229716,19.7466449 59.6973948,19.7466449 L58.6660885,19.7466449 Z" id="Fill-5" fill="#4648C7" opacity="0.618376359" transform="translate(58.204760, 20.209037) rotate(-10.000000) translate(-58.204760, -20.209037) "></path>
                    <path d="M4.4252569,5.11435997 L4.4252569,3.64479946 C4.4252569,3.32336381 4.16301184,3.06041569 3.84243563,3.06041569 L3.69685285,3.06041569 C3.37676682,3.06041569 3.11452175,3.32336381 3.11452175,3.64479946 L3.11452175,5.11435997 L1.64889045,5.11435997 C1.32831424,5.11435997 1.06606918,5.37730809 1.06606918,5.69825225 L1.06606918,5.84422531 C1.06606918,6.16566096 1.32831424,6.42860908 1.64889045,6.42860908 L3.11452175,6.42860908 L3.11452175,7.8981696 C3.11452175,8.21960524 3.37676682,8.48255336 3.69685285,8.48255336 L3.84243563,8.48255336 C4.16301184,8.48255336 4.4252569,8.21960524 4.4252569,7.8981696 L4.4252569,6.42860908 L5.8908882,6.42860908 C6.21146442,6.42860908 6.4732193,6.16566096 6.4732193,5.84422531 L6.4732193,5.69825225 C6.4732193,5.37730809 6.21146442,5.11435997 5.8908882,5.11435997 L4.4252569,5.11435997 Z" id="Fill-5-Copy" fill="#AFB5D5" transform="translate(3.769644, 5.771485) rotate(35.000000) translate(-3.769644, -5.771485) "></path>
                    <path d="M37.9882711,3.71222327 C37.0407576,3.71222327 36.2726491,2.94205561 36.2726491,1.99200193 C36.2726491,1.04194826 37.0407576,0.271780593 37.9882711,0.271780593 C38.9357846,0.271780593 39.703893,1.04194826 39.703893,1.99200193 C39.703893,2.94205561 38.9357846,3.71222327 37.9882711,3.71222327 Z" id="Fill-15" fill="#8285D9" transform="translate(37.988271, 1.992002) rotate(-10.000000) translate(-37.988271, -1.992002) "></path>
                    <path d="M27.1102154,25.091195 L27.1102154,32.8502113 C27.1102154,33.1318765 27.3385501,33.3602113 27.6202154,33.3602113 C27.7125104,33.3602113 27.8030756,33.3351654 27.8822561,33.2877437 L34.3599153,29.4082356 C34.6015578,29.2635145 34.6801281,28.9503049 34.535407,28.7086624 C34.4922527,28.6366071 34.4319706,28.576325 34.3599153,28.5331707 L27.8822561,24.6536625 C27.6406136,24.5089414 27.327404,24.5875117 27.1826829,24.8291542 C27.1352612,24.9083348 27.1102154,24.9988999 27.1102154,25.091195 Z" id="Path-4" fill="#595A9C"></path>
                </g>
            </g>
        </g>
    </g>
</svg>