<?xml version="1.0" encoding="UTF-8"?>
<svg width="201px" height="154px" viewBox="0 0 201 154" version="1.1" xmlns="http://www.w3.org/2000/svg" xmlns:xlink="http://www.w3.org/1999/xlink">
    <!-- Generator: Sketch 43.1 (39012) - http://www.bohemiancoding.com/sketch -->
    <title>Group 6</title>
    <desc>Created with Sketch.</desc>
    <defs>
        <polygon id="path-1" points="2.57312038e-16 10.5322286 2.57312038e-16 0.485228571 10.07814 0.485228571 10.07814 10.5322286 0 10.5322286"></polygon>
        <polygon id="path-3" points="-5.17240587e-05 0.499982143 6.39550627 0.499982143 6.39550627 6.8750435 -5.17240587e-05 6.8750435 -5.17240587e-05 0.499982143"></polygon>
    </defs>
    <g id="FEEDBACK_CAMBIOS-" stroke="none" stroke-width="1" fill="none" fill-rule="evenodd">
        <g id="01_crear-copy" transform="translate(-957.000000, -321.000000)">
            <g id="Group-6" transform="translate(957.000000, 321.000000)">
                <polygon id="Fill-1" fill="#FFFFFF" points="95.2882527 76.1356232 103.246939 142.534891 200.500789 130.950605 192.541189 64.5513375"></polygon>
                <path d="M100.229655,79.5258482 L188.863346,68.9688482 L195.511878,124.428616 L169.204632,103.80458 C168.378705,103.157063 167.072205,103.312795 166.42261,104.13608 L161.52826,110.337134 L141.338723,94.5080089 C140.478991,93.8322589 139.231878,93.9816161 138.555787,94.8395089 L106.877273,134.985616 L100.229655,79.5258482 Z M109.992773,137.428152 L140.4461,98.8357232 L160.635637,114.663937 C161.496282,115.338777 162.741569,115.19033 163.418573,114.332437 L168.312923,108.131384 L193.061505,127.534152 L109.992773,137.428152 Z M96.058905,78.0331875 L103.50961,140.190348 C103.525141,140.318759 103.554378,140.446259 103.595491,140.570116 C103.613764,140.62658 103.641173,140.67758 103.664928,140.732223 C103.692337,140.795973 103.716091,140.860634 103.75081,140.922563 C103.785528,140.985402 103.83121,141.040045 103.872323,141.09833 C103.905214,141.144777 103.933537,141.193045 103.97191,141.23767 C104.141846,141.436205 104.348328,141.599223 104.581305,141.717616 C104.634296,141.744027 104.690941,141.759509 104.746673,141.783188 C104.811541,141.807777 104.873669,141.83692 104.942191,141.856955 C105.010714,141.87517 105.081064,141.883366 105.151414,141.896116 C105.208973,141.905223 105.263791,141.919795 105.323178,141.923438 C105.452914,141.934366 105.58265,141.932545 105.712387,141.917063 L198.282023,130.891955 C198.410846,130.876473 198.538755,130.84733 198.66301,130.806348 C198.720569,130.789045 198.772646,130.760813 198.82655,130.736223 C198.890505,130.709813 198.955373,130.686134 199.016587,130.651527 C199.080541,130.61692 199.137187,130.571384 199.197487,130.52767 C199.242255,130.495795 199.289764,130.468473 199.334532,130.431134 C199.531878,130.261741 199.695419,130.05592 199.814191,129.822777 C199.839773,129.769955 199.856219,129.716223 199.877232,129.663402 C199.904641,129.59783 199.934791,129.53317 199.954891,129.463955 C199.973164,129.396563 199.980473,129.327348 199.99235,129.259045 C200.0024,129.199848 200.017932,129.144295 200.0225,129.084188 C200.03255,128.954866 200.030723,128.824634 200.015191,128.696223 L192.564487,66.5390625 C192.433837,65.4553125 191.448023,64.6821161 190.360796,64.8114375 L97.7920732,75.8374554 C96.7048459,75.9667768 95.9291686,76.9494375 96.058905,78.0331875 L96.058905,78.0331875 Z" id="Fill-2" fill="#B7C1F8"></path>
                <path d="M142.023128,107.073589 C141.346124,107.931482 141.495046,109.172786 142.355692,109.847625 L151.534083,117.043179 C151.964405,117.381054 152.49066,117.513107 152.994074,117.452089 C153.498401,117.392893 153.97806,117.141536 154.317019,116.712589 C154.994024,115.855607 154.845101,114.611571 153.984455,113.938554 L144.805151,106.742089 C143.945419,106.068161 142.699219,106.216607 142.023128,107.073589" id="Fill-4" fill="#B7C1F8"></path>
                <path d="M169.253786,115.870361 C168.576781,116.728254 168.725704,117.970468 169.58635,118.644396 L178.214731,125.410093 C178.643227,125.747968 179.170395,125.879111 179.674722,125.819004 C180.178136,125.758896 180.658709,125.507539 180.996754,125.078593 C181.673759,124.2207 181.524836,122.979396 180.66419,122.304557 L172.035809,115.539771 C171.176077,114.864932 169.93079,115.013379 169.253786,115.870361" id="Fill-6" fill="#B7C1F8"></path>
                <path d="M181.980923,84.0482732 C182.283337,86.5718625 180.470682,88.8695946 177.937169,89.1710411 C175.406396,89.4733982 173.100378,87.6656304 172.797964,85.1420411 C172.49555,82.6184518 174.309119,80.3188982 176.839891,80.0174518 C179.373405,79.7160054 181.67851,81.5246839 181.980923,84.0482732 M185.916869,83.5792554 C185.354982,78.8927196 181.071855,75.5349161 176.369369,76.0950054 C171.66871,76.6541839 168.300132,80.9245232 168.862019,85.6101482 C169.423905,90.2975946 173.706119,93.6544875 178.407691,93.0943982 C183.110178,92.5343089 186.477841,88.2657911 185.916869,83.5792554" id="Fill-8" fill="#B7C1F8"></path>
                <path d="M19.9104205,84.2315089 L20.5709795,125.158098" id="Stroke-10" stroke="#C6CCEC" stroke-width="4" stroke-linecap="round"></path>
                <path d="M30.778125,150.692705 L71.8314614,151.588848" id="Stroke-12" stroke="#C6CCEC" stroke-width="4" stroke-linecap="round"></path>
                <g id="Group-17" transform="translate(20.100000, 133.375018)">
                    <path d="M0.104794091,0.469473214 L0.189762273,8.24970536" id="Fill-14" fill="#CADCEE"></path>
                    <path d="M0.104794091,0.469473214 L0.189762273,8.24970536" id="Stroke-16" stroke="#3C4FBC" stroke-width="3"></path>
                </g>
                <path d="M130.056685,40.2094929 L136.014507,33.3044571" id="Stroke-18" stroke="#B7C1F8" stroke-width="4" stroke-linecap="round" stroke-linejoin="round"></path>
                <g id="Group-22" transform="translate(0.000000, 43.214304)">
                    <mask id="mask-2" fill="white">
                        <use xlink:href="#path-1"></use>
                    </mask>
                    <g id="Clip-21"></g>
                    <path d="M8.99274,4.29110357 L6.26096727,4.29110357 L6.26096727,1.56806786 C6.26096727,0.972460714 5.77217182,0.485228571 5.17465364,0.485228571 L4.90330364,0.485228571 C4.30669909,0.485228571 3.81790364,0.972460714 3.81790364,1.56806786 L3.81790364,4.29110357 L1.08613091,4.29110357 C0.488612727,4.29110357 -0.000182727272,4.77833571 -0.000182727272,5.37303214 L-0.000182727272,5.64351429 C-0.000182727272,6.23912143 0.488612727,6.72635357 1.08613091,6.72635357 L3.81790364,6.72635357 L3.81790364,9.44938929 C3.81790364,10.0449964 4.30669909,10.5322286 4.90330364,10.5322286 L5.17465364,10.5322286 C5.77217182,10.5322286 6.26096727,10.0449964 6.26096727,9.44938929 L6.26096727,6.72635357 L8.99274,6.72635357 C9.59025818,6.72635357 10.07814,6.23912143 10.07814,5.64351429 L10.07814,5.37303214 C10.07814,4.77833571 9.59025818,4.29110357 8.99274,4.29110357" id="Fill-20" fill="#B7C1F8" mask="url(#mask-2)"></path>
                </g>
                <path d="M78.3992277,13.7160857 L75.6683686,13.7807464 L75.6035005,11.0586214 C75.5888823,10.4630143 75.0891232,9.98762143 74.4925186,10.0012821 L74.2211686,10.0076571 C73.6236505,10.0222286 73.1467323,10.5203893 73.1613505,11.1159964 L73.225305,13.8381214 L70.4944459,13.9027821 C69.8969277,13.9164429 69.4200095,14.4146036 69.4346277,15.0102107 L69.4410232,15.2806929 C69.4547277,15.8763 69.9554005,16.3516929 70.552005,16.3371214 L73.2828641,16.2724607 L73.3477323,18.9945857 C73.3623505,19.5901929 73.8621095,20.0655857 74.4596277,20.051925 L74.7300641,20.04555 C75.3275823,20.0309786 75.8045005,19.5328179 75.7907959,18.9372107 L75.7259277,16.2150857 L78.4567868,16.150425 C79.054305,16.1367643 79.5312232,15.6376929 79.516605,15.0429964 L79.5102095,14.7725143 C79.496505,14.1769071 78.9958323,13.7015143 78.3992277,13.7160857" id="Fill-23" fill="#B7C1F8"></path>
                <path d="M181.670013,37.48755 L178.93824,37.48755 L178.93824,34.7645143 C178.93824,34.1689071 178.449445,33.681675 177.851926,33.681675 L177.580576,33.681675 C176.983972,33.681675 176.495176,34.1689071 176.495176,34.7645143 L176.495176,37.48755 L173.763404,37.48755 C173.165885,37.48755 172.67709,37.9747821 172.67709,38.5694786 L172.67709,38.8399607 C172.67709,39.4355679 173.165885,39.9228 173.763404,39.9228 L176.495176,39.9228 L176.495176,42.6458357 C176.495176,43.2414429 176.983972,43.728675 177.580576,43.728675 L177.851926,43.728675 C178.449445,43.728675 178.93824,43.2414429 178.93824,42.6458357 L178.93824,39.9228 L181.670013,39.9228 C182.267531,39.9228 182.755413,39.4355679 182.755413,38.8399607 L182.755413,38.5694786 C182.755413,37.9747821 182.267531,37.48755 181.670013,37.48755" id="Fill-25" fill="#919FF3"></path>
                <path d="M35.5680464,15.99105 L35.5680464,15.99105 C34.9102282,16.7487643 33.7508236,16.83255 32.9906782,16.1777464 L24.0059782,8.43485357 C23.2458327,7.77913929 23.1608645,6.62344286 23.8186827,5.86572857 C24.4755873,5.10801429 25.6359055,5.02422857 26.3960509,5.67903214 L35.3807509,13.421925 C36.1408964,14.0767286 36.2249509,15.2333357 35.5680464,15.99105" id="Fill-27" fill="#FFFFFF"></path>
                <path d="M35.5680464,15.99105 L35.5680464,15.99105 C34.9102282,16.7487643 33.7508236,16.83255 32.9906782,16.1777464 L24.0059782,8.43485357 C23.2458327,7.77913929 23.1608645,6.62344286 23.8186827,5.86572857 C24.4755873,5.10801429 25.6359055,5.02422857 26.3960509,5.67903214 L35.3807509,13.421925 C36.1408964,14.0767286 36.2249509,15.2333357 35.5680464,15.99105 Z" id="Stroke-29" stroke="#6878D2" stroke-width="3" stroke-linecap="round" stroke-linejoin="round"></path>
                <path d="M141.593536,30.8529054 C140.9412,31.6206375 139.788191,31.7162625 139.017995,31.0660125 C138.2478,30.4166732 138.151868,29.2673518 138.804205,28.4996196 C139.456541,27.7309768 140.608636,27.6362625 141.379745,28.2856018 C142.149941,28.9358518 142.244959,30.0851732 141.593536,30.8529054" id="Fill-31" fill="#6878D2"></path>
                <g id="Group-35" transform="translate(126.081818, 0.410732)">
                    <mask id="mask-4" fill="white">
                        <use xlink:href="#path-3"></use>
                    </mask>
                    <g id="Clip-34"></g>
                    <path d="M5.63439545,1.62298393 C6.77826818,2.96446607 6.61381364,4.97623393 5.26894091,6.11644821 C3.92224091,7.2566625 1.90493182,7.09273393 0.761059091,5.75125179 C-0.382813636,4.40976964 -0.218359091,2.3989125 1.12651364,1.25869821 C2.47321364,0.118483929 4.49052273,0.281501786 5.63439545,1.62298393" id="Fill-33" fill="#6878D2" mask="url(#mask-4)"></path>
                </g>
                <path d="M101.260602,52.4481268 C101.260602,46.1414304 96.0446523,41.8929482 89.6683841,41.8929482 L41.742675,41.8929482 C35.3664068,41.8929482 30.1495432,47.0521446 30.1495432,53.3588411 L30.1495432,65.7354482 L30.1495432,86.7565554 L31.5199977,137.973305 C31.5199977,144.279091 36.2873523,141.45952 42.6636205,141.45952 L136.416416,141.45952 C142.792684,141.45952 147.551816,137.904091 147.551816,131.598305 L153.033634,60.5625911 C153.033634,54.2558946 148.274502,53.3588411 141.898234,53.3588411 L101.260602,52.4481268 Z" id="Fill-36" fill="#EEF0FE"></path>
                <path d="M141.898234,53.3588411 L101.260602,52.4481268 C101.260602,46.1414304 96.0446523,41.8929482 89.6683841,41.8929482 L41.742675,41.8929482 C35.3664068,41.8929482 30.1495432,47.0521446 30.1495432,53.3588411 L30.1495432,65.7354482 L30.1495432,86.7565554 L31.5199977,137.973305 C31.5199977,144.279091 36.2873523,141.45952 42.6636205,141.45952 L136.416416,141.45952 C142.792684,141.45952 147.551816,137.904091 147.551816,131.598305 L153.033634,60.5625911 C153.033634,54.2558946 148.274502,53.3588411 141.898234,53.3588411 Z" id="Stroke-38" stroke="#3C4FBC" stroke-width="3"></path>
                <path d="M142.527273,144.086475 L36.5454545,144.086475 C33.5304545,144.086475 31.0636364,141.627546 31.0636364,138.622189 L31.0636364,69.2886 C31.0636364,66.2832429 33.5304545,63.8243143 36.5454545,63.8243143 L142.527273,63.8243143 C145.542273,63.8243143 148.009091,66.2832429 148.009091,69.2886 L148.009091,138.622189 C148.009091,141.627546 145.542273,144.086475 142.527273,144.086475" id="Fill-40" fill="#FFFFFF"></path>
                <path d="M142.527273,144.086475 L36.5454545,144.086475 C33.5304545,144.086475 31.0636364,141.627546 31.0636364,138.622189 L31.0636364,69.2886 C31.0636364,66.2832429 33.5304545,63.8243143 36.5454545,63.8243143 L142.527273,63.8243143 C145.542273,63.8243143 148.009091,66.2832429 148.009091,69.2886 L148.009091,138.622189 C148.009091,141.627546 145.542273,144.086475 142.527273,144.086475 Z" id="Stroke-42" stroke="#3C4FBC" stroke-width="3" stroke-linecap="round" stroke-linejoin="round"></path>
                <path d="M86.7954545,100.633655 C86.7954545,101.639084 85.9768364,102.455084 84.9681818,102.455084 C83.9595273,102.455084 83.1409091,101.639084 83.1409091,100.633655 C83.1409091,99.6282268 83.9595273,98.8122268 84.9681818,98.8122268 C85.9768364,98.8122268 86.7954545,99.6282268 86.7954545,100.633655" id="Fill-44" fill="#3C4FBC"></path>
                <path d="M102.327273,100.633655 C102.327273,101.639084 101.508655,102.455084 100.5,102.455084 C99.4913455,102.455084 98.6727273,101.639084 98.6727273,100.633655 C98.6727273,99.6282268 99.4913455,98.8122268 100.5,98.8122268 C101.508655,98.8122268 102.327273,99.6282268 102.327273,100.633655" id="Fill-46" fill="#3C4FBC"></path>
                <path d="M84.9681818,108.374727 L100.5,108.374727 C100.5,108.374727 100.5,114.749727 95.9318182,114.749727 C88.6227273,114.749727 84.9681818,114.749727 84.9681818,108.374727" id="Fill-48" fill="#3C4FBC"></path>
            </g>
        </g>
    </g>
</svg>