<?xml version="1.0" encoding="UTF-8"?>
<svg width="123px" height="147px" viewBox="0 0 123 147" version="1.1" xmlns="http://www.w3.org/2000/svg" xmlns:xlink="http://www.w3.org/1999/xlink">
    <!-- Generator: Sketch 43.1 (39012) - http://www.bohemiancoding.com/sketch -->
    <title>Group 4</title>
    <desc>Created with Sketch.</desc>
    <defs>
        <polygon id="path-1" points="0.751976923 0.564476744 10.0859 0.564476744 10.0859 9.9285093 0.751976923 9.9285093 0.751976923 0.564476744"></polygon>
    </defs>
    <g id="Crear_minuta" stroke="none" stroke-width="1" fill="none" fill-rule="evenodd">
        <g id="03_crear_minura" transform="translate(-654.000000, -328.000000)">
            <g id="Group-4" transform="translate(656.000000, 328.000000)">
                <path d="M13.3114385,108.802765 L10.7814385,108.802765 L10.7814385,106.264742 C10.7814385,105.709602 10.3287462,105.255474 9.77536154,105.255474 L9.52405385,105.255474 C8.97151538,105.255474 8.51882308,105.709602 8.51882308,106.264742 L8.51882308,108.802765 L5.98882308,108.802765 C5.43543846,108.802765 4.98274615,109.256044 4.98274615,109.811184 L4.98274615,110.063288 C4.98274615,110.619277 5.43543846,111.072556 5.98882308,111.072556 L8.51882308,111.072556 L8.51882308,113.610579 C8.51882308,114.16487 8.97151538,114.619847 9.52405385,114.619847 L9.77536154,114.619847 C10.3287462,114.619847 10.7814385,114.16487 10.7814385,113.610579 L10.7814385,111.072556 L13.3114385,111.072556 C13.8648231,111.072556 14.3166692,110.619277 14.3166692,110.063288 L14.3166692,109.811184 C14.3166692,109.256044 13.8648231,108.802765 13.3114385,108.802765" id="Fill-1" fill="#B7C1F8"></path>
                <g id="Group-5" transform="translate(41.461538, 0.284360)">
                    <mask id="mask-2" fill="white">
                        <use xlink:href="#path-1"></use>
                    </mask>
                    <g id="Clip-4"></g>
                    <path d="M9.08066923,4.11142791 L6.55066923,4.11142791 L6.55066923,1.57340465 C6.55066923,1.01826512 6.09797692,0.564137209 5.54459231,0.564137209 L5.29328462,0.564137209 C4.74074615,0.564137209 4.28805385,1.01826512 4.28805385,1.57340465 L4.28805385,4.11142791 L1.75805385,4.11142791 C1.20466923,4.11142791 0.751976923,4.56555581 0.751976923,5.11984651 L0.751976923,5.37195116 C0.751976923,5.9270907 1.20466923,6.3812186 1.75805385,6.3812186 L4.28805385,6.3812186 L4.28805385,8.91924186 C4.28805385,9.4743814 4.74074615,9.9285093 5.29328462,9.9285093 L5.54459231,9.9285093 C6.09797692,9.9285093 6.55066923,9.4743814 6.55066923,8.91924186 L6.55066923,6.3812186 L9.08066923,6.3812186 C9.63405385,6.3812186 10.0859,5.9270907 10.0859,5.37195116 L10.0859,5.11984651 C10.0859,4.56555581 9.63405385,4.11142791 9.08066923,4.11142791" id="Fill-3" fill="#919FF3" mask="url(#mask-2)"></path>
                </g>
                <path d="M119.926823,74.8492767 L117.396823,74.8492767 L117.396823,72.3112535 C117.396823,71.756114 116.944131,71.301986 116.390746,71.301986 L116.139438,71.301986 C115.5869,71.301986 115.134208,71.756114 115.134208,72.3112535 L115.134208,74.8492767 L112.604208,74.8492767 C112.050823,74.8492767 111.598131,75.3025558 111.598131,75.8576953 L111.598131,76.1098 C111.598131,76.6657884 112.050823,77.1190674 112.604208,77.1190674 L115.134208,77.1190674 L115.134208,79.6570907 C115.134208,80.2113814 115.5869,80.6663581 116.139438,80.6663581 L116.390746,80.6663581 C116.944131,80.6663581 117.396823,80.2113814 117.396823,79.6570907 L117.396823,77.1190674 L119.926823,77.1190674 C120.480208,77.1190674 120.932054,76.6657884 120.932054,76.1098 L120.932054,75.8576953 C120.932054,75.3025558 120.480208,74.8492767 119.926823,74.8492767" id="Fill-6" fill="#3C4FBC"></path>
                <path d="M20.1546231,28.4993698 L20.1546231,28.4993698 C19.5453923,29.2056023 18.4716231,29.2836953 17.7676231,28.6733814 L9.44654615,21.4565674 C8.74254615,20.8454047 8.66385385,19.7682302 9.27308462,19.0619977 C9.88146923,18.3557651 10.9560846,18.2776721 11.6600846,18.887986 L19.9811615,26.1048 C20.6851615,26.715114 20.7630077,27.7931372 20.1546231,28.4993698" id="Fill-8" fill="#FFFFFF"></path>
                <path d="M20.1546231,28.4993698 L20.1546231,28.4993698 C19.5453923,29.2056023 18.4716231,29.2836953 17.7676231,28.6733814 L9.44654615,21.4565674 C8.74254615,20.8454047 8.66385385,19.7682302 9.27308462,19.0619977 C9.88146923,18.3557651 10.9560846,18.2776721 11.6600846,18.887986 L19.9811615,26.1048 C20.6851615,26.715114 20.7630077,27.7931372 20.1546231,28.4993698 Z" id="Stroke-10" fill="#B7C1F8"></path>
                <path d="M101.444454,14.0189709 C101.444454,15.6597733 100.118531,16.9899012 98.4829154,16.9899012 C96.8473,16.9899012 95.5213769,15.6597733 95.5213769,14.0189709 C95.5213769,12.3781686 96.8473,11.0480407 98.4829154,11.0480407 C100.118531,11.0480407 101.444454,12.3781686 101.444454,14.0189709" id="Fill-12" fill="#6878D2"></path>
                <path d="M65.5184538,51.4076186 L45.0965308,51.4076186 C44.2317615,51.4076186 43.5243769,50.6979907 43.5243769,49.8313279 L43.5243769,49.606386 C43.5243769,48.7388744 44.2317615,48.0300953 45.0965308,48.0300953 L65.5184538,48.0300953 C66.3823769,48.0300953 67.0897615,48.7388744 67.0897615,49.606386 L67.0897615,49.8313279 C67.0897615,50.6979907 66.3823769,51.4076186 65.5184538,51.4076186" id="Fill-14" fill="#B7C1F8"></path>
                <path d="M83.0236846,51.4076186 L71.3543769,51.4076186 C70.4896077,51.4076186 69.7830692,50.6979907 69.7830692,49.8313279 L69.7830692,49.606386 C69.7830692,48.7388744 70.4896077,48.0300953 71.3543769,48.0300953 L83.0236846,48.0300953 C83.8876077,48.0300953 84.5949923,48.7388744 84.5949923,49.606386 L84.5949923,49.8313279 C84.5949923,50.6979907 83.8876077,51.4076186 83.0236846,51.4076186" id="Fill-16" fill="#6878D2"></path>
                <path d="M76.5729462,105.504438 L64.9036385,105.504438 C64.0388692,105.504438 63.3323308,104.79481 63.3323308,103.928997 L63.3323308,103.704055 C63.3323308,102.836543 64.0388692,102.126915 64.9036385,102.126915 L76.5729462,102.126915 C77.4368692,102.126915 78.1442538,102.836543 78.1442538,103.704055 L78.1442538,103.928997 C78.1442538,104.79481 77.4368692,105.504438 76.5729462,105.504438" id="Fill-18" fill="#EEF0FE"></path>
                <path d="M87.7365923,62.2137407 L61.2553615,62.2137407 C60.3905923,62.2137407 59.6840538,61.5041128 59.6840538,60.6382988 L59.6840538,60.413357 C59.6840538,59.5458453 60.3905923,58.8362174 61.2553615,58.8362174 L87.7365923,58.8362174 C88.6005154,58.8362174 89.3079,59.5458453 89.3079,60.413357 L89.3079,60.6382988 C89.3079,61.5041128 88.6005154,62.2137407 87.7365923,62.2137407" id="Fill-20" fill="#EEF0FE"></path>
                <path d="M72.7963077,96.1672291 L53.6393846,96.1672291 C52.7754615,96.1672291 52.0680769,95.4576012 52.0680769,94.5917872 C52.0680769,93.7242756 52.7754615,93.0146477 53.6393846,93.0146477 L72.7963077,93.0146477 C73.6602308,93.0146477 74.3676154,93.7242756 74.3676154,94.5917872 C74.3676154,95.4576012 73.6602308,96.1672291 72.7963077,96.1672291" id="Fill-22" fill="#B7C1F8"></path>
                <path d="M105.621915,94.0368174 L106.015377,125.282515" id="Stroke-24" stroke-opacity="0.290223053" stroke="#3C4FBC" stroke-width="4" stroke-linecap="round"></path>
                <path d="M106.7209,131.340921 L106.8089,139.107781" id="Fill-26" fill="#95BBE8"></path>
                <path d="M98.3713077,132.223712 C98.3713077,132.223712 96.9607692,46.885014 97.5412308,40.4695023 C98.3713077,31.3003628 110.120154,34.0285256 110.120154,34.0285256 C108.607231,32.8919326 106.739769,33.1194209 104.715769,33.1194209 L44.8969231,33.1194209 C39.9122308,33.1194209 35.8337692,37.2099674 35.8337692,42.2113163 L35.8337692,57.7815372" id="Stroke-28" stroke="#3C4FBC" stroke-width="3" stroke-linecap="round" stroke-linejoin="round"></path>
                <path d="M107.888085,33.5737186 C121.936777,35.8469047 119.217238,48.5760674 119.217238,48.5760674 L105.622085,48.5760674" id="Stroke-30" stroke="#3C4FBC" stroke-width="3" stroke-linecap="round" stroke-linejoin="round"></path>
                <path d="M98.3713077,131.314352 C98.3713077,136.769829 100.248923,146.231817 87.4948462,144.951771 C78.4316923,144.043515 81.1503846,125.858876 81.1503846,125.858876 L17.7066154,125.858876 C17.7066154,125.858876 14.0816923,144.951771 26.7706154,144.951771 L63.0240769,144.951771" id="Stroke-32" stroke="#3C4FBC" stroke-width="3" stroke-linecap="round" stroke-linejoin="round"></path>
                <path d="M35,105.268971 L35,124.040157" id="Stroke-34" stroke="#3C4FBC" stroke-width="3" stroke-linecap="round" stroke-linejoin="round"></path>
                <path d="M73.9002,145 L86.5891231,145" id="Stroke-36" stroke="#3C4FBC" stroke-width="3" stroke-linecap="round" stroke-linejoin="round"></path>
                <path d="M105.621915,55.8490744 L113.779685,55.8490744" id="Stroke-38" stroke="#919FF3" stroke-width="4" stroke-linecap="round"></path>
                <path d="M46.8675308,98.4782733 C45.1752231,99.3271105 18.0983,90.8387384 18.0983,90.8387384 L27.4059923,87.4433895 C27.4059923,87.4433895 18.9444538,90.8387384 10.4829154,83.1992035 C2.02137692,75.5596686 1.17522308,69.6178081 1.17522308,69.6178081 C1.17522308,69.6178081 11.3290692,72.1643198 10.4829154,72.1643198 C9.63676154,72.1643198 2.86753077,67.9201337 1.17522308,57.7340872 C-0.517084615,47.5480407 1.17522308,44.1526919 1.17522308,44.1526919 C1.17522308,44.1526919 12.1752231,53.4899012 18.0983,56.0364128 C24.0213769,58.5829244 34.1752231,61.5538547 32.4829154,74.2864128 L35.8675308,64.5247849 C35.8675308,64.5247849 46.8675308,78.1061802 46.8675308,88.2922267 L46.8675308,98.4782733 Z" id="Fill-40" fill="#FFFFFF"></path>
                <path d="M46.8675308,98.4782733 C45.1752231,99.3271105 18.0983,90.8387384 18.0983,90.8387384 L27.4059923,87.4433895 C27.4059923,87.4433895 18.9444538,90.8387384 10.4829154,83.1992035 C2.02137692,75.5596686 1.17522308,69.6178081 1.17522308,69.6178081 C1.17522308,69.6178081 11.3290692,72.1643198 10.4829154,72.1643198 C9.63676154,72.1643198 2.86753077,67.9201337 1.17522308,57.7340872 C-0.517084615,47.5480407 1.17522308,44.1526919 1.17522308,44.1526919 C1.17522308,44.1526919 12.1752231,53.4899012 18.0983,56.0364128 C24.0213769,58.5829244 34.1752231,61.5538547 32.4829154,74.2864128 L35.8675308,64.5247849 C35.8675308,64.5247849 46.8675308,78.1061802 46.8675308,88.2922267 L46.8675308,98.4782733 Z" id="Stroke-42" stroke="#3C4FBC" stroke-width="3" stroke-linejoin="round"></path>
                <g id="Group-47" transform="translate(14.384615, 63.947151)">
                    <path d="M0.329069231,0.153215116 L40.5213769,42.170657" id="Fill-44" fill="#F4F9F9"></path>
                    <path d="M0.329069231,0.153215116 L40.5213769,42.170657" id="Stroke-46" stroke="#3C4FBC" stroke-width="3" stroke-linecap="round" stroke-linejoin="round"></path>
                </g>
            </g>
        </g>
    </g>
</svg>