<?xml version="1.0" encoding="UTF-8"?>
<svg width="190px" height="134px" viewBox="0 0 190 134" version="1.1" xmlns="http://www.w3.org/2000/svg" xmlns:xlink="http://www.w3.org/1999/xlink">
    <!-- Generator: Sketch 43.1 (39012) - http://www.bohemiancoding.com/sketch -->
    <title>Group 4</title>
    <desc>Created with Sketch.</desc>
    <defs></defs>
    <g id="Crear_Brief" stroke="none" stroke-width="1" fill="none" fill-rule="evenodd">
        <g id="02_crear_brief" transform="translate(-284.000000, -340.000000)">
            <g id="Group-4" transform="translate(284.000000, 340.000000)">
                <path d="M55.0228864,129.003952 L42.9590566,132.95879 C42.9590566,132.95879 38.93778,133.617661 36.525014,129.662823 C34.1122481,125.70879 7.57182255,43.7555645 7.57182255,43.7555645 C7.57182255,43.7555645 7.16969489,39.963629 9.58246085,38.6450806 C11.9952268,37.3265323 52.6101204,25.7418548 52.6101204,25.7418548" id="Stroke-1" stroke="#3C4FBC" stroke-width="2" stroke-linecap="round"></path>
                <path d="M141.053113,126.794919 L153.116943,130.541694 C153.116943,130.541694 157.138219,131.165887 159.550985,127.419113 C161.963751,123.672339 188.504177,46.0328226 188.504177,46.0328226 C188.504177,46.0328226 188.906304,42.4408871 186.493538,41.1916935 C184.080772,39.9433065 143.465879,28.9675 143.465879,28.9675" id="Stroke-3" stroke="#3C4FBC" stroke-width="2" stroke-linecap="round"></path>
                <g id="Group-8" transform="translate(57.906383, 3.967742)">
                    <path d="M1.94203532,82.6333065 L0.333524681,4.80830645 C0.333524681,4.80830645 1.13778,1.13733871 4.75692894,0.770403226 C8.37607787,0.403467742 22.8526736,0.403467742 22.8526736,0.403467742 C22.8526736,0.403467742 30.0909715,7.01153226 42.1548013,6.27685484 C55.79658,5.44701613 57.4356523,0.403467742 58.2399077,0.403467742 C59.044163,0.403467742 76.73778,1.13733871 76.73778,1.13733871 C76.73778,1.13733871 80.7590566,1.13733871 80.7590566,9.94782258 C80.7590566,20.2268548 79.150546,127.419597 79.150546,127.419597 L2.06026085,125.250242" id="Fill-5" fill="#FFFFFF"></path>
                    <path d="M1.94203532,82.6333065 L0.333524681,4.80830645 C0.333524681,4.80830645 1.13778,1.13733871 4.75692894,0.770403226 C8.37607787,0.403467742 22.8526736,0.403467742 22.8526736,0.403467742 C22.8526736,0.403467742 30.0909715,7.01153226 42.1548013,6.27685484 C55.79658,5.44701613 57.4356523,0.403467742 58.2399077,0.403467742 C59.044163,0.403467742 76.73778,1.13733871 76.73778,1.13733871 C76.73778,1.13733871 80.7590566,1.13733871 80.7590566,9.94782258 C80.7590566,20.2268548 79.150546,127.419597 79.150546,127.419597 L2.06026085,125.250242" id="Stroke-7" stroke="#3C4FBC" stroke-width="2" stroke-linecap="round" stroke-linejoin="round"></path>
                </g>
                <g id="Group-12" transform="translate(7.238298, 82.193548)">
                    <path d="M0.333524681,0.403225806 L13.2016098,34.2741935" id="Fill-9" fill="#FFFFFF"></path>
                    <path d="M7.26170213,18.3064516 L13.2016098,34.2741935" id="Stroke-11" stroke="#7D8BDA" stroke-width="3" stroke-linecap="round" stroke-linejoin="round"></path>
                </g>
                <g id="Group-18" transform="translate(59.514894, 103.967742)">
                    <path d="M0.333524681,0.403225806 L0.333524681,17.3387097" id="Fill-15" fill="#FFFFFF"></path>
                    <path d="M0,0.403225806 L0,17.3387097" id="Stroke-17" stroke="#3C4FBC" stroke-width="2" stroke-linecap="round" stroke-linejoin="round"></path>
                </g>
                <path d="M144.697354,20.9032258 L144.760891,12.8387097" id="Stroke-19" stroke="#7D8BDA" stroke-width="2" stroke-linecap="round" stroke-linejoin="round"></path>
                <path d="M97.6484183,33 L73.5207587,33 C72.4149077,33 71.5101204,32.0927419 71.5101204,30.983871 C71.5101204,29.875 72.4149077,28.9677419 73.5207587,28.9677419 L97.6484183,28.9677419 C98.7542694,28.9677419 99.6590566,29.875 99.6590566,30.983871 C99.6590566,32.0927419 98.7542694,33 97.6484183,33" id="Fill-21" fill="#6878D2"></path>
                <path d="M118.559057,33 L104.886716,33 C103.780865,33 102.876078,32.0927419 102.876078,30.983871 C102.876078,29.875 103.780865,28.9677419 104.886716,28.9677419 L118.559057,28.9677419 C119.664908,28.9677419 120.569695,29.875 120.569695,30.983871 C120.569695,32.0927419 119.664908,33 118.559057,33" id="Fill-23" fill="#B7C1F8"></path>
                <path d="M85.5845885,45.9032258 L71.9122481,45.9032258 C70.806397,45.9032258 69.9016098,44.9959677 69.9016098,43.8870968 C69.9016098,42.7782258 70.806397,41.8709677 71.9122481,41.8709677 L85.5845885,41.8709677 C86.6904396,41.8709677 87.5952268,42.7782258 87.5952268,43.8870968 C87.5952268,44.9959677 86.6904396,45.9032258 85.5845885,45.9032258" id="Fill-25" fill="#6878D2"></path>
                <path d="M36.0058672,52.2083871 L22.7589779,55.6019355 C21.6869055,55.876129 20.5866843,55.2212903 20.3132374,54.1470968 C20.0389864,53.0729032 20.6920417,51.968871 21.7633098,51.6946774 L35.0101991,48.3019355 C36.0822715,48.0269355 37.1824928,48.6817742 37.4559396,49.7559677 C37.7301906,50.8309677 37.0771353,51.9341935 36.0058672,52.2083871" id="Fill-27" fill="#6878D2"></path>
                <path d="M48.8739523,57.0470968 L35.627063,60.4406452 C34.5549906,60.7148387 33.4547694,60.06 33.1813226,58.9858065 C32.9070715,57.9116129 33.5601268,56.8075806 34.6313949,56.5333871 L47.8782843,53.1406452 C48.9503566,52.8656452 50.0505779,53.5204839 50.3240247,54.5946774 C50.5982757,55.6696774 49.9452204,56.7729032 48.8739523,57.0470968" id="Fill-29" fill="#B7C1F8"></path>
                <path d="M29.5718247,63.4987097 L23.8672417,64.96 C22.7959736,65.2341935 21.6949481,64.5801613 21.4215013,63.5051613 C21.1480545,62.4309677 21.8003055,61.3277419 22.8715736,61.0535484 L28.5761566,59.5922581 C29.6482289,59.3172581 30.7484502,59.9720968 31.021897,61.0462903 C31.2961481,62.1212903 30.6430928,63.2245161 29.5718247,63.4987097" id="Fill-31" fill="#6878D2"></path>
                <path d="M48.069697,48.9825806 L42.365114,50.443871 C41.293846,50.7180645 40.1928204,50.0640323 39.9193736,48.9890323 C39.6459268,47.9148387 40.2981779,46.8116129 41.369446,46.5374194 L47.0740289,45.076129 C48.1461013,44.801129 49.2463226,45.4559677 49.5197694,46.5301613 C49.7940204,47.6051613 49.1409651,48.7083871 48.069697,48.9825806" id="Fill-33" fill="#B7C1F8"></path>
                <path d="M164.458551,50.4792742 L151.386185,46.4615323 C150.329394,46.1357258 149.729419,45.0026613 150.053534,43.9429839 C150.377649,42.8825 151.507628,42.2808871 152.565223,42.6058871 L165.636785,46.623629 C166.694381,46.9494355 167.294355,48.0825 166.97024,49.1421774 C166.646126,50.2026613 165.515343,50.8042742 164.458551,50.4792742" id="Fill-35" fill="#B7C1F8"></path>
                <path d="M172.93307,61.3278226 L159.861508,57.3100806 C158.803912,56.9850806 158.203938,55.8512097 158.528053,54.7915323 C158.852168,53.7310484 159.982146,53.1294355 161.039742,53.4544355 L174.111304,57.4721774 C175.1689,57.7979839 175.768874,58.9310484 175.444759,59.9907258 C175.120644,61.0512097 173.990666,61.6528226 172.93307,61.3278226" id="Fill-37" fill="#6878D2"></path>
                <path d="M153.103592,56.7604032 L147.473805,55.0297581 C146.417013,54.7055645 145.817039,53.5716935 146.141154,52.5112097 C146.465269,51.4515323 147.595247,50.8499194 148.652843,51.1749194 L154.281826,52.9055645 C155.339422,53.2305645 155.939396,54.363629 155.615281,55.4233065 C155.291166,56.4837903 154.160383,57.0854032 153.103592,56.7604032" id="Fill-39" fill="#B7C1F8"></path>
                <path d="M176.433269,54.0220968 L170.804286,52.2914516 C169.747495,51.9672581 169.146716,50.8333871 169.470831,49.7737097 C169.79575,48.7132258 170.925729,48.1116129 171.98252,48.4366129 L177.611503,50.1672581 C178.669099,50.4922581 179.269074,51.6253226 178.944959,52.6858065 C178.620844,53.7454839 177.490865,54.3470968 176.433269,54.0220968" id="Fill-41" fill="#6878D2"></path>
                <path d="M124.188844,45.9032258 L92.8228864,45.9032258 C91.7170353,45.9032258 90.8122481,44.9959677 90.8122481,43.8870968 C90.8122481,42.7782258 91.7170353,41.8709677 92.8228864,41.8709677 L124.188844,41.8709677 C125.294695,41.8709677 126.199482,42.7782258 126.199482,43.8870968 C126.199482,44.9959677 125.294695,45.9032258 124.188844,45.9032258" id="Fill-43" fill="#B7C1F8"></path>
                <path d="M185.587947,16.1960484 L183.183223,16.1960484 L183.183223,13.7847581 C183.183223,13.2573387 182.752947,12.8258871 182.226964,12.8258871 L181.9881,12.8258871 C181.462921,12.8258871 181.032645,13.2573387 181.032645,13.7847581 L181.032645,16.1960484 L178.627921,16.1960484 C178.101938,16.1960484 177.671662,16.6275 177.671662,17.1541129 L177.671662,17.393629 C177.671662,17.9210484 178.101938,18.3525 178.627921,18.3525 L181.032645,18.3525 L181.032645,20.7637903 C181.032645,21.2912097 181.462921,21.7226613 181.9881,21.7226613 L182.226964,21.7226613 C182.752947,21.7226613 183.183223,21.2912097 183.183223,20.7637903 L183.183223,18.3525 L185.587947,18.3525 C186.11393,18.3525 186.543402,17.9210484 186.543402,17.393629 L186.543402,17.1541129 C186.543402,16.6275 186.11393,16.1960484 185.587947,16.1960484" id="Fill-49" fill="#919FF3"></path>
                <path d="M11.1348345,10.8702419 L11.1348345,10.8702419 C10.5557706,11.5412097 9.53517064,11.6154032 8.86603021,11.0355645 L0.956983404,4.1791129 C0.287842979,3.59846774 0.213047234,2.57508065 0.792111064,1.9041129 C1.37037064,1.23314516 2.39177489,1.15895161 3.06091532,1.73879032 L10.9699621,8.59524194 C11.6391026,9.17508065 11.713094,10.1992742 11.1348345,10.8702419" id="Fill-51" fill="#FFFFFF"></path>
                <path d="M125.10859,100.513548 L103.39048,78.736129 C102.92562,78.27 102.173641,78.27 101.71039,78.736129 L90.8223817,89.6522581 L87.4670285,86.2885484 C87.0222753,85.8425806 86.2333009,85.8425806 85.7877434,86.2885484 L71.6014838,100.513548 L71.6014838,66.8337097 L125.10859,66.8337097 L125.10859,100.513548 Z M73.2815732,102.198226 L86.627386,88.8159677 L89.9827391,92.1796774 C90.4467945,92.645 91.1979689,92.645 91.6628285,92.1796774 L102.550033,81.2627419 L123.429305,102.198226 L73.2815732,102.198226 Z M126.296475,64.4514516 L70.4135987,64.4514516 C69.7573264,64.4514516 69.2257136,64.9853226 69.2257136,65.6425806 L69.2257136,103.389355 C69.2257136,103.467581 69.2337562,103.545806 69.249037,103.622419 C69.2554711,103.657903 69.2691434,103.690161 69.2787945,103.724839 C69.2908583,103.765161 69.3005094,103.80629 69.3157902,103.845 C69.3326796,103.885323 69.3551987,103.921613 69.3761094,103.95871 C69.3929987,103.989355 69.4066711,104.020806 69.4259732,104.049839 C69.5128328,104.180484 69.6246243,104.292581 69.7541094,104.379677 C69.7830626,104.399032 69.8136243,104.411935 69.8425774,104.428065 C69.881986,104.449839 69.9181774,104.473226 69.9591945,104.489355 C69.998603,104.505484 70.0380115,104.515161 70.0782243,104.526452 C70.1128072,104.536935 70.1457817,104.549839 70.1811689,104.557097 C70.2583774,104.572419 70.335586,104.580484 70.4135987,104.580484 L126.296475,104.580484 C126.374488,104.580484 126.452501,104.572419 126.528905,104.557097 C126.564292,104.550645 126.595658,104.536935 126.629437,104.528065 C126.670454,104.515161 126.711471,104.505484 126.75088,104.489355 C126.790288,104.473226 126.824871,104.450645 126.861867,104.43129 C126.893233,104.413548 126.926207,104.399839 126.95516,104.379677 C127.086254,104.292581 127.197241,104.180484 127.284905,104.049839 C127.304207,104.020806 127.317075,103.989355 127.333965,103.95871 C127.354071,103.921613 127.377394,103.885323 127.39348,103.845 C127.409565,103.80629 127.419216,103.765161 127.430475,103.724839 C127.440931,103.690161 127.453799,103.657903 127.461037,103.622419 C127.476318,103.545806 127.48436,103.468387 127.48436,103.389355 L127.48436,65.6425806 C127.48436,64.9853226 126.952748,64.4514516 126.296475,64.4514516 L126.296475,64.4514516 Z" id="Fill-55" fill-opacity="0.296620245" fill="#B7C1F8"></path>
                <path d="M100.519127,86.3081452 L95.56974,91.2710484 C95.1056847,91.7355645 95.1056847,92.4912097 95.56974,92.9557258 C95.8013655,93.1879839 96.105374,93.3049194 96.4093826,93.3049194 C96.7133911,93.3049194 97.0173996,93.1879839 97.2498294,92.9557258 L102.199217,87.9928226 C102.663272,87.5275 102.663272,86.7734677 102.199217,86.3081452 C101.735966,85.8428226 100.983183,85.8428226 100.519127,86.3081452" id="Fill-57" fill="#E9ECFD"></path>
                <path d="M84.9394149,93.5169355 L80.2867979,98.1830645 C79.8227426,98.6483871 79.8227426,99.4016129 80.2867979,99.8677419 C80.5184234,100.1 80.8224319,100.216129 81.1264404,100.216129 C81.4304489,100.216129 81.7352617,100.1 81.9668872,99.8677419 L86.6195043,95.2016129 C87.0835596,94.7362903 87.0835596,93.9822581 86.6195043,93.5169355 C86.1554489,93.0516129 85.4034702,93.0516129 84.9394149,93.5169355" id="Fill-59" fill="#E9ECFD"></path>
                <path d="M79.5459983,72.5916935 C81.0740834,72.5916935 82.3174621,73.8384677 82.3174621,75.3715323 C82.3174621,76.9037903 81.0740834,78.1505645 79.5459983,78.1505645 C78.0171089,78.1505645 76.7737302,76.9037903 76.7737302,75.3715323 C76.7737302,73.8384677 78.0171089,72.5916935 79.5459983,72.5916935 M79.5459983,80.5328226 C82.3842153,80.5328226 84.6932323,78.2175 84.6932323,75.3715323 C84.6932323,72.5255645 82.3842153,70.2094355 79.5459983,70.2094355 C76.706977,70.2094355 74.39796,72.5255645 74.39796,75.3715323 C74.39796,78.2175 76.706977,80.5328226 79.5459983,80.5328226" id="Fill-61" fill="#E9ECFD"></path>
                <path d="M146.305865,8 C146.305865,8.89032258 145.585252,9.61290323 144.697354,9.61290323 C143.809457,9.61290323 143.088844,8.89032258 143.088844,8 C143.088844,7.10967742 143.809457,6.38709677 144.697354,6.38709677 C145.585252,6.38709677 146.305865,7.10967742 146.305865,8" id="Fill-63" fill="#3C4FBC"></path>
                <path d="M48.6425747,2.82258065 C48.6425747,4.38145161 47.3823066,5.64516129 45.8276811,5.64516129 C44.2730556,5.64516129 43.0127875,4.38145161 43.0127875,2.82258065 C43.0127875,1.26370968 44.2730556,0 45.8276811,0 C47.3823066,0 48.6425747,1.26370968 48.6425747,2.82258065" id="Fill-65" fill="#6F82EF"></path>
                <path d="M24,124.005462 C24,125.11305 23.1045714,126.010923 22,126.010923 C20.8954286,126.010923 20,125.11305 20,124.005462 C20,122.897874 20.8954286,122 22,122 C23.1045714,122 24,122.897874 24,124.005462" id="Fill-65-Copy" fill="#3C4FBC"></path>
            </g>
        </g>
    </g>
</svg>