<?xml version="1.0" encoding="UTF-8"?>
<svg width="30px" height="30px" viewBox="0 0 30 30" version="1.1" xmlns="http://www.w3.org/2000/svg" xmlns:xlink="http://www.w3.org/1999/xlink">
    <!-- Generator: Sketch 51.2 (57519) - http://www.bohemiancoding.com/sketch -->
    <title>avatar/aprobador</title>
    <desc>Created with Sketch.</desc>
    <defs></defs>
    <g id="Observaciones_04" stroke="none" stroke-width="1" fill="none" fill-rule="evenodd">
        <g id="02_devoluciones" transform="translate(-1150.000000, -214.000000)">
            <g id="avatar/aprobador" transform="translate(1150.000000, 214.000000)">
                <circle id="Oval" stroke="#66AC1A" cx="15" cy="15" r="14.3478261"></circle>
                <g id="Group" fill-rule="evenodd">
                    <path d="M15,28.0434783 C7.79628587,28.0434783 1.95652174,22.2037141 1.95652174,15 C1.95652174,7.79628587 7.79628587,1.95652174 15,1.95652174 C22.2037141,1.95652174 28.0434783,7.79628587 28.0434783,15 C28.0434783,22.2037141 22.2037141,28.0434783 15,28.0434783 Z M15,26.8577075 C21.548831,26.8577075 26.8577075,21.548831 26.8577075,15 C26.8577075,8.45116897 21.548831,3.14229249 15,3.14229249 C8.45116897,3.14229249 3.14229249,8.45116897 3.14229249,15 C3.14229249,21.548831 8.45116897,26.8577075 15,26.8577075 Z" id="Combined-Shape" fill="#66AC1A"></path>
                    <path d="M15,30 C6.71572875,30 0,23.2842712 0,15 C0,6.71572875 6.71572875,0 15,0 C23.2842712,0 30,6.71572875 30,15 C30,23.2842712 23.2842712,30 15,30 Z M15,28.6956522 C22.5638998,28.6956522 28.6956522,22.5638998 28.6956522,15 C28.6956522,7.43610017 22.5638998,1.30434783 15,1.30434783 C7.43610017,1.30434783 1.30434783,7.43610017 1.30434783,15 C1.30434783,22.5638998 7.43610017,28.6956522 15,28.6956522 Z" id="Combined-Shape-Copy"></path>
                </g>
            </g>
        </g>
    </g>
</svg>