<?xml version="1.0" encoding="UTF-8"?>
<svg width="9px" height="13px" viewBox="0 0 9 13" version="1.1" xmlns="http://www.w3.org/2000/svg" xmlns:xlink="http://www.w3.org/1999/xlink">
    <!-- Generator: Sketch 51.2 (57519) - http://www.bohemiancoding.com/sketch -->
    <title>Shape</title>
    <desc>Created with Sketch.</desc>
    <defs></defs>
    <g id="Minuta_programada_crear" stroke="none" stroke-width="1" fill="none" fill-rule="evenodd" opacity="0.309725996">
        <g id="08_minuta_programada" transform="translate(-855.000000, -560.000000)" fill="#4F5C69">
            <g id="Group-8" transform="translate(420.000000, 79.000000)">
                <g id="ic_place_24px-copy-5" transform="translate(431.000000, 480.000000)">
                    <g id="Group">
                        <path d="M8.16666667,1.66666667 C5.9552381,1.66666667 4.16666667,3.4552381 4.16666667,5.66666667 C4.16666667,8.66666667 8.16666667,13.0952381 8.16666667,13.0952381 C8.16666667,13.0952381 12.1666667,8.66666667 12.1666667,5.66666667 C12.1666667,3.4552381 10.3780952,1.66666667 8.16666667,1.66666667 L8.16666667,1.66666667 Z M8.16666667,7.0952381 C7.37809524,7.0952381 6.73809524,6.4552381 6.73809524,5.66666667 C6.73809524,4.87809524 7.37809524,4.23809524 8.16666667,4.23809524 C8.9552381,4.23809524 9.5952381,4.87809524 9.5952381,5.66666667 C9.5952381,6.4552381 8.9552381,7.0952381 8.16666667,7.0952381 L8.16666667,7.0952381 Z" id="Shape"></path>
                    </g>
                </g>
            </g>
        </g>
    </g>
</svg>