<?xml version="1.0" encoding="UTF-8"?>
<svg width="53px" height="53px" viewBox="0 0 53 53" version="1.1" xmlns="http://www.w3.org/2000/svg" xmlns:xlink="http://www.w3.org/1999/xlink">
    <!-- Generator: Sketch 43.1 (39012) - http://www.bohemiancoding.com/sketch -->
    <title>Group 7</title>
    <desc>Created with Sketch.</desc>
    <defs></defs>
    <g id="casillas" stroke="none" stroke-width="1" fill="none" fill-rule="evenodd">
        <g id="10_casillas-" transform="translate(-465.000000, -337.000000)" fill="#EEEFF0">
            <g id="ico-add-icons" transform="translate(465.000000, 337.000000)">
                <path id="symbol-add" d="M26.9807407,26.0192593 L26.9807407,15.6833333 L26.0192593,15.6833333 L26.0192593,26.0192593 L15.6833333,26.0192593 L15.6833333,26.9807407 L26.0192593,26.9807407 L26.0192593,37.3166667 L26.9807407,37.3166667 L26.9807407,26.9807407 L37.3166667,26.9807407 L37.3166667,26.0192593 L26.9807407,26.0192593 Z" id="Combined-Shape"></path>
                <path d="M17,1.76666667 L17,1.11022302e-15 L6.00243901,0 C2.68284357,0 0,2.68738348 0,6.00243901 L0,18 L1.76666667,18 L1.76666667,6.75909054 C1.76666667,4.00185097 4.00443962,1.76666667 6.75909054,1.76666667 L17,1.76666667 Z M17,51.2333333 L17,53 L6.00243901,53 C2.68738348,53 0,50.3171564 0,46.997561 L0,34 L1.76666667,34 L1.76666667,46.2409095 C1.76666667,48.9955604 4.00185097,51.2333333 6.75909054,51.2333333 L17,51.2333333 Z M36,1.76666667 L36,2.22044605e-16 L46.997561,0 C50.3126165,0 53,2.68284357 53,6.00243901 L53,18 L51.2333333,18 L51.2333333,6.75909054 C51.2333333,4.00443962 48.998149,1.76666667 46.2409095,1.76666667 L36,1.76666667 Z M36,51.2333333 L36,53 L46.997561,53 C50.3171564,53 53,50.3126165 53,46.997561 L53,34 L51.2333333,34 L51.2333333,46.2409095 C51.2333333,48.998149 48.9955604,51.2333333 46.2409095,51.2333333 L36,51.2333333 Z" id="Combined-Shape"></path>
            </g>
        </g>
    </g>
</svg>