<?xml version="1.0" encoding="UTF-8"?>
<svg width="150px" height="150px" viewBox="0 0 150 150" version="1.1" xmlns="http://www.w3.org/2000/svg" xmlns:xlink="http://www.w3.org/1999/xlink">
    <!-- Generator: Sketch 50.2 (55047) - http://www.bohemiancoding.com/sketch -->
    <title>img_equipos_vacio</title>
    <desc>Created with Sketch.</desc>
    <defs>
        <linearGradient x1="51.8644634%" y1="96.6266741%" x2="51.8644631%" y2="1.31975446%" id="linearGradient-1">
            <stop stop-color="#D3D4D6" offset="0%"></stop>
            <stop stop-color="#EEEFF3" offset="100%"></stop>
        </linearGradient>
    </defs>
    <g id="dashboard_vacio" stroke="none" stroke-width="1" fill="none" fill-rule="evenodd">
        <g id="04_dashboard_vacio" transform="translate(-645.000000, -242.000000)">
            <g id="img_equipos_vacio" transform="translate(645.000000, 242.000000)">
                <g id="ilustracion" transform="translate(27.000000, 38.000000)">
                    <g id="person" opacity="0.4" transform="translate(35.000000, 31.000000)">
                        <path d="M31.5388369,8.52996393 L29.5708575,8.52996393 L29.5708575,10.4979434 C29.5708575,11.2981161 28.9222865,11.9466871 28.1221138,11.9466871 L27.5825065,11.9466871 C26.7823338,11.9466871 26.1337629,11.2981161 26.1337629,10.4979434 L26.1337629,8.52996393 L24.1657834,8.52996393 C23.3656107,8.52996393 22.7170397,7.88139294 22.7170397,7.08122026 L22.7170397,6.54208675 C22.7170397,5.74191407 23.3656107,5.09334308 24.1657834,5.09334308 L26.1337629,5.09334308 L26.1337629,3.12536362 C26.1337629,2.32519095 26.7823338,1.67661996 27.5825065,1.67661996 L28.1221138,1.67661996 C28.9222865,1.67661996 29.5708575,2.32519095 29.5708575,3.12536362 L29.5708575,5.09334308 L31.5388369,5.09334308 C32.3390096,5.09334308 32.9875806,5.74191407 32.9875806,6.54208675 L32.9875806,7.08122026 C32.9875806,7.88091919 32.3390096,8.52996393 31.5388369,8.52996393 Z" id="Path" fill="#3E4758"></path>
                        <path d="M27.2072923,22.7923668 C27.2442452,22.9567599 27.2684068,23.1263643 27.2684068,23.3026013 L27.2684068,27.2821457 C27.2684068,28.5380709 26.2725732,29.556171 25.0450732,29.556171 L2.22333356,29.556171 C0.995359857,29.556171 0,28.5380709 0,27.2821457 L0,23.3026013 C0,23.1358394 0.019897722,22.9742889 0.0535343474,22.8174759 C0.395585664,17.8880521 4.18136416,13.7583273 8.80616326,12.1233978 C7.25508845,10.8741051 6.26067611,8.96202875 6.26067611,6.81544355 C6.26067611,3.0514578 9.31166015,0 13.0756459,0 C16.8396317,0 19.8906157,3.05193155 19.8906157,6.8159173 C19.8906157,8.94592107 18.9127848,10.8461535 17.3820815,12.09592 C22.3285604,13.7076355 26.8079166,17.8454141 27.2072923,22.7923668 Z" id="Path" fill="#3E4758"></path>
                        <path d="M2.93594114,23.5988693 C2.92998274,23.6341232 2.91508672,23.6663979 2.91508672,23.7031414 L2.91508672,26.0164928 C2.91508672,26.3864106 3.21499319,26.686317 3.58491094,26.686317 L5.29795286,26.686317 L8.86207312,26.686317 L23.6811271,26.686317 C24.0510448,26.686317 24.3509513,26.3864106 24.3509513,26.0164928 L24.3509513,23.7031414 C24.3509513,23.6703702 24.3365518,23.6420678 24.332083,23.6102896 C24.127511,18.7134724 18.2614596,14.7933373 13.1834076,14.7933373 C8.10932774,14.7933373 3.13405816,18.707514 2.93594114,23.5988693 Z" id="Path" fill="url(#linearGradient-1)"></path>
                        <path d="M13.0488469,2.45230072 C10.8448838,2.45230072 9.05802071,4.2391638 9.05802071,6.44312688 C9.05802071,8.64708997 10.8448838,10.433953 13.0488469,10.433953 C15.25281,10.433953 17.039673,8.64708997 17.039673,6.44312688 C17.039122,4.2391638 15.25281,2.45230072 13.0488469,2.45230072 Z" id="Path" fill="url(#linearGradient-1)"></path>
                    </g>
                    <g id="carpeta" fill-rule="nonzero" stroke="#3E4758" stroke-width="3">
                        <g id="Group">
                            <g id="Shape">
                                <path d="M4.04166667,0 L28.9652778,0 C30.2374219,0 31.4353247,0.610512162 32.1986111,1.64787097 L37.8569444,9.33793548 C38.6202308,10.3752943 39.8181337,10.9858065 41.0902778,10.9858065 L92.9583333,10.9858065 C95.1904841,10.9858065 97,12.8302489 97,15.1054839 L97,81.0203226 C97,83.2955575 95.1904841,85.14 92.9583333,85.14 L4.04166667,85.14 C1.80951587,85.14 0,83.2955575 0,81.0203226 L0,4.11967742 C0,1.84444247 1.80951587,0 4.04166667,0 Z"></path>
                            </g>
                        </g>
                    </g>
                </g>
                <g id="person" transform="translate(62.000000, 69.000000)">
                    <path d="M31.5388369,8.52996393 L29.5708575,8.52996393 L29.5708575,10.4979434 C29.5708575,11.2981161 28.9222865,11.9466871 28.1221138,11.9466871 L27.5825065,11.9466871 C26.7823338,11.9466871 26.1337629,11.2981161 26.1337629,10.4979434 L26.1337629,8.52996393 L24.1657834,8.52996393 C23.3656107,8.52996393 22.7170397,7.88139294 22.7170397,7.08122026 L22.7170397,6.54208675 C22.7170397,5.74191407 23.3656107,5.09334308 24.1657834,5.09334308 L26.1337629,5.09334308 L26.1337629,3.12536362 C26.1337629,2.32519095 26.7823338,1.67661996 27.5825065,1.67661996 L28.1221138,1.67661996 C28.9222865,1.67661996 29.5708575,2.32519095 29.5708575,3.12536362 L29.5708575,5.09334308 L31.5388369,5.09334308 C32.3390096,5.09334308 32.9875806,5.74191407 32.9875806,6.54208675 L32.9875806,7.08122026 C32.9875806,7.88091919 32.3390096,8.52996393 31.5388369,8.52996393 Z" id="Path" fill="#3E4758"></path>
                    <path d="M27.2072923,22.7923668 C27.2442452,22.9567599 27.2684068,23.1263643 27.2684068,23.3026013 L27.2684068,27.2821457 C27.2684068,28.5380709 26.2725732,29.556171 25.0450732,29.556171 L2.22333356,29.556171 C0.995359857,29.556171 0,28.5380709 0,27.2821457 L0,23.3026013 C0,23.1358394 0.019897722,22.9742889 0.0535343474,22.8174759 C0.395585664,17.8880521 4.18136416,13.7583273 8.80616326,12.1233978 C7.25508845,10.8741051 6.26067611,8.96202875 6.26067611,6.81544355 C6.26067611,3.0514578 9.31166015,0 13.0756459,0 C16.8396317,0 19.8906157,3.05193155 19.8906157,6.8159173 C19.8906157,8.94592107 18.9127848,10.8461535 17.3820815,12.09592 C22.3285604,13.7076355 26.8079166,17.8454141 27.2072923,22.7923668 Z" id="Path" fill="#3E4758"></path>
                    <path d="M2.93594114,23.5988693 C2.92998274,23.6341232 2.91508672,23.6663979 2.91508672,23.7031414 L2.91508672,26.0164928 C2.91508672,26.3864106 3.21499319,26.686317 3.58491094,26.686317 L5.29795286,26.686317 L8.86207312,26.686317 L23.6811271,26.686317 C24.0510448,26.686317 24.3509513,26.3864106 24.3509513,26.0164928 L24.3509513,23.7031414 C24.3509513,23.6703702 24.3365518,23.6420678 24.332083,23.6102896 C24.127511,18.7134724 18.2614596,14.7933373 13.1834076,14.7933373 C8.10932774,14.7933373 3.13405816,18.707514 2.93594114,23.5988693 Z" id="Path" fill="url(#linearGradient-1)"></path>
                    <path d="M13.0488469,2.45230072 C10.8448838,2.45230072 9.05802071,4.2391638 9.05802071,6.44312688 C9.05802071,8.64708997 10.8448838,10.433953 13.0488469,10.433953 C15.25281,10.433953 17.039673,8.64708997 17.039673,6.44312688 C17.039122,4.2391638 15.25281,2.45230072 13.0488469,2.45230072 Z" id="Path" fill="url(#linearGradient-1)"></path>
                </g>
            </g>
        </g>
    </g>
</svg>