<?xml version="1.0" encoding="UTF-8"?>
<svg width="150px" height="150px" viewBox="0 0 150 150" version="1.1" xmlns="http://www.w3.org/2000/svg" xmlns:xlink="http://www.w3.org/1999/xlink">
    <!-- Generator: Sketch 50.2 (55047) - http://www.bohemiancoding.com/sketch -->
    <title>img_papelera_vacia</title>
    <desc>Created with Sketch.</desc>
    <defs>
        <polygon id="path-1" points="0.0452939683 0.337342414 105.708786 0.337342414 105.708786 59.7454545 0.0452939683 59.7454545"></polygon>
        <polygon id="path-3" points="0 106 106 106 106 0 0 0"></polygon>
    </defs>
    <g id="dashboard_vacio" stroke="none" stroke-width="1" fill="none" fill-rule="evenodd">
        <g id="15_dashboaed_vacio" transform="translate(-645.000000, -229.000000)">
            <g id="img_papelera_vacia" transform="translate(645.000000, 229.000000)">
                <g id="ilustra" transform="translate(22.000000, 21.000000)">
                    <g id="Group">
                        <g id="Group-3-Copy-2" transform="translate(0.000000, 46.254545)">
                            <mask id="mask-2" fill="white">
                                <use xlink:href="#path-1"></use>
                            </mask>
                            <g id="Clip-2"></g>
                            <path d="M99.3592178,55.704164 L7.1442654,56.0201061 C5.17165587,56.0265194 3.56314794,54.4343199 3.54396698,52.4556315 L3.0738654,3.84004627 L101.688189,3.84004627 L102.148869,52.8701367 C102.163675,54.4272315 100.911865,55.6987633 99.3592178,55.704164 Z M105.703402,0.337342414 L0.0452939683,0.337342414 C0.0452939683,0.337342414 0.0506780952,46.7912898 0.0506780952,52.4016243 C0.0506780952,58.0122963 4.92465905,59.745252 4.92465905,59.745252 C4.92465905,59.745252 91.9721956,59.7685426 98.8103733,59.4077071 C105.204024,59.0701621 105.708786,53.1030427 105.708786,53.1030427 L105.703402,0.337342414 Z" id="Fill-1" fill="#3E4758" mask="url(#mask-2)"></path>
                        </g>
                        <path d="M70.3632041,69.5921895 L37.5373977,69.5921895 C37.5373977,69.5921895 36.1816235,69.7651554 36.1696557,68.1263764 C36.1593977,66.7356863 36.2076106,63.1125629 36.173417,62.9960307 L36.1696557,62.9960307 C36.1710235,62.9916333 36.1720493,62.9919997 36.173417,62.9960307 L71.730946,62.9960307 L71.730946,68.1263764 C71.730946,68.1263764 72.0728815,69.5921895 70.3632041,69.5921895 Z M32.7636364,58.7818182 L32.7636364,68.3096031 C32.7636364,72.7224333 36.8668622,73.0734955 36.8668622,73.0734955 C36.8668622,73.0734955 67.6410557,73.4399488 70.7184751,73.0734955 C72.8053073,72.8250402 74.1060299,71.0594684 74.7269848,69.949115 C75.0166041,69.431683 75.1636364,68.8387616 75.1636364,68.2352131 L75.1636364,58.7818182 L32.7636364,58.7818182 Z" id="Fill-4-Copy" fill="#3E4758"></path>
                        <polygon id="Fill-6-Copy" fill="#3E4758" points="0.215101016 46.6034579 14.9291992 35.042309 14.9291992 39.706543 3.27242944 48.8076172"></polygon>
                        <polygon id="Fill-8-Copy" fill="#3E4758" points="91.2670707 33.7272727 105.731323 46.6672363 100.860606 48.1818182 90.5818182 39.368071"></polygon>
                        <mask id="mask-4" fill="white">
                            <use xlink:href="#path-3"></use>
                        </mask>
                        <g id="Clip-11-Copy"></g>
                        <path d="M18.003418,46.8357864 L88.0022104,46.8357864 L88.0022104,13.305097 L18.003418,13.305097 L18.003418,46.8357864 Z M14.5239258,48.1818182 L91.5454545,48.1818182 L91.5454545,9.5431085 L14.5239258,9.5431085 L14.5239258,48.1818182 Z" id="Fill-10-Copy" fill="#3E4758" mask="url(#mask-4)"></path>
                    </g>
                    <rect id="Rectangle-24" fill="#3E4758" x="44" y="25" width="32" height="2"></rect>
                    <rect id="Rectangle-24-Copy-3" fill="#3E4758" x="44" y="32" width="22" height="2"></rect>
                    <path d="M34.8032787,22 L35,27.02 L34.6262295,27.02 C34.0491774,25.2466578 33.5377071,24.0366699 33.0918033,23.39 C32.6458994,22.7433301 32.0032829,22.42 31.1639344,22.42 L30.9278689,22.42 L30.9278689,35.58 L32.6,35.58 L32.6,36 L25.4196721,36 L25.4196721,35.58 L27.0918033,35.58 L27.0918033,22.42 L26.8360656,22.42 C25.9967171,22.42 25.3475433,22.7566633 24.8885246,23.43 C24.4295059,24.1033367 23.9245929,25.2999914 23.3737705,27.02 L23,27.02 L23.1967213,22 L34.8032787,22 Z" id="T" fill="#3E4758"></path>
                </g>
            </g>
        </g>
    </g>
</svg>