<?xml version="1.0" encoding="UTF-8"?>
<svg width="150px" height="150px" viewBox="0 0 150 150" version="1.1" xmlns="http://www.w3.org/2000/svg" xmlns:xlink="http://www.w3.org/1999/xlink">
    <!-- Generator: Sketch 50.2 (55047) - http://www.bohemiancoding.com/sketch -->
    <title>img_papelera_vacia</title>
    <desc>Created with Sketch.</desc>
    <defs></defs>
    <g id="dashboard_vacio" stroke="none" stroke-width="1" fill="none" fill-rule="evenodd">
        <g id="10_dashboard_vacio" transform="translate(-645.000000, -187.000000)" fill="#3E4758" fill-rule="nonzero">
            <g id="img_papelera_vacia" transform="translate(645.000000, 187.000000)">
                <g id="alert" transform="translate(48.000000, 45.000000)">
                    <path d="M14.5011866,35 C14.5752212,35 14.6492558,35 14.7232903,35 C15.9078435,34.85469 16.7962583,33.7648654 16.6481892,32.6023858 C16.4627458,30.9189995 17,28.3157079 17,25.5154127 C17,23.100343 14.7232903,20.4578627 13.1736092,23.100343 C11.339068,26.2285603 12.1767505,32.3718483 12.2801495,33.1836256 C12.4282186,34.2007953 13.3906681,35 14.5011866,35 Z" id="Shape"></path>
                    <path d="M2.18918919,51.1571255 L19.3378378,51.1571255 L19.3378378,52.3264312 C19.3378378,56.5651644 22.7675676,60 27,60 C31.2324324,60 34.6621622,56.5651644 34.6621622,52.3264312 L34.6621622,51.1571255 L51.8108108,51.1571255 C53.0513514,51.1571255 54,50.2070646 54,48.9646772 C54,44.5797808 51.3,40.9257004 47.4324324,39.3909866 L47.4324324,28.136419 C47.4324324,19.0742996 41.5945946,11.3276492 33.5675676,8.55054811 L33.5675676,6.5773447 C33.5675676,2.92326431 30.6486486,0 27,0 C23.3513514,0 20.4324324,2.92326431 20.4324324,6.5773447 L20.4324324,8.55054811 C12.4054054,11.3276492 6.56756757,19.0742996 6.56756757,28.136419 L6.56756757,39.4640682 C2.7,40.9257004 0,44.6528624 0,49.0377588 C0,50.2070646 0.948648649,51.1571255 2.18918919,51.1571255 Z M30.2837838,52.3995128 C30.2837838,54.226553 28.8243243,55.6881851 27,55.6881851 C25.1756757,55.6881851 23.7162162,54.226553 23.7162162,52.3995128 L23.7162162,51.2302071 L30.2837838,51.2302071 L30.2837838,52.3995128 Z M24.8108108,6.5773447 C24.8108108,5.33495737 25.7594595,4.38489647 27,4.38489647 C28.2405405,4.38489647 29.1891892,5.33495737 29.1891892,6.5773447 L29.1891892,7.5274056 C28.4594595,7.454324 27.7297297,7.38124239 27,7.38124239 C26.2702703,7.38124239 25.5405405,7.454324 24.8108108,7.5274056 L24.8108108,6.5773447 Z M27,11.8392205 C35.8297297,11.8392205 43.0540541,19.1473812 43.0540541,28.136419 L43.0540541,38.8063337 L10.9459459,38.8063337 L10.9459459,28.136419 C10.9459459,19.1473812 18.1702703,11.8392205 27,11.8392205 Z M10.2162162,43.1181486 L43.7837838,43.1181486 C46.2648649,43.1181486 48.3081081,44.6528624 49.1837838,46.772229 L4.81621622,46.772229 C5.69189189,44.6528624 7.73513514,43.1181486 10.2162162,43.1181486 Z" id="Shape"></path>
                </g>
            </g>
        </g>
    </g>
</svg>