<?xml version="1.0" encoding="UTF-8"?>
<svg width="45px" height="50px" viewBox="0 0 45 50" version="1.1" xmlns="http://www.w3.org/2000/svg" xmlns:xlink="http://www.w3.org/1999/xlink">
    <!-- Generator: Sketch 50.2 (55047) - http://www.bohemiancoding.com/sketch -->
    <title>Group</title>
    <desc>Created with Sketch.</desc>
    <defs></defs>
    <g id="dashboard_vacio" stroke="none" stroke-width="1" fill="none" fill-rule="evenodd" opacity="0.7">
        <g id="08_dashboard_vacio-" transform="translate(-1218.000000, -173.000000)" fill="#3E4758" fill-rule="nonzero">
            <g id="Group" transform="translate(1218.000000, 173.000000)">
                <path d="M11.87589,30 C11.9314159,30 11.9869418,30 12.0424677,30 C12.9308826,29.874251 13.5971937,28.9311335 13.4861419,27.9251415 C13.3470594,26.468365 13.75,24.2155164 13.75,21.7921841 C13.75,19.7022199 12.0424677,17.4154581 10.8802069,19.7022199 C9.504301,22.4093311 10.1325629,27.725638 10.2101121,28.4281375 C10.321164,29.3083805 11.043001,30 11.87589,30 Z" id="Shape"></path>
                <path d="M1.82432432,42.6309379 L16.1148649,42.6309379 L16.1148649,43.6053593 C16.1148649,47.137637 18.972973,50 22.5,50 C26.027027,50 28.8851351,47.137637 28.8851351,43.6053593 L28.8851351,42.6309379 L43.1756757,42.6309379 C44.2094595,42.6309379 45,41.8392205 45,40.8038977 C45,37.1498173 42.75,34.1047503 39.527027,32.8258222 L39.527027,23.4470158 C39.527027,15.8952497 34.6621622,9.43970767 27.972973,7.12545676 L27.972973,5.48112058 C27.972973,2.43605359 25.5405405,0 22.5,0 C19.4594595,0 17.027027,2.43605359 17.027027,5.48112058 L17.027027,7.12545676 C10.3378378,9.43970767 5.47297297,15.8952497 5.47297297,23.4470158 L5.47297297,32.8867235 C2.25,34.1047503 0,37.2107186 0,40.864799 C0,41.8392205 0.790540541,42.6309379 1.82432432,42.6309379 Z M25.2364865,43.6662607 C25.2364865,45.1887942 24.0202703,46.406821 22.5,46.406821 C20.9797297,46.406821 19.7635135,45.1887942 19.7635135,43.6662607 L19.7635135,42.6918392 L25.2364865,42.6918392 L25.2364865,43.6662607 Z M20.6756757,5.48112058 C20.6756757,4.44579781 21.4662162,3.65408039 22.5,3.65408039 C23.5337838,3.65408039 24.3243243,4.44579781 24.3243243,5.48112058 L24.3243243,6.272838 C23.7162162,6.21193666 23.1081081,6.15103532 22.5,6.15103532 C21.8918919,6.15103532 21.2837838,6.21193666 20.6756757,6.272838 L20.6756757,5.48112058 Z M22.5,9.86601705 C29.8581081,9.86601705 35.8783784,15.956151 35.8783784,23.4470158 L35.8783784,32.3386114 L9.12162162,32.3386114 L9.12162162,23.4470158 C9.12162162,15.956151 15.1418919,9.86601705 22.5,9.86601705 Z M8.51351351,35.9317905 L36.4864865,35.9317905 C38.5540541,35.9317905 40.2567568,37.2107186 40.9864865,38.9768575 L4.01351351,38.9768575 C4.74324324,37.2107186 6.44594595,35.9317905 8.51351351,35.9317905 Z" id="Shape"></path>
            </g>
        </g>
    </g>
</svg>