<?xml version="1.0" encoding="UTF-8"?>
<svg width="80px" height="66px" viewBox="0 0 80 66" version="1.1" xmlns="http://www.w3.org/2000/svg" xmlns:xlink="http://www.w3.org/1999/xlink">
    <!-- Generator: Sketch 50.2 (55047) - http://www.bohemiancoding.com/sketch -->
    <title>Group 2</title>
    <desc>Created with Sketch.</desc>
    <defs></defs>
    <g id="dashboard_vacio" stroke="none" stroke-width="1" fill="none" fill-rule="evenodd">
        <g id="03_dashboard_vacio" transform="translate(-680.000000, -306.000000)">
            <g id="Group-2" transform="translate(680.000000, 306.000000)">
                <polyline id="Path-12" stroke="#3E4758" stroke-width="2" transform="translate(50.000000, 29.500000) scale(-1, 1) translate(-50.000000, -29.500000) " points="40.545293 47 27 47 27 12 73 12 73 17.3126927"></polyline>
                <g id="Group-Copy-2" transform="translate(7.000000, 21.000000)" fill="#3E4758" fill-rule="nonzero">
                    <g id="Group">
                        <g id="Shape">
                            <path d="M49.3876139,2.23952146 L48.2094094,1.02255859 L24.6268657,20.4620117 L2.63219763,1.786803 C2.01694453,1.66153148 1.65314486,1.66153148 1.54079861,1.786803 C1.42845236,1.91207452 1.42845236,2.31772881 1.54079861,3.00376587 L24.6268657,22.3140442 L49.3876139,2.23952146 Z"></path>
                            <path d="M4.41176471,37 C3.33844134,37 1.86785308,37 -6.12205565e-08,37 C-2.0229966e-08,34.9246385 2.65329295e-10,33.5015616 2.65329295e-10,32.7307692 L-6.12205565e-08,-7.22240336e-08 L45.5882353,2.31512412e-10 C46.441707,2.31512412e-10 47.9122953,-2.39203363e-08 50,-7.22240336e-08 C50,2.10287238 50,3.52594933 50,4.26923077 C50,21.3533647 50,30.8405442 50,32.7307692 C50,33.7833524 50,35.2064294 50,37 C48.1226774,37 46.6520891,37 45.5882353,37 L4.41176471,37 Z M1.74831814,3.58576329 L1.74831814,35.2663025 C2.76965507,35.2663025 3.40910457,35.2663025 3.66666667,35.2663025 L46.3333333,35.2663025 C46.6137486,35.2663025 47.2327777,35.2663025 48.1904206,35.2663025 L48.1904206,1.70840454 L3.66666667,1.70840454 C2.82704762,1.70840454 1.74831814,2.76398885 1.74831814,3.58576329 Z"></path>
                        </g>
                    </g>
                </g>
            </g>
        </g>
    </g>
</svg>