<?xml version="1.0" encoding="UTF-8"?>
<svg width="22px" height="27px" viewBox="0 0 22 27" version="1.1" xmlns="http://www.w3.org/2000/svg" xmlns:xlink="http://www.w3.org/1999/xlink">
    <!-- Generator: Sketch 48.2 (47327) - http://www.bohemiancoding.com/sketch -->
    <title>Page 1 Copy 6</title>
    <desc>Created with Sketch.</desc>
    <defs>
        <polygon id="path-1" points="19.4658211 25.8204616 0.207306718 25.8204616 0.207306718 0.0117006236 19.4658211 0.0117006236"></polygon>
    </defs>
    <g id="login_04" stroke="none" stroke-width="1" fill="none" fill-rule="evenodd" transform="translate(-252.000000, -84.000000)">
        <g id="Group-2" transform="translate(252.000000, 81.000000)">
            <g id="Page-1-Copy-6" transform="translate(0.000000, 3.479592)">
                <g id="Group-3" transform="translate(1.604719, 0.220986)">
                    <mask id="mask-2" fill="white">
                        <use xlink:href="#path-1"></use>
                    </mask>
                    <g id="Clip-2"></g>
                </g>
                <path d="M14.2811361,3.75280081 C12.8083483,2.25838329 10.7737369,1.33408044 8.52644301,1.33408044 C5.73835907,1.33408044 3.27855471,2.75746247 1.81207116,4.92614863 C1.79166831,4.95662142 1.77103622,4.98709422 1.75086261,5.01756702 C1.6898833,5.11038111 1.63027947,5.20389305 1.57296809,5.29926593 C1.56838318,5.30647705 1.56425676,5.31368817 1.5599011,5.3211319 C-0.942313684,9.44124015 -0.434305626,14.9107583 3.08552999,18.4823562 L5.43690122,20.8683064 L8.82308671,17.4323241 L6.47171547,15.0461413 C4.23106982,12.7725449 4.23106982,9.07347304 6.47171547,6.79987672 C7.55719298,5.69843631 9.00006424,5.09177177 10.5350922,5.09177177 C12.0701202,5.09177177 13.5132207,5.69843631 14.5986982,6.79987672 C16.4163859,8.6442951 16.7591079,11.4270895 15.627552,13.6257833 C16.2870914,12.4326918 16.664888,11.0574615 16.664888,9.59220844 C16.664888,7.31175005 15.7539237,5.24721816 14.2811361,3.75280081 C12.8084168,2.25842971 10.7738056,1.33412697 8.52639716,1.33412697 C5.73831323,1.33412697 3.27873811,2.75750899 1.81202531,4.92619515 C2.1806521,4.37559125 2.60452705,3.85173828 3.08548414,3.3637083 C5.14250414,1.27620539 7.83888987,0.232686556 10.5350464,0.232686556 C13.2314321,0.232686556 15.9275886,1.27620539 17.9848378,3.3637083 C18.5274542,3.914335 18.9985068,4.51007623 19.3979957,5.13903197 C22.0275433,9.27899473 21.5564907,14.8580236 17.9848378,18.4824027 L10.5350464,26.0415173 L7.14886087,22.605535 L10.5350464,19.1695527 L13.658058,16.0006144 C14.1864689,15.5644579 14.6603194,15.0627036 15.0665424,14.5067495 C15.281804,14.2271441 15.4697853,13.9324187 15.6275062,13.6258298 C16.2870455,12.4327384 16.6648421,11.057508 16.6648421,9.59225496 C16.6648421,7.31179645 15.7539351,5.24726445 14.2811759,3.75284708 Z" id="Combined-Shape" fill="#3234AF"></path>
                <path d="M14.2713585,11.070046 C14.2713585,13.0819485 12.6622842,14.7116616 10.6795398,14.7116616 C8.69656611,14.7116616 7.08749185,13.0819485 7.08749185,11.070046 C7.08749185,10.481293 7.22503916,9.92603677 7.47033185,9.43428491 C8.05949283,8.24165873 9.2767865,7.42540648 10.6795398,7.42540648 C12.0820639,7.42540648 13.2963773,8.23863471 13.8855383,9.42823688 C14.1338112,9.92278013 14.2713585,10.478269 14.2713585,11.070046" id="Fill-6" fill="#3234AF"></path>
            </g>
        </g>
    </g>
</svg>