<?xml version="1.0" encoding="UTF-8"?>
<svg width="27px" height="27px" viewBox="0 0 40 40" version="1.1" xmlns="http://www.w3.org/2000/svg" xmlns:xlink="http://www.w3.org/1999/xlink">
    <!-- Generator: Sketch 43.1 (39012) - http://www.bohemiancoding.com/sketch -->
    <title>icon_percentage</title>
    <desc>Created with Sketch.</desc>
    <defs></defs>
    <g id="Symbols" stroke="none" stroke-width="1" fill="none" fill-rule="evenodd">
        <g id="icon_percentage" fill-rule="nonzero" fill="#4F5C69">
            <path d="M31.3975301,8.00046971 C31.320149,8.00352601 31.2470398,8.03676238 31.1938567,8.0930623 L8.08618272,31.2041734 C8.01102133,31.2801165 7.98228176,31.3905023 8.01086435,31.4934637 C8.03944694,31.5964251 8.12097366,31.6761914 8.22452302,31.7025087 C8.32807239,31.728826 8.43778358,31.6976634 8.5120453,31.6208401 L31.6197193,8.50972896 C31.7089305,8.42376776 31.7352529,8.29137089 31.6857086,8.17781488 C31.6361642,8.06425887 31.521213,7.99351784 31.3975301,8.00046971 L31.3975301,8.00046971 Z M13.0391497,9.19491415 C10.9156558,9.19491415 9.1878707,10.9229586 9.1878707,13.046766 C9.1878707,15.1705764 10.9156558,16.8986179 13.0391497,16.8986179 C15.1626436,16.8986179 16.8904287,15.1705764 16.8904287,13.046766 C16.8904287,10.9229586 15.1626436,9.19491415 13.0391497,9.19491415 Z M13.0391497,9.78750674 C14.8424302,9.78750674 16.2979242,11.2432193 16.2979242,13.046766 C16.2979242,14.8503156 14.8424302,16.3060253 13.0391497,16.3060253 C11.2358692,16.3060253 9.78037517,14.8503156 9.78037517,13.046766 C9.78037517,11.2432193 11.2358692,9.78750674 13.0391497,9.78750674 Z M26.6667523,22.8245438 C24.5432584,22.8245438 22.8154733,24.5525734 22.8154733,26.6763956 C22.8154733,28.8001882 24.5432584,30.5282475 26.6667523,30.5282475 C28.7902462,30.5282475 30.5180313,28.8001882 30.5180313,26.6763956 C30.5180313,24.5525734 28.7902462,22.8245438 26.6667523,22.8245438 Z M26.6667523,23.4171364 C28.4700328,23.4171364 29.9255269,24.8728401 29.9255269,26.6763956 C29.9255269,28.4799512 28.4700328,29.9356549 26.6667523,29.9356549 C24.8634718,29.9356549 23.4079778,28.4799512 23.4079778,26.6763956 C23.4079778,24.8728401 24.8634718,23.4171364 26.6667523,23.4171364 Z" id="Shape"></path>
        </g>
    </g>
</svg>