<?xml version="1.0" encoding="UTF-8"?>
<svg width="15px" height="15px" viewBox="0 0 15 15" version="1.1" xmlns="http://www.w3.org/2000/svg" xmlns:xlink="http://www.w3.org/1999/xlink">
    <!-- Generator: Sketch 44 (41411) - http://www.bohemiancoding.com/sketch -->
    <title>small_percentege_cantidad</title>
    <desc>Created with Sketch.</desc>
    <defs></defs>
    <g id="Symbols" stroke="none" stroke-width="1" fill="none" fill-rule="evenodd">
        <g id="small_percentege_cantidad" fill-rule="nonzero" fill="#595A9C">
            <g id="ico-percentage-min" transform="translate(3.000000, 3.000000)">
                <path d="M8.42521821,0.507841071 C8.35741615,0.446755964 8.26538926,0.412468603 8.16945299,0.412548117 C8.07351673,0.41262763 7.98156016,0.44706748 7.91388321,0.508264875 L0.573838393,7.13232916 C0.432897199,7.25964436 0.43331885,7.46568359 0.574780179,7.59253066 C0.716241507,7.71937774 0.945173984,7.71899825 1.08611518,7.59168305 L8.42616,0.968052696 C8.49386878,0.906924305 8.53181115,0.824085134 8.53163451,0.737771269 C8.53145788,0.651457404 8.49317673,0.568744581 8.42521821,0.507841071 Z" id="Shape"></path>
                <path d="M2.0349225,3.52566964 C3.10004309,3.52566964 3.96349393,2.74856389 3.96349393,1.78995536 C3.96349393,0.831346827 3.10004309,0.0542410714 2.0349225,0.0542410714 C0.969801911,0.0542410714 0.106351071,0.831346827 0.106351071,1.78995536 C0.106351071,2.74856389 0.969801911,3.52566964 2.0349225,3.52566964 L2.0349225,3.52566964 Z M2.0349225,0.6328125 C2.74500289,0.6328125 3.32063679,1.150883 3.32063679,1.78995536 C3.32063679,2.42902771 2.74500289,2.94709821 2.0349225,2.94709821 C1.32484211,2.94709821 0.749208214,2.42902771 0.749208214,1.78995536 C0.750005339,1.1511804 1.32517255,0.633529912 2.0349225,0.6328125 L2.0349225,0.6328125 Z" id="Shape"></path>
                <path d="M7.00615768,4.61049107 C5.94103709,4.61049107 5.07758625,5.38759683 5.07758625,6.34620536 C5.07758625,7.30481389 5.94103709,8.08191964 7.00615768,8.08191964 C8.07127827,8.08191964 8.93472911,7.30481389 8.93472911,6.34620536 C8.93472911,5.88586531 8.73154092,5.44437959 8.36986361,5.11887002 C8.00818631,4.79336044 7.51764662,4.61049107 7.00615768,4.61049107 L7.00615768,4.61049107 Z M7.00615768,7.50334821 C6.29607729,7.50334821 5.72044339,6.98527771 5.72044339,6.34620536 C5.72044339,5.707133 6.29607729,5.1890625 7.00615768,5.1890625 C7.71623807,5.1890625 8.29187196,5.707133 8.29187196,6.34620536 C8.29107484,6.98498031 7.71590763,7.5026308 7.00615768,7.50334821 Z" id="Shape"></path>
            </g>
        </g>
    </g>
</svg>