<?xml version="1.0" encoding="UTF-8"?>
<svg width="20px" height="15px" viewBox="0 0 20 15" version="1.1" xmlns="http://www.w3.org/2000/svg" xmlns:xlink="http://www.w3.org/1999/xlink">
    <!-- Generator: Sketch 43.1 (39012) - http://www.bohemiancoding.com/sketch -->
    <title>Shape</title>
    <desc>Created with Sketch.</desc>
    <defs></defs>
    <g id="flujo_participantes" stroke="none" stroke-width="1" fill="none" fill-rule="evenodd" stroke-opacity="0.7">
        <g id="03_invitar_participantes" transform="translate(-810.000000, -317.000000)" stroke="#4F5C69">
            <g id="Group-9" transform="translate(434.000000, 161.000000)">
                <g id="ico-group" transform="translate(377.000000, 157.000000)">
                    <path id="group" d="M13.1970203,6.61336032 C14.4525091,6.61336032 15.4623587,5.55522267 15.4623587,4.25144592 C15.4623587,2.94766917 14.4525091,1.88953152 13.1970203,1.88953152 C11.9415316,1.88953152 10.9225842,2.94766917 10.9225842,4.25144592 C10.9225842,5.55522267 11.9415316,6.61336032 13.1970203,6.61336032 L13.1970203,6.61336032 Z M6.37371206,5.66859456 C7.88393762,5.66859456 9.09393762,4.40260844 9.09393762,2.83429728 C9.09393762,1.26598612 7.88393762,0 6.37371206,0 C4.86348649,0 3.64438875,1.26598612 3.64438875,2.83429728 C3.64438875,4.40260844 4.86348649,5.66859456 6.37371206,5.66859456 L6.37371206,5.66859456 Z M13.1970203,8.50289184 C11.5321331,8.50289184 8.19326093,9.37207634 8.19326093,11.1009977 L8.19326093,13.2267206 L18.2007797,13.2267206 L18.2007797,11.1009977 C18.2007797,9.37207634 14.8619075,8.50289184 13.1970203,8.50289184 L13.1970203,8.50289184 Z M6.37371206,7.55812608 C4.25393762,7.55812608 0.00529100529,8.66350202 0.00529100529,10.8648062 L0.00529100529,13.2267206 L6.37371206,13.2267206 L6.37371206,11.1009977 C6.37371206,10.2979468 6.67393762,8.89024581 8.52987747,7.8226605 C7.73837371,7.65260266 6.97416319,7.55812608 6.37371206,7.55812608 L6.37371206,7.55812608 Z" id="Shape"></path>
                </g>
            </g>
        </g>
    </g>
</svg>