<?xml version="1.0" encoding="UTF-8"?>
<svg width="16px" height="16px" viewBox="0 0 16 16" version="1.1" xmlns="http://www.w3.org/2000/svg" xmlns:xlink="http://www.w3.org/1999/xlink">
    <!-- Generator: Sketch 46.1 (44463) - http://www.bohemiancoding.com/sketch -->
    <title>filter_alone</title>
    <desc>Created with Sketch.</desc>
    <defs></defs>
    <g id="Symbols" stroke="none" stroke-width="1" fill="none" fill-rule="evenodd">
        <g id="filter_alone" fill-rule="nonzero" fill="#4F5C69">
            <g id="Group-9">
                <g id="Group-3-Copy-25" transform="translate(3.000000, 3.000000)">
                    <g id="Group">
                        <path d="M5.00000011,0.037410124 C3.74748875,0.037410124 2.72727284,0.964890496 2.72727284,2.10352583 C2.72727284,3.24216012 3.74748875,4.16964153 5.00000011,4.16964153 C6.25251148,4.16964153 7.27272739,3.24216012 7.27272739,2.10352583 C7.27272739,0.964890496 6.25251148,0.037410124 5.00000011,0.037410124 Z M5.00000011,0.450633264 C6.00685239,0.450633264 6.81818193,1.18821074 6.81818193,2.10352583 C6.81818193,3.01883988 6.00685239,3.75641839 5.00000011,3.75641839 C3.99314784,3.75641839 3.1818183,3.01883988 3.1818183,2.10352583 C3.1818183,1.18821074 3.99314784,0.450633264 5.00000011,0.450633264 Z M5.00000011,4.99608471 C2.48826148,4.99608471 0.410102557,6.69770661 0.113636648,8.89588843 C0.105449909,8.95500103 0.125728438,9.01444927 0.169268989,9.05897938 C0.21280954,9.10350948 0.275374127,9.12878716 0.340909375,9.12832645 L9.65909057,9.12832645 C9.72462582,9.12878716 9.7871904,9.10350948 9.83073095,9.05897938 C9.87427151,9.01444927 9.89455003,8.95500103 9.8863633,8.89588843 C9.58990875,6.69770661 7.51177284,4.99608471 5.00000011,4.99608471 L5.00000011,4.99608471 Z M5.00000011,5.40930785 C7.1956592,5.40930785 8.99984057,6.83705579 9.37854523,8.71510331 L0.621454886,8.71510331 C1.00018216,6.83705579 2.80437523,5.40930785 5.00000023,5.40930785 L5.00000011,5.40930785 Z" id="Shape"></path>
                    </g>
                </g>
            </g>
        </g>
    </g>
</svg>