<?xml version="1.0" encoding="UTF-8"?>
<svg width="13px" height="13px" viewBox="0 0 13 13" version="1.1" xmlns="http://www.w3.org/2000/svg" xmlns:xlink="http://www.w3.org/1999/xlink">
    <!-- Generator: Sketch 43.1 (39012) - http://www.bohemiancoding.com/sketch -->
    <title>Page 1 Copy 11</title>
    <desc>Created with Sketch.</desc>
    <defs>
        <polygon id="path-1" points="0 0.020390461 0 8.34340223 8.42514864 8.34340223 8.42514864 0.020390461 2.80022699e-21 0.020390461"></polygon>
    </defs>
    <g id="compartir_v03" stroke="none" stroke-width="1" fill="none" fill-rule="evenodd">
        <g id="05_compartir---" transform="translate(-831.000000, -736.000000)">
            <g id="Group-8-Copy" transform="translate(436.000000, 142.000000)">
                <g id="Group-13-Copy-5" transform="translate(52.000000, 590.000000)">
                    <g id="Page-1-Copy-11" transform="translate(343.000000, 4.000000)">
                        <g id="Group-3" transform="translate(0.000000, 4.385374)">
                            <mask id="mask-2" fill="white">
                                <use xlink:href="#path-1"></use>
                            </mask>
                            <g id="Clip-2"></g>
                            <path d="M1.27588024,7.10210747 C2.1230234,7.93644769 3.23877293,8.34344293 4.33386043,8.34344293 C5.44960995,8.34344293 6.56535948,7.93644769 7.39204723,7.10210747 L8.11521822,6.38986582 C8.52845878,5.98287059 8.52845878,5.35182448 8.11521822,4.94482925 C7.70197765,4.53803752 7.06124816,4.53803752 6.64800759,4.94482925 L5.9248366,5.65707091 C5.03636939,6.53231415 3.59002741,6.53231415 2.70156019,5.65707091 C1.81309298,4.78223466 1.81309298,3.35775135 2.70156019,2.48271161 L3.42473118,1.77046995 C3.83797175,1.36347472 3.83797175,0.732632114 3.42473118,0.325636884 C3.01149062,-0.0813583466 2.37096774,-0.0813583466 1.95772718,0.325636884 L1.23455619,1.03787854 C-0.418406072,2.72690874 -0.418406072,5.45357329 1.27588024,7.10210747" id="Fill-1" fill="#4F5C69" mask="url(#mask-2)"></path>
                        </g>
                        <g id="Group-6" transform="translate(4.132406, 0.111924)" fill="#4F5C69">
                            <path d="M5.16030023,6.63400191 C4.74705967,7.04099714 4.74705967,7.67183975 5.16030023,8.07883498 C5.36692051,8.28233259 5.6357335,8.3840814 5.88347122,8.3840814 C6.13141556,8.3840814 6.42089058,8.28233259 6.60664221,8.07883498 L7.3298132,7.36659332 C8.15629433,6.55260286 8.61085895,5.49441526 8.61085895,4.35482862 C8.61085895,3.21524197 8.15629433,2.13670461 7.3298132,1.34306391 C5.6357335,-0.325616534 2.88747712,-0.325616534 1.19319081,1.34306391 L0.470019819,2.05530556 C0.0567792536,2.46230079 0.0567792536,3.0931434 0.470019819,3.50013863 C0.883260384,3.90713386 1.52378326,3.90713386 1.93702382,3.50013863 L2.66019481,2.78789698 C3.54866203,1.91285723 4.99500401,1.91285723 5.88347122,2.78789698 C6.31758043,3.21524197 6.54465612,3.76468553 6.54465612,4.37517838 C6.54465612,4.96532146 6.31758043,5.53511479 5.88347122,5.96245978 L5.16030023,6.63400191 Z" id="Fill-4"></path>
                        </g>
                        <path d="M6.81326249,4.58883052 L4.4784533,6.88835358 C4.06521273,7.29534881 4.06521273,7.92619141 4.4784533,8.33318665 C4.68507358,8.53668426 4.95367995,8.63843307 5.20162429,8.63843307 C5.47023066,8.63843307 5.73883702,8.53668426 5.92479528,8.33318665 L8.25960447,6.03366359 C8.67284503,5.62666836 8.67284503,4.99582576 8.25960447,4.58883052 C7.86723255,4.20218506 7.22650306,4.20218506 6.81326249,4.58883052" id="Fill-7" fill="#4F5C69"></path>
                    </g>
                </g>
            </g>
        </g>
    </g>
</svg>