<?xml version="1.0" encoding="UTF-8"?>
<svg width="15px" height="15px" viewBox="0 0 15 15" version="1.1" xmlns="http://www.w3.org/2000/svg" xmlns:xlink="http://www.w3.org/1999/xlink">
    <!-- Generator: Sketch 46.1 (44463) - http://www.bohemiancoding.com/sketch -->
    <title>ico_solo_yo</title>
    <desc>Created with Sketch.</desc>
    <defs></defs>
    <g id="Symbols" stroke="none" stroke-width="1" fill="none" fill-rule="evenodd">
        <g id="ico_solo_yo" fill-rule="nonzero" fill="#4F5C69">
            <g id="Group-11">
                <g id="Group" transform="translate(3.000000, 3.000000)">
                    <path d="M4.89285725,0.037410124 C3.66718542,0.037410124 2.66883128,0.964890496 2.66883128,2.10352583 C2.66883128,3.24216012 3.66718542,4.16964153 4.89285725,4.16964153 C6.11852909,4.16964153 7.11688323,3.24216012 7.11688323,2.10352583 C7.11688323,0.964890496 6.11852909,0.037410124 4.89285725,0.037410124 Z M4.89285725,0.450633264 C5.87813412,0.450633264 6.67207803,1.18821074 6.67207803,2.10352583 C6.67207803,3.01883988 5.87813412,3.75641839 4.89285725,3.75641839 C3.90758039,3.75641839 3.11363647,3.01883988 3.11363647,2.10352583 C3.11363647,1.18821074 3.90758039,0.450633264 4.89285725,0.450633264 Z M4.89285725,4.99608471 C2.43494159,4.99608471 0.401314645,6.69770661 0.111201577,8.89588843 C0.103190269,8.95500103 0.123034257,9.01444927 0.165641796,9.05897938 C0.208249335,9.10350948 0.269473253,9.12878716 0.333604174,9.12832645 L9.45211006,9.12832645 C9.51624098,9.12878716 9.57746489,9.10350948 9.62007243,9.05897938 C9.66267997,9.01444927 9.68252396,8.95500103 9.67451265,8.89588843 C9.38441071,6.69770661 7.35080628,4.99608471 4.89285725,4.99608471 L4.89285725,4.99608471 Z M4.89285725,5.40930785 C7.04146651,5.40930785 8.80698684,6.83705579 9.1775764,8.71510331 L0.608137996,8.71510331 C0.978749684,6.83705579 2.74428147,5.40930785 4.89285737,5.40930785 L4.89285725,5.40930785 Z" id="Shape"></path>
                </g>
            </g>
        </g>
    </g>
</svg>