<?xml version="1.0" encoding="UTF-8"?>
<svg width="17px" height="17px" viewBox="0 0 17 17" version="1.1" xmlns="http://www.w3.org/2000/svg" xmlns:xlink="http://www.w3.org/1999/xlink">
    <!-- Generator: Sketch 43.1 (39012) - http://www.bohemiancoding.com/sketch -->
    <title>Group 9</title>
    <desc>Created with Sketch.</desc>
    <defs></defs>
    <g id="compartir_v03" stroke="none" stroke-width="1" fill="none" fill-rule="evenodd">
        <g id="05_compartir---" transform="translate(-488.000000, -732.000000)">
            <g id="Group-8-Copy" transform="translate(436.000000, 142.000000)">
                <g id="Group-13-Copy-5" transform="translate(52.000000, 590.000000)">
                    <g id="Group-10-Copy-2">
                        <g id="Group-9">
                            <circle id="Oval" stroke="#4648C8" fill="#F3F3F8" cx="8.5" cy="8.5" r="7.9921875"></circle>
                            <g id="Group" transform="translate(5.074777, 4.313616)" fill-rule="nonzero" fill="#4648C8">
                                <path d="M5.67902009,9.04144754 L1.17142634,9.04144754 C0.540860157,9.04144754 0.0296852679,8.53027266 0.0296852679,7.89970647 L0.0296852679,7.47497879 C0.0296852679,5.83550672 1.35873998,4.50645201 2.99821205,4.50645201 L3.85223437,4.50645201 C5.49170645,4.50645201 6.82076116,5.83550672 6.82076116,7.47497879 L6.82076116,7.90084821 C6.82013104,8.53096847 6.30914066,9.04144786 5.67902009,9.04144754 L5.67902009,9.04144754 Z M2.99821205,5.41984487 C1.86319293,5.41984487 0.943078125,6.33995967 0.943078125,7.47497879 L0.943078125,7.90084821 C0.943078125,8.02696145 1.0453131,8.12919643 1.17142634,8.12919643 L5.67902009,8.12919643 C5.80513333,8.12919643 5.9073683,8.02696145 5.9073683,7.90084821 L5.9073683,7.47497879 C5.9073683,6.33995967 4.9872535,5.41984487 3.85223438,5.41984487 L2.99821205,5.41984487 Z" id="Shape"></path>
                                <path d="M3.42522321,4.39570312 C2.55464301,4.395703 1.76980725,3.87121709 1.43675739,3.06686164 C1.10370753,2.2625062 1.28804844,1.33672487 1.90380491,0.721295056 C2.51956139,0.105865242 3.44544041,-0.0779843804 4.24961901,0.25549226 C5.05379761,0.5889689 5.57786698,1.37408286 5.57740513,2.24466295 C5.57551764,3.43231259 4.61287369,4.39444585 3.42522321,4.39570312 Z M3.42522321,1.00473214 C2.7412076,1.00473243 2.18664469,1.55912539 2.18643474,2.24314098 C2.18622479,2.92715656 2.74044727,3.48188984 3.42446276,3.48231003 C4.10847824,3.48273022 4.66338185,2.92867827 4.66401228,2.24466295 C4.66338282,1.56075954 4.10912662,1.00650334 3.42522321,1.00587388 L3.42522321,1.00473214 Z" id="Shape"></path>
                            </g>
                        </g>
                    </g>
                </g>
            </g>
        </g>
    </g>
</svg>