<?xml version="1.0" encoding="UTF-8"?>
<svg width="23px" height="21px" viewBox="0 0 23 21" version="1.1" xmlns="http://www.w3.org/2000/svg" xmlns:xlink="http://www.w3.org/1999/xlink">
    <!-- Generator: Sketch 43.1 (39012) - http://www.bohemiancoding.com/sketch -->
    <title>Group 6</title>
    <desc>Created with Sketch.</desc>
    <defs></defs>
    <g id="flujo_participantes" stroke="none" stroke-width="1" fill="none" fill-rule="evenodd">
        <g id="03_invitar_participantes" transform="translate(-549.000000, -316.000000)">
            <g id="Group-9" transform="translate(434.000000, 161.000000)">
                <g id="Group-6" transform="translate(115.000000, 156.000000)">
                    <g id="ico-participants">
                        <path id="user" d="M13.0625,6.51316872 C13.6827778,6.51316872 14.1854167,7.02765432 14.1854167,7.66255144 C14.1854167,8.29744856 13.6827778,8.81193416 13.0625,8.81193416 C12.4422222,8.81193416 11.9395833,8.29744856 11.9395833,7.66255144 C11.9395833,7.02765432 12.4422222,6.51316872 13.0625,6.51316872 L13.0625,6.51316872 Z M13.0625,11.4390947 C14.650625,11.4390947 16.3243056,12.2381893 16.3243056,12.5884774 L16.3243056,13.190535 L9.80069444,13.190535 L9.80069444,12.5884774 C9.80069444,12.2381893 11.474375,11.4390947 13.0625,11.4390947 L13.0625,11.4390947 Z M13.0625,5.47325103 C11.8807639,5.47325103 10.9236111,6.45296296 10.9236111,7.66255144 C10.9236111,8.87213992 11.8807639,9.85185185 13.0625,9.85185185 C14.2442361,9.85185185 15.2013889,8.87213992 15.2013889,7.66255144 C15.2013889,6.45296296 14.2442361,5.47325103 13.0625,5.47325103 L13.0625,5.47325103 Z M13.0625,10.399177 C11.6347917,10.399177 8.78472222,11.1325926 8.78472222,12.5884774 L8.78472222,14.2304527 L17.3402778,14.2304527 L17.3402778,12.5884774 C17.3402778,11.1325926 14.4902083,10.399177 13.0625,10.399177 L13.0625,10.399177 Z" id="Shape" fill-opacity="0.7" fill="#4F5C69"></path>
                        <ellipse class="circle" stroke-opacity="0.7" stroke="#4F5C69" cx="12.71875" cy="9.5" rx="9.28125" ry="9.5"></ellipse>
                        <ellipse class="circle" fill="#FFFFFF" cx="4.46875" cy="6.68518519" rx="4.46875" ry="4.57407407"></ellipse>
                        <polygon id="add" fill-opacity="0.7" fill="#4F5C69" points="4.02054795 7.19250035 2.75 7.19250035 2.75 6.44007195 4.02054795 6.44007195 4.02054795 4.92592593 4.74657534 4.92592593 4.74657534 6.44007195 6.0625 6.44007195 6.0625 7.19250035 4.74657534 7.19250035 4.74657534 8.70664637 4.02054795 8.70664637"></polygon>
                    </g>
                </g>
            </g>
        </g>
    </g>
</svg>