<?xml version="1.0" encoding="UTF-8"?>
<svg width="15px" height="15px" viewBox="0 0 15 15" version="1.1" xmlns="http://www.w3.org/2000/svg" xmlns:xlink="http://www.w3.org/1999/xlink">
    <!-- Generator: Sketch 46.1 (44463) - http://www.bohemiancoding.com/sketch -->
    <title>ico_privados</title>
    <desc>Created with Sketch.</desc>
    <defs></defs>
    <g id="Symbols" stroke="none" stroke-width="1" fill="none" fill-rule="evenodd">
        <g id="ico_privados" fill-rule="nonzero" fill="#4F5C69">
            <g id="Group-11">
                <path d="M10.9309651,5.95314813 L10.2023492,5.95314813 L10.2023492,4.33833949 C10.2023492,3.049022 9.17591871,2 7.91434197,2 C6.65276523,2 5.62633478,3.049022 5.62633478,4.33833949 L5.62633478,5.95314813 L4.89771879,5.95314813 C4.40278647,5.95314813 4,6.36463977 4,6.87041003 L4,11.3835961 C4,11.8893664 4.40267396,12.300858 4.89771879,12.300858 L10.9308526,12.300858 C11.425785,12.300858 11.8285714,11.8893664 11.8285714,11.3835961 L11.8285714,6.87029505 C11.8285714,6.36463977 11.4258975,5.95314813 10.9309651,5.95314813 Z M6.07637553,4.33833949 C6.07637553,3.30253949 6.90085019,2.45989566 7.91434197,2.45989566 C8.92783375,2.45989566 9.75230841,3.30253949 9.75230841,4.33833949 L9.75230841,5.95314813 L6.07637553,5.95314813 L6.07637553,4.33833949 Z M11.3785307,11.3834811 C11.3785307,11.6356189 11.1777,11.8408474 10.9308526,11.8408474 L4.89771879,11.8408474 C4.65098395,11.8408474 4.45004075,11.6357339 4.45004075,11.3834811 L4.45004075,6.87029505 C4.45004075,6.61815726 4.65087144,6.41292882 4.89771879,6.41292882 L10.9308526,6.41292882 C11.1775875,6.41292882 11.3785307,6.61804228 11.3785307,6.87029505 L11.3785307,11.3834811 L11.3785307,11.3834811 Z" id="Shape-Copy-5"></path>
            </g>
        </g>
    </g>
</svg>