<?xml version="1.0" encoding="UTF-8"?>
<svg width="15px" height="15px" viewBox="0 0 15 15" version="1.1" xmlns="http://www.w3.org/2000/svg" xmlns:xlink="http://www.w3.org/1999/xlink">
    <!-- Generator: Sketch 46.1 (44463) - http://www.bohemiancoding.com/sketch -->
    <title>ico_mi_equipo</title>
    <desc>Created with Sketch.</desc>
    <defs></defs>
    <g id="Symbols" stroke="none" stroke-width="1" fill="none" fill-rule="evenodd">
        <g id="ico_mi_equipo" fill-rule="nonzero" fill="#4F5C69">
            <g id="Group-12">
                <g id="Group-11" transform="translate(0.000000, 3.000000)">
                    <g id="Group-3-Copy-25" transform="translate(6.271429, 2.000000)">
                        <g id="Group">
                            <path d="M3.9142858,0.0299280992 C2.93374834,0.0299280992 2.13506502,0.771912397 2.13506502,1.68282066 C2.13506502,2.5937281 2.93374834,3.33571322 3.9142858,3.33571322 C4.89482327,3.33571322 5.69350658,2.5937281 5.69350658,1.68282066 C5.69350658,0.771912397 4.89482327,0.0299280992 3.9142858,0.0299280992 Z M3.9142858,0.366282924 C4.69906408,0.366282924 5.33144464,0.953767319 5.33144464,1.68282066 C5.33144464,2.41187318 4.69906408,2.9993584 3.9142858,2.9993584 C3.12950753,2.9993584 2.49712697,2.41187318 2.49712697,1.68282066 C2.49712697,0.953767319 3.12950753,0.366282924 3.9142858,0.366282924 Z M3.9142858,3.99686777 C1.94795327,3.99686777 0.321051716,5.35816529 0.0889612614,7.11671074 C0.0825522148,7.16400083 0.0984274057,7.21155941 0.132513437,7.2471835 C0.166599468,7.28280759 0.215578602,7.30302973 0.266883339,7.30266116 L7.56168804,7.30266116 C7.61299278,7.30302973 7.66197192,7.28280759 7.69605795,7.2471835 C7.73014398,7.21155941 7.74601917,7.16400083 7.73961012,7.11671074 C7.50752856,5.35816529 5.88064502,3.99686777 3.9142858,3.99686777 L3.9142858,3.99686777 Z M3.9142858,4.40149655 C5.53691492,4.40149655 6.87023539,5.4797314 7.15010452,6.89803237 L0.678466995,6.89803237 C0.95835284,5.4797314 2.29168196,4.40149655 3.91428588,4.40149655 L3.9142858,4.40149655 Z" id="Shape"></path>
                        </g>
                    </g>
                    <g id="Group-3-Copy-23" transform="translate(0.400000, 0.000000)">
                        <g id="Group">
                            <path d="M4.89285725,0.037410124 C3.66718542,0.037410124 2.66883128,0.964890496 2.66883128,2.10352583 C2.66883128,3.24216012 3.66718542,4.16964153 4.89285725,4.16964153 C6.11852909,4.16964153 7.11688323,3.24216012 7.11688323,2.10352583 C7.11688323,0.964890496 6.11852909,0.037410124 4.89285725,0.037410124 Z M4.89285725,0.457853655 C5.8738301,0.457853655 6.6643058,1.19220915 6.6643058,2.10352583 C6.6643058,3.01484148 5.8738301,3.749198 4.89285725,3.749198 C3.91188441,3.749198 3.12140871,3.01484148 3.12140871,2.10352583 C3.12140871,1.19220915 3.91188441,0.457853655 4.89285725,0.457853655 Z M0.111201577,8.89588843 C0.103190269,8.95500103 0.123034257,9.01444927 0.165641796,9.05897938 C0.208249335,9.10350948 0.269473253,9.12878716 0.333604174,9.12832645 C1.93058152,9.12832645 3.04339077,9.12832645 3.67203195,9.12832645 C4.5093382,9.12832645 5.60437538,9.16157778 5.65336435,9.12832645 C5.70235331,9.09507512 5.55893227,8.61323844 6.35551801,7.38635254 C7.28762163,5.95074463 8.37099322,5.87614228 8.28560442,5.83526611 C7.21636196,5.3234128 5.85978389,4.99608471 4.89285725,4.99608471 C2.43494159,4.99608471 0.401314645,6.69770661 0.111201577,8.89588843 Z M7.37076198,5.847229 C6.34174093,6.37986247 5.63998544,7.33953857 5.26549552,8.72625732 L0.653475952,8.72625732 C0.713944494,8.41983743 0.833182642,7.88543348 1.09342695,7.43371582 C1.43330535,6.84377371 2.67799116,5.20599365 5.67683716,5.4574585 C6.6491211,5.53898827 7.46574839,5.79806292 7.37076198,5.847229 Z" id="Shape"></path>
                        </g>
                    </g>
                </g>
            </g>
        </g>
    </g>
</svg>