<?xml version="1.0" encoding="UTF-8"?>
<svg width="21px" height="11px" viewBox="0 0 21 11" version="1.1" xmlns="http://www.w3.org/2000/svg" xmlns:xlink="http://www.w3.org/1999/xlink">
    <!-- Generator: Sketch 43.1 (39012) - http://www.bohemiancoding.com/sketch -->
    <title>Page 1</title>
    <desc>Created with Sketch.</desc>
    <defs></defs>
    <g id="flujo_participantes" stroke="none" stroke-width="1" fill="none" fill-rule="evenodd" fill-opacity="0.7">
        <g id="03_invitar_participantes" transform="translate(-714.000000, -320.000000)" fill="#4F5C69">
            <g id="Group-9" transform="translate(434.000000, 161.000000)">
                <g id="Group-4" transform="translate(280.000000, 159.000000)">
                    <g id="Page-1">
                        <g id="ico-url">
                            <path class="link" d="M4.93260698,11 L3.17446744,11 C1.41632791,11 4.88372093e-05,9.61304348 4.88372093e-05,7.89130435 L4.88372093e-05,3.10869565 C4.88372093e-05,1.38695652 1.41632791,0 3.17446744,0 L10.5000488,0 C12.2581884,0 13.6744674,1.38695652 13.6744674,3.10869565 L13.6744674,7.03043478 C13.6744674,7.41304348 13.332607,7.74782609 12.9419093,7.74782609 C12.5512116,7.74782609 12.2093512,7.41304348 12.2093512,7.03043478 L12.2093512,3.10869565 C12.2093512,2.2 11.4279558,1.43478261 10.5000488,1.43478261 L3.17446744,1.43478261 C2.24656047,1.43478261 1.46516512,2.2 1.46516512,3.10869565 L1.46516512,7.89130435 C1.46516512,8.8 2.24656047,9.56521739 3.17446744,9.56521739 L4.93260698,9.56521739 C5.32330465,9.56521739 5.66516512,9.9 5.66516512,10.2826087 C5.66516512,10.6652174 5.32330465,11 4.93260698,11" id="Fill-1"></path>
                            <path class="link" d="M17.8255814,11 L10.5,11 C8.74186047,11 7.3255814,9.61304348 7.3255814,7.89130435 L7.3255814,4.30434783 C7.3255814,3.92173913 7.66744186,3.58695652 8.05813953,3.58695652 C8.44883721,3.58695652 8.79069767,3.92173913 8.79069767,4.30434783 L8.79069767,7.89130435 C8.79069767,8.8 9.57209302,9.56521739 10.5,9.56521739 L17.8255814,9.56521739 C18.7534884,9.56521739 19.5348837,8.8 19.5348837,7.89130435 L19.5348837,3.10869565 C19.5348837,2.2 18.7534884,1.43478261 17.8255814,1.43478261 L15.9697674,1.43478261 C15.5790698,1.43478261 15.2372093,1.1 15.2372093,0.717391304 C15.2372093,0.334782609 15.5790698,0 15.9697674,0 L17.8255814,0 C19.5837209,0 21,1.38695652 21,3.10869565 L21,7.89130435 C21,9.61304348 19.5837209,11 17.8255814,11" id="Fill-3"></path>
                        </g>
                    </g>
                </g>
            </g>
        </g>
    </g>
</svg>