<?xml version="1.0" encoding="UTF-8"?>
<svg width="16px" height="16px" viewBox="0 0 16 16" version="1.1" xmlns="http://www.w3.org/2000/svg" xmlns:xlink="http://www.w3.org/1999/xlink">
    <!-- Generator: Sketch 46.1 (44463) - http://www.bohemiancoding.com/sketch -->
    <title>team_filter</title>
    <desc>Created with Sketch.</desc>
    <defs></defs>
    <g id="Symbols" stroke="none" stroke-width="1" fill="none" fill-rule="evenodd">
        <g id="team_filter" fill-rule="nonzero" fill="#4F5C69">
            <g id="Group-9" transform="translate(1.000000, 4.000000)">
                <g id="Group">
                    <path d="M12.3601333,2.25578667 C12.3601333,1.27945778 11.5658933,0.485217778 10.5895644,0.485217778 C9.61323556,0.485217778 8.81899556,1.27945778 8.81899556,2.25578667 C8.81899556,3.23211556 9.61323556,4.02635556 10.5895644,4.02635556 C11.5658933,4.02635556 12.3601333,3.23211556 12.3601333,2.25578667 Z M9.19178667,2.25578667 C9.19178667,1.48496889 9.81874667,0.858008889 10.5895644,0.858008889 C11.3603822,0.858008889 11.9873422,1.48496889 11.9873422,2.25578667 C11.9873422,3.02660444 11.3603822,3.65356444 10.5895644,3.65356444 C9.81874667,3.65356444 9.19178667,3.02660444 9.19178667,2.25578667 Z" id="Shape"></path>
                    <path d="M4.78100444,2.25578667 C4.78100444,1.27945778 3.98676444,0.485217778 3.01043556,0.485217778 C2.03410667,0.485217778 1.23986667,1.27945778 1.23986667,2.25578667 C1.23986667,3.23211556 2.03410667,4.02635556 3.01043556,4.02635556 C3.98676444,4.02635556 4.78100444,3.23211556 4.78100444,2.25578667 Z M1.61265778,2.25578667 C1.61265778,1.48496889 2.23961778,0.858008889 3.01043556,0.858008889 C3.78125333,0.858008889 4.40821333,1.48496889 4.40821333,2.25578667 C4.40821333,3.02660444 3.78125333,3.65356444 3.01043556,3.65356444 C2.23961778,3.65356444 1.61265778,3.02660444 1.61265778,2.25578667 Z" id="Shape"></path>
                    <path d="M11.10304,4.49223111 L10.0760889,4.49223111 C9.81950222,4.49223111 9.57183111,4.53136889 9.33866667,4.6036 C8.81975111,4.16658667 8.15108444,3.90199111 7.42121778,3.90199111 L6.17863111,3.90199111 C5.44876444,3.90199111 4.78009778,4.16658667 4.26118222,4.6036 C4.02801778,4.53136889 3.78034667,4.49223111 3.52376,4.49223111 L2.49680889,4.49223111 C1.12018667,4.49223111 0,5.61226667 0,6.98919111 L0,7.39991111 C0,7.41441778 0.00196444444,7.42847111 0.00211555556,7.44297778 L0.374906667,7.44297778 C0.374604444,7.42847111 0.372791111,7.41441778 0.372791111,7.39991111 L0.372791111,6.98919111 C0.372791111,5.81808 1.32569778,4.86502222 2.49711111,4.86502222 L3.52406222,4.86502222 C3.67048889,4.86502222 3.81344,4.87998222 3.95155556,4.90824 C3.48371556,5.43501333 3.19705778,6.12574222 3.19705778,6.88401778 L3.19705778,7.38102222 C3.19705778,7.40202667 3.19977778,7.42227556 3.20023111,7.44312889 L3.57302222,7.44312889 C3.57256889,7.42227556 3.56984889,7.40202667 3.56984889,7.38102222 L3.56984889,6.88401778 C3.56984889,5.44528889 4.74035556,4.27478222 6.17908444,4.27478222 L7.42167111,4.27478222 C8.8604,4.27478222 10.0309067,5.44528889 10.0309067,6.88401778 L10.0309067,7.38102222 C10.0309067,7.40202667 10.0281867,7.42227556 10.0277333,7.44312889 L10.4005244,7.44312889 C10.4009778,7.42227556 10.4036978,7.40202667 10.4036978,7.38102222 L10.4036978,6.88401778 C10.4036978,6.12589333 10.1168889,5.43501333 9.6492,4.90824 C9.78731556,4.87998222 9.93026667,4.86502222 10.0766933,4.86502222 L11.1036444,4.86502222 C12.2749067,4.86502222 13.2279644,5.81792889 13.2279644,6.98919111 L13.2279644,7.39991111 C13.2279644,7.41441778 13.226,7.42862222 13.2258489,7.44297778 L13.59864,7.44297778 C13.5980356,7.42847111 13.6,7.41441778 13.6,7.39991111 L13.6,6.98919111 C13.6,5.61226667 12.4798133,4.49223111 11.10304,4.49223111 Z" id="Shape"></path>
                    <path d="M8.57056889,1.88299556 C8.57056889,0.906666667 7.77632889,0.112426667 6.8,0.112426667 C5.82367111,0.112426667 5.02943111,0.906666667 5.02943111,1.88299556 C5.02943111,2.85932444 5.82367111,3.65356444 6.8,3.65356444 C7.77632889,3.65356444 8.57056889,2.85932444 8.57056889,1.88299556 Z M5.40222222,1.88299556 C5.40222222,1.11217778 6.02918222,0.485217778 6.8,0.485217778 C7.57081778,0.485217778 8.19777778,1.11217778 8.19777778,1.88299556 C8.19777778,2.65381333 7.57081778,3.28077333 6.8,3.28077333 C6.02918222,3.28077333 5.40222222,2.65381333 5.40222222,1.88299556 Z" id="Shape"></path>
                </g>
            </g>
        </g>
    </g>
</svg>