<?xml version="1.0" encoding="UTF-8"?>
<svg width="87px" height="84px" viewBox="0 0 87 84" version="1.1" xmlns="http://www.w3.org/2000/svg" xmlns:xlink="http://www.w3.org/1999/xlink">
    <!-- Generator: Sketch 48.2 (47327) - http://www.bohemiancoding.com/sketch -->
    <title>Group 5</title>
    <desc>Created with Sketch.</desc>
    <defs></defs>
    <g id="08_presentacion" stroke="none" stroke-width="1" fill="none" fill-rule="evenodd" transform="translate(-603.000000, -262.000000)">
        <g id="Hoja_01" transform="translate(466.000000, 262.000000)" fill="#DDDDDD">
            <g id="Group-5" transform="translate(137.000000, 0.000000)">
                <g id="Group-Copy-3" fill-rule="nonzero">
                    <path d="M82.9345794,64 L4.06542056,64 C1.76168224,64 0,62.2521008 0,59.9663866 L0,4.03361345 C0,1.74789916 1.76168224,0 4.06542056,0 L82.9345794,0 C85.2383178,0 87,1.74789916 87,4.03361345 L87,60.1008403 C87,62.2521008 85.2383178,64 82.9345794,64 Z M4.06542056,2.68907563 C3.25233645,2.68907563 2.71028037,3.22689076 2.71028037,4.03361345 L2.71028037,60.1008403 C2.71028037,60.907563 3.25233645,61.4453782 4.06542056,61.4453782 L82.9345794,61.4453782 C83.7476636,61.4453782 84.2897196,60.907563 84.2897196,60.1008403 L84.2897196,4.03361345 C84.2897196,3.22689076 83.7476636,2.68907563 82.9345794,2.68907563 L4.06542056,2.68907563 Z" id="Shape"></path>
                    <path d="M64.6556604,55 C64.2523585,55 63.9834906,54.8663793 63.7146226,54.5991379 L36.1556604,27.3405172 L11.2853774,51.9267241 C10.7476415,52.4612069 9.94103774,52.4612069 9.40330189,51.9267241 C8.86556604,51.3922414 8.86556604,50.5905172 9.40330189,50.0560345 L35.2146226,24.4008621 C35.7523585,23.8663793 36.5589623,23.8663793 37.0966981,24.4008621 L65.5966981,52.7284483 C66.134434,53.262931 66.134434,54.0646552 65.5966981,54.5991379 C65.3278302,54.8663793 64.9245283,55 64.6556604,55 Z" id="Shape"></path>
                    <path d="M76.6227545,52 C76.2095808,52 75.9341317,51.8611111 75.6586826,51.5833333 L64.502994,40.3333333 L58.3295898,46.6794434 C57.7786916,47.2349989 56.9523443,47.2349989 56.4014461,46.6794434 C55.8505479,46.1238878 55.8505479,45.2905545 56.4014461,44.7349989 L63.5389222,37.4166667 C64.0898204,36.8611111 64.9161677,36.8611111 65.4670659,37.4166667 L77.5868263,49.6388889 C78.1377246,50.1944444 78.1377246,51.0277778 77.5868263,51.5833333 C77.4491018,51.8611111 77.0359281,52 76.6227545,52 Z" id="Shape"></path>
                    <path d="M60.5,21 C56.86,21 54,18.01 54,14.5 C54,10.99 56.99,8 60.5,8 C64.01,8 67,10.99 67,14.5 C67,18.01 64.14,21 60.5,21 Z M60.5,10.6 C58.29,10.6 56.6,12.42 56.6,14.5 C56.6,16.71 58.42,18.4 60.5,18.4 C62.58,18.4 64.4,16.58 64.4,14.5 C64.4,12.29 62.71,10.6 60.5,10.6 Z" id="Shape"></path>
                </g>
                <text id="Logotipo" font-family="Roboto-Regular, Roboto" font-size="12" font-weight="normal">
                    <tspan x="20" y="81">Logotipo</tspan>
                </text>
            </g>
        </g>
    </g>
</svg>