<?xml version="1.0" encoding="UTF-8"?>
<svg width="12px" height="17px" viewBox="0 0 12 17" version="1.1" xmlns="http://www.w3.org/2000/svg" xmlns:xlink="http://www.w3.org/1999/xlink">
    <!-- Generator: Sketch 50.2 (55047) - http://www.bohemiancoding.com/sketch -->
    <title>icon/add_file</title>
    <desc>Created with Sketch.</desc>
    <defs></defs>
    <g id="icon/add_file" stroke="none" stroke-width="1" fill="none" fill-rule="evenodd">
        <path d="M3.125,4 L11,4 C12.6575,4 14,5.3425 14,7 C14,8.6575 12.6575,10 11,10 L4.625,10 C3.59,10 2.75,9.16 2.75,8.125 C2.75,7.09 3.59,6.25 4.625,6.25 L10.25,6.25 L10.25,7.75 L4.5575,7.75 C4.145,7.75 4.145,8.5 4.5575,8.5 L11,8.5 C11.825,8.5 12.5,7.825 12.5,7 C12.5,6.175 11.825,5.5 11,5.5 L3.125,5.5 C1.6775,5.5 0.5,6.6775 0.5,8.125 C0.5,9.5725 1.6775,10.75 3.125,10.75 L10.25,10.75 L10.25,12.25 L3.125,12.25 C0.845,12.25 -1,10.405 -1,8.125 C-1,5.845 0.845,4 3.125,4 Z" id="Shape" fill="#A2B1FF" transform="translate(6.500000, 8.125000) rotate(90.000000) translate(-6.500000, -8.125000) "></path>
    </g>
</svg>