<?xml version="1.0" encoding="UTF-8"?>
<svg width="12px" height="17px" viewBox="0 0 12 17" version="1.1" xmlns="http://www.w3.org/2000/svg" xmlns:xlink="http://www.w3.org/1999/xlink">
    <!-- Generator: Sketch 50.2 (55047) - http://www.bohemiancoding.com/sketch -->
    <title>icon/audio</title>
    <desc>Created with Sketch.</desc>
    <defs></defs>
    <g id="icon/audio" stroke="none" stroke-width="1" fill="none" fill-rule="evenodd">
        <g id="ic_mic_24px" fill="#A2B1FF">
            <g id="Group">
                <path d="M6,10.0333333 C7.35566667,10.0333333 8.44183333,8.939 8.44183333,7.58333333 L8.45,2.68333333 C8.45,1.32766667 7.35566667,0.233333333 6,0.233333333 C4.64433333,0.233333333 3.55,1.32766667 3.55,2.68333333 L3.55,7.58333333 C3.55,8.939 4.64433333,10.0333333 6,10.0333333 L6,10.0333333 Z M6.81666667,15.4 L8.8,15.4 L8.8,16.8 L3.2,16.8 L3.2,15.4 L5.18333333,15.4 L5.18333333,13.0713333 C2.50466667,12.6711667 0.283333333,10.3681667 0.283333333,7.58333333 L1.67166667,7.58333333 C1.67166667,10.0333333 3.746,11.7483333 6,11.7483333 C8.254,11.7483333 10.3283333,10.0333333 10.3283333,7.58333333 L11.7166667,7.58333333 C11.7166667,10.3763333 9.49533333,12.6793333 6.81666667,13.0713333 L6.81666667,15.4 Z" id="Shape"></path>
            </g>
        </g>
    </g>
</svg>