<?xml version="1.0" encoding="UTF-8"?>
<svg width="15px" height="15px" viewBox="0 0 15 15" version="1.1" xmlns="http://www.w3.org/2000/svg" xmlns:xlink="http://www.w3.org/1999/xlink">
    <!-- Generator: Sketch 46.1 (44463) - http://www.bohemiancoding.com/sketch -->
    <title>pin_equipo</title>
    <desc>Created with Sketch.</desc>
    <defs></defs>
    <g id="Symbols" stroke="none" stroke-width="1" fill="none" fill-rule="evenodd">
        <g id="pin_equipo">
            <g id="Group-3">
                <g id="Group-13-Copy-23" transform="translate(0.000000, 2.000000)">
                    <path d="M11.1964925,5.8635422 C12.6830817,6.15820956 13.8473915,6.8718499 14.1604067,7.41137487 C14.4335327,7.88214543 14.5806487,8.93383925 14.6017545,10.5664563 L0.334660457,10.5664563 C0.334660457,10.4976574 0.334660457,9.89643151 0.334660457,8.76277878 C0.334660457,7.06229968 2.52491522,5.92345792 4.20515325,5.60944177 C4.31406909,5.58908672 4.43757508,5.55670465 4.57655031,5.50219979 C3.4479082,5.13356927 2.63247863,4.07226794 2.63247863,2.82051282 C2.63247863,1.2627866 3.89526524,0 5.45299145,0 C6.84588985,0 8.00296331,1.00968658 8.23223488,2.33708278 C8.65675733,1.61380208 9.44261021,1.12820513 10.3418803,1.12820513 C11.6919097,1.12820513 12.7863248,2.22262018 12.7863248,3.57264957 C12.7863248,4.62204481 12.1250624,5.51699396 11.1964925,5.8635422 Z" id="Combined-Shape" fill="#FFFFFF"></path>
                    <g id="ic_supervisor_account_24px-copy-11" transform="translate(0.376068, 0.752137)" fill="#F5A524">
                        <g id="Group">
                            <path class="fill" d="M9.97424464,4.61650992 C10.8449493,4.61650992 11.5452987,3.87927447 11.5452987,2.97089507 C11.5452987,2.06251567 10.8449493,1.32528021 9.97424464,1.32528021 C9.10353996,1.32528021 8.39688109,2.06251567 8.39688109,2.97089507 C8.39688109,3.87927447 9.10353996,4.61650992 9.97424464,4.61650992 L9.97424464,4.61650992 Z M5.242154,3.95826398 C6.28952339,3.95826398 7.1286808,3.07621442 7.1286808,1.98352616 C7.1286808,0.890837893 6.28952339,0.00878833033 5.242154,0.00878833033 C4.1947846,0.00878833033 3.34931774,0.890837893 3.34931774,1.98352616 C3.34931774,3.07621442 4.1947846,3.95826398 5.242154,3.95826398 L5.242154,3.95826398 Z M9.97424464,5.93300181 C8.81961452,5.93300181 6.50404483,6.53858808 6.50404483,7.74317815 L6.50404483,9.22423152 L13.4444444,9.22423152 L13.4444444,7.74317815 C13.4444444,6.53858808 11.1288748,5.93300181 9.97424464,5.93300181 L9.97424464,5.93300181 Z M5.242154,5.27475587 C3.77205117,5.27475587 0.825536062,6.04490362 0.825536062,7.57861666 L0.825536062,9.22423152 L5.242154,9.22423152 L5.242154,7.74317815 C5.242154,7.1836691 5.45036598,6.20288264 6.73749464,5.45906473 C6.18857212,5.34058046 5.65857797,5.27475587 5.242154,5.27475587 L5.242154,5.27475587 Z" id="Shape"></path>
                        </g>
                    </g>
                </g>
            </g>
        </g>
    </g>
</svg>