<?xml version="1.0" encoding="UTF-8"?>
<svg width="18px" height="20px" viewBox="0 0 18 20" version="1.1" xmlns="http://www.w3.org/2000/svg" xmlns:xlink="http://www.w3.org/1999/xlink">
    <!-- Generator: Sketch 48.2 (47327) - http://www.bohemiancoding.com/sketch -->
    <title>Artboard Copy 4</title>
    <desc>Created with Sketch.</desc>
    <defs></defs>
    <g id="Page-1" stroke="none" stroke-width="1" fill="none" fill-rule="evenodd">
        <g id="Artboard-Copy-4" fill="#B6B7BA" fill-rule="nonzero">
            <g id="Group-Copy" transform="translate(5.000000, 1.000000)">
                <path d="M5.29715197,17.9990141 C2.9485516,18.0370994 1.84950094,16.9717649 2,14.8030105 L2,5.03880076 C2,3.95143541 2.8658,3.06645616 3.9296,3.06645616 C5.0231,3.06645616 5.8889,3.95143541 5.8889,5.03880076 L5.8889,14.8448676 C5.8889,15.5104587 5.02265,15.6202602 4.86621094,14.8448676 L4.86621094,5.03880076 C4.86621094,4.71222318 4.87312773,4.05629164 4.08353652,4.05629164 C3.29394531,4.05629164 3.01379395,4.71222318 3.01379395,5.03880076 L3.01379395,14.8030105 C2.89413956,16.7462711 3.82724986,17.0076769 4.48730469,17.0076769 C4.74327849,17.0076769 5.14907426,17.0024124 5.36102629,17.0033978 C6.62855489,16.996748 7.58093262,16.8180218 7.58093262,14.494525 L7.58093262,4.3016247 C7.58093262,1.55356631 5.65414707,1.0038726 4.07824707,1.0038726 C2.50234707,1.0038726 0.972229004,2.69081528 0.972229004,4.3016247 L0.972229004,14.7239431 C0.972229004,15.0799379 0.887170682,15.2099395 0.468017578,15.2099395 C0.0508362048,15.2099395 0,14.8753788 0,14.494525 L0,4.3016247 C0,1.93002751 1.88775,0 4.2084,0 L4.2912,0 C6.6114,0 8.49915,1.92956754 8.49915,4.3016247 L8.49915,14.494525 C8.45521376,16.9672545 7.45557003,18.1057693 5.31192151,18 C5.30694273,17.9997543 5.3020199,17.9994251 5.29715197,17.9990141 Z" id="Combined-Shape"></path>
            </g>
        </g>
    </g>
</svg>