<?xml version="1.0" encoding="UTF-8"?>
<svg width="15px" height="15px" viewBox="0 0 15 15" version="1.1" xmlns="http://www.w3.org/2000/svg" xmlns:xlink="http://www.w3.org/1999/xlink">
    <!-- Generator: Sketch 46.1 (44463) - http://www.bohemiancoding.com/sketch -->
    <title>pin_privado</title>
    <desc>Created with Sketch.</desc>
    <defs></defs>
    <g id="Symbols" stroke="none" stroke-width="1" fill="none" fill-rule="evenodd">
        <g id="pin_privado">
            <g id="Group-3">
                <g id="locked-copy-13" transform="translate(2.000000, 1.000000)">
                    <g id="lock">
                        <g id="Group-12" fill="#FFFFFF">
                            <path  d="M0.229797363,10.9938558 C0.172492133,8.15110948 0.169236925,6.42242432 0.220031738,5.80780029 C0.224820764,5.74985244 0.109965007,4.46350098 1.97265625,4.63043213 C2.09298168,4.64121548 2.02048022,4.37659847 2.1101888,2.6473999 C2.1488387,1.90239483 2.75863225,0.369669596 5.06627401,0.369669596 C6.34926156,0.369669596 7.9486085,1.16409508 8.05592855,2.6473999 C8.08563956,3.05804535 8.08563956,3.71905609 8.05592855,4.63043213 C9.27934435,4.50680302 9.89105225,4.89925907 9.89105225,5.80780029 C9.89105225,7.18390556 9.89105225,9.91525362 9.89105225,10.5023193 C9.89105225,11.4497206 9.45573595,12.0409139 8.58510335,12.2758993 C4.54600016,12.2695245 2.16590034,12.2695245 1.44480387,12.2758993 C0.723707411,12.282274 0.318705241,11.8549262 0.229797363,10.9938558 Z M3.60168036,4.51262207 L6.41796875,4.51262207 C6.42049278,3.69322432 6.42049278,3.24508793 6.41796875,3.16821289 C6.3871582,2.22980957 5.82623516,1.80245564 4.96411133,1.84052734 C3.64445801,1.89880371 3.61585731,2.91688667 3.60168036,3.2070192 C3.59155339,3.41426846 3.59155339,3.84946942 3.60168036,4.51262207 Z" id="Path-4"></path>
                        </g>
                        <path class="fill" d="M8.28219467,4.9908289 L7.49913498,4.9908289 L7.49913498,3.29254704 C7.49913498,1.93658173 6.3960075,0.833333333 5.04016311,0.833333333 C3.68431872,0.833333333 2.58119124,1.93658173 2.58119124,3.29254704 L2.58119124,4.9908289 L1.79813155,4.9908289 C1.26621685,4.9908289 0.833333333,5.4235915 0.833333333,5.9555062 L0.833333333,10.7019894 C0.833333333,11.2339041 1.26609594,11.6666667 1.79813155,11.6666667 L8.28207375,11.6666667 C8.81398844,11.6666667 9.24687197,11.2339041 9.24687197,10.7019894 L9.24687197,5.95538528 C9.24687197,5.4235915 8.81410936,4.9908289 8.28219467,4.9908289 Z M3.06485998,3.29254704 C3.06485998,2.20320412 3.95094111,1.31700207 5.04016311,1.31700207 C6.12938511,1.31700207 7.01546624,2.20320412 7.01546624,3.29254704 L7.01546624,4.9908289 L3.06485998,4.9908289 L3.06485998,3.29254704 Z" id="Shape-Copy-4" fill="#F5A524" fill-rule="nonzero"></path>
                        <path d="M5,9.6 C5.22,9.6 5.4,9.42 5.4,9.2 L5.4,7.4 C5.4,7.18 5.22,7 5,7 C4.78,7 4.6,7.18 4.6,7.4 L4.6,9.2 C4.6,9.42 4.78,9.6 5,9.6 Z" id="Shape" fill="#FFFFFF" fill-rule="nonzero"></path>
                    </g>
                </g>
            </g>
        </g>
    </g>
</svg>