<?xml version="1.0" encoding="UTF-8"?>
<svg width="15px" height="15px" viewBox="0 0 15 15" version="1.1" xmlns="http://www.w3.org/2000/svg" xmlns:xlink="http://www.w3.org/1999/xlink">
    <!-- Generator: Sketch 46.1 (44463) - http://www.bohemiancoding.com/sketch -->
    <title>pin_solo_yo</title>
    <desc>Created with Sketch.</desc>
    <defs></defs>
    <g id="Symbols" stroke="none" stroke-width="1" fill="none" fill-rule="evenodd">
        <g id="pin_solo_yo">
            <g id="Group-3">
                <g id="Group-2-Copy-20" transform="translate(2.000000, 2.000000)">
                    <path class="line" d="M3.77731546,5.90342575 C3.12079808,6.11900808 2.44014661,6.45851715 1.83860427,6.9860652 C0.981043474,7.7381395 0.409716851,8.91279395 0.124624399,10.5100285 L11.8430364,10.5100285 C11.2616061,8.60520583 10.5410532,7.35167751 9.6813777,6.7494436 C9.29894671,6.48153678 8.91164,6.25335637 8.50614783,6.07022443 C9.23304992,5.43567014 9.69230769,4.502237 9.69230769,3.46153846 C9.69230769,1.54978356 8.14252413,0 6.23076923,0 C4.31901433,0 2.76923077,1.54978356 2.76923077,3.46153846 C2.76923077,4.41447427 3.15429565,5.27747335 3.77731546,5.90342575 Z" id="Combined-Shape" fill="#FFFFFF"></path>
                    <g id="Group" transform="translate(0.923077, 0.923077)" fill-rule="nonzero" fill="#F5A524">
                        <path class="fill" d="M5.30376541,0.03645089 C4.03198464,0.03645089 2.9960731,1.07237512 2.9960731,2.3441432 C2.9960731,3.61591012 4.03198464,4.65183551 5.30376541,4.65183551 C6.57554618,4.65183551 7.61145772,3.61591012 7.61145772,2.3441432 C7.61145772,1.07237512 6.57554618,0.03645089 5.30376541,0.03645089 Z M5.0769232,5.57491243 C7.50903789,5.57491243 9.50751571,6.96605144 9.92700394,8.7959439 L0.226842336,8.7959439 C0.646355622,6.96605144 2.64484641,5.57491243 5.07692333,5.57491243 L5.0769232,5.57491243 Z" id="Shape"></path>
                    </g>
                </g>
            </g>
        </g>
    </g>
</svg>