<?xml version="1.0" encoding="UTF-8"?>
<svg width="20px" height="20px" viewBox="0 0 20 20" version="1.1" xmlns="http://www.w3.org/2000/svg" xmlns:xlink="http://www.w3.org/1999/xlink">
    
    <g id="Symbols" stroke="none" stroke-width="1" fill="none" fill-rule="evenodd">
        <g id="icono_grabar_audio">
            <g id="Group-14" transform="translate(3.000000, 1.000000)" fill="#B6B7BA" fill-rule="nonzero">
                <path d="M12.750597,6 C12.4069516,6 12.1282433,6.22978795 12.1282433,6.51355161 L12.1282433,9.20538568 C12.1282433,11.1872333 9.24087084,12.7996602 6.83914466,12.7996602 C4.43741849,12.7996602 1.24470751,11.3237794 1.24470751,9.34193173 L1.24470751,6.6499021 C1.24470751,6.366334 0.966236198,6.13635049 0.622353748,6.13635049 C0.278708307,6.13635049 0,6.36613843 0,6.6499021 L0,9.34173616 C0,11.7162767 3.42046497,13.5408486 6.21655391,13.7970377 L6.21655391,16.8727012 L4.11770973,16.8727012 C3.77406428,16.8727012 3.49535597,17.1024891 3.49535597,17.3862528 C3.49535597,17.6698209 3.77382728,17.8998044 4.11770973,17.8998044 L9.55963161,17.8998044 C9.90327711,17.8998044 10.1819854,17.6700165 10.1819854,17.3862528 C10.1819854,17.1026847 9.90351401,16.8727012 9.55963161,16.8727012 L7.46078743,16.8727012 L7.46078743,13.7972332 C10.2568764,13.5408486 13.3720028,11.5797307 13.3720028,9.20538568 L13.3720028,6.51335605 C13.3729508,6.22978795 13.0942425,6 12.750597,6 Z" id="Shape"></path>
                <path d="M6.61871345,11.1643519 C8.61413878,11.1643519 10.2374269,9.93337769 10.2374269,8.42060558 L10.2374269,2.74374627 C10.2374269,1.23097416 8.61413878,0 6.61871345,0 C4.62328813,0 3,1.23097416 3,2.74374627 L3,8.42042541 C3,9.93337769 4.62328813,11.1643519 6.61871345,11.1643519 Z M4.24782403,2.74374627 C4.24782403,1.75258865 5.31148055,0.94611319 6.61871345,0.94611319 C7.92594636,0.94611319 8.98960287,1.75258865 8.98960287,2.74374627 L8.98960287,8.42042541 C8.98960287,9.41158303 7.92594636,10.2180585 6.61871345,10.2180585 C5.31148055,10.2180585 4.24782403,9.41158303 4.24782403,8.42042541 L4.24782403,2.74374627 Z" id="Shape"></path>
            </g>
            <path d="M7.24782403,3.74374627 C7.24782403,2.75258865 8.31148055,1.94611319 9.61871345,1.94611319 C10.9259464,1.94611319 11.9896029,2.75258865 11.9896029,3.74374627 L11.9896029,9.42042541 C11.9896029,10.411583 10.9259464,11.2180585 9.61871345,11.2180585 C8.31148055,11.2180585 7.24782403,10.411583 7.24782403,9.42042541 L7.24782403,3.74374627 Z" id="Shape-path-Copy" fill="#FFFFFF"></path>
        </g>
    </g>
</svg>