<?xml version="1.0" encoding="UTF-8"?>
<svg width="15px" height="15px" viewBox="0 0 15 15" version="1.1" xmlns="http://www.w3.org/2000/svg" xmlns:xlink="http://www.w3.org/1999/xlink">
    <!-- Generator: Sketch 47.1 (45422) - http://www.bohemiancoding.com/sketch -->
    <title>icon_all</title>
    <desc>Created with Sketch.</desc>
    <defs></defs>
    <g id="Symbols" stroke="none" stroke-width="1" fill="none" fill-rule="evenodd">
        <g id="icon_all" fill-rule="nonzero" fill="#4F5C69">
            <path d="M7.49973945,13.9496912 C7.46125363,13.9496912 7.42311768,13.9412943 7.3872559,13.9243255 L0.149997456,10.4961137 C0.0191456679,10.4341865 -0.036658771,10.2776192 0.025268412,10.1465925 C0.087195595,10.0157407 0.243413037,9.95958635 0.374789631,10.0218634 L7.49973945,13.3967199 L14.625389,10.0218634 C14.7562408,9.95976129 14.9129831,10.0157407 14.9747353,10.1467674 C15.0366625,10.2776192 14.980858,10.4341865 14.8498313,10.4961137 L7.61204807,13.9243255 C7.57653616,13.9412943 7.53822527,13.9496912 7.49973945,13.9496912 Z M7.49973945,11.0231945 C7.46125363,11.0231945 7.42311768,11.0147976 7.38743083,10.9978288 L0.150172391,7.57031668 C0.0191456679,7.50838949 -0.036658771,7.35182218 0.025268412,7.22097039 C0.087195595,7.08976873 0.243762908,7.03378936 0.374614696,7.09606641 L7.49956452,10.4703981 L14.6252141,7.09606641 C14.7560659,7.03396429 14.9128081,7.08994367 14.9745604,7.22097039 C15.0364875,7.35182218 14.9806831,7.50838949 14.8496564,7.57031668 L7.61204807,10.9980037 C7.57653616,11.0147976 7.53822527,11.0231945 7.49973945,11.0231945 Z M7.49973945,8.0359951 C7.46195338,8.0359951 7.42434223,8.02794806 7.38935512,8.01167906 L0.367092467,4.75612856 C0.274376628,4.71309442 0.215073479,4.62020364 0.215073479,4.51804128 C0.215073479,4.41587892 0.274376628,4.32298815 0.367092467,4.27995401 L7.38953006,1.02440351 C7.45950428,0.991865497 7.54014956,0.991865497 7.61029872,1.02440351 L14.6332611,4.27995401 C14.725977,4.32298815 14.7852801,4.41587892 14.7852801,4.51804128 C14.7852801,4.62020364 14.725977,4.71309442 14.6332611,4.75612856 L7.61029872,8.01167906 C7.57513667,8.02794806 7.53752553,8.0359951 7.49973945,8.0359951 Z M1.10129695,4.51804128 L7.49973945,7.48442332 L13.8988817,4.51804128 L7.49973945,1.55165924 L1.10129695,4.51804128 Z" id="Shape"></path>
        </g>
    </g>
</svg>