<?xml version="1.0" encoding="UTF-8"?>
<svg width="10px" height="8px" viewBox="0 0 10 8" version="1.1" xmlns="http://www.w3.org/2000/svg" xmlns:xlink="http://www.w3.org/1999/xlink">
    <!-- Generator: Sketch 50.2 (55047) - http://www.bohemiancoding.com/sketch -->
    <title>Combined Shape</title>
    <desc>Created with Sketch.</desc>
    <defs></defs>
    <g id="Symbols" stroke="none" stroke-width="1" fill="none" fill-rule="evenodd">
        <g id="message/respuesta" transform="translate(0.000000, -1.000000)" fill="#4648C7">
            <g id="Group-2">
                <path d="M4.69666798,3.76415872 L6.20658002,3.76415872 C8.21090869,3.76415872 8.85262859,4.52778017 9.098686,4.81862182 C9.71024159,5.54148498 10,6.49653065 10,7.34549937 C10,8.95592115 8.21090869,8.95592115 8.21090869,7.41314789 C8.21090869,6.7637062 8.22971991,5.61578443 5.64861717,5.61578443 L4.69666798,5.61578443 L4.69666798,6.83470866 C4.69666798,7.38699341 4.24895273,7.83470866 3.69666798,7.83470866 C3.48987425,7.83470866 3.2881662,7.77059858 3.11931956,7.65120655 L0.378292377,5.71301692 C-0.0726469532,5.39415619 -0.179717813,4.77010994 0.139142917,4.31917061 C0.203963077,4.22750062 0.283757666,4.14740083 0.375179529,4.08223118 L3.11620671,2.12830283 C3.56592548,1.80772292 4.19037593,1.91241065 4.51095584,2.36212941 C4.63174813,2.53158033 4.69666798,2.73449361 4.69666798,2.94259068 L4.69666798,3.76415872 Z" id="Combined-Shape"></path>
            </g>
        </g>
    </g>
</svg>