<?xml version="1.0" encoding="UTF-8"?>
<svg width="15px" height="15px" viewBox="0 0 15 15" version="1.1" xmlns="http://www.w3.org/2000/svg" xmlns:xlink="http://www.w3.org/1999/xlink">
    <!-- Generator: Sketch 51.3 (57544) - http://www.bohemiancoding.com/sketch -->
    <title>icon_tareas_inactivo</title>
    <desc>Created with Sketch.</desc>
    <defs></defs>
    <g id="icon_tareas_inactivo" stroke="none" stroke-width="1" fill="none" fill-rule="evenodd">
        <path d="M1,12.0050246 C1,12.5590513 1.44675367,13.0081787 1.99969585,13.0081787 L13.90089,13.0081787 C14.4530068,13.0081787 14.9005859,12.5521082 14.9005859,12.0050246 L14.9005859,2.00318336 C14.9005859,1.44915665 14.4538322,1.00002927 13.90089,1.00002927 L1.99969585,1.00002927 C1.44757908,1.00002927 1,1.45609974 1,2.00318336 L1,12.0050246 Z M1.98989899,11.0595135 C1.98989899,11.6104128 2.44265146,12.0570049 2.98575495,12.0570049 L12.9148309,12.0570049 C13.464827,12.0570049 13.9106869,11.6183275 13.9106869,11.0595135 L13.9106869,2.84527677 C13.9106869,2.29437748 13.4579344,1.84778537 12.9148309,1.84778537 L2.98575495,1.84778537 C2.43575889,1.84778537 1.98989899,2.28646277 1.98989899,2.84527677 L1.98989899,11.0595135 Z" id="Fill-1" fill="#4F5C69"></path>
        <polyline id="Path-18" stroke="#4F5C69" points="5 7.02021015 7.10431116 9 11 5"></polyline>
    </g>
</svg>