<?xml version="1.0" encoding="UTF-8"?>
<svg width="13px" height="15px" viewBox="0 0 13 15" version="1.1" xmlns="http://www.w3.org/2000/svg" xmlns:xlink="http://www.w3.org/1999/xlink">
    <!-- Generator: Sketch 49.3 (51167) - http://www.bohemiancoding.com/sketch -->
    <title>icono_acuerdos</title>
    <desc>Created with Sketch.</desc>
    <defs></defs>
    <g id="indice" stroke="none" stroke-width="1" fill="none" fill-rule="evenodd">
        <g id="02_indice_hover" transform="translate(-421.000000, -952.000000)" fill="#4F5C69">
            <g id="icono_acuerdos" transform="translate(421.000000, 952.000000)">
                <g id="Group">
                    <path d="M11.5555556,1.44444444 L8.53666667,1.44444444 C8.23333333,0.606666667 7.43888889,0 6.5,0 C5.56111111,0 4.76666667,0.606666667 4.46333333,1.44444444 L1.44444444,1.44444444 C0.65,1.44444444 0,2.09444444 0,2.88888889 L0,13 C0,13.7944444 0.65,14.4444444 1.44444444,14.4444444 L11.5555556,14.4444444 C12.35,14.4444444 13,13.7944444 13,13 L13,2.88888889 C13,2.09444444 12.35,1.44444444 11.5555556,1.44444444 L11.5555556,1.44444444 Z M6.5,1.44444444 C6.89722222,1.44444444 7.22222222,1.76944444 7.22222222,2.16666667 C7.22222222,2.56388889 6.89722222,2.88888889 6.5,2.88888889 C6.10277778,2.88888889 5.77777778,2.56388889 5.77777778,2.16666667 C5.77777778,1.76944444 6.10277778,1.44444444 6.5,1.44444444 L6.5,1.44444444 Z M7.94444444,11.5555556 L2.88888889,11.5555556 L2.88888889,10.1111111 L7.94444444,10.1111111 L7.94444444,11.5555556 L7.94444444,11.5555556 Z M10.1111111,8.66666667 L2.88888889,8.66666667 L2.88888889,7.22222222 L10.1111111,7.22222222 L10.1111111,8.66666667 L10.1111111,8.66666667 Z M10.1111111,5.77777778 L2.88888889,5.77777778 L2.88888889,4.33333333 L10.1111111,4.33333333 L10.1111111,5.77777778 L10.1111111,5.77777778 Z" id="Shape"></path>
                </g>
            </g>
        </g>
    </g>
</svg>