<?xml version="1.0" encoding="UTF-8"?>
<svg width="15px" height="15px" viewBox="0 0 15 15" version="1.1" xmlns="http://www.w3.org/2000/svg" xmlns:xlink="http://www.w3.org/1999/xlink">
    <!-- Generator: Sketch 51.3 (57544) - http://www.bohemiancoding.com/sketch -->
    <title>icono_tema_pendiente</title>
    <desc>Created with Sketch.</desc>
    <defs></defs>
    <g id="icono_tema_pendiente" stroke="none" stroke-width="1" fill="none" fill-rule="evenodd">
        <g id="Group-21">
            <g transform="translate(2.000000, 1.000000)">
                <g>
                    <g id="ico_tema_pendiente">
                        <g id="Group" fill="#4648C7">
                            <path d="M9.64929582,11.7419188 L5.58935814,9.85151701 L1.41515731,11.7419188 L1.41515731,2.28637443 C1.41515731,1.73254937 1.85786036,1.28358546 2.42482432,1.28358546 L8.63962881,1.28358546 C9.1972525,1.28358546 9.64929582,1.73296697 9.64929582,2.28637443 L9.64929582,11.7419188 Z" id="Path-Copy"></path>
                            <path d="M1.98921869,0.601599121 C1.21005202,0.601599121 0.579635354,1.23909912 0.579635354,2.01826579 L0.541666667,12.875 L5.5,10.75 L10.4583333,12.875 L10.4892187,2.01826579 C10.4892187,1.23909912 9.85171869,0.601599121 9.07255202,0.601599121 L1.98921869,0.601599121 Z M9.44610126,11.4838376 L5.58653846,9.68673503 L1.61835186,11.4838376 L1.61835186,2.54968845 C1.61835186,1.99297339 2.0616337,1.54166667 2.60974173,1.54166667 L8.45471139,1.54166667 C9.0022409,1.54166667 9.44610126,1.994696 9.44610126,2.54968845 L9.44610126,11.4838376 Z" id="Shape"></path>
                        </g>
                        <polygon id="+" fill="#FFFFFF" points="5.96593186 5.06842848 8 5.06842848 8 5.92013433 5.96593186 5.92013433 5.96593186 8 5.03406814 8 5.03406814 5.92013433 3 5.92013433 3 5.06842848 5.03406814 5.06842848 5.03406814 3 5.96593186 3"></polygon>
                    </g>
                </g>
            </g>
        </g>
    </g>
</svg>