<?xml version="1.0" encoding="UTF-8"?>
<svg width="8px" height="8px" viewBox="0 0 8 8" version="1.1" xmlns="http://www.w3.org/2000/svg" xmlns:xlink="http://www.w3.org/1999/xlink">
    <!-- Generator: Sketch 51.3 (57544) - http://www.bohemiancoding.com/sketch -->
    <title>Combined Shape</title>
    <desc>Created with Sketch.</desc>
    <defs></defs>
    <g id="bar_top" stroke="none" stroke-width="1" fill="none" fill-rule="evenodd">
        <g id="bar_top_anidados_04" transform="translate(-1223.000000, -1083.000000)" fill="#393A6F">
            <g id="ventana_flotante-copy" transform="translate(922.000000, 1077.000000)">
                <g id="icono_closed" transform="translate(295.000000, 0.000000)">
                    <path d="M9.44957103,9.72120343 L9.44957103,5.45505173 C9.44957103,5.2037336 9.65330463,5 9.90462276,5 C9.90670969,5 9.90879659,5.00001436 9.91088331,5.00004307 C10.1666793,5.00356261 10.3721956,5.21192611 10.3721956,5.4677463 L10.3721956,9.72120343 L14.5950753,9.72120343 C14.8187091,9.72120343 15,9.90249438 15,10.1261281 C15,10.1414068 14.9991353,10.1566732 14.9974099,10.1718542 C14.968233,10.4285753 14.7510144,10.622505 14.4926406,10.622505 L10.3721956,10.622505 L10.3721956,14.5398542 C10.3721956,14.7911723 10.168462,14.9949059 9.91714387,14.9949059 C9.91505694,14.9949059 9.91297004,14.9948916 9.91088331,14.9948629 C9.65508734,14.9913433 9.44957103,14.7829798 9.44957103,14.5271596 L9.44957103,10.622505 L5.40492466,10.622505 C5.18129095,10.622505 5,10.441214 5,10.2175803 C5,10.2023016 5.00086475,10.1870352 5.00259009,10.1718542 C5.03176695,9.91513315 5.24898562,9.72120343 5.50735937,9.72120343 L9.44957103,9.72120343 Z" id="Combined-Shape" transform="translate(10.000000, 9.997453) rotate(45.000000) translate(-10.000000, -9.997453) "></path>
                </g>
            </g>
        </g>
    </g>
</svg>