<?xml version="1.0" encoding="UTF-8"?>
<svg width="20px" height="26px" viewBox="0 0 20 26" version="1.1" xmlns="http://www.w3.org/2000/svg" xmlns:xlink="http://www.w3.org/1999/xlink">
    <!-- Generator: Sketch 43.1 (39012) - http://www.bohemiancoding.com/sketch -->
    <title>icono_texto_white</title>
    <desc>Created with Sketch.</desc>
    <defs></defs>
    <g id="Symbols" stroke="none" stroke-width="1" fill="none" fill-rule="evenodd">
        <g id="ico-text" fill="#FFFFFF">
            <path d="M6.77760523,7 C5.97447829,7 5,7.6936474 5,8.62947715 L5,10.4070824 C5,10.7033385 5.14813946,10.7033385 5.29626754,10.7033385 C5.59253508,10.7033385 5.59828398,10.3453927 5.59253508,10.2589429 L5.59253508,8.62947715 C5.74067454,7.74066315 6.33319823,7.88880262 7.07387277,7.88880262 L9.29587362,7.88880262 L9.29587362,18.2581665 L7.76451481,18.2581665 C7.64973035,18.2698578 7.37014031,18.2581665 7.37014031,18.7025621 C7.37014031,18.998841 7.67847484,19.0047834 7.76451481,18.998841 L11.9490192,18.998841 C12.0350591,18.998841 12.258549,18.998841 12.258549,18.7025621 C12.258549,18.2581665 12.0483328,18.2581665 11.9622815,18.2581665 L10.3328157,18.2581665 L10.3328157,7.88880262 L12.9992235,7.88880262 C14.0361656,7.88880262 14.0361656,8.48133769 14.0361656,8.62947715 L14.0361656,10.4070824 C14.0304053,10.4935322 14.0361656,10.7033385 14.3324332,10.7033385 C14.6287007,10.7033385 14.6287007,10.5273198 14.6287007,10.4408586 L14.6287007,8.67649291 C14.6877948,7.59253508 13.5060829,7 12.702956,7 L6.77760523,7 Z" id="Fill-1"></path>
        </g>
    </g>
</svg>