<?xml version="1.0" encoding="UTF-8"?>
<svg width="20px" height="20px" viewBox="0 0 20 20" version="1.1" xmlns="http://www.w3.org/2000/svg" xmlns:xlink="http://www.w3.org/1999/xlink">
    
    <g id="Symbols" stroke="none" stroke-width="1" fill="none" fill-rule="evenodd">
        <g id="menue_note" fill="#393A6F">
            <g transform="translate(10.000000, 10.500000) rotate(90.000000) translate(-10.000000, -10.500000) translate(4.000000, 9.000000)" id="Shape">
                <path d="M1.5,0 C0.675,0 8.8817842e-16,0.675 8.8817842e-16,1.5 C8.8817842e-16,2.325 0.675,3 1.5,3 C2.325,3 3,2.325 3,1.5 C3,0.675 2.325,0 1.5,0 L1.5,0 Z M10.5,0 C9.675,0 9,0.675 9,1.5 C9,2.325 9.675,3 10.5,3 C11.325,3 12,2.325 12,1.5 C12,0.675 11.325,0 10.5,0 L10.5,0 Z M6,0 C5.175,0 4.5,0.675 4.5,1.5 C4.5,2.325 5.175,3 6,3 C6.825,3 7.5,2.325 7.5,1.5 C7.5,0.675 6.825,0 6,0 L6,0 Z"></path>
            </g>
        </g>
    </g>
</svg>