<?xml version="1.0" encoding="UTF-8"?>
<svg width="13px" height="13px" viewBox="0 0 60 60" version="1.1" xmlns="http://www.w3.org/2000/svg" xmlns:xlink="http://www.w3.org/1999/xlink">
    <g id="Symbols" stroke="none" stroke-width="1" fill="none" fill-rule="evenodd">
        <g id="icon_share_users" fill="#4F5C69">
            <g id="Group-3">
                <path d="M30,18.5616631 C32.175,18.5616631 33.9375,20.3237491 33.9375,22.4982382 C33.9375,24.6727273 32.175,26.4348132 30,26.4348132 C27.825,26.4348132 26.0625,24.6727273 26.0625,22.4982382 C26.0625,20.3237491 27.825,18.5616631 30,18.5616631 L30,18.5616631 Z M30,35.4326991 C35.56875,35.4326991 41.4375,38.169556 41.4375,39.3692741 L41.4375,41.4312896 L18.5625,41.4312896 L18.5625,39.3692741 C18.5625,38.169556 24.43125,35.4326991 30,35.4326991 L30,35.4326991 Z M30,15 C25.85625,15 22.5,18.3554616 22.5,22.4982382 C22.5,26.6410148 25.85625,29.9964764 30,29.9964764 C34.14375,29.9964764 37.5,26.6410148 37.5,22.4982382 C37.5,18.3554616 34.14375,15 30,15 L30,15 Z M30,31.8710359 C24.99375,31.8710359 15,34.3829457 15,39.3692741 L15,44.9929528 L45,44.9929528 L45,39.3692741 C45,34.3829457 35.00625,31.8710359 30,31.8710359 L30,31.8710359 Z" id="Shape-Copy-5"></path>
                <polygon id="+-copy-3" points="8.83561644 13.6833612 5 13.6833612 5 11.4647044 8.83561644 11.4647044 8.83561644 7 11.0273973 7 11.0273973 11.4647044 15 11.4647044 15 13.6833612 11.0273973 13.6833612 11.0273973 18.1480656 8.83561644 18.1480656"></polygon>
                <path d="M0.662330223,23.7013158 C1.5306234,24.2602295 2.46244326,24.7289878 3.44456206,25.0943626 C3.1525662,26.6851836 3,28.3247749 3,30 C3,44.9116882 15.0883118,57 30,57 C44.9116882,57 57,44.9116882 57,30 C57,15.0883118 44.9116882,3 30,3 C26.9135556,3 23.9480684,3.51787977 21.1856942,4.47148369 C20.6791265,3.55913628 20.0769935,2.70717137 19.3928166,1.92911028 C22.6905983,0.682326808 26.2656162,0 30,0 C46.5685425,0 60,13.4314575 60,30 C60,46.5685425 46.5685425,60 30,60 C13.4314575,60 0,46.5685425 0,30 C0,27.8394879 0.228385184,25.7323181 0.662330223,23.7013158 Z" id="Combined-Shape-Copy-2"></path>
            </g>
        </g>
    </g>
</svg>