<?xml version="1.0" encoding="UTF-8"?>
<svg width="12px" height="9px" viewBox="0 0 12 9" version="1.1" xmlns="http://www.w3.org/2000/svg" xmlns:xlink="http://www.w3.org/1999/xlink">
    
    <g id="Symbols" stroke="none" stroke-width="1" fill="none" fill-rule="evenodd">
        <g id="icon_send_mail" fill="#4F5C69" fill-rule="nonzero">
            <path d="M10.6378378,0 L1.34054054,0 C0.605405405,0 0,0.605405405 0,1.34054054 L0,7.63243243 C0,8.36756757 0.605405405,8.97297297 1.34054054,8.97297297 L10.6594595,8.97297297 C11.3945946,8.97297297 12,8.36756757 12,7.63243243 L12,1.34054054 C11.9783784,0.605405405 11.372973,0 10.6378378,0 Z M10.6378378,0.648648649 C10.7027027,0.648648649 10.7459459,0.648648649 10.8108108,0.67027027 C9.77297297,1.70810811 6.35675676,5.16756757 6.14054054,5.38378378 C6.05405405,5.47027027 6.01081081,5.49189189 5.98918919,5.51351351 C5.96756757,5.49189189 5.92432432,5.47027027 5.83783784,5.38378378 C5.62162162,5.16756757 2.18378378,1.70810811 1.14594595,0.67027027 C1.21081081,0.648648649 1.25405405,0.648648649 1.31891892,0.648648649 L10.6378378,0.648648649 Z M0.88334817,8.08403953 C0.650840703,7.88524444 0.67027027,7.69423167 0.67027027,7.63243243 L0.67027027,1.34054054 C0.67027027,1.27567568 0.691891892,1.18918919 0.713513514,1.12432432 C1.72972973,2.14054054 5.21081081,5.64324324 5.40540541,5.83783784 C5.55675676,5.98918919 5.75135135,6.16216216 6.01081081,6.16216216 C6.27027027,6.16216216 6.46486486,5.98918919 6.61621622,5.83783784 C6.83243243,5.62162162 10.2918919,2.14054054 11.3081081,1.1027027 C11.3297297,1.16756757 11.3513514,1.25405405 11.3513514,1.31891892 L11.3513514,7.61081081 C11.3513514,7.661823 11.3513514,7.94293213 11.2099609,8.11328125 C11.0685705,8.28363037 10.7459459,8.28108108 10.6810811,8.28108108 C6.5674992,8.28108108 3.48231279,8.28108108 1.42552185,8.28108108 C1.39719475,8.28108108 1.13691711,8.30084229 0.88334817,8.08403953 Z" id="Shape-Copy-2"></path>
        </g>
    </g>
</svg>