<?xml version="1.0" encoding="UTF-8"?>
<svg width="12px" height="10px" viewBox="0 0 12 10" version="1.1" xmlns="http://www.w3.org/2000/svg" xmlns:xlink="http://www.w3.org/1999/xlink">
    
    <g id="Symbols" stroke="none" stroke-width="1" fill="none" fill-rule="evenodd">
        <g id="icon_export_pdf" fill="#4F5C69" fill-rule="nonzero">
            <path d="M10.5950413,9.71900826 C10.5950413,9.88429752 10.4628099,10 10.2975207,10 L2.28099174,10 C2.11570248,10 2,9.8677686 2,9.71900826 C2,9.55371901 2.1322314,9.43801653 2.28099174,9.43801653 L10.2975207,9.43801653 C10.4628099,9.43801653 10.5950413,9.55371901 10.5950413,9.71900826 Z M6.09917355,7.81818182 C6.14876033,7.8677686 6.23140496,7.90082645 6.29752066,7.90082645 C6.36363636,7.90082645 6.44628099,7.8677686 6.49586777,7.81818182 L8.7107438,5.60330579 C8.82644628,5.48760331 8.82644628,5.30578512 8.7107438,5.19008264 C8.59504132,5.07438017 8.41322314,5.07438017 8.29752066,5.19008264 L6.5785124,6.90909091 L6.5785124,0.280991736 C6.5785124,0.115702479 6.44628099,0 6.28099174,0 C6.11570248,0 6,0.132231405 6,0.280991736 L6,6.90909091 L4.28099174,5.19008264 C4.16528926,5.07438017 3.98347107,5.07438017 3.8677686,5.19008264 C3.75206612,5.30578512 3.75206612,5.48760331 3.8677686,5.60330579 L6.09917355,7.81818182 Z" id="Shape"></path>
        </g>
    </g>
</svg>