<?xml version="1.0" encoding="UTF-8"?>
<svg width="41px" height="47px" viewBox="0 0 41 47" version="1.1" xmlns="http://www.w3.org/2000/svg" xmlns:xlink="http://www.w3.org/1999/xlink">
    <!-- Generator: Sketch 51.3 (57544) - http://www.bohemiancoding.com/sketch -->
    <title>Group</title>
    <desc>Created with Sketch.</desc>
    <defs></defs>
    <g id="Symbols" stroke="none" stroke-width="1" fill="none" fill-rule="evenodd" opacity="0.7">
        <g id="nota_vacia" transform="translate(-130.000000, -158.000000)" fill="#3E4758" fill-rule="nonzero">
            <g id="Group" transform="translate(130.000000, 158.000000)">
                <path d="M39.4230769,0 L7.88461538,0 C7.01370482,0 6.30769231,0.701420559 6.30769231,1.56666667 L6.30769231,6.26666667 L1.57692308,6.26666667 C0.70601251,6.26666667 0,6.96808723 0,7.83333333 L0,45.4333333 C0,46.2985794 0.70601251,47 1.57692308,47 L33.1153846,47 C33.9862952,47 34.6923077,46.2985794 34.6923077,45.4333333 L34.6923077,40.7333333 L39.4230769,40.7333333 C40.2939875,40.7333333 41,40.0319128 41,39.1666667 L41,1.56666667 C41,0.701420559 40.2939875,0 39.4230769,0 Z M31.5384615,43.8666667 L3.15384615,43.8666667 L3.15384615,9.4 L6.30769231,9.4 L6.30769231,39.1666667 C6.30769231,40.0319128 7.01370482,40.7333333 7.88461538,40.7333333 L31.5384615,40.7333333 L31.5384615,43.8666667 Z M37.8461538,37.6 L9.46153846,37.6 L9.46153846,3.13333333 L37.8461538,3.13333333 L37.8461538,37.6 Z" id="Shape"></path>
                <path d="M17.6,15 L30.4,15 C31.2836556,15 32,14.3284271 32,13.5 C32,12.6715729 31.2836556,12 30.4,12 L17.6,12 C16.7163444,12 16,12.6715729 16,13.5 C16,14.3284271 16.7163444,15 17.6,15 Z" id="Shape"></path>
                <path d="M17.6,21 L30.4,21 C31.2836556,21 32,20.3284271 32,19.5 C32,18.6715729 31.2836556,18 30.4,18 L17.6,18 C16.7163444,18 16,18.6715729 16,19.5 C16,20.3284271 16.7163444,21 17.6,21 Z" id="Shape"></path>
                <path d="M17.6,28 L30.4,28 C31.2836556,28 32,27.3284271 32,26.5 C32,25.6715729 31.2836556,25 30.4,25 L17.6,25 C16.7163444,25 16,25.6715729 16,26.5 C16,27.3284271 16.7163444,28 17.6,28 Z" id="Shape"></path>
            </g>
        </g>
    </g>
</svg>