<?xml version="1.0" encoding="UTF-8"?>
<svg width="12px" height="13px" viewBox="0 0 12 13" version="1.1" xmlns="http://www.w3.org/2000/svg" xmlns:xlink="http://www.w3.org/1999/xlink">
    
    <g id="Recordatorio_v2" stroke="none" stroke-width="1" fill="none" fill-rule="evenodd">
        <g id="12_reminber_note-" transform="translate(-134.000000, -830.000000)" fill="#4F5C69" fill-rule="nonzero">
            <g id="Group-5" transform="translate(134.000000, 830.000000)">
                <g id="Group-11">
                    <path d="M0,8.49 L1,8.49 C1,10.01 1.9,11.42 3.24,12.02 L2.75,12.89 C1.1,12.11 0,10.35 0,8.49 Z M12,8.49 C12,10.35 10.9,12.11 9.25,12.89 L8.76,12.02 C10.1,11.42 11,10.01 11,8.49 L12,8.49 Z M11.38,3.67 C10.62,4.04 10.37,5.04 10.26,6.89 C10.13,9.05 9.51,11.02 6.99,11.42 C6.93,12.17 6.46,12.49 5.99,12.49 C5.52,12.49 5.07,12.15 5.01,11.42 C2.5,11.02 1.88,9.07 1.74,6.89 C1.63,5.16 1.43,4.05 0.62,3.66 C0.32,3.51 0.31,3.56 0.31,3 C0.31,2.49 0.31,2.49 0.82,2.49 L11.19,2.49 C11.7000327,2.49 11.7000327,2.49 11.7,3 C11.7,3.51 11.71,3.51 11.38,3.67 Z M1.96,3.49 C2.53,4.21 2.64,5.32 2.74,6.82 C2.92,9.62 3.84,10.49 6,10.49 C8.16,10.49 9.09,9.62 9.26,6.83 C9.35,5.32 9.47,4.21 10.05,3.49 L1.96,3.49 Z M5.99,0 C6.76,0 7.54,0.45 7.54,1.49 L4.46,1.49 C4.46,0.48 5.2,0 5.99,0 Z" id="Shape" transform="translate(6.000000, 6.445000) scale(-1, 1) rotate(-180.000000) translate(-6.000000, -6.445000) "></path>
                </g>
            </g>
        </g>
    </g>
</svg>