<?xml version="1.0" encoding="UTF-8"?>
<svg width="12px" height="13px" viewBox="0 0 12 13" version="1.1" xmlns="http://www.w3.org/2000/svg" xmlns:xlink="http://www.w3.org/1999/xlink">
    <g id="Symbols" stroke="none" stroke-width="1" fill="none" fill-rule="evenodd">
        <g id="icon_reminber" fill="#DDDDDD" fill-rule="nonzero">
            <path d="M0,8.56245151 L1,8.56245151 C1,10.0954228 1.9,11.5174554 3.24,12.1225756 L2.75,13 C1.1,12.2133437 0,10.4383243 0,8.56245151 Z M12,8.56245151 C12,10.4383243 10.9,12.2133437 9.25,13 L8.76,12.1225756 C10.1,11.5174554 11,10.0954228 11,8.56245151 L12,8.56245151 Z M11.38,3.70131885 C10.62,4.07447634 10.17,5.08301009 10.06,6.94879752 C9.93,9.12723041 9.47,11.1140419 6.99,11.5174554 C6.93,12.2738557 6.46,12.5965865 5.99,12.5965865 C5.52,12.5965865 5.07,12.253685 5.01,11.5174554 C2.54,11.1140419 2.08,9.14740109 1.94,6.94879752 C1.83,5.20403413 1.43,4.08456168 0.62,3.69123351 C0.32,3.53995345 0.31,3.59038014 0.31,3.02560124 C0.31,2.51124903 0.31,2.51124903 0.82,2.51124903 L11.19,2.51124903 C11.7000327,2.51124903 11.7000327,2.51124903 11.7,3.02560124 C11.7,3.53995345 11.71,3.53995345 11.38,3.70131885 Z M5.99,0 C6.76,0 7.54,0.453840186 7.54,1.50271528 L4.46,1.50271528 C4.46,0.484096199 5.2,0 5.99,0 Z" id="Shape" transform="translate(6.000000, 6.500000) scale(-1, 1) rotate(-180.000000) translate(-6.000000, -6.500000) "></path>
        </g>
    </g>
</svg>