<?xml version="1.0" encoding="UTF-8"?>
<svg width="10px" height="10px" viewBox="0 0 10 10" version="1.1" xmlns="http://www.w3.org/2000/svg" xmlns:xlink="http://www.w3.org/1999/xlink">
    
    <g id="Symbols" stroke="none" stroke-width="1" fill="none" fill-rule="evenodd">
        <g id="icon_agrer" fill="#595A9C">
            <path d="M4.2,4.2 L4.2,1 C4.2,0.5581722 4.5581722,0.2 5,0.2 C5.4418278,0.2 5.8,0.5581722 5.8,1 L5.8,4.2 L9,4.2 C9.4418278,4.2 9.8,4.5581722 9.8,5 C9.8,5.4418278 9.4418278,5.8 9,5.8 L5.8,5.8 L5.8,9 C5.8,9.4418278 5.4418278,9.8 5,9.8 C4.5581722,9.8 4.2,9.4418278 4.2,9 L4.2,5.8 L1,5.8 C0.5581722,5.8 0.2,5.4418278 0.2,5 C0.2,4.5581722 0.5581722,4.2 1,4.2 L4.2,4.2 Z" id="Combined-Shape"></path>
        </g>
    </g>
</svg>