<?xml version="1.0" encoding="UTF-8"?>
<svg width="13px" height="13px" viewBox="0 0 13 13" version="1.1" xmlns="http://www.w3.org/2000/svg" xmlns:xlink="http://www.w3.org/1999/xlink">
    
    <g id="Recordatorio_v2" stroke="none" stroke-width="1" fill="none" fill-rule="evenodd">
        <g id="12_reminber_note-" transform="translate(-134.000000, -784.000000)" fill="#4F5C69" fill-rule="nonzero">
            <g id="Group" transform="translate(134.000000, 784.000000)">
                <path d="M6.5,0.0797979661 C2.9128069,0.0797979661 0,2.94325068 0,6.46963729 C0,9.99598644 2.9128069,12.8594678 6.5,12.8594678 C10.0871931,12.8594678 13,9.99598644 13,6.46963729 C13,2.94325068 10.0871931,0.0797979661 6.5,0.0797979661 Z M6.5,1.42301887 C9.33746629,1.42301887 11.6336208,3.68026484 11.6336208,6.46963662 C11.6336208,9.25897288 9.33746629,11.5162469 6.5,11.5162469 C3.66253371,11.5162469 1.3663792,9.25897288 1.3663792,6.46963662 C1.3663792,3.68026484 3.66253371,1.42301887 6.5,1.42301887 Z M6.36560059,4.00085449 C6.03411865,4.00085449 6.03411865,4.26585776 6.03411865,4.38755098 L5.98815918,6.61962891 C5.98815918,6.66018597 6.57088216,7.13471396 7.73632813,8.04321289 C8.06271362,8.21810913 8.25512695,8.13296509 8.37640381,8.04321289 C8.49768066,7.95346069 8.58660889,7.79577637 8.37640381,7.54031372 L6.82788086,6.40002441 L6.82025146,4.38755098 C6.82025146,4.26585776 6.69708252,4.00085449 6.36560059,4.00085449 Z" id="Shape"></path>
            </g>
        </g>
    </g>
</svg>