<?xml version="1.0" encoding="UTF-8"?>
<svg width="12px" height="12px" viewBox="0 0 12 12" version="1.1" xmlns="http://www.w3.org/2000/svg" xmlns:xlink="http://www.w3.org/1999/xlink">
    
    <g id="Symbols" stroke="none" stroke-width="1" fill="none" fill-rule="evenodd">
        <g id="icon_share" fill="#3C4FBC" fill-rule="nonzero">
            <path d="M4.90579887,2.42145337 L6.15736736,1.16988488 L6.15736736,7.98334044 C6.15736736,8.17261071 6.31072973,8.32597308 6.5,8.32597308 C6.68927027,8.32597308 6.84263264,8.17261071 6.84263264,7.98334044 L6.84263264,1.16988488 L8.09420113,2.42145337 C8.16108302,2.48833526 8.24879698,2.52177621 8.33651093,2.52177621 C8.42422489,2.52177621 8.51180179,2.48833526 8.57882073,2.42145337 C8.71272157,2.28768959 8.71272157,2.0707346 8.57882073,1.93697082 L6.74272096,0.100733995 C6.68049887,0.0385119084 6.59470366,0 6.5,0 C6.40529634,0 6.31950113,0.0385119084 6.25727904,0.100733995 L4.42131632,1.93697082 C4.28741548,2.07087166 4.28741548,2.28782664 4.42131632,2.42145337 C4.55521715,2.55535421 4.77203509,2.55535421 4.90579887,2.42145337 Z M10.1091551,3.8203539 L7.85339892,3.8203539 C7.66412865,3.8203539 7.51076628,3.97371627 7.51076628,4.16298654 C7.51076628,4.35225681 7.66412865,4.50561918 7.85339892,4.50561918 L10.1091551,4.50561918 C10.222498,4.50561918 10.3147347,4.59785588 10.3147347,4.71119876 L10.3147347,10.8502162 C10.3147347,10.9635591 10.222498,11.0557958 10.1091551,11.0557958 L2.89084486,11.0557958 C2.77750198,11.0557958 2.68526527,10.9635591 2.68526527,10.8502162 L2.68526527,4.71119876 C2.68526527,4.59785588 2.77750198,4.50561918 2.89084486,4.50561918 L5.14660108,4.50561918 C5.33587135,4.50561918 5.48923372,4.35225681 5.48923372,4.16298654 C5.48923372,3.97371627 5.33587135,3.8203539 5.14660108,3.8203539 L2.89084486,3.8203539 C2.39964671,3.8203539 2,4.22000061 2,4.71119876 L2,10.8502162 C2,11.3414144 2.39964671,11.7410611 2.89084486,11.7410611 L10.1091551,11.7410611 C10.6003533,11.7410611 11,11.3414144 11,10.8502162 L11,4.71119876 C11,4.22000061 10.6003533,3.8203539 10.1091551,3.8203539 Z" id="Shape"></path>
        </g>
    </g>
</svg>