<?xml version="1.0" encoding="UTF-8"?>
<svg width="20px" height="15px" viewBox="0 0 20 15" version="1.1" xmlns="http://www.w3.org/2000/svg" xmlns:xlink="http://www.w3.org/1999/xlink">
    <!-- Generator: Sketch 43.1 (39012) - http://www.bohemiancoding.com/sketch -->
    <title>percentage_table</title>
    <desc>Created with Sketch.</desc>
    <defs></defs>
    <g id="Symbols" stroke="none" stroke-width="1" fill="none" fill-rule="evenodd">
        <g id="percentage_table" fill-rule="nonzero" fill="#4F5C69">
            <g id="ico-percentage-table" transform="translate(5.000000, 3.000000)">
                <path d="M9.36135357,0.564267857 C9.28601794,0.496395516 9.18376584,0.458298448 9.07716999,0.458386796 C8.97057414,0.458475145 8.86840017,0.496741645 8.79320357,0.56473875 L0.637598214,7.92481018 C0.480996887,8.06627151 0.481465389,8.29520398 0.638644643,8.43614518 C0.795823896,8.57708637 1.05019332,8.57666472 1.20679464,8.43520339 L9.3624,1.07561411 C9.43763198,1.00769367 9.47979016,0.915650149 9.4795939,0.819745854 C9.47939764,0.72384156 9.43686303,0.631938423 9.36135357,0.564267857 Z" id="Shape"></path>
                <path d="M2.261025,3.91741071 C3.44449232,3.91741071 4.40388214,3.05395987 4.40388214,1.98883929 C4.40388214,0.923718697 3.44449232,0.0602678571 2.261025,0.0602678571 C1.07755768,0.0602678571 0.118167857,0.923718697 0.118167857,1.98883929 C0.118167857,3.05395987 1.07755768,3.91741071 2.261025,3.91741071 L2.261025,3.91741071 Z M2.261025,0.703125 C3.05000321,0.703125 3.68959643,1.27875889 3.68959643,1.98883929 C3.68959643,2.69891968 3.05000321,3.27455357 2.261025,3.27455357 C1.47204679,3.27455357 0.832453571,2.69891968 0.832453571,1.98883929 C0.833339265,1.27908933 1.47241394,0.703922124 2.261025,0.703125 L2.261025,0.703125 Z" id="Shape"></path>
                <path d="M7.78461964,5.12276786 C6.60115232,5.12276786 5.6417625,5.9862187 5.6417625,7.05133929 C5.6417625,8.11645987 6.60115232,8.97991071 7.78461964,8.97991071 C8.96808696,8.97991071 9.92747679,8.11645987 9.92747679,7.05133929 C9.92747679,6.53985034 9.70171213,6.04931065 9.29984846,5.68763335 C8.89798479,5.32595605 8.35294069,5.12276786 7.78461964,5.12276786 L7.78461964,5.12276786 Z M7.78461964,8.33705357 C6.99564143,8.33705357 6.35604821,7.76141968 6.35604821,7.05133929 C6.35604821,6.34125889 6.99564143,5.765625 7.78461964,5.765625 C8.57359786,5.765625 9.21319107,6.34125889 9.21319107,7.05133929 C9.21230538,7.76108924 8.5732307,8.33625645 7.78461964,8.33705357 Z" id="Shape"></path>
            </g>
        </g>
    </g>
</svg>