<?xml version="1.0" encoding="UTF-8"?>
<svg width="20px" height="15px" viewBox="0 0 20 15" version="1.1" xmlns="http://www.w3.org/2000/svg" xmlns:xlink="http://www.w3.org/1999/xlink">
    <!-- Generator: Sketch 44 (41411) - http://www.bohemiancoding.com/sketch -->
    <title>tex_table</title>
    <desc>Created with Sketch.</desc>
    <defs>
        <polygon id="ico-text-table-path-1" points="1.61270966e-15 12.4192277 1.61270966e-15 0 9.72991275 0 9.72991275 12.4192277"></polygon>
    </defs>
    <g id="Symbols-ico-text-table" stroke="none" stroke-width="1" fill="none" fill-rule="evenodd">
        <g id="ico-text-table-wrapper">
            <g id="ico-text-table" transform="translate(5.000000, 1.000000)">
                <mask id="ico-text-table-mask-2" fill="white">
                    <use xlink:href="#ico-text-table-path-1"></use>
                </mask>
                <g id="Clip-2"></g>
                <path d="M7.78230303,0 L1.79593939,0 C0.984424242,0 -0.000121212121,0.718004435 -0.000121212121,1.68651885 L-0.000121212121,3.52607539 C-0.000121212121,3.83277162 0.149575758,3.83277162 0.299272727,3.83277162 C0.598666667,3.83277162 0.604424242,3.4621286 0.598666667,3.37272727 L0.598666667,1.68651885 C0.748363636,0.766740576 1.34684848,0.919778271 2.0950303,0.919778271 L4.34018182,0.919778271 L4.34018182,11.6513525 L2.79290909,11.6513525 L2.76381818,11.6513525 C2.67684848,11.663459 2.39442424,11.6513525 2.39442424,12.1117073 C2.39442424,12.4180931 2.70624242,12.4239911 2.79290909,12.4180931 L7.02048485,12.4180931 C7.10745455,12.4180931 7.33321212,12.4180931 7.33321212,12.1117073 C7.33321212,11.6513525 7.12078788,11.6513525 7.03412121,11.6513525 L5.38775758,11.6513525 L5.38775758,0.919778271 L8.08169697,0.919778271 C9.12927273,0.919778271 9.12927273,1.53286031 9.12927273,1.68651885 L9.12927273,3.52607539 C9.12351515,3.61547672 9.12927273,3.83277162 9.42866667,3.83277162 C9.72775758,3.83277162 9.72775758,3.65055432 9.72775758,3.56115299 L9.72775758,1.73525499 C9.78745455,0.613392461 8.59381818,0 7.78230303,0" id="Fill-1" fill="#475C6A" mask="url(#ico-text-table-mask-2)"></path>
            </g>
        </g>
    </g>
</svg>