<?xml version="1.0" encoding="UTF-8"?>
<svg width="14px" height="14px" viewBox="0 0 14 14" version="1.1" xmlns="http://www.w3.org/2000/svg" xmlns:xlink="http://www.w3.org/1999/xlink">
    <!-- Generator: Sketch 46.1 (44463) - http://www.bohemiancoding.com/sketch -->
    <title>icon_valorar</title>
    <desc>Created with Sketch.</desc>
    <defs></defs>
    <g id="Symbols" stroke="none" stroke-width="1" fill="none" fill-rule="evenodd">
        <g id="ico-qualify" fill-rule="nonzero" fill="#595A9C">
            <g id="Group-14" transform="translate(1.000000, 1.000000)">
                <g id="Group" transform="translate(2.500000, 4.000000) rotate(180.000000) translate(-2.500000, -4.000000) ">
                    <path d="M2.50057339,8 C2.55428119,7.99333333 2.64256376,7.97289334 2.68440349,7.94166668 L4.89037054,6.34166694 C5.0216164,6.24648029 5.0325815,6.07574699 4.93632806,5.96666701 C4.84007462,5.85758702 4.64302641,5.83773369 4.52271034,5.92500035 L2.79470155,7.17917347 L2.79470155,0.266666622 C2.79470155,0.119386647 2.66302037,0 2.50057339,0 C2.33812641,0 2.20644524,0.119386647 2.20644524,0.266666622 L2.20644524,7.17917347 L0.478442322,5.92500035 C0.3581292,5.83773369 0.167284146,5.86233369 0.0648246028,5.96666701 C-0.0422821651,6.07574699 -0.009530995,6.25440029 0.110782127,6.34166694 L2.31674329,7.94166668 C2.37768665,7.98681334 2.4230118,7.99638667 2.50057339,8 Z" id="Shape"></path>
                </g>
                <g id="Group-Copy-2" transform="translate(7.000000, 4.000000)">
                    <path d="M2.50057339,8 C2.55428119,7.99333333 2.64256376,7.97289334 2.68440349,7.94166668 L4.89037054,6.34166694 C5.0216164,6.24648029 5.0325815,6.07574699 4.93632806,5.96666701 C4.84007462,5.85758702 4.64302641,5.83773369 4.52271034,5.92500035 L2.79470155,7.17917347 L2.79470155,0.266666622 C2.79470155,0.119386647 2.66302037,0 2.50057339,0 C2.33812641,0 2.20644524,0.119386647 2.20644524,0.266666622 L2.20644524,7.17917347 L0.478442322,5.92500035 C0.3581292,5.83773369 0.167284146,5.86233369 0.0648246028,5.96666701 C-0.0422821651,6.07574699 -0.009530995,6.25440029 0.110782127,6.34166694 L2.31674329,7.94166668 C2.37768665,7.98681334 2.4230118,7.99638667 2.50057339,8 Z" id="Shape"></path>
                </g>
            </g>
        </g>
    </g>
</svg>