<?xml version="1.0" encoding="UTF-8"?>
<svg width="30px" height="30px" viewBox="0 0 30 30" version="1.1" xmlns="http://www.w3.org/2000/svg" xmlns:xlink="http://www.w3.org/1999/xlink">
    <!-- Generator: Sketch 43.1 (39012) - http://www.bohemiancoding.com/sketch -->
    <title>Group 7</title>
    <desc>Created with Sketch.</desc>
    <defs></defs>
    <g id="valoracion" stroke="none" stroke-width="1" fill="none" fill-rule="evenodd">
        <g id="valoracion_15" transform="translate(-901.000000, -359.000000)" fill="#EEEFF0">
            <g id="ico-add-icons" transform="translate(901.000000, 359.000000)">
                <path id="symbol-add" d="M15.7167648,14.5754798 L15.7167648,8.87735849 L14.6465893,8.87735849 L14.6465893,14.5754798 L8.94846799,14.5754798 L8.94846799,15.4245202 L14.6465893,15.4245202 L14.6465893,21.1226415 L15.7167648,21.1226415 L15.7167648,15.4245202 L21.193751,15.4245202 L21.193751,14.5754798 L15.7167648,14.5754798 Z" id="Combined-Shape"></path>
                <path d="M9.62264151,1 L9.62264151,1.55431223e-15 L3.00001915,3.55271368e-15 C1.34731857,3.55271368e-15 1.77635684e-15,1.34315432 1.77635684e-15,3.00001915 L1.77635684e-15,10.1886792 L1,10.1886792 L1,3.99649048 C1,2.34157448 2.3504982,1 3.99649048,1 L9.62264151,1 Z M9.62264151,29 L9.62264151,30 L3.00001915,30 C1.34315432,30 1.77635684e-15,28.6526814 1.77635684e-15,26.9999809 L1.77635684e-15,19.245283 L1,19.245283 L1,26.0035095 C1,27.6495018 2.34157448,29 3.99649048,29 L9.62264151,29 Z M20.3773585,1 L20.3773585,3.10862447e-15 L26.9999809,3.55271368e-15 C28.6568457,3.55271368e-15 30,1.34731857 30,3.00001915 L30,10.1886792 L29,10.1886792 L29,3.99649048 C29,2.3504982 27.6584255,1 26.0035095,1 L20.3773585,1 Z M20.3773585,29 L20.3773585,30 L26.9999809,30 C28.6526814,30 30,28.6568457 30,26.9999809 L30,19.245283 L29,19.245283 L29,26.0035095 C29,27.6584255 27.6495018,29 26.0035095,29 L20.3773585,29 Z" id="Combined-Shape"></path>
            </g>
        </g>
    </g>
</svg>