<?xml version="1.0" encoding="UTF-8"?>
<svg width="14px" height="14px" viewBox="0 0 14 14" version="1.1" xmlns="http://www.w3.org/2000/svg" xmlns:xlink="http://www.w3.org/1999/xlink">
    <!-- Generator: Sketch 46.1 (44463) - http://www.bohemiancoding.com/sketch -->
    <title>icon_calificar</title>
    <desc>Created with Sketch.</desc>
    <defs></defs>
    <g id="Symbols" stroke="none" stroke-width="1" fill="none" fill-rule="evenodd">
        <g id="ico-assess" fill-rule="nonzero" fill="#595A9C">
            <g id="Group" transform="translate(1.000000, 2.000000)">
                <path d="M3.1763449,1.70729382e-14 C2.36315994,1.70729382e-14 1.54917443,0.322696367 0.929264424,0.971445516 C-0.310540936,2.26894682 -0.308968431,4.38011061 0.929264424,5.67849043 L5.69592597,10.6764997 C5.85446301,10.8411668 6.14048729,10.8411668 6.29902433,10.6764997 C7.88925524,9.01230373 9.47992931,7.35207236 11.0701459,5.68787638 C12.3099514,4.39038259 12.3099514,2.27833126 11.0701459,0.980831463 C9.8303405,-0.316669838 7.81580499,-0.316687859 6.57598526,0.980831463 L6.00416544,1.58153207 L5.42342524,0.971445516 C4.80350108,0.322697869 3.98952986,0 3.1763449,0 L3.1763449,1.70729382e-14 Z M4.81586668,1.60968991 L5.70038616,2.53420569 C5.85892321,2.69886674 6.14494748,2.69886674 6.30348452,2.53420569 L7.18354381,1.61907586 C8.0972404,0.662865613 9.54890508,0.662880631 10.4625874,1.61907586 C11.3762697,2.57527259 11.3762697,4.0887558 10.4625874,5.04495102 C8.97312541,6.60371955 7.4891958,8.16506057 5.99970525,9.7238336 L1.53682312,5.04025054 C0.623684057,4.08276381 0.618680634,2.56588514 1.53239152,1.60968991 C2.50462816,0.686228361 3.91779507,0.646948549 4.81586668,1.60968991 Z" id="Shape"></path>
            </g>
        </g>
    </g>
</svg>