<?xml version="1.0" encoding="UTF-8"?>
<svg width="15px" height="15px" viewBox="0 0 15 15" version="1.1" xmlns="http://www.w3.org/2000/svg" xmlns:xlink="http://www.w3.org/1999/xlink">
    <!-- Generator: Sketch 51.3 (57544) - http://www.bohemiancoding.com/sketch -->
    <title>ico/tool_img</title>
    <desc>Created with Sketch.</desc>
    <defs></defs>
    <g id="ico/tool_img" stroke="none" stroke-width="1" fill="none" fill-rule="evenodd">
        <g fill="#4F5C69" id="Page-1-Copy">
            <g transform="translate(1.000000, 2.000000)">
                <path d="M0,10 L12.5,10 L12.5,0 L0,0 L0,10 Z M0.890159415,9.28788307 L11.6098406,9.28788307 L11.6098406,0.712116928 L0.890159415,0.712116928 L0.890159415,9.28788307 Z" id="Fill-1"></path>
                <polygon id="Fill-2" points="7.72309611 5.0384222 6.71871818 6.05044112 5.31256363 4.16666667 2.5 7.5 10 7.5"></polygon>
                <path d="M3.33333333,2.91672347 C3.33333333,3.14678482 3.14678482,3.33333333 2.91672347,3.33333333 C2.68654851,3.33333333 2.5,3.14678482 2.5,2.91672347 C2.5,2.68654851 2.68654851,2.5 2.91672347,2.5 C3.14678482,2.5 3.33333333,2.68654851 3.33333333,2.91672347" id="Fill-3"></path>
            </g>
        </g>
    </g>
</svg>