<?xml version="1.0" encoding="UTF-8"?>
<svg width="20px" height="15px" viewBox="0 0 20 15" version="1.1" xmlns="http://www.w3.org/2000/svg" xmlns:xlink="http://www.w3.org/1999/xlink">
    <!-- Generator: Sketch 51.3 (57544) - http://www.bohemiancoding.com/sketch -->
    <title>ico/tool_font_size</title>
    <desc>Created with Sketch.</desc>
    <defs></defs>
    <g id="ico/tool_font_size" stroke="none" stroke-width="1" fill="none" fill-rule="evenodd">
        <g fill="#4F5C69" fill-rule="nonzero" id="Group-8">
            <g transform="translate(1.000000, 2.000000)">
                <path d="M11.4691264,8.18181818 L10.812795,10 L9.16666667,10 L12.3841851,0 L14.4226176,0 L14.4140672,0.0236863311 L18.3333333,10 L16.5879517,10 L15.8375854,8.18181818 L11.4691264,8.18181818 Z M12.0196011,6.65688255 L15.2082424,6.65688255 L13.5073447,2.53550664 L12.0196011,6.65688255 Z" id="Combined-Shape"></path>
                <g id="Group-7" transform="translate(0.000000, 2.500000)">
                    <path d="M1.67451616,6.13636364 L1.19718424,7.5 L0,7.5 L2.34001341,0 L3.82250977,0 L3.81629133,0.0177647483 L6.66666667,7.5 L5.39729818,7.5 L4.8515773,6.13636364 L1.67451616,6.13636364 Z M2.0748614,4.99266191 L4.39387323,4.99266191 L3.15685674,1.90162998 L2.0748614,4.99266191 Z" id="Combined-Shape-Copy"></path>
                </g>
            </g>
        </g>
    </g>
</svg>