<?xml version="1.0" encoding="UTF-8"?>
<svg width="20px" height="20px" viewBox="0 0 20 20" version="1.1" xmlns="http://www.w3.org/2000/svg" xmlns:xlink="http://www.w3.org/1999/xlink">
    <!-- Generator: Sketch 48.2 (47327) - http://www.bohemiancoding.com/sketch -->
    <title>icono_play_b</title>
    <desc>Created with Sketch.</desc>
    <defs></defs>
    <g id="Symbols" stroke="none" stroke-width="1" fill="none" fill-rule="evenodd">
        <g id="icono_play_b" fill="#4F5C69" fill-rule="nonzero">
            <path d="M4.29369443,17.0158913 C4.38307969,17.0669686 4.48175173,17.0913464 4.58042377,17.0913464 C4.6837392,17.0913464 4.78705463,17.0634861 4.87876158,17.0089262 L16.4872369,10.043841 C16.6625249,9.93820391 16.7693229,9.75014661 16.7693229,9.54583744 C16.7693229,9.34152828 16.6625249,9.15347098 16.4872369,9.04783385 L4.87876158,2.08274866 C4.69883021,1.97478984 4.47594749,1.97246814 4.29369443,2.07578357 C4.11260221,2.179099 4,2.37179969 4,2.58075225 L4,16.5109226 C4,16.7198752 4.11260221,16.9125759 4.29369443,17.0158913 Z M5.16084753,3.60578062 L15.0605553,9.54583744 L5.16084753,15.4858943 L5.16084753,3.60578062 Z" id="Shape"></path>
        </g>
    </g>
</svg>