<?xml version="1.0" encoding="UTF-8"?>
<svg width="20px" height="20px" viewBox="0 0 20 20" version="1.1" xmlns="http://www.w3.org/2000/svg" xmlns:xlink="http://www.w3.org/1999/xlink">
    <!-- Generator: Sketch 48.2 (47327) - http://www.bohemiancoding.com/sketch -->
    <title>icono_imagen</title>
    <desc>Created with Sketch.</desc>
    <defs></defs>
    <g id="Symbols" stroke="none" stroke-width="1" fill="none" fill-rule="evenodd">
        <g id="icono_imagen" fill="#FFFFFF">
            <g id="Group" transform="translate(1.000000, 2.000000)">
                <circle id="Oval" cx="9.5" cy="9.5" r="2.8"></circle>
                <path d="M6.875,0.75 L5.27375,2.5 L2.5,2.5 C1.5375,2.5 0.75,3.2875 0.75,4.25 L0.75,14.75 C0.75,15.7125 1.5375,16.5 2.5,16.5 L16.5,16.5 C17.4625,16.5 18.25,15.7125 18.25,14.75 L18.25,4.25 C18.25,3.2875 17.4625,2.5 16.5,2.5 L13.72625,2.5 L12.125,0.75 L6.875,0.75 L6.875,0.75 Z M9.5,13.875 C7.085,13.875 5.125,11.915 5.125,9.5 C5.125,7.085 7.085,5.125 9.5,5.125 C11.915,5.125 13.875,7.085 13.875,9.5 C13.875,11.915 11.915,13.875 9.5,13.875 L9.5,13.875 Z" id="Shape"></path>
            </g>
        </g>
    </g>
</svg>