<?xml version="1.0" encoding="UTF-8"?>
<svg width="20px" height="20px" viewBox="0 0 20 20" version="1.1" xmlns="http://www.w3.org/2000/svg" xmlns:xlink="http://www.w3.org/1999/xlink">
    <!-- Generator: Sketch 48.2 (47327) - http://www.bohemiancoding.com/sketch -->
    <title>icono_duplicar</title>
    <desc>Created with Sketch.</desc>
    <defs></defs>
    <g id="Symbols" stroke="none" stroke-width="1" fill="none" fill-rule="evenodd">
        <g id="icono_duplicar" fill="#4F5C69" fill-rule="nonzero">
            <g id="noun_68759_cc" transform="translate(3.000000, 2.000000)">
                <path d="M11.625,14 L0.375,14 C0.168,14 0,13.8342105 0,13.6315789 L0,0.368421053 C0,0.165789474 0.168,0 0.375,0 L11.625,0 C11.83125,0 12,0.165789474 12,0.368421053 L12,13.6315789 C12,13.8342105 11.83125,14 11.625,14 Z M0.75,13.2631579 L11.25,13.2631579 L11.25,0.736842105 L0.75,0.736842105 L0.75,13.2631579 Z" id="Shape"></path>
                <path d="M14.625,17 L3.375,17 C3.168,17 3,16.8342105 3,16.6315789 L3,13.3157895 C3,13.1131579 3.168,12.9473684 3.375,12.9473684 C3.582,12.9473684 3.75,13.1131579 3.75,13.3157895 L3.75,16.2631579 L14.25,16.2631579 L14.25,3.73684211 L11.25,3.73684211 C11.04375,3.73684211 10.875,3.57105263 10.875,3.36842105 C10.875,3.16578947 11.04375,3 11.25,3 L14.625,3 C14.83125,3 15,3.16578947 15,3.36842105 L15,16.6315789 C15,16.8342105 14.83125,17 14.625,17 Z" id="Shape"></path>
                <path d="M3.38095238,13 C3.17066667,13 3,12.8333333 3,12.6296296 L3,11.8888889 C3,11.6851852 3.17066667,11.5185185 3.38095238,11.5185185 C3.5912381,11.5185185 3.76190476,11.6851852 3.76190476,11.8888889 L3.76190476,12.6296296 C3.76190476,12.8333333 3.5912381,13 3.38095238,13 Z M3.38095238,10.7777778 C3.17066667,10.7777778 3,10.6111111 3,10.4074074 L3,9.66666667 C3,9.46296296 3.17066667,9.2962963 3.38095238,9.2962963 C3.5912381,9.2962963 3.76190476,9.46296296 3.76190476,9.66666667 L3.76190476,10.4074074 C3.76190476,10.6111111 3.5912381,10.7777778 3.38095238,10.7777778 Z M3.38095238,8.55555556 C3.17066667,8.55555556 3,8.38888889 3,8.18518519 L3,7.44444444 C3,7.24074074 3.17066667,7.07407407 3.38095238,7.07407407 C3.5912381,7.07407407 3.76190476,7.24074074 3.76190476,7.44444444 L3.76190476,8.18518519 C3.76190476,8.38888889 3.5912381,8.55555556 3.38095238,8.55555556 Z M3.38095238,6.33333333 C3.17066667,6.33333333 3,6.16666667 3,5.96296296 L3,5.22222222 C3,5.01851852 3.17066667,4.85185185 3.38095238,4.85185185 C3.5912381,4.85185185 3.76190476,5.01851852 3.76190476,5.22222222 L3.76190476,5.96296296 C3.76190476,6.16666667 3.5912381,6.33333333 3.38095238,6.33333333 Z M3.38095238,4.11111111 C3.17066667,4.11111111 3,3.94444444 3,3.74074074 L3,3.37037037 C3,3.16666667 3.17066667,3 3.38095238,3 L3.76190476,3 C3.97219048,3 4.14285714,3.16666667 4.14285714,3.37037037 C4.14285714,3.57407407 3.97219048,3.74074074 3.76190476,3.74074074 C3.76190476,3.94444444 3.5912381,4.11111111 3.38095238,4.11111111 Z M10.6190476,3.74074074 L9.85714286,3.74074074 C9.64761905,3.74074074 9.47619048,3.57407407 9.47619048,3.37037037 C9.47619048,3.16666667 9.64761905,3 9.85714286,3 L10.6190476,3 C10.8285714,3 11,3.16666667 11,3.37037037 C11,3.57407407 10.8285714,3.74074074 10.6190476,3.74074074 Z M8.33333333,3.74074074 L7.57142857,3.74074074 C7.36114286,3.74074074 7.19047619,3.57407407 7.19047619,3.37037037 C7.19047619,3.16666667 7.36114286,3 7.57142857,3 L8.33333333,3 C8.54285714,3 8.71428571,3.16666667 8.71428571,3.37037037 C8.71428571,3.57407407 8.54285714,3.74074074 8.33333333,3.74074074 Z M6.04761905,3.74074074 L5.28571429,3.74074074 C5.07542857,3.74074074 4.9047619,3.57407407 4.9047619,3.37037037 C4.9047619,3.16666667 5.07542857,3 5.28571429,3 L6.04761905,3 C6.25790476,3 6.42857143,3.16666667 6.42857143,3.37037037 C6.42857143,3.57407407 6.25790476,3.74074074 6.04761905,3.74074074 Z" id="Shape"></path>
            </g>
        </g>
    </g>
</svg>